G04*
G04 #@! TF.GenerationSoftware,Altium Limited,Altium Designer,21.0.8 (223)*
G04*
G04 Layer_Physical_Order=2*
G04 Layer_Color=36540*
%FSLAX25Y25*%
%MOIN*%
G70*
G04*
G04 #@! TF.SameCoordinates,A399C05B-B16C-483E-863C-B068B867FB55*
G04*
G04*
G04 #@! TF.FilePolarity,Positive*
G04*
G01*
G75*
%ADD14C,0.01000*%
%ADD16C,0.02000*%
%ADD115C,0.03000*%
%ADD116C,0.01500*%
%ADD117C,0.01300*%
%ADD118R,0.05906X0.05906*%
%ADD119C,0.05906*%
%ADD121R,0.05906X0.05906*%
%ADD122C,0.01968*%
%ADD123C,0.02400*%
G36*
X323282Y164149D02*
X326874Y163676D01*
X330410Y162892D01*
X333865Y161803D01*
X337212Y160417D01*
X340425Y158744D01*
X343480Y156798D01*
X346354Y154592D01*
X349025Y152145D01*
X351473Y149474D01*
X353678Y146600D01*
X355624Y143545D01*
X357297Y140332D01*
X358683Y136985D01*
X359773Y133530D01*
X360557Y129993D01*
X361030Y126402D01*
X361167Y123263D01*
X361178Y122768D01*
X361178Y122768D01*
X361178Y122768D01*
X361178Y122768D01*
X361178Y122288D01*
Y20311D01*
X361153Y20164D01*
X361092Y19820D01*
X361092Y19819D01*
X361092D01*
X361114Y19355D01*
X361166Y18308D01*
X360969Y14301D01*
X360380Y10333D01*
X359406Y6441D01*
X358054Y2664D01*
X356339Y-962D01*
X354277Y-4403D01*
X351887Y-7625D01*
X349193Y-10598D01*
X346221Y-13292D01*
X342999Y-15681D01*
X339558Y-17744D01*
X335931Y-19459D01*
X332154Y-20810D01*
X328263Y-21785D01*
X324295Y-22374D01*
X324012Y-22387D01*
X323650Y-22043D01*
Y1310D01*
X321840Y3120D01*
X318620Y6340D01*
Y8940D01*
Y12320D01*
X317330Y13610D01*
X315630D01*
X313280Y11260D01*
Y-6820D01*
Y-9920D01*
X312570Y-10630D01*
X293040D01*
X291550Y-12120D01*
Y-13850D01*
Y-22523D01*
X185897D01*
X185824Y-22430D01*
X185931Y-21757D01*
X186222Y-21562D01*
X186720Y-20818D01*
X186894Y-19940D01*
X186720Y-19062D01*
X186222Y-18318D01*
X185478Y-17821D01*
X184600Y-17646D01*
X134380D01*
X116602Y132D01*
X115858Y630D01*
X114980Y804D01*
X114102Y630D01*
X113358Y132D01*
X112861Y-612D01*
X112686Y-1490D01*
X112861Y-2368D01*
X113358Y-3112D01*
X131808Y-21562D01*
X132099Y-21757D01*
X132206Y-22430D01*
X132133Y-22523D01*
X21342D01*
X21340Y-22494D01*
X20670Y-22523D01*
X18186D01*
X15757Y-22417D01*
X12115Y-21937D01*
X8528Y-21142D01*
X5024Y-20037D01*
X1630Y-18631D01*
X-1629Y-16935D01*
X-4728Y-14961D01*
X-7643Y-12724D01*
X-10352Y-10242D01*
X-12834Y-7533D01*
X-15070Y-4618D01*
X-17044Y-1520D01*
X-18741Y1739D01*
X-20147Y5133D01*
X-21252Y8637D01*
X-22047Y12224D01*
X-22526Y15867D01*
X-22603Y17625D01*
X-22603D01*
X-22633Y17653D01*
Y50853D01*
X-22337Y51001D01*
X-22132Y51029D01*
X-17632Y46528D01*
X-17053Y46141D01*
X-16370Y46006D01*
X7241D01*
X22508Y30738D01*
X22508Y30738D01*
X23087Y30351D01*
X23770Y30216D01*
X62992D01*
X63127Y30125D01*
X63888Y29974D01*
X64649Y30125D01*
X65294Y30556D01*
X65725Y31201D01*
X65876Y31962D01*
X65725Y32723D01*
X65294Y33368D01*
X64649Y33799D01*
X63888Y33950D01*
X63127Y33799D01*
X63105Y33784D01*
X24509D01*
X9242Y49052D01*
X8663Y49439D01*
X7980Y49574D01*
X-15631D01*
X-19136Y53079D01*
Y54834D01*
X-18636Y54934D01*
X-18374Y54303D01*
X-17781Y53529D01*
X-17007Y52936D01*
X-16107Y52563D01*
X-15140Y52435D01*
X-14173Y52563D01*
X-13273Y52936D01*
X-12499Y53529D01*
X-11906Y54303D01*
X-11533Y55203D01*
X-11405Y56170D01*
X-11533Y57137D01*
X-11906Y58037D01*
X-12499Y58811D01*
X-13273Y59404D01*
X-14173Y59777D01*
X-15140Y59905D01*
X-16107Y59777D01*
X-17007Y59404D01*
X-17781Y58811D01*
X-18374Y58037D01*
X-18636Y57406D01*
X-19136Y57506D01*
Y64181D01*
X-18636Y64280D01*
X-18593Y64177D01*
X-17959Y63351D01*
X-17133Y62717D01*
X-16172Y62319D01*
X-15640Y62249D01*
Y66170D01*
Y70091D01*
X-16172Y70021D01*
X-17133Y69623D01*
X-17959Y68989D01*
X-18593Y68163D01*
X-18636Y68060D01*
X-19136Y68159D01*
Y74834D01*
X-18636Y74934D01*
X-18374Y74303D01*
X-17781Y73529D01*
X-17007Y72936D01*
X-16107Y72563D01*
X-15140Y72435D01*
X-14173Y72563D01*
X-13273Y72936D01*
X-12499Y73529D01*
X-11906Y74303D01*
X-11533Y75203D01*
X-11405Y76170D01*
X-11462Y76603D01*
X-5748Y82318D01*
X-5251Y83062D01*
X-5076Y83940D01*
Y107240D01*
X14750Y127066D01*
X43557D01*
X43709Y126566D01*
X43394Y126356D01*
X42963Y125711D01*
X42812Y124950D01*
X42963Y124189D01*
X43394Y123544D01*
X44039Y123113D01*
X44800Y122962D01*
X45561Y123113D01*
X46206Y123544D01*
X46637Y124189D01*
X46788Y124950D01*
X46637Y125711D01*
X46206Y126356D01*
X45891Y126566D01*
X46043Y127066D01*
X46640D01*
X47518Y127241D01*
X48262Y127738D01*
X48759Y128482D01*
X48934Y129360D01*
X48759Y130238D01*
X48262Y130982D01*
X47518Y131479D01*
X46640Y131654D01*
X25734D01*
X25543Y132154D01*
X25887Y132669D01*
X26038Y133430D01*
X25887Y134191D01*
X25456Y134836D01*
X24811Y135267D01*
X24050Y135418D01*
X23289Y135267D01*
X22644Y134836D01*
X22213Y134191D01*
X22062Y133430D01*
X22213Y132669D01*
X22557Y132154D01*
X22366Y131654D01*
X13800D01*
X12922Y131479D01*
X12178Y130982D01*
X-8992Y109812D01*
X-9489Y109068D01*
X-9664Y108190D01*
Y84890D01*
X-14707Y79848D01*
X-15140Y79905D01*
X-16107Y79777D01*
X-17007Y79404D01*
X-17781Y78811D01*
X-18374Y78037D01*
X-18636Y77406D01*
X-19136Y77506D01*
Y84834D01*
X-18636Y84934D01*
X-18374Y84303D01*
X-17781Y83529D01*
X-17007Y82936D01*
X-16107Y82563D01*
X-15140Y82435D01*
X-14173Y82563D01*
X-13273Y82936D01*
X-12499Y83529D01*
X-11906Y84303D01*
X-11533Y85203D01*
X-11405Y86170D01*
X-11533Y87137D01*
X-11906Y88037D01*
X-12499Y88811D01*
X-13273Y89404D01*
X-14173Y89777D01*
X-15140Y89905D01*
X-16107Y89777D01*
X-17007Y89404D01*
X-17781Y88811D01*
X-18374Y88037D01*
X-18636Y87406D01*
X-19136Y87506D01*
Y89651D01*
X-16190Y92597D01*
X-16107Y92563D01*
X-15140Y92435D01*
X-14173Y92563D01*
X-13273Y92936D01*
X-12499Y93529D01*
X-11906Y94303D01*
X-11533Y95203D01*
X-11405Y96170D01*
X-11533Y97137D01*
X-11906Y98037D01*
X-12499Y98811D01*
X-13273Y99404D01*
X-14173Y99777D01*
X-15140Y99905D01*
X-16107Y99777D01*
X-17007Y99404D01*
X-17781Y98811D01*
X-18374Y98037D01*
X-18747Y97137D01*
X-18875Y96170D01*
X-18747Y95203D01*
X-18713Y95120D01*
X-22132Y91701D01*
X-22337Y91729D01*
X-22633Y91877D01*
Y123428D01*
X-22619Y123925D01*
D01*
X-22633Y124422D01*
Y124553D01*
X-22647Y124624D01*
X-22458Y128451D01*
X-21886Y132311D01*
X-20938Y136096D01*
X-19623Y139770D01*
X-17955Y143297D01*
X-15949Y146644D01*
X-13624Y149778D01*
X-11004Y152669D01*
X-8113Y155290D01*
X-4978Y157614D01*
X-1632Y159620D01*
X1896Y161289D01*
X5570Y162603D01*
X9355Y163551D01*
X13215Y164124D01*
X16483Y164285D01*
X16483Y164285D01*
Y164285D01*
X16492Y164293D01*
X319678Y164298D01*
X319713Y164305D01*
X323282Y164149D01*
D02*
G37*
%LPC*%
G36*
X284880Y162464D02*
X239720D01*
X238842Y162290D01*
X238098Y161792D01*
X237601Y161048D01*
X237426Y160170D01*
X237601Y159292D01*
X238098Y158548D01*
X238842Y158051D01*
X239720Y157876D01*
X284880D01*
X285758Y158051D01*
X286502Y158548D01*
X286999Y159292D01*
X287174Y160170D01*
X286999Y161048D01*
X286502Y161792D01*
X285758Y162290D01*
X284880Y162464D01*
D02*
G37*
G36*
X207985Y150309D02*
X207146Y150199D01*
X206364Y149875D01*
X205692Y149359D01*
X205176Y148688D01*
X204852Y147905D01*
X204742Y147066D01*
X204852Y146227D01*
X205176Y145445D01*
X205692Y144773D01*
X206364Y144257D01*
X207146Y143933D01*
X207985Y143823D01*
X208824Y143933D01*
X209607Y144257D01*
X210278Y144773D01*
X210794Y145445D01*
X211118Y146227D01*
X211228Y147066D01*
X211118Y147905D01*
X210794Y148688D01*
X210278Y149359D01*
X209607Y149875D01*
X208824Y150199D01*
X207985Y150309D01*
D02*
G37*
G36*
X176489D02*
X175650Y150199D01*
X174867Y149875D01*
X174196Y149359D01*
X173680Y148688D01*
X173356Y147905D01*
X173246Y147066D01*
X173356Y146227D01*
X173680Y145445D01*
X174196Y144773D01*
X174867Y144257D01*
X175650Y143933D01*
X176489Y143823D01*
X177328Y143933D01*
X178111Y144257D01*
X178782Y144773D01*
X179298Y145445D01*
X179622Y146227D01*
X179732Y147066D01*
X179622Y147905D01*
X179298Y148688D01*
X178782Y149359D01*
X178111Y149875D01*
X177328Y150199D01*
X176489Y150309D01*
D02*
G37*
G36*
X300198Y146496D02*
X299437Y146344D01*
X298792Y145913D01*
X298361Y145268D01*
X298209Y144508D01*
X298361Y143747D01*
X298792Y143102D01*
X299437Y142671D01*
X300198Y142519D01*
X300958Y142671D01*
X301603Y143102D01*
X302034Y143747D01*
X302186Y144508D01*
X302034Y145268D01*
X301603Y145913D01*
X300958Y146344D01*
X300198Y146496D01*
D02*
G37*
G36*
X338583Y152357D02*
X336920Y152227D01*
X335299Y151838D01*
X333759Y151199D01*
X332337Y150328D01*
X331069Y149246D01*
X329987Y147978D01*
X329116Y146556D01*
X328477Y145016D01*
X328088Y143394D01*
X327957Y141732D01*
X328088Y140070D01*
X328477Y138449D01*
X329116Y136908D01*
X329987Y135487D01*
X331069Y134219D01*
X332337Y133136D01*
X333759Y132265D01*
X335299Y131627D01*
X336920Y131238D01*
X338583Y131107D01*
X340245Y131238D01*
X341866Y131627D01*
X343406Y132265D01*
X344828Y133136D01*
X346096Y134219D01*
X347179Y135487D01*
X348050Y136908D01*
X348688Y138449D01*
X349077Y140070D01*
X349208Y141732D01*
X349077Y143394D01*
X348688Y145016D01*
X348050Y146556D01*
X347179Y147978D01*
X346096Y149246D01*
X344828Y150328D01*
X343406Y151199D01*
X341866Y151838D01*
X340245Y152227D01*
X338583Y152357D01*
D02*
G37*
G36*
X0D02*
X-1662Y152227D01*
X-3283Y151838D01*
X-4824Y151199D01*
X-6245Y150328D01*
X-7513Y149246D01*
X-8596Y147978D01*
X-9467Y146556D01*
X-10105Y145016D01*
X-10494Y143394D01*
X-10625Y141732D01*
X-10494Y140070D01*
X-10105Y138449D01*
X-9467Y136908D01*
X-8596Y135487D01*
X-7513Y134219D01*
X-6245Y133136D01*
X-4824Y132265D01*
X-3283Y131627D01*
X-1662Y131238D01*
X0Y131107D01*
X1662Y131238D01*
X3283Y131627D01*
X4824Y132265D01*
X6245Y133136D01*
X7513Y134219D01*
X8596Y135487D01*
X9467Y136908D01*
X10105Y138449D01*
X10494Y140070D01*
X10625Y141732D01*
X10494Y143394D01*
X10105Y145016D01*
X9467Y146556D01*
X8596Y147978D01*
X7513Y149246D01*
X6245Y150328D01*
X4824Y151199D01*
X3283Y151838D01*
X1662Y152227D01*
X0Y152357D01*
D02*
G37*
G36*
X233740Y128398D02*
X232979Y128247D01*
X232519Y127939D01*
X189531D01*
X189071Y128247D01*
X188310Y128398D01*
X187549Y128247D01*
X186904Y127816D01*
X186473Y127171D01*
X186322Y126410D01*
X186473Y125649D01*
X186904Y125004D01*
X187549Y124573D01*
X188310Y124422D01*
X189071Y124573D01*
X189531Y124881D01*
X232519D01*
X232979Y124573D01*
X233740Y124422D01*
X234501Y124573D01*
X235146Y125004D01*
X235577Y125649D01*
X235728Y126410D01*
X235577Y127171D01*
X235146Y127816D01*
X234501Y128247D01*
X233740Y128398D01*
D02*
G37*
G36*
X117384Y127884D02*
X116623Y127733D01*
X115978Y127302D01*
X115695Y126878D01*
X115114Y126848D01*
X114853Y127239D01*
X114208Y127670D01*
X113447Y127821D01*
X112686Y127670D01*
X112041Y127239D01*
X111610Y126594D01*
X111459Y125833D01*
X111610Y125072D01*
X112041Y124427D01*
X112686Y123996D01*
X113447Y123845D01*
X114208Y123996D01*
X114853Y124427D01*
X115136Y124851D01*
X115717Y124881D01*
X115978Y124490D01*
X116623Y124059D01*
X117384Y123908D01*
X118145Y124059D01*
X118790Y124490D01*
X119221Y125135D01*
X119372Y125896D01*
X119221Y126657D01*
X118790Y127302D01*
X118145Y127733D01*
X117384Y127884D01*
D02*
G37*
G36*
X203670Y119898D02*
X202909Y119747D01*
X202449Y119439D01*
X193721D01*
X193261Y119747D01*
X192500Y119898D01*
X191739Y119747D01*
X191094Y119316D01*
X190663Y118671D01*
X190512Y117910D01*
X190663Y117149D01*
X191094Y116504D01*
X191739Y116073D01*
X192500Y115922D01*
X193261Y116073D01*
X193721Y116381D01*
X202449D01*
X202909Y116073D01*
X203670Y115922D01*
X204431Y116073D01*
X205076Y116504D01*
X205507Y117149D01*
X205658Y117910D01*
X205507Y118671D01*
X205076Y119316D01*
X204431Y119747D01*
X203670Y119898D01*
D02*
G37*
G36*
X124196Y120654D02*
X123435Y120503D01*
X122790Y120072D01*
X122359Y119427D01*
X122208Y118666D01*
X122359Y117905D01*
X122790Y117260D01*
X123435Y116829D01*
X124196Y116678D01*
X124957Y116829D01*
X125602Y117260D01*
X126033Y117905D01*
X126184Y118666D01*
X126033Y119427D01*
X125602Y120072D01*
X124957Y120503D01*
X124196Y120654D01*
D02*
G37*
G36*
X43574D02*
X42813Y120503D01*
X42168Y120072D01*
X41737Y119427D01*
X41586Y118666D01*
X41737Y117905D01*
X42168Y117260D01*
X42813Y116829D01*
X43574Y116678D01*
X44335Y116829D01*
X44980Y117260D01*
X45411Y117905D01*
X45562Y118666D01*
X45411Y119427D01*
X44980Y120072D01*
X44335Y120503D01*
X43574Y120654D01*
D02*
G37*
G36*
X249720Y128088D02*
X248959Y127937D01*
X248314Y127506D01*
X247883Y126861D01*
X247775Y126318D01*
X235476Y114019D01*
X206844D01*
X206384Y114327D01*
X205623Y114478D01*
X204862Y114327D01*
X204217Y113896D01*
X203786Y113251D01*
X203635Y112490D01*
X203786Y111729D01*
X204217Y111084D01*
X204862Y110653D01*
X205623Y110502D01*
X206384Y110653D01*
X206844Y110961D01*
X231179D01*
X231331Y110461D01*
X231234Y110396D01*
X230803Y109751D01*
X230652Y108990D01*
X230803Y108229D01*
X231234Y107584D01*
X231879Y107153D01*
X232640Y107002D01*
X233401Y107153D01*
X233861Y107461D01*
X263070D01*
X263655Y107577D01*
X264151Y107909D01*
X274258Y118015D01*
X274801Y118123D01*
X275446Y118554D01*
X275877Y119199D01*
X276028Y119960D01*
X275877Y120721D01*
X275446Y121366D01*
X274801Y121797D01*
X274040Y121948D01*
X273279Y121797D01*
X272634Y121366D01*
X272203Y120721D01*
X272095Y120178D01*
X262437Y110519D01*
X236455D01*
X236405Y111019D01*
X236695Y111077D01*
X237191Y111409D01*
X249938Y124155D01*
X250481Y124263D01*
X251126Y124694D01*
X251557Y125339D01*
X251708Y126100D01*
X251557Y126861D01*
X251126Y127506D01*
X250481Y127937D01*
X249720Y128088D01*
D02*
G37*
G36*
X29051Y117648D02*
X28290Y117496D01*
X27645Y117065D01*
X27214Y116420D01*
X27062Y115659D01*
X27214Y114899D01*
X27645Y114253D01*
X28290Y113822D01*
X29051Y113671D01*
X29811Y113822D01*
X30457Y114253D01*
X30887Y114899D01*
X31039Y115659D01*
X30887Y116420D01*
X30457Y117065D01*
X29811Y117496D01*
X29051Y117648D01*
D02*
G37*
G36*
X111479Y114480D02*
X110718Y114328D01*
X110073Y113897D01*
X109642Y113252D01*
X109490Y112491D01*
X109642Y111731D01*
X110073Y111085D01*
X110718Y110654D01*
X111479Y110503D01*
X112240Y110654D01*
X112884Y111085D01*
X113150Y111483D01*
X113733Y111462D01*
X114010Y111048D01*
X114655Y110617D01*
X115416Y110466D01*
X116176Y110617D01*
X116822Y111048D01*
X117253Y111694D01*
X117404Y112454D01*
X117253Y113215D01*
X116822Y113860D01*
X116176Y114291D01*
X115416Y114443D01*
X114655Y114291D01*
X114010Y113860D01*
X113744Y113463D01*
X113161Y113483D01*
X112884Y113897D01*
X112240Y114328D01*
X111479Y114480D01*
D02*
G37*
G36*
X93762Y114006D02*
X93001Y113855D01*
X92356Y113424D01*
X91925Y112779D01*
X91774Y112018D01*
X91925Y111257D01*
X92356Y110612D01*
X93001Y110181D01*
X93762Y110030D01*
X94523Y110181D01*
X95168Y110612D01*
X95599Y111257D01*
X95750Y112018D01*
X95599Y112779D01*
X95168Y113424D01*
X94523Y113855D01*
X93762Y114006D01*
D02*
G37*
G36*
X70722Y112780D02*
X69961Y112629D01*
X69316Y112198D01*
X68885Y111553D01*
X68734Y110792D01*
X68885Y110031D01*
X69316Y109386D01*
X69961Y108955D01*
X70722Y108804D01*
X71483Y108955D01*
X72128Y109386D01*
X72559Y110031D01*
X72710Y110792D01*
X72559Y111553D01*
X72128Y112198D01*
X71483Y112629D01*
X70722Y112780D01*
D02*
G37*
G36*
X288450Y112688D02*
X287689Y112537D01*
X287044Y112106D01*
X286613Y111461D01*
X286462Y110700D01*
X286613Y109939D01*
X287044Y109294D01*
X287689Y108863D01*
X288450Y108712D01*
X289211Y108863D01*
X289856Y109294D01*
X290287Y109939D01*
X290438Y110700D01*
X290287Y111461D01*
X289856Y112106D01*
X289211Y112537D01*
X288450Y112688D01*
D02*
G37*
G36*
X-11437Y109873D02*
X-18843D01*
Y102467D01*
X-11437D01*
Y109873D01*
D02*
G37*
G36*
X70930Y104828D02*
X70169Y104677D01*
X69524Y104246D01*
X69093Y103601D01*
X68942Y102840D01*
X69093Y102079D01*
X69524Y101434D01*
X70169Y101003D01*
X70930Y100852D01*
X71691Y101003D01*
X72336Y101434D01*
X72767Y102079D01*
X72918Y102840D01*
X72767Y103601D01*
X72336Y104246D01*
X71691Y104677D01*
X70930Y104828D01*
D02*
G37*
G36*
X356693Y110103D02*
X349287D01*
Y102697D01*
X354169D01*
X356876Y99991D01*
Y98001D01*
X356376Y97902D01*
X356224Y98267D01*
X355631Y99041D01*
X354857Y99634D01*
X353957Y100007D01*
X352990Y100135D01*
X352023Y100007D01*
X351123Y99634D01*
X350349Y99041D01*
X349756Y98267D01*
X349718Y98177D01*
X293022D01*
X292943Y98229D01*
X292182Y98381D01*
X291422Y98229D01*
X290777Y97798D01*
X290346Y97153D01*
X290194Y96392D01*
X290346Y95632D01*
X290777Y94987D01*
X291422Y94556D01*
X292182Y94404D01*
X292943Y94556D01*
X293022Y94608D01*
X349724D01*
X349756Y94533D01*
X350349Y93759D01*
X351123Y93166D01*
X352023Y92793D01*
X352990Y92665D01*
X353957Y92793D01*
X354857Y93166D01*
X355631Y93759D01*
X356224Y94533D01*
X356376Y94898D01*
X356876Y94799D01*
Y88001D01*
X356376Y87902D01*
X356224Y88267D01*
X355631Y89041D01*
X354857Y89634D01*
X353957Y90007D01*
X352990Y90135D01*
X352023Y90007D01*
X351123Y89634D01*
X350349Y89041D01*
X350083Y88694D01*
X236270D01*
X224482Y100482D01*
X223738Y100979D01*
X222860Y101154D01*
X137940D01*
X137062Y100979D01*
X136318Y100482D01*
X135821Y99738D01*
X135646Y98860D01*
X135821Y97982D01*
X136318Y97238D01*
X136643Y97021D01*
X136962Y96666D01*
X136771Y96380D01*
X136465Y95922D01*
X136290Y95044D01*
X136465Y94166D01*
X136962Y93422D01*
X137706Y92925D01*
X138584Y92750D01*
X218516D01*
X221591Y89675D01*
X221384Y89174D01*
X86920D01*
X86432Y89078D01*
X86019Y88801D01*
X72215Y74997D01*
X72060Y75028D01*
X71299Y74877D01*
X70654Y74446D01*
X70223Y73801D01*
X70072Y73040D01*
X70223Y72279D01*
X70654Y71634D01*
X71066Y71359D01*
X71091Y70774D01*
X71064Y70756D01*
X70633Y70111D01*
X70482Y69350D01*
X70633Y68589D01*
X71064Y67944D01*
X71709Y67513D01*
X72470Y67362D01*
X73231Y67513D01*
X73876Y67944D01*
X74307Y68589D01*
X74458Y69350D01*
X74427Y69505D01*
X89798Y84876D01*
X219712D01*
X235341Y69246D01*
X235150Y68784D01*
X182879D01*
X182801Y68837D01*
X182040Y68988D01*
X181279Y68837D01*
X180634Y68406D01*
X180203Y67761D01*
X180052Y67000D01*
X180203Y66239D01*
X180634Y65594D01*
X181279Y65163D01*
X182040Y65012D01*
X182801Y65163D01*
X182879Y65216D01*
X239911D01*
X239989Y65163D01*
X240750Y65012D01*
X241511Y65163D01*
X242156Y65594D01*
X242587Y66239D01*
X242738Y67000D01*
X242604Y67676D01*
X242865Y68176D01*
X268106D01*
X268194Y68044D01*
X268839Y67613D01*
X269600Y67462D01*
X270361Y67613D01*
X271006Y68044D01*
X271437Y68689D01*
X271588Y69450D01*
X271437Y70211D01*
X271006Y70856D01*
X270361Y71287D01*
X269600Y71438D01*
X268839Y71287D01*
X268194Y70856D01*
X268106Y70724D01*
X267614D01*
X267462Y71224D01*
X267926Y71534D01*
X268357Y72179D01*
X268508Y72940D01*
X268357Y73701D01*
X267926Y74346D01*
X267281Y74777D01*
X266520Y74928D01*
X265759Y74777D01*
X265114Y74346D01*
X265026Y74215D01*
X237478D01*
X231820Y79873D01*
X232044Y80356D01*
X329864D01*
X329997Y79856D01*
X329339Y79351D01*
X328746Y78577D01*
X328373Y77677D01*
X328245Y76710D01*
X328373Y75743D01*
X328746Y74843D01*
X329339Y74069D01*
X330113Y73476D01*
X331013Y73103D01*
X331980Y72975D01*
X332947Y73103D01*
X333847Y73476D01*
X334621Y74069D01*
X335214Y74843D01*
X335587Y75743D01*
X335715Y76710D01*
X335587Y77677D01*
X335214Y78577D01*
X334621Y79351D01*
X333963Y79856D01*
X334096Y80356D01*
X345790D01*
X349312Y76833D01*
X349255Y76400D01*
X349383Y75433D01*
X349756Y74533D01*
X350349Y73759D01*
X351123Y73166D01*
X352023Y72793D01*
X352990Y72665D01*
X353957Y72793D01*
X354857Y73166D01*
X355631Y73759D01*
X356224Y74533D01*
X356376Y74898D01*
X356876Y74799D01*
Y68614D01*
X356727Y68538D01*
X356376Y68481D01*
X355809Y69219D01*
X354983Y69853D01*
X354022Y70251D01*
X353490Y70321D01*
Y66400D01*
Y62479D01*
X354022Y62549D01*
X354983Y62947D01*
X355809Y63581D01*
X356376Y64319D01*
X356727Y64262D01*
X356876Y64186D01*
Y58001D01*
X356376Y57902D01*
X356224Y58267D01*
X355631Y59041D01*
X354857Y59634D01*
X353957Y60007D01*
X352990Y60135D01*
X352023Y60007D01*
X351123Y59634D01*
X350349Y59041D01*
X349756Y58267D01*
X349383Y57367D01*
X349255Y56400D01*
X349383Y55433D01*
X349417Y55350D01*
X346261Y52194D01*
X293946D01*
X293860Y52476D01*
X293817Y52694D01*
X294302Y53420D01*
X294477Y54298D01*
X294302Y55176D01*
X293805Y55920D01*
X293060Y56417D01*
X292182Y56592D01*
X176328D01*
X175450Y56417D01*
X174705Y55920D01*
X174208Y55176D01*
X174033Y54298D01*
X174208Y53420D01*
X174693Y52694D01*
X174650Y52476D01*
X174564Y52194D01*
X36499D01*
X23485Y65208D01*
X23467Y65301D01*
X23036Y65946D01*
X22391Y66377D01*
X21630Y66528D01*
X20869Y66377D01*
X20224Y65946D01*
X19793Y65301D01*
X19642Y64540D01*
X19793Y63779D01*
X20224Y63134D01*
X20869Y62703D01*
X20962Y62685D01*
X33740Y49906D01*
X33549Y49444D01*
X30299D01*
X17025Y62718D01*
X17007Y62811D01*
X16576Y63456D01*
X15931Y63887D01*
X15170Y64038D01*
X14409Y63887D01*
X13764Y63456D01*
X13333Y62811D01*
X13182Y62050D01*
X13333Y61289D01*
X13764Y60644D01*
X14409Y60213D01*
X14502Y60195D01*
X28298Y46398D01*
X28298Y46398D01*
X28877Y46011D01*
X29560Y45876D01*
X70453D01*
X70628Y45376D01*
X70272Y44842D01*
X70120Y44081D01*
X70272Y43321D01*
X70703Y42676D01*
X70834Y42588D01*
Y34611D01*
X70931Y34124D01*
X71207Y33710D01*
X73055Y31862D01*
X72954Y31382D01*
X72884Y31327D01*
X72254Y30906D01*
X71823Y30261D01*
X71672Y29500D01*
X71823Y28739D01*
X72254Y28094D01*
X72899Y27663D01*
X73660Y27512D01*
X74421Y27663D01*
X75066Y28094D01*
X75487Y28724D01*
X75542Y28794D01*
X76022Y28896D01*
X97418Y7500D01*
X97831Y7224D01*
X98319Y7127D01*
X222335D01*
X222423Y6995D01*
X223068Y6564D01*
X223829Y6413D01*
X224590Y6564D01*
X225235Y6995D01*
X225515Y7414D01*
X226096Y7435D01*
X226364Y7034D01*
X227009Y6603D01*
X227770Y6452D01*
X228531Y6603D01*
X229176Y7034D01*
X229465Y7467D01*
X230041Y7502D01*
X230043Y7501D01*
X230297Y7121D01*
X230942Y6690D01*
X231703Y6539D01*
X232464Y6690D01*
X233109Y7121D01*
X233377Y7523D01*
X233961Y7514D01*
X234234Y7104D01*
X234879Y6673D01*
X235640Y6522D01*
X236401Y6673D01*
X237046Y7104D01*
X237477Y7749D01*
X237596Y8348D01*
X238104Y8488D01*
X238171Y8387D01*
X238816Y7956D01*
X239577Y7805D01*
X240338Y7956D01*
X240983Y8387D01*
X241414Y9032D01*
X241464Y9284D01*
X241995Y9390D01*
X242108Y9220D01*
X242753Y8789D01*
X243514Y8638D01*
X244275Y8789D01*
X244920Y9220D01*
X245351Y9865D01*
X245364Y9933D01*
X245895Y10039D01*
X246045Y9814D01*
X246690Y9383D01*
X247451Y9232D01*
X248212Y9383D01*
X248857Y9814D01*
X249086Y10156D01*
X249152Y10176D01*
X249664Y10122D01*
X249982Y9646D01*
X250627Y9215D01*
X251388Y9064D01*
X252149Y9215D01*
X252794Y9646D01*
X253043Y10019D01*
X253062Y10026D01*
X253621Y9985D01*
X253919Y9539D01*
X254564Y9108D01*
X255325Y8957D01*
X256086Y9108D01*
X256731Y9539D01*
X256957Y9877D01*
X257032Y9898D01*
X257535Y9843D01*
X257856Y9362D01*
X258501Y8931D01*
X259262Y8780D01*
X260023Y8931D01*
X260668Y9362D01*
X260938Y9766D01*
X261521Y9762D01*
X261793Y9355D01*
X262438Y8924D01*
X263199Y8773D01*
X263960Y8924D01*
X264605Y9355D01*
X265036Y10000D01*
X265187Y10761D01*
X265036Y11522D01*
X264605Y12167D01*
X263960Y12598D01*
X263199Y12749D01*
X262438Y12598D01*
X261793Y12167D01*
X261523Y11763D01*
X260940Y11767D01*
X260668Y12174D01*
X260023Y12605D01*
X259262Y12756D01*
X258501Y12605D01*
X257856Y12174D01*
X257630Y11836D01*
X257555Y11815D01*
X257052Y11870D01*
X256731Y12351D01*
X256086Y12782D01*
X255325Y12933D01*
X254564Y12782D01*
X253919Y12351D01*
X253670Y11978D01*
X253651Y11971D01*
X253092Y12012D01*
X252794Y12458D01*
X252149Y12889D01*
X251388Y13040D01*
X250627Y12889D01*
X249982Y12458D01*
X249753Y12116D01*
X249687Y12096D01*
X249175Y12150D01*
X248857Y12626D01*
X248212Y13057D01*
X247451Y13208D01*
X246690Y13057D01*
X246045Y12626D01*
X245614Y11981D01*
X245601Y11913D01*
X245070Y11807D01*
X244920Y12032D01*
X244275Y12463D01*
X243514Y12614D01*
X242753Y12463D01*
X242108Y12032D01*
X241677Y11387D01*
X241627Y11135D01*
X241096Y11029D01*
X240983Y11199D01*
X240338Y11630D01*
X239577Y11781D01*
X238816Y11630D01*
X238171Y11199D01*
X237740Y10554D01*
X237621Y9955D01*
X237113Y9815D01*
X237046Y9916D01*
X236401Y10347D01*
X235640Y10498D01*
X235485Y10467D01*
X230231Y15721D01*
X229818Y15998D01*
X229330Y16094D01*
X100218D01*
X85194Y31118D01*
Y42617D01*
X85325Y42704D01*
X85756Y43349D01*
X85908Y44110D01*
X85756Y44871D01*
X85419Y45376D01*
X85619Y45876D01*
X95912D01*
X96160Y45376D01*
X95862Y44930D01*
X95790Y44568D01*
X95341Y44267D01*
X94580Y44418D01*
X93819Y44267D01*
X93174Y43836D01*
X92743Y43191D01*
X92592Y42430D01*
X92743Y41669D01*
X93174Y41024D01*
X93819Y40593D01*
X94580Y40442D01*
X95341Y40593D01*
X95986Y41024D01*
X96417Y41669D01*
X96489Y42031D01*
X96938Y42332D01*
X97699Y42181D01*
X98460Y42332D01*
X99105Y42763D01*
X99536Y43408D01*
X99687Y44169D01*
X99536Y44930D01*
X99238Y45376D01*
X99486Y45876D01*
X351460D01*
X352143Y46011D01*
X352722Y46398D01*
X359922Y53598D01*
X359922Y53598D01*
X360309Y54177D01*
X360444Y54860D01*
X360444Y54860D01*
Y100730D01*
X360309Y101413D01*
X359922Y101992D01*
X356693Y105221D01*
Y110103D01*
D02*
G37*
G36*
X250830Y96378D02*
X250069Y96227D01*
X249424Y95796D01*
X249336Y95665D01*
X238024D01*
X237936Y95796D01*
X237291Y96227D01*
X236530Y96378D01*
X235769Y96227D01*
X235124Y95796D01*
X234693Y95151D01*
X234542Y94390D01*
X234693Y93629D01*
X235124Y92984D01*
X235769Y92553D01*
X236530Y92402D01*
X237291Y92553D01*
X237936Y92984D01*
X238024Y93116D01*
X249336D01*
X249424Y92984D01*
X250069Y92553D01*
X250830Y92402D01*
X251591Y92553D01*
X252236Y92984D01*
X252667Y93629D01*
X252818Y94390D01*
X252667Y95151D01*
X252236Y95796D01*
X251591Y96227D01*
X250830Y96378D01*
D02*
G37*
G36*
X35033Y99001D02*
X34272Y98849D01*
X33627Y98419D01*
X33196Y97773D01*
X33044Y97013D01*
X33196Y96252D01*
X33627Y95607D01*
X34272Y95176D01*
X35033Y95025D01*
X35794Y95176D01*
X36439Y95607D01*
X36869Y96252D01*
X37021Y97013D01*
X36869Y97773D01*
X36439Y98419D01*
X35794Y98849D01*
X35033Y99001D01*
D02*
G37*
G36*
X119800Y83738D02*
X119039Y83587D01*
X118394Y83156D01*
X117963Y82511D01*
X117942Y82404D01*
X117411Y82299D01*
X117136Y82711D01*
X116491Y83142D01*
X115730Y83293D01*
X114969Y83142D01*
X114324Y82711D01*
X113893Y82066D01*
X113742Y81305D01*
X113893Y80544D01*
X114324Y79899D01*
X114969Y79468D01*
X115025Y78947D01*
X114784Y78786D01*
X114572Y78468D01*
X114068Y78326D01*
X113966Y78393D01*
X113421Y78757D01*
X112660Y78908D01*
X111899Y78757D01*
X111254Y78326D01*
X111065Y78044D01*
X110464D01*
X110456Y78056D01*
X109811Y78487D01*
X109050Y78638D01*
X108289Y78487D01*
X107644Y78056D01*
X107213Y77411D01*
X107062Y76650D01*
X107213Y75889D01*
X107608Y75298D01*
X107644Y75244D01*
X107552Y74704D01*
X107344Y74566D01*
X106913Y73921D01*
X106762Y73160D01*
X106913Y72399D01*
X106957Y72333D01*
X106742Y71755D01*
X106234Y71416D01*
X105803Y70771D01*
X105652Y70010D01*
X105803Y69249D01*
X105907Y69094D01*
X105639Y68594D01*
X103220D01*
X103220Y68594D01*
X102537Y68458D01*
X101958Y68072D01*
X98952Y65065D01*
X98859Y65047D01*
X98214Y64616D01*
X97783Y63971D01*
X97632Y63210D01*
X97783Y62449D01*
X98214Y61804D01*
X98859Y61373D01*
X99620Y61222D01*
X100381Y61373D01*
X101026Y61804D01*
X101457Y62449D01*
X101475Y62542D01*
X101810Y62877D01*
X102353Y62712D01*
X102430Y62322D01*
X102928Y61578D01*
X103672Y61081D01*
X104550Y60906D01*
X105428Y61081D01*
X105501Y61130D01*
X136546D01*
X137424Y61304D01*
X138169Y61801D01*
X138666Y62546D01*
X138840Y63424D01*
X138666Y64302D01*
X138169Y65046D01*
X137424Y65543D01*
X136546Y65718D01*
X134714D01*
X134523Y66180D01*
X137052Y68708D01*
X137145Y68727D01*
X137790Y69158D01*
X138221Y69803D01*
X138372Y70564D01*
X138221Y71324D01*
X137790Y71970D01*
X137145Y72401D01*
X136384Y72552D01*
X135623Y72401D01*
X134978Y71970D01*
X134547Y71324D01*
X134528Y71232D01*
X131891Y68594D01*
X109641D01*
X109373Y69094D01*
X109477Y69249D01*
X109628Y70010D01*
X109477Y70771D01*
X109433Y70837D01*
X109648Y71415D01*
X110156Y71754D01*
X110587Y72399D01*
X110738Y73160D01*
X110587Y73921D01*
X110192Y74512D01*
X110156Y74566D01*
X110248Y75105D01*
X110456Y75244D01*
X110644Y75526D01*
X111246D01*
X111254Y75514D01*
X111899Y75083D01*
X112660Y74932D01*
X113421Y75083D01*
X114066Y75514D01*
X114278Y75832D01*
X114782Y75974D01*
X114884Y75907D01*
X115429Y75543D01*
X116190Y75392D01*
X116951Y75543D01*
X117596Y75974D01*
X118027Y76619D01*
X118178Y77380D01*
X118027Y78141D01*
X117596Y78786D01*
X116951Y79217D01*
X116895Y79738D01*
X117136Y79899D01*
X117567Y80544D01*
X117588Y80651D01*
X118119Y80756D01*
X118394Y80344D01*
X119039Y79913D01*
X119800Y79762D01*
X120561Y79913D01*
X121206Y80344D01*
X121637Y80989D01*
X121788Y81750D01*
X121637Y82511D01*
X121206Y83156D01*
X120561Y83587D01*
X119800Y83738D01*
D02*
G37*
G36*
X136005Y83253D02*
X135245Y83102D01*
X134599Y82671D01*
X134168Y82025D01*
X134017Y81265D01*
X134168Y80504D01*
X134599Y79859D01*
X135245Y79428D01*
X136005Y79277D01*
X136766Y79428D01*
X137411Y79859D01*
X137842Y80504D01*
X137994Y81265D01*
X137842Y82025D01*
X137411Y82671D01*
X136766Y83102D01*
X136005Y83253D01*
D02*
G37*
G36*
X133280Y78998D02*
X132519Y78847D01*
X131874Y78416D01*
X131443Y77771D01*
X131292Y77010D01*
X131443Y76249D01*
X131874Y75604D01*
X132519Y75173D01*
X133280Y75022D01*
X134041Y75173D01*
X134686Y75604D01*
X135117Y76249D01*
X135268Y77010D01*
X135117Y77771D01*
X134686Y78416D01*
X134041Y78847D01*
X133280Y78998D01*
D02*
G37*
G36*
X296030Y77168D02*
X295269Y77017D01*
X294624Y76586D01*
X294193Y75941D01*
X294042Y75180D01*
X294193Y74419D01*
X294624Y73774D01*
X295269Y73343D01*
X296030Y73192D01*
X296791Y73343D01*
X297436Y73774D01*
X297867Y74419D01*
X298018Y75180D01*
X297867Y75941D01*
X297436Y76586D01*
X296791Y77017D01*
X296030Y77168D01*
D02*
G37*
G36*
X43574Y71594D02*
X42813Y71443D01*
X42168Y71012D01*
X41737Y70367D01*
X41586Y69606D01*
X41737Y68845D01*
X42168Y68200D01*
X42813Y67769D01*
X43574Y67618D01*
X44335Y67769D01*
X44980Y68200D01*
X45411Y68845D01*
X45562Y69606D01*
X45411Y70367D01*
X44980Y71012D01*
X44335Y71443D01*
X43574Y71594D01*
D02*
G37*
G36*
X352490Y70321D02*
X351958Y70251D01*
X350997Y69853D01*
X350171Y69219D01*
X349537Y68393D01*
X349139Y67432D01*
X349069Y66900D01*
X352490D01*
Y70321D01*
D02*
G37*
G36*
X-14640Y70091D02*
Y66670D01*
X-11219D01*
X-11289Y67202D01*
X-11687Y68163D01*
X-12321Y68989D01*
X-13147Y69623D01*
X-14108Y70021D01*
X-14640Y70091D01*
D02*
G37*
G36*
X335683Y70413D02*
X328277D01*
Y63007D01*
X335683D01*
Y70413D01*
D02*
G37*
G36*
X352490Y65900D02*
X349069D01*
X349139Y65368D01*
X349537Y64407D01*
X350171Y63581D01*
X350997Y62947D01*
X351958Y62549D01*
X352490Y62479D01*
Y65900D01*
D02*
G37*
G36*
X-11219Y65670D02*
X-14640D01*
Y62249D01*
X-14108Y62319D01*
X-13147Y62717D01*
X-12321Y63351D01*
X-11687Y64177D01*
X-11289Y65138D01*
X-11219Y65670D01*
D02*
G37*
G36*
X74077Y64871D02*
X73316Y64720D01*
X72671Y64289D01*
X72240Y63644D01*
X72089Y62883D01*
X72240Y62122D01*
X72671Y61477D01*
X73316Y61046D01*
X74077Y60895D01*
X74838Y61046D01*
X75483Y61477D01*
X75686Y61781D01*
X75832Y61809D01*
X76264Y61746D01*
X76608Y61230D01*
X77253Y60799D01*
X78014Y60648D01*
X78775Y60799D01*
X79420Y61230D01*
X79703Y61654D01*
X80284Y61684D01*
X80545Y61293D01*
X81190Y60862D01*
X81951Y60711D01*
X82712Y60862D01*
X83357Y61293D01*
X83596Y61651D01*
X83637Y61664D01*
X84175Y61617D01*
X84482Y61156D01*
X85127Y60725D01*
X85888Y60574D01*
X86649Y60725D01*
X87294Y61156D01*
X87725Y61801D01*
X87876Y62562D01*
X87725Y63323D01*
X87294Y63968D01*
X86649Y64399D01*
X85888Y64550D01*
X85127Y64399D01*
X84482Y63968D01*
X84243Y63610D01*
X84202Y63596D01*
X83665Y63644D01*
X83357Y64105D01*
X82712Y64536D01*
X81951Y64687D01*
X81190Y64536D01*
X80545Y64105D01*
X80262Y63681D01*
X79681Y63651D01*
X79420Y64042D01*
X78775Y64473D01*
X78014Y64624D01*
X77253Y64473D01*
X76608Y64042D01*
X76405Y63738D01*
X76260Y63710D01*
X75827Y63773D01*
X75483Y64289D01*
X74838Y64720D01*
X74077Y64871D01*
D02*
G37*
G36*
X232449Y62919D02*
X231688Y62768D01*
X231043Y62337D01*
X230612Y61692D01*
X230461Y60931D01*
X230612Y60170D01*
X231043Y59525D01*
X231688Y59094D01*
X232449Y58943D01*
X233210Y59094D01*
X233855Y59525D01*
X234286Y60170D01*
X234437Y60931D01*
X234286Y61692D01*
X233855Y62337D01*
X233210Y62768D01*
X232449Y62919D01*
D02*
G37*
G36*
X300198Y60701D02*
X299437Y60549D01*
X298792Y60118D01*
X298361Y59473D01*
X298209Y58712D01*
X298361Y57952D01*
X298792Y57307D01*
X299437Y56876D01*
X300198Y56724D01*
X300958Y56876D01*
X301603Y57307D01*
X302034Y57952D01*
X302186Y58712D01*
X302034Y59473D01*
X301603Y60118D01*
X300958Y60549D01*
X300198Y60701D01*
D02*
G37*
G36*
X136110Y58948D02*
X135349Y58797D01*
X134704Y58366D01*
X134273Y57721D01*
X134122Y56960D01*
X134273Y56199D01*
X134704Y55554D01*
X135349Y55123D01*
X136110Y54972D01*
X136871Y55123D01*
X137516Y55554D01*
X137947Y56199D01*
X138098Y56960D01*
X137947Y57721D01*
X137516Y58366D01*
X136871Y58797D01*
X136110Y58948D01*
D02*
G37*
G36*
X35033Y40531D02*
X34272Y40380D01*
X33627Y39949D01*
X33196Y39303D01*
X33044Y38543D01*
X33196Y37782D01*
X33627Y37137D01*
X34272Y36706D01*
X35033Y36555D01*
X35794Y36706D01*
X36439Y37137D01*
X36869Y37782D01*
X37021Y38543D01*
X36869Y39303D01*
X36439Y39949D01*
X35794Y40380D01*
X35033Y40531D01*
D02*
G37*
G36*
X123868Y39359D02*
Y35938D01*
X127289D01*
X127219Y36469D01*
X126821Y37431D01*
X126187Y38257D01*
X125361Y38890D01*
X124400Y39289D01*
X123868Y39359D01*
D02*
G37*
G36*
X122868Y39359D02*
X122336Y39289D01*
X121374Y38890D01*
X120549Y38257D01*
X119915Y37431D01*
X119517Y36469D01*
X119447Y35938D01*
X122868D01*
Y39359D01*
D02*
G37*
G36*
X-758Y42993D02*
X-1724Y42865D01*
X-2625Y42492D01*
X-3398Y41899D01*
X-3992Y41125D01*
X-4365Y40225D01*
X-4492Y39258D01*
X-4365Y38291D01*
X-3992Y37391D01*
X-3398Y36617D01*
X-2625Y36024D01*
X-1724Y35651D01*
X-758Y35523D01*
X209Y35651D01*
X1110Y36024D01*
X1883Y36617D01*
X2477Y37391D01*
X2850Y38291D01*
X2977Y39258D01*
X2850Y40225D01*
X2477Y41125D01*
X1883Y41899D01*
X1110Y42492D01*
X209Y42865D01*
X-758Y42993D01*
D02*
G37*
G36*
X147071Y39140D02*
X139665D01*
Y31735D01*
X147071D01*
Y39140D01*
D02*
G37*
G36*
X133368Y39172D02*
X132401Y39045D01*
X131501Y38672D01*
X130727Y38078D01*
X130134Y37305D01*
X129761Y36404D01*
X129633Y35438D01*
X129761Y34471D01*
X130134Y33570D01*
X130727Y32797D01*
X131501Y32203D01*
X132401Y31830D01*
X133368Y31703D01*
X134335Y31830D01*
X135235Y32203D01*
X136009Y32797D01*
X136602Y33570D01*
X136975Y34471D01*
X137103Y35438D01*
X136975Y36404D01*
X136602Y37305D01*
X136009Y38078D01*
X135235Y38672D01*
X134335Y39045D01*
X133368Y39172D01*
D02*
G37*
G36*
X113368D02*
X112401Y39045D01*
X111501Y38672D01*
X110727Y38078D01*
X110134Y37305D01*
X109760Y36404D01*
X109633Y35438D01*
X109760Y34471D01*
X110134Y33570D01*
X110727Y32797D01*
X111501Y32203D01*
X112401Y31830D01*
X113368Y31703D01*
X114335Y31830D01*
X115235Y32203D01*
X116009Y32797D01*
X116602Y33570D01*
X116975Y34471D01*
X117103Y35438D01*
X116975Y36404D01*
X116602Y37305D01*
X116009Y38078D01*
X115235Y38672D01*
X114335Y39045D01*
X113368Y39172D01*
D02*
G37*
G36*
X122868Y34938D02*
X119447D01*
X119517Y34406D01*
X119915Y33444D01*
X120549Y32618D01*
X121374Y31985D01*
X122336Y31587D01*
X122868Y31517D01*
Y34938D01*
D02*
G37*
G36*
X127289D02*
X123868D01*
Y31517D01*
X124400Y31587D01*
X125361Y31985D01*
X126187Y32618D01*
X126821Y33444D01*
X127219Y34406D01*
X127289Y34938D01*
D02*
G37*
G36*
X214208Y34786D02*
X213447Y34634D01*
X212802Y34203D01*
X212371Y33558D01*
X212219Y32798D01*
X212371Y32037D01*
X212802Y31392D01*
X213447Y30961D01*
X214208Y30809D01*
X214968Y30961D01*
X215613Y31392D01*
X216044Y32037D01*
X216196Y32798D01*
X216044Y33558D01*
X215613Y34203D01*
X214968Y34634D01*
X214208Y34786D01*
D02*
G37*
G36*
X97699Y32787D02*
X96938Y32636D01*
X96293Y32205D01*
X95862Y31560D01*
X95711Y30799D01*
X95800Y30351D01*
X95350Y30051D01*
X95341Y30057D01*
X94580Y30208D01*
X93819Y30057D01*
X93174Y29626D01*
X92743Y28981D01*
X92592Y28220D01*
X92743Y27459D01*
X93174Y26814D01*
X93819Y26383D01*
X94580Y26232D01*
X95341Y26383D01*
X95986Y26814D01*
X96417Y27459D01*
X96568Y28220D01*
X96479Y28668D01*
X96929Y28968D01*
X96938Y28962D01*
X97699Y28811D01*
X98460Y28962D01*
X99105Y29393D01*
X99536Y30038D01*
X99687Y30799D01*
X99536Y31560D01*
X99105Y32205D01*
X98460Y32636D01*
X97699Y32787D01*
D02*
G37*
G36*
X-758Y32993D02*
X-1724Y32865D01*
X-2625Y32492D01*
X-3398Y31899D01*
X-3992Y31125D01*
X-4365Y30225D01*
X-4492Y29258D01*
X-4365Y28291D01*
X-3992Y27391D01*
X-3398Y26617D01*
X-2625Y26024D01*
X-1724Y25651D01*
X-758Y25523D01*
X209Y25651D01*
X1110Y26024D01*
X1883Y26617D01*
X2477Y27391D01*
X2850Y28291D01*
X2977Y29258D01*
X2850Y30225D01*
X2477Y31125D01*
X1883Y31899D01*
X1110Y32492D01*
X209Y32865D01*
X-758Y32993D01*
D02*
G37*
G36*
X103368Y39172D02*
X102401Y39045D01*
X101501Y38672D01*
X100727Y38078D01*
X100134Y37305D01*
X99761Y36404D01*
X99633Y35438D01*
X99761Y34471D01*
X100134Y33570D01*
X100727Y32797D01*
X101501Y32203D01*
X102401Y31830D01*
X103368Y31703D01*
X103801Y31760D01*
X109663Y25898D01*
X110408Y25401D01*
X111285Y25226D01*
X169526D01*
X170404Y25401D01*
X171148Y25898D01*
X174950Y29700D01*
X175447Y30444D01*
X175622Y31322D01*
X175447Y32200D01*
X174950Y32944D01*
X174206Y33441D01*
X173328Y33616D01*
X172450Y33441D01*
X171706Y32944D01*
X168576Y29814D01*
X112236D01*
X107046Y35004D01*
X107103Y35438D01*
X106975Y36404D01*
X106602Y37305D01*
X106009Y38078D01*
X105235Y38672D01*
X104335Y39045D01*
X103368Y39172D01*
D02*
G37*
G36*
X269590Y26788D02*
X268829Y26637D01*
X268184Y26206D01*
X267753Y25561D01*
X267602Y24800D01*
X267753Y24039D01*
X268184Y23394D01*
X268829Y22963D01*
X269590Y22812D01*
X270351Y22963D01*
X270996Y23394D01*
X271427Y24039D01*
X271578Y24800D01*
X271427Y25561D01*
X270996Y26206D01*
X270351Y26637D01*
X269590Y26788D01*
D02*
G37*
G36*
X311980Y25568D02*
X311219Y25417D01*
X310574Y24986D01*
X310143Y24341D01*
X309992Y23580D01*
X310143Y22819D01*
X310574Y22174D01*
X311219Y21743D01*
X311980Y21592D01*
X312741Y21743D01*
X313386Y22174D01*
X313817Y22819D01*
X313968Y23580D01*
X313817Y24341D01*
X313386Y24986D01*
X312741Y25417D01*
X311980Y25568D01*
D02*
G37*
G36*
X3195Y23211D02*
X-258D01*
Y19758D01*
X3195D01*
Y23211D01*
D02*
G37*
G36*
X-1258D02*
X-4710D01*
Y19758D01*
X-1258D01*
Y23211D01*
D02*
G37*
G36*
X52680Y20808D02*
X51919Y20657D01*
X51274Y20226D01*
X50843Y19581D01*
X50692Y18820D01*
X50843Y18059D01*
X51274Y17414D01*
X51919Y16983D01*
X52680Y16832D01*
X53441Y16983D01*
X54086Y17414D01*
X54517Y18059D01*
X54668Y18820D01*
X54517Y19581D01*
X54086Y20226D01*
X53441Y20657D01*
X52680Y20808D01*
D02*
G37*
G36*
X269680Y19788D02*
X268919Y19637D01*
X268274Y19206D01*
X267843Y18561D01*
X267692Y17800D01*
X267843Y17039D01*
X268274Y16394D01*
X268919Y15963D01*
X269680Y15812D01*
X270441Y15963D01*
X271086Y16394D01*
X271517Y17039D01*
X271668Y17800D01*
X271517Y18561D01*
X271086Y19206D01*
X270441Y19637D01*
X269680Y19788D01*
D02*
G37*
G36*
X3195Y18758D02*
X-258D01*
Y15305D01*
X3195D01*
Y18758D01*
D02*
G37*
G36*
X-1258D02*
X-4710D01*
Y15305D01*
X-1258D01*
Y18758D01*
D02*
G37*
G36*
X233671Y-380D02*
X232911Y-532D01*
X232266Y-963D01*
X231875Y-1548D01*
X231580Y-1614D01*
X231322Y-1621D01*
X231140Y-1349D01*
X230495Y-918D01*
X229734Y-766D01*
X228974Y-918D01*
X228329Y-1349D01*
X228044Y-1775D01*
X227464Y-1806D01*
X227203Y-1417D01*
X226558Y-986D01*
X225798Y-834D01*
X225037Y-986D01*
X224392Y-1417D01*
X223961Y-2062D01*
X223809Y-2822D01*
X223961Y-3583D01*
X224392Y-4228D01*
X225037Y-4659D01*
X225798Y-4811D01*
X226558Y-4659D01*
X227203Y-4228D01*
X227488Y-3802D01*
X228068Y-3771D01*
X228329Y-4160D01*
X228974Y-4591D01*
X229734Y-4743D01*
X230495Y-4591D01*
X231140Y-4160D01*
X231531Y-3575D01*
X231826Y-3509D01*
X232084Y-3502D01*
X232266Y-3774D01*
X232911Y-4205D01*
X233671Y-4357D01*
X234432Y-4205D01*
X235077Y-3774D01*
X235342Y-3378D01*
X235926Y-3400D01*
X236203Y-3814D01*
X236848Y-4245D01*
X237609Y-4397D01*
X238369Y-4245D01*
X239014Y-3814D01*
X239216Y-3512D01*
X239366Y-3486D01*
X239792Y-3550D01*
X240140Y-4070D01*
X240785Y-4501D01*
X241546Y-4653D01*
X242306Y-4501D01*
X242951Y-4070D01*
X243230Y-3654D01*
X243813Y-3629D01*
X244077Y-4023D01*
X244722Y-4454D01*
X245482Y-4606D01*
X246243Y-4454D01*
X246888Y-4023D01*
X247132Y-3659D01*
X247163Y-3648D01*
X247711Y-3693D01*
X248014Y-4146D01*
X248659Y-4577D01*
X249419Y-4729D01*
X250180Y-4577D01*
X250825Y-4146D01*
X251048Y-3813D01*
X251132Y-3791D01*
X251626Y-3847D01*
X251951Y-4332D01*
X252596Y-4763D01*
X253357Y-4915D01*
X254117Y-4763D01*
X254762Y-4332D01*
X255011Y-3961D01*
X255032Y-3953D01*
X255589Y-3995D01*
X255888Y-4442D01*
X256533Y-4873D01*
X257294Y-5025D01*
X258054Y-4873D01*
X258699Y-4442D01*
X258968Y-4040D01*
X259552Y-4047D01*
X259825Y-4455D01*
X260470Y-4886D01*
X261230Y-5038D01*
X261991Y-4886D01*
X262636Y-4455D01*
X263067Y-3810D01*
X263219Y-3049D01*
X263067Y-2289D01*
X262636Y-1644D01*
X261991Y-1213D01*
X261230Y-1061D01*
X260470Y-1213D01*
X259825Y-1644D01*
X259556Y-2046D01*
X258972Y-2039D01*
X258699Y-1631D01*
X258054Y-1200D01*
X257294Y-1048D01*
X256533Y-1200D01*
X255888Y-1631D01*
X255640Y-2002D01*
X255618Y-2010D01*
X255061Y-1968D01*
X254762Y-1521D01*
X254117Y-1090D01*
X253357Y-938D01*
X252596Y-1090D01*
X251951Y-1521D01*
X251728Y-1854D01*
X251644Y-1876D01*
X251150Y-1820D01*
X250825Y-1335D01*
X250180Y-904D01*
X249419Y-752D01*
X248659Y-904D01*
X248014Y-1335D01*
X247770Y-1699D01*
X247739Y-1710D01*
X247191Y-1665D01*
X246888Y-1212D01*
X246243Y-781D01*
X245482Y-629D01*
X244722Y-781D01*
X244077Y-1212D01*
X243798Y-1628D01*
X243215Y-1653D01*
X242951Y-1259D01*
X242306Y-828D01*
X241546Y-676D01*
X240785Y-828D01*
X240140Y-1259D01*
X239938Y-1561D01*
X239788Y-1587D01*
X239362Y-1523D01*
X239014Y-1003D01*
X238369Y-572D01*
X237609Y-420D01*
X236848Y-572D01*
X236203Y-1003D01*
X235938Y-1399D01*
X235354Y-1377D01*
X235077Y-963D01*
X234432Y-532D01*
X233671Y-380D01*
D02*
G37*
G36*
X294900Y31158D02*
X294139Y31007D01*
X293494Y30576D01*
X293063Y29931D01*
X292912Y29170D01*
X293063Y28409D01*
X293473Y27796D01*
Y-6636D01*
X293063Y-7249D01*
X292912Y-8010D01*
X293063Y-8771D01*
X293494Y-9416D01*
X294139Y-9847D01*
X294900Y-9998D01*
X295661Y-9847D01*
X296306Y-9416D01*
X296737Y-8771D01*
X296888Y-8010D01*
X296737Y-7249D01*
X296327Y-6636D01*
Y27796D01*
X296737Y28409D01*
X296888Y29170D01*
X296737Y29931D01*
X296306Y30576D01*
X295661Y31007D01*
X294900Y31158D01*
D02*
G37*
G36*
X338583Y10625D02*
X336920Y10494D01*
X335299Y10105D01*
X333759Y9467D01*
X332337Y8596D01*
X331069Y7513D01*
X329987Y6245D01*
X329116Y4824D01*
X328477Y3283D01*
X328088Y1662D01*
X327957Y0D01*
X328088Y-1662D01*
X328477Y-3283D01*
X329116Y-4824D01*
X329987Y-6245D01*
X331069Y-7513D01*
X332337Y-8596D01*
X333759Y-9467D01*
X335299Y-10105D01*
X336920Y-10494D01*
X338583Y-10625D01*
X340245Y-10494D01*
X341866Y-10105D01*
X343406Y-9467D01*
X344828Y-8596D01*
X346096Y-7513D01*
X347179Y-6245D01*
X348050Y-4824D01*
X348688Y-3283D01*
X349077Y-1662D01*
X349208Y0D01*
X349077Y1662D01*
X348688Y3283D01*
X348050Y4824D01*
X347179Y6245D01*
X346096Y7513D01*
X344828Y8596D01*
X343406Y9467D01*
X341866Y10105D01*
X340245Y10494D01*
X338583Y10625D01*
D02*
G37*
G36*
X0D02*
X-1662Y10494D01*
X-3283Y10105D01*
X-4824Y9467D01*
X-6245Y8596D01*
X-7513Y7513D01*
X-8596Y6245D01*
X-9467Y4824D01*
X-10105Y3283D01*
X-10494Y1662D01*
X-10625Y0D01*
X-10494Y-1662D01*
X-10105Y-3283D01*
X-9467Y-4824D01*
X-8596Y-6245D01*
X-7513Y-7513D01*
X-6245Y-8596D01*
X-4824Y-9467D01*
X-3283Y-10105D01*
X-1662Y-10494D01*
X0Y-10625D01*
X1662Y-10494D01*
X3283Y-10105D01*
X4824Y-9467D01*
X6245Y-8596D01*
X7513Y-7513D01*
X8596Y-6245D01*
X9467Y-4824D01*
X10105Y-3283D01*
X10494Y-1662D01*
X10625Y0D01*
X10494Y1662D01*
X10105Y3283D01*
X9467Y4824D01*
X8596Y6245D01*
X7513Y7513D01*
X6245Y8596D01*
X4824Y9467D01*
X3283Y10105D01*
X1662Y10494D01*
X0Y10625D01*
D02*
G37*
G36*
X60981Y-11060D02*
X57528D01*
Y-14512D01*
X60981D01*
Y-11060D01*
D02*
G37*
G36*
X56528D02*
X53075D01*
Y-14512D01*
X56528D01*
Y-11060D01*
D02*
G37*
G36*
X67028Y-11278D02*
X66061Y-11405D01*
X65161Y-11778D01*
X64387Y-12372D01*
X63794Y-13145D01*
X63420Y-14046D01*
X63293Y-15012D01*
X63420Y-15979D01*
X63794Y-16880D01*
X64387Y-17653D01*
X65161Y-18247D01*
X66061Y-18620D01*
X67028Y-18747D01*
X67995Y-18620D01*
X68895Y-18247D01*
X69669Y-17653D01*
X70262Y-16880D01*
X70635Y-15979D01*
X70763Y-15012D01*
X70635Y-14046D01*
X70262Y-13145D01*
X69669Y-12372D01*
X68895Y-11778D01*
X67995Y-11405D01*
X67028Y-11278D01*
D02*
G37*
G36*
X60981Y-15512D02*
X57528D01*
Y-18965D01*
X60981D01*
Y-15512D01*
D02*
G37*
G36*
X56528D02*
X53075D01*
Y-18965D01*
X56528D01*
Y-15512D01*
D02*
G37*
%LPD*%
D14*
X136110Y56960D02*
X136146Y56924D01*
X236530Y94390D02*
X250830D01*
X72060Y73040D02*
X86920Y87900D01*
X221990D01*
X72470Y69350D02*
X89270Y86150D01*
X220240D01*
X236940Y69450D01*
X269600D01*
X221990Y87900D02*
X236950Y72940D01*
X266520D01*
X72109Y34611D02*
Y44081D01*
X83920Y30590D02*
Y44110D01*
X76046Y33149D02*
Y44014D01*
X79983Y31687D02*
Y44077D01*
X97895Y11300D02*
X224910D01*
X227770Y8440D01*
X227160Y13070D02*
X231703Y8527D01*
X98600Y13070D02*
X227160D01*
X99690Y14820D02*
X229330D01*
X235640Y8510D01*
X83920Y30590D02*
X99690Y14820D01*
X79983Y31687D02*
X98600Y13070D01*
X76046Y33149D02*
X97895Y11300D01*
X72109Y34611D02*
X98319Y8401D01*
X223829D01*
D16*
X182040Y67000D02*
X240750D01*
X352990Y106400D02*
X358660Y100730D01*
X292182Y96392D02*
X352982D01*
X352990Y96400D01*
X21630Y64540D02*
X35760Y50410D01*
X347000D02*
X352990Y56400D01*
X15170Y62050D02*
X29560Y47660D01*
X351460D02*
X358660Y54860D01*
Y100730D01*
X99620Y63210D02*
X103220Y66810D01*
X132630D02*
X136384Y70564D01*
X103220Y66810D02*
X132630D01*
X-20920Y90390D02*
X-15140Y96170D01*
X-20920Y52340D02*
Y90390D01*
Y52340D02*
X-16370Y47790D01*
X35760Y50410D02*
X347000D01*
X29560Y47660D02*
X351460D01*
X-16370Y47790D02*
X7980D01*
X23770Y32000D01*
X63850D01*
D115*
X13800Y129360D02*
X46640D01*
X-7370Y108190D02*
X13800Y129360D01*
X222860Y98860D02*
X235320Y86400D01*
X219466Y95044D02*
X231860Y82650D01*
X346740D01*
X104550Y63200D02*
X104774Y63424D01*
X235320Y86400D02*
X352990D01*
X346740Y82650D02*
X352990Y76400D01*
X137940Y98860D02*
X222860D01*
X138584Y95044D02*
X219466D01*
X239720Y160170D02*
X284880D01*
X176328Y54298D02*
X292182D01*
X104774Y63424D02*
X136546D01*
X103368Y35438D02*
X111285Y27520D01*
X169526D01*
X173328Y31322D01*
X-15140Y76170D02*
X-7370Y83940D01*
Y108190D01*
X114980Y-1490D02*
X133430Y-19940D01*
X184600D01*
D116*
X192500Y117910D02*
X203670D01*
X188310Y126410D02*
X233740D01*
X236110Y112490D02*
X249720Y126100D01*
X205623Y112490D02*
X236110D01*
X232640Y108990D02*
X263070D01*
X274040Y119960D01*
X63850Y32000D02*
X63888Y31962D01*
D117*
X294900Y-8010D02*
Y29170D01*
D118*
X-758Y19258D02*
D03*
X352990Y106400D02*
D03*
D119*
X123368Y35438D02*
D03*
X103368D02*
D03*
X352990Y56400D02*
D03*
Y66400D02*
D03*
Y76400D02*
D03*
Y86400D02*
D03*
Y96400D02*
D03*
X-15140Y66170D02*
D03*
Y76170D02*
D03*
Y96170D02*
D03*
D121*
X57028Y-15012D02*
D03*
D122*
X5679Y83569D02*
D03*
Y87899D02*
D03*
X5679Y92230D02*
D03*
X10010Y83569D02*
D03*
Y87899D02*
D03*
Y92230D02*
D03*
X14341Y83569D02*
D03*
X14341Y87899D02*
D03*
Y92230D02*
D03*
X135503Y-3213D02*
D03*
X131173D02*
D03*
X135503Y5448D02*
D03*
X131173D02*
D03*
X135503Y1118D02*
D03*
X131173D02*
D03*
D123*
X46640Y129360D02*
D03*
X72060Y73040D02*
D03*
X176328Y54298D02*
D03*
X182040Y67000D02*
D03*
X240750D02*
D03*
X21630Y64540D02*
D03*
X15170Y62050D02*
D03*
X104550Y63200D02*
D03*
X99620Y63210D02*
D03*
X136384Y70564D02*
D03*
X136546Y63424D02*
D03*
X72470Y69350D02*
D03*
X294900Y-8010D02*
D03*
Y29170D02*
D03*
X137940Y98860D02*
D03*
X138584Y95044D02*
D03*
X236530Y94390D02*
D03*
X250830D02*
D03*
X203670Y117910D02*
D03*
X192500D02*
D03*
X233740Y126410D02*
D03*
X188310D02*
D03*
X249720Y126100D02*
D03*
X205623Y112490D02*
D03*
X232640Y108990D02*
D03*
X274040Y119960D02*
D03*
X239720Y160170D02*
D03*
X284880D02*
D03*
X292182Y54298D02*
D03*
Y96392D02*
D03*
X114980Y-1490D02*
D03*
X266520Y72940D02*
D03*
X269600Y69450D02*
D03*
X72109Y44081D02*
D03*
X173328Y31322D02*
D03*
X83920Y44110D02*
D03*
X76046Y44014D02*
D03*
X79983Y44077D02*
D03*
X63888Y31962D02*
D03*
X214480Y2300D02*
D03*
X223829Y8401D02*
D03*
X227770Y8440D02*
D03*
X231703Y8527D02*
D03*
X235640Y8510D02*
D03*
X171160Y68800D02*
D03*
X171210Y73580D02*
D03*
X166490Y73540D02*
D03*
X166530Y68800D02*
D03*
X184600Y-19940D02*
D03*
X12950Y158900D02*
D03*
X22820Y158980D02*
D03*
X33940Y159120D02*
D03*
X14780Y151220D02*
D03*
Y137260D02*
D03*
X23550Y147130D02*
D03*
X26850Y138350D02*
D03*
X32330Y150860D02*
D03*
X44830Y152540D02*
D03*
X44250Y140840D02*
D03*
X-15790Y132800D02*
D03*
X-18710Y123360D02*
D03*
X-9940Y114370D02*
D03*
X-2190Y122780D02*
D03*
X23480Y101790D02*
D03*
X49080Y114370D02*
D03*
X63190Y115540D02*
D03*
X54050Y121970D02*
D03*
X64800Y121900D02*
D03*
X-6320Y76160D02*
D03*
X-5510Y69800D02*
D03*
X-7230Y63530D02*
D03*
X9740Y58280D02*
D03*
X3480Y52830D02*
D03*
X21960Y43530D02*
D03*
X42370Y62720D02*
D03*
X42670Y54740D02*
D03*
X48430Y59900D02*
D03*
X49540Y76660D02*
D03*
X55800Y82120D02*
D03*
X66210Y43130D02*
D03*
X61010Y53860D02*
D03*
X46100Y43290D02*
D03*
X43680Y27230D02*
D03*
X40900Y21310D02*
D03*
X48180Y20230D02*
D03*
X56260Y27450D02*
D03*
X13080Y34170D02*
D03*
X-10870Y36160D02*
D03*
X-17330Y40350D02*
D03*
X-9980Y43080D02*
D03*
X-16800Y30170D02*
D03*
X-17120Y20720D02*
D03*
X-16590Y10020D02*
D03*
X-9660Y26080D02*
D03*
X-11550Y12960D02*
D03*
X7870Y12750D02*
D03*
X14170Y6870D02*
D03*
X16690Y-2160D02*
D03*
X12490Y-10660D02*
D03*
X14590Y-18120D02*
D03*
X33170Y-20220D02*
D03*
X33270Y-12660D02*
D03*
X26450Y-1950D02*
D03*
X30230Y2670D02*
D03*
X33690Y-3840D02*
D03*
X38100Y-6360D02*
D03*
X38000Y-15700D02*
D03*
X47760Y-7510D02*
D03*
X53220Y-7830D02*
D03*
X48910Y-18120D02*
D03*
X56130Y6100D02*
D03*
X60400Y-1520D02*
D03*
X66110Y-7230D02*
D03*
X68240Y-530D02*
D03*
X98520Y22870D02*
D03*
X102930Y18350D02*
D03*
X105910Y23470D02*
D03*
X112930Y19180D02*
D03*
X118170Y21560D02*
D03*
X125200Y21920D02*
D03*
X91400Y-19040D02*
D03*
X115750Y-9160D02*
D03*
X116930Y-18220D02*
D03*
X114340Y3660D02*
D03*
X141810Y43360D02*
D03*
X152730Y2640D02*
D03*
X155290Y18200D02*
D03*
X164120Y18300D02*
D03*
X169810Y-6280D02*
D03*
X176070D02*
D03*
X182240Y-14250D02*
D03*
X199800Y18870D02*
D03*
X183950Y34240D02*
D03*
X191640Y33380D02*
D03*
X76720Y110180D02*
D03*
X84380Y110260D02*
D03*
X105420Y110340D02*
D03*
X111930Y106160D02*
D03*
X114260Y99560D02*
D03*
X107000Y102600D02*
D03*
X109720Y94240D02*
D03*
X104000Y90960D02*
D03*
X101270Y98030D02*
D03*
X89080Y100710D02*
D03*
X81970Y98540D02*
D03*
X81810Y88710D02*
D03*
X89040Y93560D02*
D03*
X85480Y75090D02*
D03*
X89430Y79910D02*
D03*
X101750Y82670D02*
D03*
X98230Y77890D02*
D03*
X48630Y69250D02*
D03*
X80130Y157640D02*
D03*
X80430Y149010D02*
D03*
X115670Y156300D02*
D03*
X114930Y149010D02*
D03*
X90100Y134890D02*
D03*
X100360Y136520D02*
D03*
X106750Y132660D02*
D03*
X112550Y135030D02*
D03*
X104520Y127150D02*
D03*
X82510Y131910D02*
D03*
X86970Y126860D02*
D03*
X135750Y160910D02*
D03*
X145110Y159720D02*
D03*
X155080Y160310D02*
D03*
X149130Y154660D02*
D03*
X142290Y153920D02*
D03*
X142590Y146340D02*
D03*
X143180Y136970D02*
D03*
X151800Y133100D02*
D03*
X150020Y144250D02*
D03*
X154630Y153030D02*
D03*
X125630Y122540D02*
D03*
X135510Y122310D02*
D03*
X146810Y122180D02*
D03*
X156270Y122690D02*
D03*
X165740Y122430D02*
D03*
X128880Y115740D02*
D03*
X138730Y115620D02*
D03*
X149020Y115680D02*
D03*
X163030Y115870D02*
D03*
X170280Y115560D02*
D03*
X153750Y104510D02*
D03*
X165740Y103750D02*
D03*
X173190Y103940D02*
D03*
X165490Y133290D02*
D03*
X165210Y140800D02*
D03*
X164970Y157240D02*
D03*
X166180Y148780D02*
D03*
X171500Y157490D02*
D03*
X182140Y158700D02*
D03*
X194230Y159420D02*
D03*
X206210Y159900D02*
D03*
X212980Y158450D02*
D03*
X185040Y150830D02*
D03*
X182870Y141400D02*
D03*
X173800Y138740D02*
D03*
X176460Y129430D02*
D03*
X182740Y122050D02*
D03*
X185040Y132450D02*
D03*
X193020Y138500D02*
D03*
Y148660D02*
D03*
X201370Y154580D02*
D03*
X200040Y143820D02*
D03*
X200400Y133540D02*
D03*
X192780Y131480D02*
D03*
X207900Y137410D02*
D03*
X213700Y150710D02*
D03*
X213820Y139710D02*
D03*
X222170Y137170D02*
D03*
X222580Y157650D02*
D03*
X230630Y159920D02*
D03*
X228090Y152080D02*
D03*
X227330Y143760D02*
D03*
X233060Y149270D02*
D03*
X246300Y154460D02*
D03*
X253920Y154030D02*
D03*
X246840Y148090D02*
D03*
X247220Y141930D02*
D03*
X247430Y137330D02*
D03*
X254510Y147600D02*
D03*
X207690Y122460D02*
D03*
X200580Y113190D02*
D03*
X220400Y103440D02*
D03*
X226330Y107750D02*
D03*
X228100Y102150D02*
D03*
X214010Y90750D02*
D03*
X245700Y104990D02*
D03*
X240540Y101700D02*
D03*
X246240Y98940D02*
D03*
X240900Y90930D02*
D03*
X237600Y60570D02*
D03*
X156230Y81670D02*
D03*
X178490Y81940D02*
D03*
X179470Y63060D02*
D03*
X123720Y-17670D02*
D03*
X252620Y-18530D02*
D03*
X259790Y-12980D02*
D03*
X264630Y-6820D02*
D03*
X262180Y-18530D02*
D03*
X276700Y-18890D02*
D03*
X282430Y-14470D02*
D03*
X281470Y-7720D02*
D03*
X278670Y-130D02*
D03*
X275620Y3930D02*
D03*
X269050Y4110D02*
D03*
X267910Y11750D02*
D03*
X262540Y17190D02*
D03*
X258060Y41740D02*
D03*
X262480Y37020D02*
D03*
X274550Y43770D02*
D03*
X273650Y37560D02*
D03*
X281360Y39290D02*
D03*
X289900Y39710D02*
D03*
X289240Y-15100D02*
D03*
X331330Y-16170D02*
D03*
X325990Y-2160D02*
D03*
X354090Y5510D02*
D03*
X317240Y23770D02*
D03*
X317820Y16350D02*
D03*
X322320Y23600D02*
D03*
X335750Y21930D02*
D03*
X343830Y24350D02*
D03*
X348750Y30100D02*
D03*
X342750Y33770D02*
D03*
X352340Y35850D02*
D03*
X353340Y23600D02*
D03*
X352920Y15930D02*
D03*
X357590Y13510D02*
D03*
X358670Y22850D02*
D03*
X358170Y36600D02*
D03*
X307850Y26270D02*
D03*
X326410Y40940D02*
D03*
X331830Y38210D02*
D03*
X337400Y43600D02*
D03*
X357300Y44120D02*
D03*
X327420Y57350D02*
D03*
X333810Y54080D02*
D03*
X338220Y57960D02*
D03*
X343160Y55300D02*
D03*
X343010Y62900D02*
D03*
X342320Y69900D02*
D03*
X342470Y77960D02*
D03*
X347800Y91490D02*
D03*
X341330Y91570D02*
D03*
X333650D02*
D03*
X327720Y91490D02*
D03*
X329620Y101530D02*
D03*
X340340Y101450D02*
D03*
X346960Y101760D02*
D03*
X343160Y110960D02*
D03*
X348480Y116960D02*
D03*
X357980Y115220D02*
D03*
X335550Y105330D02*
D03*
X329470Y111870D02*
D03*
X318070Y113010D02*
D03*
X308640Y112250D02*
D03*
X308870Y119090D02*
D03*
X308330Y126620D02*
D03*
X308030Y132630D02*
D03*
X307650Y138480D02*
D03*
X307800Y145400D02*
D03*
X305520Y151940D02*
D03*
X306360Y159090D02*
D03*
X317530Y159240D02*
D03*
X312900Y153690D02*
D03*
X314720Y145930D02*
D03*
X314800Y139010D02*
D03*
X315180Y133460D02*
D03*
X317990Y127000D02*
D03*
X317610Y120920D02*
D03*
X325970Y118640D02*
D03*
X325290Y127300D02*
D03*
X322550Y137260D02*
D03*
X321490Y146620D02*
D03*
X325900Y156270D02*
D03*
X332510Y157950D02*
D03*
X336700Y116130D02*
D03*
X333880Y125560D02*
D03*
X344910Y125100D02*
D03*
X356010Y126620D02*
D03*
X352970Y135670D02*
D03*
X340040Y155510D02*
D03*
X285980Y137800D02*
D03*
X285830Y130040D02*
D03*
X276320Y150720D02*
D03*
X281880Y155060D02*
D03*
X283780Y149130D02*
D03*
X293050Y152240D02*
D03*
X301720Y155740D02*
D03*
X264010Y135360D02*
D03*
X264080Y129510D02*
D03*
X267810Y131030D02*
D03*
X263400Y122440D02*
D03*
Y115750D02*
D03*
X250930Y112100D02*
D03*
X275500Y107770D02*
D03*
X274480Y102100D02*
D03*
X273360Y96060D02*
D03*
X272900Y90670D02*
D03*
X282100Y90950D02*
D03*
X279590Y98480D02*
D03*
X271970Y76730D02*
D03*
X282380Y76260D02*
D03*
X275690Y71900D02*
D03*
X278660Y64370D02*
D03*
X282470Y70220D02*
D03*
X275500Y59720D02*
D03*
X285170Y58980D02*
D03*
X242420Y77660D02*
D03*
X252820Y77570D02*
D03*
X263510Y77840D02*
D03*
X182040Y76360D02*
D03*
X136110Y56960D02*
D03*
M02*
