G04*
G04 #@! TF.GenerationSoftware,Altium Limited,Altium Designer,21.0.8 (223)*
G04*
G04 Layer_Physical_Order=1*
G04 Layer_Color=255*
%FSLAX25Y25*%
%MOIN*%
G70*
G04*
G04 #@! TF.SameCoordinates,A399C05B-B16C-483E-863C-B068B867FB55*
G04*
G04*
G04 #@! TF.FilePolarity,Positive*
G04*
G01*
G75*
%ADD14C,0.01000*%
%ADD16C,0.02000*%
%ADD23R,0.07874X0.11811*%
%ADD24R,0.00984X0.04724*%
%ADD25R,0.05118X0.05906*%
%ADD26R,0.07087X0.06575*%
%ADD27R,0.03800X0.03000*%
%ADD28R,0.05709X0.01772*%
%ADD29R,0.01378X0.02559*%
%ADD30R,0.03000X0.03800*%
%ADD31O,0.02400X0.08000*%
%ADD32R,0.06299X0.05906*%
%ADD33R,0.04724X0.08661*%
%ADD34R,0.02756X0.06299*%
%ADD35R,0.04724X0.07087*%
%ADD36R,0.03150X0.09843*%
%ADD37R,0.05906X0.02362*%
%ADD38R,0.04724X0.07874*%
%ADD39O,0.01299X0.07087*%
%ADD40O,0.01299X0.07284*%
%ADD41C,0.03937*%
%ADD42R,0.04500X0.04000*%
%ADD43R,0.07087X0.09449*%
%ADD44O,0.01000X0.07874*%
%ADD45R,0.01000X0.07874*%
%ADD46R,0.07874X0.01000*%
%ADD47R,0.02559X0.01378*%
%ADD48O,0.01575X0.05709*%
%ADD49R,0.11811X0.11811*%
%ADD50R,0.09843X0.09843*%
%ADD51R,0.03150X0.00984*%
%ADD52R,0.00984X0.03150*%
%ADD53R,0.04000X0.04500*%
%ADD54R,0.05906X0.01968*%
%ADD55R,0.03937X0.11811*%
%ADD56R,0.03600X0.03600*%
%ADD57R,0.05000X0.03600*%
%ADD58R,0.02953X0.01378*%
%ADD59R,0.03600X0.03600*%
%ADD60R,0.03600X0.05000*%
%ADD61R,0.09488X0.08504*%
%ADD62R,0.06575X0.07087*%
%ADD63R,0.06299X0.05984*%
%ADD64R,0.13780X0.09252*%
%ADD65R,0.06496X0.02362*%
%ADD66R,0.10236X0.12205*%
%ADD115C,0.03000*%
%ADD116C,0.01500*%
%ADD117C,0.01300*%
%ADD118R,0.05906X0.05906*%
%ADD119C,0.05906*%
%ADD120C,0.19685*%
%ADD121R,0.05906X0.05906*%
%ADD122C,0.01968*%
%ADD123C,0.02400*%
G36*
X65821Y163794D02*
X63354Y161327D01*
X62936Y161607D01*
X62058Y161782D01*
X53678D01*
Y162138D01*
X49178D01*
Y161782D01*
X43878D01*
X43000Y161607D01*
X42255Y161110D01*
X36298Y155152D01*
X35800Y154408D01*
X35626Y153530D01*
Y136180D01*
X34920D01*
Y135214D01*
X24890D01*
X24811Y135267D01*
X24050Y135418D01*
X23289Y135267D01*
X22644Y134836D01*
X22213Y134191D01*
X22062Y133430D01*
X22213Y132669D01*
X22644Y132024D01*
X23289Y131593D01*
X24050Y131442D01*
X24811Y131593D01*
X24890Y131646D01*
X34920D01*
Y130680D01*
X40920D01*
Y136180D01*
X40214D01*
Y152580D01*
X44828Y157194D01*
X49178D01*
Y156838D01*
X53678D01*
Y157194D01*
X60398D01*
Y156248D01*
X62826D01*
X63048Y156203D01*
X63270Y156248D01*
X65698D01*
Y158624D01*
X66436Y159362D01*
X66898Y159171D01*
Y156248D01*
X67254D01*
Y154878D01*
X66948D01*
Y150378D01*
X69376D01*
X69598Y150333D01*
X69820Y150378D01*
X70046D01*
X70964Y149460D01*
X70772Y148998D01*
X70088D01*
Y146598D01*
X72088D01*
Y147682D01*
X72550Y147873D01*
X73435Y146988D01*
Y141410D01*
X73532Y140922D01*
X73809Y140509D01*
X76789Y137529D01*
X77202Y137252D01*
X77690Y137155D01*
X80442D01*
X92488Y125110D01*
Y123353D01*
X85420D01*
Y123603D01*
X84420D01*
Y118666D01*
Y113729D01*
X85420D01*
Y113979D01*
X92106D01*
X92181Y113899D01*
X92356Y113424D01*
X91925Y112779D01*
X91774Y112018D01*
X91925Y111257D01*
X92356Y110612D01*
X93001Y110181D01*
X93762Y110030D01*
X94523Y110181D01*
X95168Y110612D01*
X95599Y111257D01*
X95750Y112018D01*
X95599Y112779D01*
X95168Y113424D01*
X95343Y113899D01*
X95419Y113979D01*
X98393D01*
Y107664D01*
X80100D01*
X79222Y107490D01*
X78478Y106992D01*
X75819Y104333D01*
X72396Y107756D01*
X71983Y108033D01*
X71495Y108130D01*
X69172D01*
Y108882D01*
X69672Y109149D01*
X69961Y108955D01*
X70722Y108804D01*
X71483Y108955D01*
X72128Y109386D01*
X72559Y110031D01*
X72710Y110792D01*
X72559Y111553D01*
X72128Y112198D01*
X71483Y112629D01*
X70722Y112780D01*
X69961Y112629D01*
X69316Y112198D01*
X69229Y112067D01*
X64235D01*
X64112Y112042D01*
X59548D01*
Y110324D01*
X59298D01*
Y109324D01*
X64235D01*
Y108324D01*
X59298D01*
Y108130D01*
X58268D01*
Y109128D01*
X52968D01*
Y104628D01*
X52968D01*
X52885Y104398D01*
X52475Y104273D01*
X52018Y104562D01*
Y106378D01*
X46218D01*
Y104693D01*
X46218Y104378D01*
X45794Y104193D01*
X43270D01*
X39264Y108198D01*
Y109730D01*
X40240D01*
Y115030D01*
X35740D01*
Y109730D01*
X36715D01*
Y107670D01*
X36812Y107182D01*
X37089Y106769D01*
X41172Y102686D01*
X40980Y102224D01*
X38880D01*
X34825Y106279D01*
Y119179D01*
X34728Y119667D01*
X34452Y120080D01*
X28961Y125571D01*
X28548Y125847D01*
X28060Y125944D01*
X3965D01*
X3477Y125847D01*
X3064Y125571D01*
X-2141Y120366D01*
X-2417Y119953D01*
X-2514Y119465D01*
Y101905D01*
X-2417Y101418D01*
X-2141Y101004D01*
X-514Y99377D01*
Y97545D01*
X-395Y96945D01*
X-55Y96437D01*
X453Y96097D01*
X1053Y95977D01*
X1653Y96097D01*
X2162Y96437D01*
X2504D01*
X2504Y96437D01*
X3012Y96097D01*
X3612Y95977D01*
X4212Y96097D01*
X4721Y96437D01*
X5063D01*
X5572Y96097D01*
X6171Y95977D01*
X6771Y96097D01*
X6893Y96178D01*
X7442Y96256D01*
X8033Y95861D01*
X8230Y95822D01*
Y99612D01*
Y103402D01*
X8201Y103396D01*
X7701Y103696D01*
Y105889D01*
X8230D01*
Y111189D01*
X3730D01*
Y107186D01*
X3268Y106994D01*
X1784Y108478D01*
Y118212D01*
X5218Y121645D01*
X26807D01*
X30363Y118090D01*
X30044Y117702D01*
X29929Y117779D01*
X29051Y117953D01*
X28210D01*
Y118309D01*
X23710D01*
Y117894D01*
X22390D01*
Y118229D01*
X17890D01*
Y117894D01*
X16530D01*
Y118250D01*
X12030D01*
Y115822D01*
X11986Y115600D01*
X12030Y115378D01*
Y114544D01*
X10199Y112712D01*
X9867Y112216D01*
X9751Y111631D01*
Y103702D01*
X9251Y103398D01*
X9230Y103402D01*
Y99612D01*
Y95822D01*
X9428Y95861D01*
X10019Y96256D01*
X10568Y96178D01*
X10690Y96097D01*
X11289Y95977D01*
X11889Y96097D01*
X12219Y96317D01*
X12740Y96437D01*
X13249Y96097D01*
X13849Y95977D01*
X14448Y96097D01*
X14649Y96231D01*
X15205Y96001D01*
X15230Y95875D01*
X15506Y95461D01*
X15701Y95267D01*
X15509Y94805D01*
X10510D01*
Y88399D01*
X16916D01*
Y93399D01*
X17377Y93590D01*
X20762Y90206D01*
X21175Y89930D01*
X21663Y89833D01*
X45010D01*
Y88410D01*
X47910D01*
X50810D01*
Y89833D01*
X51760D01*
Y85660D01*
X57060D01*
Y87864D01*
X59548D01*
Y85920D01*
X59548D01*
Y81983D01*
Y78046D01*
Y74109D01*
Y70172D01*
X59548D01*
Y68735D01*
X59548D01*
Y67017D01*
X59298D01*
Y66017D01*
X64235D01*
Y65017D01*
X59298D01*
Y64017D01*
X59548D01*
Y62298D01*
X62960D01*
Y60778D01*
X61608D01*
Y56278D01*
X66908D01*
Y60778D01*
X65509D01*
Y62274D01*
X70133D01*
X70621Y62371D01*
X71034Y62647D01*
X71656Y63269D01*
X72117Y63022D01*
X72089Y62883D01*
X72240Y62122D01*
X72671Y61477D01*
X72803Y61389D01*
Y60361D01*
X70859D01*
Y55797D01*
X70834Y55674D01*
Y45575D01*
X70703Y45487D01*
X70272Y44842D01*
X70120Y44081D01*
X70272Y43321D01*
X70703Y42676D01*
X71348Y42244D01*
X72109Y42093D01*
X72869Y42244D01*
X73514Y42676D01*
X73775Y43066D01*
X74355Y43034D01*
X74640Y42608D01*
X75285Y42178D01*
X76046Y42026D01*
X76806Y42178D01*
X77451Y42608D01*
X77735Y43032D01*
X78316Y43062D01*
X78577Y42671D01*
X79222Y42241D01*
X79983Y42089D01*
X80743Y42241D01*
X81388Y42671D01*
X81664Y43085D01*
X82248Y43102D01*
X82514Y42704D01*
X83159Y42274D01*
X83920Y42122D01*
X84680Y42274D01*
X85325Y42704D01*
X85756Y43349D01*
X85908Y44110D01*
X85756Y44871D01*
X85325Y45516D01*
X85194Y45604D01*
Y50987D01*
X94456D01*
Y48629D01*
X93679Y47851D01*
X93402Y47438D01*
X93305Y46950D01*
Y43924D01*
X93174Y43836D01*
X92743Y43191D01*
X92592Y42430D01*
X92743Y41669D01*
X93167Y41034D01*
X93155Y40968D01*
X93007Y40534D01*
X43508D01*
X39801Y44241D01*
X39388Y44517D01*
X38900Y44614D01*
X26670D01*
X26182Y44517D01*
X25769Y44241D01*
X21992Y40464D01*
X17730D01*
Y41440D01*
X17374D01*
Y42760D01*
X17690D01*
Y47260D01*
X17374D01*
Y49940D01*
X17199Y50818D01*
X17030Y51072D01*
Y51459D01*
X16771D01*
X16702Y51562D01*
X16622Y51642D01*
X15878Y52139D01*
X15000Y52314D01*
X14122Y52139D01*
X13378Y51642D01*
X13255Y51459D01*
X12970D01*
Y51033D01*
X12880Y50898D01*
X12706Y50020D01*
X12786Y49618D01*
Y47260D01*
X12390D01*
Y42760D01*
X12786D01*
Y41440D01*
X12430D01*
Y36940D01*
X14858D01*
X15080Y36896D01*
X15302Y36940D01*
X17730D01*
Y37916D01*
X21420D01*
X21611Y37454D01*
X15478Y31320D01*
X15252D01*
X15030Y31364D01*
X14808Y31320D01*
X12380D01*
Y26820D01*
X12736D01*
Y25540D01*
X12260D01*
Y21040D01*
X12736D01*
Y19244D01*
X12586Y18490D01*
X12761Y17612D01*
X12851Y17478D01*
Y17051D01*
X13135D01*
X13258Y16868D01*
X14002Y16371D01*
X14880Y16196D01*
X15758Y16371D01*
X16502Y16868D01*
X16652Y17018D01*
X16674Y17051D01*
X16909D01*
Y17403D01*
X17149Y17762D01*
X17324Y18640D01*
Y21040D01*
X17560D01*
Y25540D01*
X17324D01*
Y26820D01*
X17680D01*
Y29918D01*
X27928Y40165D01*
X32810D01*
X33077Y39665D01*
X32913Y39421D01*
X32739Y38543D01*
Y34090D01*
X32610D01*
Y29590D01*
X32739D01*
Y28010D01*
X32670D01*
Y23510D01*
X35098D01*
X35320Y23466D01*
X35542Y23510D01*
X37970D01*
Y28010D01*
X37327D01*
Y29590D01*
X37910D01*
Y34090D01*
X37327D01*
Y38543D01*
X37215Y39106D01*
X37676Y39352D01*
X40419Y36609D01*
X40832Y36332D01*
X41320Y36235D01*
X72010D01*
X72201Y35774D01*
X65879Y29452D01*
X65417Y29643D01*
Y30741D01*
X65725Y31201D01*
X65876Y31962D01*
X65725Y32723D01*
X65294Y33368D01*
X64649Y33799D01*
X63888Y33950D01*
X63127Y33799D01*
X62482Y33368D01*
X62051Y32723D01*
X61900Y31962D01*
X62051Y31201D01*
X62359Y30741D01*
Y27948D01*
X61638D01*
Y22648D01*
X66138D01*
Y25385D01*
X66816Y26063D01*
X67239Y25888D01*
X69778D01*
X72278D01*
Y27548D01*
X72719Y27784D01*
X72899Y27663D01*
X73660Y27512D01*
X74421Y27663D01*
X75066Y28094D01*
X75154Y28225D01*
X82852D01*
X88403Y22674D01*
Y20458D01*
X87428D01*
Y15158D01*
X91928D01*
Y20458D01*
X90952D01*
Y23202D01*
X90855Y23690D01*
X90579Y24103D01*
X84281Y30401D01*
X83868Y30678D01*
X83380Y30775D01*
X75154D01*
X75066Y30906D01*
X74421Y31337D01*
X73660Y31488D01*
X72899Y31337D01*
X72592Y31132D01*
X72273Y31520D01*
X74661Y33908D01*
X99994D01*
X100134Y33570D01*
X100727Y32797D01*
X101316Y32344D01*
X101147Y31844D01*
X99346D01*
X99105Y32205D01*
X98460Y32636D01*
X97699Y32787D01*
X96938Y32636D01*
X96293Y32205D01*
X95862Y31560D01*
X95711Y30799D01*
X95800Y30351D01*
X95350Y30051D01*
X95341Y30057D01*
X94580Y30208D01*
X93819Y30057D01*
X93174Y29626D01*
X92743Y28981D01*
X92592Y28220D01*
X92743Y27459D01*
X93174Y26814D01*
X93819Y26383D01*
X94580Y26232D01*
X95341Y26383D01*
X95986Y26814D01*
X96074Y26945D01*
X147470D01*
X147958Y27042D01*
X148371Y27319D01*
X151741Y30689D01*
X152017Y31102D01*
X152114Y31590D01*
Y48102D01*
X160978Y56966D01*
X163458D01*
X163888Y56798D01*
X163888Y56466D01*
Y54798D01*
X169688D01*
X169688Y56798D01*
X170118Y56966D01*
X170440D01*
X170638Y56548D01*
Y52048D01*
X170924D01*
Y50768D01*
X170568D01*
Y46268D01*
X170854D01*
Y45028D01*
X170498D01*
Y40528D01*
X171034D01*
Y38838D01*
X170578D01*
Y32838D01*
X171034D01*
Y31692D01*
X171034Y31322D01*
X170550Y31192D01*
X155758D01*
Y24552D01*
X146678D01*
Y24908D01*
X142178D01*
Y22479D01*
X142134Y22258D01*
X142178Y22036D01*
Y19608D01*
X146678D01*
Y19963D01*
X159839D01*
X160717Y20138D01*
X161170Y20440D01*
X171038D01*
Y23522D01*
X181074D01*
Y20999D01*
X184274D01*
Y14652D01*
X184449Y13774D01*
X184946Y13030D01*
X192246Y5729D01*
X192039Y5229D01*
X191931Y5229D01*
X191931Y5229D01*
X191925Y5229D01*
X187068D01*
Y478D01*
X192312D01*
X192312Y4843D01*
Y4849D01*
Y4849D01*
X192312Y4956D01*
X192434Y5064D01*
X192526Y5098D01*
X192812Y5205D01*
X193432Y4791D01*
X194310Y4616D01*
X195188Y4791D01*
X195932Y5288D01*
X196037Y5446D01*
X216431D01*
Y2800D01*
X217923D01*
Y2300D01*
X218423D01*
Y-1062D01*
X219415D01*
Y-812D01*
X220585D01*
Y-15256D01*
X220238Y-15488D01*
X218080Y-17646D01*
X184600D01*
X183722Y-17821D01*
X182978Y-18318D01*
X182481Y-19062D01*
X182306Y-19940D01*
X182481Y-20818D01*
X182978Y-21562D01*
X183269Y-21757D01*
X183376Y-22430D01*
X183303Y-22523D01*
X81608D01*
Y-21707D01*
X81798D01*
X82676Y-21532D01*
X83420Y-21035D01*
X99110Y-5345D01*
X103507D01*
Y-3897D01*
X104408D01*
Y-5265D01*
X112207D01*
Y-3816D01*
X120734D01*
X120942Y-4316D01*
X120807Y-4451D01*
X118218D01*
Y-8314D01*
X120903D01*
X129641Y-17052D01*
X130386Y-17549D01*
X131263Y-17724D01*
X155623D01*
Y-19723D01*
X163697D01*
Y-11137D01*
X161954D01*
Y-8542D01*
X162438D01*
Y-4042D01*
X162082D01*
Y-3378D01*
X171038D01*
Y7373D01*
X155758D01*
Y-3378D01*
X157494D01*
Y-4042D01*
X157138D01*
Y-8542D01*
X157366D01*
Y-11137D01*
X155623D01*
Y-13136D01*
X132214D01*
X126214Y-7136D01*
Y-4451D01*
X123376D01*
X123094Y-4263D01*
X122744Y-4193D01*
Y-3684D01*
X122954Y-3642D01*
X123445Y-3314D01*
X126214D01*
Y549D01*
X123376D01*
X123094Y737D01*
X122216Y912D01*
X121512Y772D01*
X112207D01*
Y2220D01*
X104408D01*
Y692D01*
X103507D01*
Y2140D01*
X101980D01*
X101934Y2640D01*
X105592Y6298D01*
X107248D01*
Y10798D01*
X104820D01*
X104598Y10842D01*
X104376Y10798D01*
X101948D01*
Y9142D01*
X97986Y5180D01*
X97488Y4436D01*
X97314Y3558D01*
Y2140D01*
X95708D01*
Y-2258D01*
X90279Y-7687D01*
X89817Y-7496D01*
Y-6978D01*
X88628D01*
Y-8933D01*
X88747Y-9219D01*
X85870Y-12096D01*
X85408Y-11905D01*
Y-8862D01*
X85152D01*
Y-2737D01*
X87977D01*
X88128Y-2767D01*
X89006Y-2592D01*
X89140Y-2502D01*
X89567D01*
Y-2217D01*
X89750Y-2095D01*
X90247Y-1350D01*
X90422Y-472D01*
X90247Y405D01*
X89750Y1150D01*
X89720Y1180D01*
X89567Y1282D01*
Y1557D01*
X89155D01*
X88976Y1677D01*
X88098Y1852D01*
X85152D01*
Y4858D01*
X84998Y5632D01*
Y7618D01*
X82570D01*
X82348Y7662D01*
X82126Y7618D01*
X79698D01*
Y3118D01*
X80564D01*
Y1808D01*
X79738D01*
Y-2692D01*
X80564D01*
Y-3952D01*
X79758D01*
Y-8452D01*
X80091D01*
X80308Y-8862D01*
Y-13962D01*
X83350D01*
X83542Y-14424D01*
X82020Y-15946D01*
X81608Y-16162D01*
Y-16162D01*
X81608Y-16162D01*
X76508D01*
Y-22523D01*
X21342D01*
X21340Y-22494D01*
X20670Y-22523D01*
X18186D01*
X15757Y-22417D01*
X12115Y-21937D01*
X8528Y-21142D01*
X5024Y-20037D01*
X1630Y-18631D01*
X-1629Y-16935D01*
X-4728Y-14961D01*
X-7643Y-12724D01*
X-10352Y-10242D01*
X-12834Y-7533D01*
X-15070Y-4618D01*
X-17044Y-1520D01*
X-18741Y1739D01*
X-20147Y5133D01*
X-21252Y8637D01*
X-22047Y12224D01*
X-22526Y15867D01*
X-22603Y17625D01*
X-22603D01*
X-22633Y17653D01*
Y50891D01*
X-22132Y51098D01*
X-20132Y49098D01*
X-19388Y48601D01*
X-18510Y48426D01*
X-5940D01*
X-5062Y48601D01*
X-4318Y49098D01*
X10353Y63768D01*
X10589Y64122D01*
X11232Y64185D01*
X13213Y62205D01*
X13182Y62050D01*
X13333Y61289D01*
X13764Y60644D01*
X14409Y60213D01*
X15170Y60062D01*
X15931Y60213D01*
X16576Y60644D01*
X17007Y61289D01*
X17158Y62050D01*
X17007Y62811D01*
X16576Y63456D01*
X15931Y63887D01*
X15170Y64038D01*
X15015Y64007D01*
X12755Y66267D01*
Y72145D01*
X13255Y72415D01*
X13349Y72397D01*
Y76187D01*
Y79977D01*
X13151Y79937D01*
X12560Y79542D01*
X12011Y79621D01*
X11889Y79702D01*
X11289Y79821D01*
X10690Y79702D01*
X10181Y79362D01*
X9839D01*
X9330Y79702D01*
X8731Y79821D01*
X8131Y79702D01*
X8009Y79621D01*
X7460Y79542D01*
X6869Y79937D01*
X6671Y79977D01*
Y76187D01*
X5671D01*
Y79977D01*
X5474Y79937D01*
X4883Y79542D01*
X4334Y79621D01*
X4212Y79702D01*
X3612Y79821D01*
X3012Y79702D01*
X2504Y79362D01*
X2048Y79438D01*
X1653Y79702D01*
X1053Y79821D01*
X453Y79702D01*
X2Y79400D01*
X-4191Y83593D01*
Y87050D01*
X-3470D01*
Y92350D01*
X-7970D01*
Y87050D01*
X-7249D01*
Y82960D01*
X-7133Y82375D01*
X-6801Y81879D01*
X-514Y75591D01*
Y74120D01*
X-395Y73520D01*
X-55Y73011D01*
X453Y72672D01*
X1053Y72552D01*
X1583Y72658D01*
X1930Y72524D01*
X2083Y72442D01*
Y68417D01*
X1990Y68354D01*
X-7900Y58464D01*
X-12233D01*
X-12499Y58811D01*
X-13273Y59404D01*
X-14173Y59777D01*
X-15140Y59905D01*
X-16107Y59777D01*
X-17007Y59404D01*
X-17781Y58811D01*
X-18096Y58400D01*
X-18596Y58570D01*
Y63359D01*
X-18096Y63529D01*
X-17959Y63351D01*
X-17133Y62717D01*
X-16172Y62319D01*
X-15640Y62249D01*
Y66170D01*
Y70091D01*
X-16172Y70021D01*
X-17133Y69623D01*
X-17959Y68989D01*
X-18096Y68811D01*
X-18596Y68981D01*
Y73770D01*
X-18096Y73940D01*
X-17781Y73529D01*
X-17007Y72936D01*
X-16107Y72563D01*
X-15140Y72435D01*
X-14173Y72563D01*
X-13273Y72936D01*
X-12499Y73529D01*
X-11906Y74303D01*
X-11533Y75203D01*
X-11405Y76170D01*
X-11533Y77137D01*
X-11906Y78037D01*
X-12499Y78811D01*
X-13273Y79404D01*
X-14173Y79777D01*
X-15140Y79905D01*
X-16107Y79777D01*
X-17007Y79404D01*
X-17781Y78811D01*
X-18096Y78400D01*
X-18596Y78570D01*
Y83770D01*
X-18096Y83940D01*
X-17781Y83529D01*
X-17007Y82936D01*
X-16107Y82563D01*
X-15140Y82435D01*
X-14173Y82563D01*
X-13273Y82936D01*
X-12499Y83529D01*
X-11906Y84303D01*
X-11533Y85203D01*
X-11405Y86170D01*
X-11533Y87137D01*
X-11906Y88037D01*
X-12499Y88811D01*
X-13273Y89404D01*
X-14173Y89777D01*
X-15140Y89905D01*
X-16107Y89777D01*
X-17007Y89404D01*
X-17781Y88811D01*
X-18096Y88400D01*
X-18596Y88570D01*
Y93770D01*
X-18096Y93940D01*
X-17781Y93529D01*
X-17007Y92936D01*
X-16107Y92563D01*
X-15140Y92435D01*
X-14173Y92563D01*
X-13273Y92936D01*
X-12499Y93529D01*
X-12233Y93876D01*
X-7970D01*
Y93550D01*
X-3470D01*
Y95978D01*
X-3426Y96200D01*
X-3470Y96422D01*
Y98850D01*
X-7970D01*
Y98464D01*
X-12233D01*
X-12499Y98811D01*
X-13273Y99404D01*
X-14173Y99777D01*
X-15140Y99905D01*
X-16107Y99777D01*
X-17007Y99404D01*
X-17781Y98811D01*
X-18096Y98400D01*
X-18596Y98570D01*
Y99470D01*
X-15598Y102467D01*
X-11437D01*
Y109873D01*
X-18843D01*
Y105712D01*
X-22132Y102422D01*
X-22633Y102629D01*
Y123428D01*
X-22619Y123925D01*
D01*
X-22633Y124422D01*
Y124553D01*
X-22647Y124624D01*
X-22458Y128451D01*
X-21886Y132311D01*
X-20938Y136096D01*
X-19623Y139770D01*
X-17955Y143297D01*
X-15949Y146644D01*
X-13624Y149778D01*
X-11004Y152669D01*
X-8113Y155290D01*
X-4978Y157614D01*
X-1632Y159620D01*
X1896Y161289D01*
X5570Y162603D01*
X9355Y163551D01*
X13215Y164124D01*
X16483Y164285D01*
X16483Y164285D01*
Y164285D01*
X16492Y164293D01*
X65614Y164294D01*
X65821Y163794D01*
D02*
G37*
G36*
X125773Y158839D02*
X125581Y158378D01*
X124730D01*
X124508Y158422D01*
X124286Y158378D01*
X121858D01*
Y153878D01*
X122214D01*
Y152588D01*
X121858D01*
Y148088D01*
X122214D01*
Y146858D01*
X121858D01*
Y142358D01*
X122214D01*
Y141018D01*
X121858D01*
Y140042D01*
X116438D01*
Y141307D01*
X113538D01*
X110638D01*
Y140042D01*
X109688D01*
Y144058D01*
X106959D01*
X106738Y144102D01*
X102222D01*
Y145607D01*
X102399Y145783D01*
X108922D01*
Y156732D01*
X100335D01*
Y150209D01*
X98306Y148179D01*
X97808Y147435D01*
X97634Y146557D01*
Y144058D01*
X97278D01*
Y140960D01*
X97020Y140702D01*
X96755Y140500D01*
X96341Y140697D01*
X96078Y140960D01*
Y144058D01*
X95722D01*
Y147498D01*
X95547Y148375D01*
X95050Y149120D01*
X93961Y150209D01*
Y156732D01*
X85375D01*
Y145783D01*
X91134D01*
Y144182D01*
X86178D01*
X85956Y144138D01*
X83828D01*
Y139638D01*
X85956D01*
X86178Y139594D01*
X90778D01*
Y139558D01*
X92906D01*
X93128Y139514D01*
X93278Y139543D01*
X93428Y139514D01*
X93650Y139558D01*
X93875D01*
X94456Y138977D01*
Y127400D01*
X93994Y127208D01*
X82315Y138888D01*
X82522Y139388D01*
X82878D01*
Y141388D01*
X76812D01*
X76616Y141306D01*
X75985Y141938D01*
Y147515D01*
X75888Y148003D01*
X75611Y148417D01*
X72248Y151780D01*
Y154878D01*
X71842D01*
Y156248D01*
X72198D01*
Y160748D01*
X72198D01*
X72202Y161246D01*
X123366D01*
X125773Y158839D01*
D02*
G37*
G36*
X323282Y164149D02*
X326874Y163676D01*
X330410Y162892D01*
X333865Y161803D01*
X337212Y160417D01*
X340425Y158744D01*
X343480Y156798D01*
X346354Y154592D01*
X349025Y152145D01*
X351473Y149474D01*
X353678Y146600D01*
X355624Y143545D01*
X357297Y140332D01*
X358683Y136985D01*
X359773Y133530D01*
X360557Y129993D01*
X361030Y126402D01*
X361167Y123263D01*
X361178Y122768D01*
X361178Y122768D01*
X361178Y122768D01*
X361178Y122768D01*
X361178Y122288D01*
Y20311D01*
X361153Y20164D01*
X361092Y19820D01*
X361092Y19819D01*
X361092D01*
X361114Y19355D01*
X361166Y18308D01*
X360969Y14301D01*
X360380Y10333D01*
X359406Y6441D01*
X358054Y2664D01*
X356339Y-962D01*
X354277Y-4403D01*
X351887Y-7625D01*
X349193Y-10598D01*
X346221Y-13292D01*
X342999Y-15681D01*
X339558Y-17744D01*
X335931Y-19459D01*
X332154Y-20810D01*
X328263Y-21785D01*
X324295Y-22374D01*
X324032Y-22386D01*
X323670Y-22042D01*
Y1380D01*
X320800Y4250D01*
X321119Y4638D01*
X321336Y4493D01*
X321480Y4464D01*
Y8941D01*
Y13417D01*
X321336Y13388D01*
X320915Y13106D01*
X320489Y12843D01*
X320026Y13153D01*
X319480Y13261D01*
X318934Y13153D01*
X318471Y12843D01*
X318112Y12808D01*
X317300Y13620D01*
X315740D01*
X315174Y13054D01*
X315026Y13153D01*
X314480Y13261D01*
X313934Y13153D01*
X313907Y13135D01*
X313407Y13402D01*
Y22206D01*
X313817Y22819D01*
X313968Y23580D01*
X313817Y24341D01*
X313386Y24986D01*
X312741Y25417D01*
X311980Y25568D01*
X311219Y25417D01*
X310574Y24986D01*
X310143Y24341D01*
X309992Y23580D01*
X310143Y22819D01*
X310553Y22206D01*
Y20303D01*
X310053Y20096D01*
X304989Y25159D01*
X304526Y25469D01*
X303980Y25577D01*
X303980Y25577D01*
X294500D01*
Y26400D01*
X289200D01*
Y21900D01*
X294500D01*
Y22723D01*
X303389D01*
X308053Y18059D01*
Y17273D01*
X307553Y17066D01*
X305229Y19389D01*
X304766Y19699D01*
X304220Y19807D01*
X304220Y19807D01*
X294590D01*
Y20630D01*
X289290D01*
Y16130D01*
X294590D01*
Y16953D01*
X303629D01*
X305553Y15029D01*
Y13402D01*
X305053Y13135D01*
X305026Y13153D01*
X304480Y13261D01*
X303934Y13153D01*
X303554Y12899D01*
X303230Y12852D01*
X302906Y12899D01*
X302526Y13153D01*
X301980Y13261D01*
X301434Y13153D01*
X301054Y12899D01*
X300730Y12852D01*
X300407Y12899D01*
X300026Y13153D01*
X299480Y13261D01*
X298934Y13153D01*
X298471Y12843D01*
X298162Y12380D01*
X298053Y11834D01*
Y10368D01*
X293420D01*
Y11660D01*
X288920D01*
Y6360D01*
X293420D01*
Y7513D01*
X298053D01*
Y6047D01*
X298162Y5501D01*
X298471Y5038D01*
X298934Y4729D01*
X299480Y4620D01*
X300026Y4729D01*
X300053Y4746D01*
X300553Y4479D01*
Y1851D01*
X299841Y1140D01*
X296960D01*
Y-4160D01*
X301460D01*
Y-1279D01*
X302488Y-251D01*
X302950Y-442D01*
Y-4160D01*
X307450D01*
Y-1279D01*
X308368Y-361D01*
X308830Y-552D01*
Y-4120D01*
X313330D01*
X313510Y-4546D01*
Y-5070D01*
X311580D01*
Y-7970D01*
X311080D01*
Y-8470D01*
X308580D01*
Y-10870D01*
X308171Y-11090D01*
X308125D01*
X307700Y-10910D01*
X307700Y-10590D01*
Y-8510D01*
X305200D01*
X302700D01*
Y-10590D01*
X302700Y-10910D01*
X302275Y-11090D01*
X301629D01*
X301460Y-10660D01*
X301460Y-10590D01*
Y-5360D01*
X296960D01*
Y-6583D01*
X296274D01*
X295661Y-6173D01*
X294900Y-6022D01*
X294139Y-6173D01*
X293494Y-6604D01*
X293063Y-7249D01*
X292912Y-8010D01*
X293063Y-8771D01*
X293494Y-9416D01*
X294139Y-9847D01*
X294900Y-9998D01*
X295661Y-9847D01*
X296274Y-9437D01*
X296960D01*
Y-10590D01*
X296960Y-10660D01*
X296791Y-11090D01*
X292590D01*
X291530Y-12150D01*
Y-14920D01*
Y-22523D01*
X220326D01*
X220253Y-22430D01*
X220361Y-21757D01*
X220652Y-21562D01*
X223482Y-18732D01*
X223979Y-17988D01*
X224154Y-17110D01*
X223979Y-16232D01*
X223482Y-15488D01*
X223134Y-15256D01*
Y-812D01*
X224523D01*
Y-1329D01*
X224392Y-1417D01*
X223961Y-2062D01*
X223809Y-2822D01*
X223961Y-3583D01*
X224392Y-4228D01*
X225037Y-4659D01*
X225798Y-4811D01*
X226558Y-4659D01*
X227203Y-4228D01*
X227488Y-3802D01*
X228068Y-3771D01*
X228329Y-4160D01*
X228974Y-4591D01*
X229734Y-4743D01*
X230495Y-4591D01*
X231140Y-4160D01*
X231531Y-3575D01*
X231826Y-3509D01*
X232084Y-3502D01*
X232266Y-3774D01*
X232911Y-4205D01*
X233671Y-4357D01*
X234432Y-4205D01*
X235077Y-3774D01*
X235342Y-3378D01*
X235926Y-3400D01*
X236203Y-3814D01*
X236848Y-4245D01*
X237609Y-4397D01*
X238369Y-4245D01*
X239014Y-3814D01*
X239216Y-3512D01*
X239366Y-3486D01*
X239792Y-3550D01*
X240140Y-4070D01*
X240785Y-4501D01*
X241546Y-4653D01*
X242306Y-4501D01*
X242951Y-4070D01*
X243230Y-3654D01*
X243813Y-3629D01*
X244077Y-4023D01*
X244722Y-4454D01*
X245482Y-4606D01*
X246243Y-4454D01*
X246888Y-4023D01*
X247132Y-3659D01*
X247163Y-3648D01*
X247711Y-3693D01*
X248014Y-4146D01*
X248659Y-4577D01*
X249419Y-4729D01*
X250180Y-4577D01*
X250825Y-4146D01*
X251048Y-3813D01*
X251132Y-3791D01*
X251626Y-3847D01*
X251951Y-4332D01*
X252596Y-4763D01*
X253357Y-4915D01*
X254117Y-4763D01*
X254762Y-4332D01*
X255011Y-3961D01*
X255032Y-3953D01*
X255589Y-3995D01*
X255888Y-4442D01*
X256533Y-4873D01*
X257294Y-5025D01*
X258054Y-4873D01*
X258699Y-4442D01*
X258968Y-4040D01*
X259552Y-4047D01*
X259825Y-4455D01*
X260470Y-4886D01*
X261230Y-5038D01*
X261991Y-4886D01*
X262636Y-4455D01*
X263067Y-3810D01*
X263219Y-3049D01*
X263067Y-2289D01*
X262636Y-1644D01*
X262505Y-1556D01*
Y-812D01*
X264441D01*
Y2137D01*
X264474Y2300D01*
Y9267D01*
X264605Y9355D01*
X265036Y10000D01*
X265187Y10761D01*
X265036Y11522D01*
X264605Y12167D01*
X263960Y12598D01*
X263199Y12749D01*
X262438Y12598D01*
X261793Y12167D01*
X261523Y11763D01*
X260940Y11767D01*
X260668Y12174D01*
X260023Y12605D01*
X259262Y12756D01*
X258501Y12605D01*
X257856Y12174D01*
X257630Y11836D01*
X257555Y11815D01*
X257052Y11870D01*
X256731Y12351D01*
X256086Y12782D01*
X255325Y12933D01*
X254564Y12782D01*
X253919Y12351D01*
X253670Y11978D01*
X253651Y11971D01*
X253092Y12012D01*
X252794Y12458D01*
X252149Y12889D01*
X251388Y13040D01*
X250627Y12889D01*
X249982Y12458D01*
X249753Y12116D01*
X249687Y12096D01*
X249175Y12150D01*
X248857Y12626D01*
X248212Y13057D01*
X247451Y13208D01*
X246690Y13057D01*
X246045Y12626D01*
X245614Y11981D01*
X245601Y11913D01*
X245070Y11807D01*
X244920Y12032D01*
X244275Y12463D01*
X243514Y12614D01*
X242753Y12463D01*
X242108Y12032D01*
X241677Y11387D01*
X241627Y11135D01*
X241096Y11029D01*
X240983Y11199D01*
X240338Y11630D01*
X239577Y11781D01*
X238816Y11630D01*
X238171Y11199D01*
X237740Y10554D01*
X237621Y9955D01*
X237113Y9815D01*
X237046Y9916D01*
X236401Y10347D01*
X235640Y10498D01*
X234879Y10347D01*
X234234Y9916D01*
X233966Y9514D01*
X233382Y9523D01*
X233109Y9933D01*
X232464Y10364D01*
X231703Y10515D01*
X230942Y10364D01*
X230297Y9933D01*
X230008Y9500D01*
X229432Y9465D01*
X229430Y9466D01*
X229176Y9846D01*
X228531Y10277D01*
X227770Y10428D01*
X227009Y10277D01*
X226364Y9846D01*
X226084Y9427D01*
X225503Y9406D01*
X225235Y9807D01*
X224590Y10238D01*
X223829Y10389D01*
X223068Y10238D01*
X222423Y9807D01*
X221992Y9162D01*
X221841Y8401D01*
X221992Y7640D01*
X222423Y6995D01*
X222554Y6907D01*
Y5412D01*
X221166D01*
Y5678D01*
X221069Y6166D01*
X220793Y6579D01*
X219751Y7621D01*
X219338Y7897D01*
X218850Y7994D01*
X204277D01*
Y11363D01*
X200128D01*
Y11863D01*
D01*
Y11363D01*
X195978D01*
Y9193D01*
X195478Y8986D01*
X188862Y15602D01*
Y20999D01*
X192062D01*
Y23707D01*
X196228D01*
Y21585D01*
X204028D01*
Y22994D01*
X205168D01*
Y22638D01*
X209668D01*
Y25014D01*
X210636Y25982D01*
X210912Y25868D01*
X213598D01*
X216098D01*
Y28268D01*
X213575D01*
X213384Y28730D01*
X215158Y30503D01*
X217178D01*
Y30148D01*
X221678D01*
Y30503D01*
X222994D01*
Y27978D01*
X222988D01*
Y25549D01*
X222944Y25328D01*
X222988Y25106D01*
Y22678D01*
X226770D01*
X226962Y22216D01*
X226224Y21478D01*
X222988D01*
Y21162D01*
X221608D01*
Y21478D01*
X217108D01*
Y21162D01*
X215848D01*
Y21518D01*
X211348D01*
Y19089D01*
X211304Y18868D01*
X211348Y18646D01*
Y16218D01*
X215848D01*
Y16574D01*
X217108D01*
Y16178D01*
X221608D01*
Y16574D01*
X222988D01*
Y16178D01*
X227488D01*
Y16667D01*
X227696Y16708D01*
X228440Y17205D01*
X234038Y22803D01*
X236231D01*
Y26272D01*
X236402Y26294D01*
Y27778D01*
X232449D01*
Y28778D01*
X236402D01*
Y30262D01*
X236152Y30284D01*
Y33752D01*
X234743D01*
Y60931D01*
X234569Y61809D01*
X234071Y62553D01*
X233327Y63050D01*
X232449Y63225D01*
X231571Y63050D01*
X230827Y62553D01*
X230330Y61809D01*
X230155Y60931D01*
Y34312D01*
X227538D01*
Y35398D01*
X223038D01*
Y35092D01*
X221678D01*
Y35448D01*
X217178D01*
Y35092D01*
X214208D01*
X213330Y34917D01*
X212585Y34420D01*
X206103Y27938D01*
X205168D01*
Y27582D01*
X204028D01*
Y29070D01*
X201822D01*
Y34848D01*
X202178D01*
Y39348D01*
X201942D01*
Y40608D01*
X202298D01*
Y45108D01*
X201812D01*
Y49668D01*
X201768Y49889D01*
Y52318D01*
X199025D01*
X198833Y52780D01*
X199571Y53518D01*
X201768D01*
Y54383D01*
X203038D01*
Y53418D01*
X207538D01*
Y54383D01*
X208908D01*
Y53488D01*
X213408D01*
Y58788D01*
X208908D01*
Y57952D01*
X207538D01*
Y58718D01*
X203038D01*
Y57952D01*
X201768D01*
Y58818D01*
X197268D01*
Y56261D01*
X191331Y50324D01*
X188418D01*
Y46856D01*
X188247Y46834D01*
Y45350D01*
X192199D01*
Y44350D01*
X188247D01*
Y42866D01*
X188496Y42844D01*
Y39375D01*
X190745D01*
X191321Y38990D01*
X192199Y38816D01*
X196878D01*
Y34848D01*
X197234D01*
Y29070D01*
X196228D01*
Y28295D01*
X192062D01*
Y31003D01*
X181074D01*
Y28111D01*
X171038D01*
Y29800D01*
X171538Y29951D01*
X171706Y29700D01*
X172450Y29203D01*
X173328Y29028D01*
X174206Y29203D01*
X174950Y29700D01*
X175447Y30444D01*
X175622Y31322D01*
Y32838D01*
X176078D01*
Y38816D01*
X180900D01*
X181778Y38990D01*
X182354Y39375D01*
X184603D01*
Y42844D01*
X182354D01*
X181778Y43229D01*
X180900Y43404D01*
X175798D01*
Y45028D01*
X175442D01*
Y46268D01*
X175868D01*
Y50768D01*
X175512D01*
Y52004D01*
X176328D01*
X177206Y52178D01*
X177950Y52675D01*
X178116Y52924D01*
X178616Y52772D01*
Y50324D01*
X177197D01*
Y46856D01*
X179446D01*
X180022Y46470D01*
X180900Y46296D01*
X181778Y46470D01*
X182354Y46856D01*
X184603D01*
Y50324D01*
X183204D01*
Y53040D01*
X183560D01*
Y56966D01*
X184510D01*
Y55790D01*
X187410D01*
X190310D01*
Y56966D01*
X193160D01*
X193648Y57063D01*
X194061Y57339D01*
X199581Y62859D01*
X199857Y63272D01*
X199954Y63760D01*
Y76182D01*
X199857Y76669D01*
X199581Y77083D01*
X195658Y81006D01*
Y83919D01*
X221427D01*
X238573Y66774D01*
X238690Y66182D01*
X239188Y65438D01*
X241494Y63132D01*
Y52688D01*
X241138D01*
Y48188D01*
X241454D01*
Y46938D01*
X241088D01*
Y42438D01*
X241454D01*
Y41138D01*
X241108D01*
Y36638D01*
X241454D01*
Y33752D01*
X240046D01*
Y30284D01*
X242294D01*
X242870Y29898D01*
X243748Y29724D01*
X247278D01*
Y29038D01*
X252778D01*
Y35038D01*
X247278D01*
Y34312D01*
X246042D01*
Y36638D01*
X246408D01*
Y41138D01*
X246042D01*
Y42438D01*
X246388D01*
Y46938D01*
X246042D01*
Y48188D01*
X246438D01*
Y52688D01*
X246082D01*
Y64082D01*
X245907Y64960D01*
X245410Y65704D01*
X242432Y68682D01*
X241688Y69179D01*
X241096Y69297D01*
X223428Y86965D01*
X222849Y87352D01*
X222166Y87488D01*
X176548D01*
Y87954D01*
X173450D01*
X171553Y89851D01*
X171139Y90127D01*
X170652Y90224D01*
X151844D01*
X151356Y90127D01*
X150943Y89851D01*
X140805Y79714D01*
X137916D01*
X137626Y80180D01*
X137842Y80504D01*
X137994Y81265D01*
X137842Y82025D01*
X137411Y82671D01*
X136766Y83102D01*
X136290Y83196D01*
X136125Y83739D01*
X145502Y93116D01*
X235036D01*
X235124Y92984D01*
X235769Y92553D01*
X236530Y92402D01*
X237291Y92553D01*
X237936Y92984D01*
X238367Y93629D01*
X238518Y94390D01*
X238367Y95151D01*
X237936Y95796D01*
X238088Y96295D01*
X241288D01*
X248820Y88763D01*
X248952Y88103D01*
X249161Y87789D01*
Y86756D01*
X252039D01*
Y87026D01*
X254000D01*
Y86560D01*
X259300D01*
Y91060D01*
X258434D01*
Y92380D01*
X259300D01*
Y96880D01*
X254000D01*
Y92380D01*
X254866D01*
Y91060D01*
X254000D01*
Y90594D01*
X252039D01*
Y90815D01*
X250373D01*
X242717Y98471D01*
X242303Y98747D01*
X241815Y98844D01*
X145370D01*
X144882Y98747D01*
X144469Y98471D01*
X141044Y95046D01*
X140533Y95243D01*
X140421Y95805D01*
X139990Y96450D01*
X139345Y96881D01*
X139273Y97405D01*
X139346Y97454D01*
X139777Y98099D01*
X139928Y98860D01*
X139777Y99621D01*
X139346Y100266D01*
X138701Y100697D01*
X137940Y100848D01*
X137834Y100827D01*
X137434Y101257D01*
Y101820D01*
X138810D01*
Y106320D01*
X133510D01*
Y101820D01*
X134400D01*
X134608Y101320D01*
X133543Y100256D01*
X131914D01*
Y105605D01*
X131914D01*
Y107324D01*
X132164D01*
Y108324D01*
X127227D01*
Y109324D01*
X132164D01*
Y109518D01*
X133538D01*
Y108668D01*
X138838D01*
Y113168D01*
X133538D01*
Y112067D01*
X121171D01*
X120538Y112489D01*
X119660Y112664D01*
X118782Y112489D01*
X118038Y111992D01*
X117675Y111449D01*
X117253Y111694D01*
X117404Y112454D01*
X117253Y113215D01*
X117076Y113479D01*
X117343Y113979D01*
X118634D01*
X118634Y113979D01*
X119134Y113998D01*
X119353Y113955D01*
X119840Y114052D01*
X120254Y114328D01*
X120530Y114742D01*
X120627Y115229D01*
Y117392D01*
X122703D01*
X122790Y117260D01*
X123435Y116829D01*
X124196Y116678D01*
X124957Y116829D01*
X125602Y117260D01*
X126033Y117905D01*
X126184Y118666D01*
X126033Y119427D01*
X125602Y120072D01*
X124957Y120503D01*
X124196Y120654D01*
X123435Y120503D01*
X122790Y120072D01*
X122703Y119941D01*
X120627D01*
Y122103D01*
X120530Y122591D01*
X120254Y123004D01*
X119840Y123281D01*
X119353Y123378D01*
X119159Y123339D01*
X118659Y123698D01*
Y124402D01*
X118790Y124490D01*
X119221Y125135D01*
X119372Y125896D01*
X119221Y126657D01*
X118790Y127302D01*
X118145Y127733D01*
X117384Y127884D01*
X116623Y127733D01*
X115978Y127302D01*
X115695Y126878D01*
X115114Y126848D01*
X114853Y127239D01*
X114208Y127670D01*
X113447Y127821D01*
X112827Y127698D01*
X112570Y128148D01*
X116165Y131743D01*
X121858D01*
Y130768D01*
X122214D01*
Y129488D01*
X121858D01*
Y124988D01*
X124286D01*
X124508Y124943D01*
X124730Y124988D01*
X127158D01*
Y129488D01*
X126802D01*
Y130768D01*
X127158D01*
Y135268D01*
X124730D01*
X124508Y135312D01*
X124286Y135268D01*
X121858D01*
Y134292D01*
X115638D01*
X115150Y134195D01*
X114736Y133919D01*
X108609Y127791D01*
X108333Y127378D01*
X108236Y126890D01*
Y123353D01*
X103136D01*
Y123603D01*
X102136D01*
Y118666D01*
Y113729D01*
X103136D01*
Y113979D01*
X108260D01*
Y113979D01*
X109526D01*
X109793Y113479D01*
X109642Y113252D01*
X109490Y112491D01*
X109642Y111731D01*
X110073Y111085D01*
X110718Y110654D01*
X111479Y110503D01*
X112240Y110654D01*
X112884Y111085D01*
X113150Y111483D01*
X113733Y111462D01*
X114010Y111048D01*
X114655Y110617D01*
X115416Y110466D01*
X116176Y110617D01*
X116822Y111048D01*
X117118Y111493D01*
X117541Y111248D01*
X117366Y110370D01*
Y93210D01*
X98378Y74222D01*
X96500Y72344D01*
X78834D01*
Y100860D01*
X81050Y103076D01*
X99668D01*
X100546Y103251D01*
X101290Y103748D01*
X101787Y104492D01*
X101962Y105370D01*
X101787Y106248D01*
X101290Y106992D01*
X100942Y107225D01*
Y113729D01*
X101136D01*
Y118666D01*
Y123603D01*
X100942D01*
Y130220D01*
X108215Y137493D01*
X121858D01*
Y136518D01*
X124286D01*
X124508Y136474D01*
X124730Y136518D01*
X127158D01*
Y141018D01*
X126802D01*
Y142358D01*
X127158D01*
Y146858D01*
X126802D01*
Y148088D01*
X127158D01*
Y152588D01*
X126802D01*
Y153878D01*
X127158D01*
Y156801D01*
X127620Y156992D01*
X128358Y156254D01*
Y153878D01*
X133658D01*
Y154343D01*
X134243D01*
X136266Y152321D01*
Y129022D01*
X133658D01*
Y129488D01*
X131229D01*
X131008Y129532D01*
X130786Y129488D01*
X128358D01*
Y124988D01*
X130184D01*
X130415Y124833D01*
X131293Y124658D01*
X132171Y124833D01*
X132402Y124988D01*
X133658D01*
Y125453D01*
X138050D01*
X138733Y125589D01*
X139312Y125976D01*
X139699Y126555D01*
X139834Y127238D01*
Y153060D01*
X139699Y153743D01*
X139312Y154322D01*
X139312Y154322D01*
X136244Y157389D01*
X135665Y157776D01*
X134982Y157912D01*
X133658D01*
Y158378D01*
X131281D01*
X125864Y163795D01*
X126071Y164295D01*
X288633Y164297D01*
X289017Y163797D01*
Y162464D01*
X284880D01*
X284002Y162290D01*
X283258Y161792D01*
X282761Y161048D01*
X282586Y160170D01*
X282761Y159292D01*
X283258Y158548D01*
X284002Y158051D01*
X284880Y157876D01*
X289017D01*
Y155943D01*
X297603D01*
Y163798D01*
X297603Y164017D01*
X297987Y164298D01*
X319678Y164298D01*
X319713Y164305D01*
X323282Y164149D01*
D02*
G37*
G36*
X99928Y139514D02*
X105978D01*
X106169Y139051D01*
X99436Y132318D01*
X98974Y132509D01*
Y139051D01*
X99480Y139558D01*
X99706D01*
X99928Y139514D01*
D02*
G37*
G36*
X30526Y113409D02*
Y105026D01*
X30623Y104538D01*
X30900Y104125D01*
X35633Y99391D01*
X35387Y98931D01*
X35033Y99001D01*
X34272Y98849D01*
X33627Y98419D01*
X33196Y97773D01*
X33044Y97013D01*
X33196Y96252D01*
X33627Y95607D01*
X34272Y95176D01*
X35033Y95025D01*
X35794Y95176D01*
X36439Y95607D01*
X36526Y95738D01*
X59548D01*
Y94350D01*
X26031D01*
X20534Y99847D01*
Y101679D01*
X20415Y102279D01*
X20075Y102787D01*
X19567Y103127D01*
X18967Y103246D01*
X18367Y103127D01*
X17858Y102787D01*
X17337Y102907D01*
X17007Y103127D01*
X16408Y103246D01*
X15878Y103141D01*
X15531Y103275D01*
X15378Y103357D01*
Y106450D01*
X16530D01*
Y111750D01*
X14215D01*
X14024Y112212D01*
X14762Y112950D01*
X16530D01*
Y113306D01*
X17890D01*
Y112929D01*
X22390D01*
Y113306D01*
X23710D01*
Y113009D01*
X28210D01*
Y113365D01*
X29051D01*
X29929Y113540D01*
X30085Y113645D01*
X30526Y113409D01*
D02*
G37*
G36*
X164498Y86204D02*
X170298D01*
Y86848D01*
X170760Y87039D01*
X171248Y86551D01*
Y83454D01*
X172695D01*
Y81771D01*
X165619D01*
Y82021D01*
X164627D01*
Y79446D01*
X164127D01*
Y78946D01*
X162635D01*
Y77337D01*
X158451D01*
Y75401D01*
X155598D01*
Y78264D01*
X150298D01*
Y73764D01*
X153396D01*
X153934Y73225D01*
X154348Y72949D01*
X154525Y72914D01*
X154476Y72414D01*
X150448D01*
Y67914D01*
X153546D01*
X153869Y67590D01*
X154076Y67224D01*
X153864Y66902D01*
X153475Y66514D01*
X150378D01*
Y62014D01*
X155678D01*
Y64978D01*
X160775D01*
X160938Y65010D01*
X162635D01*
Y63401D01*
X164127D01*
Y62401D01*
X162635D01*
Y61325D01*
X159785D01*
X159297Y61228D01*
X158884Y60951D01*
X148189Y50256D01*
X147913Y49843D01*
X147816Y49355D01*
Y33656D01*
X147561Y33454D01*
X147071Y33672D01*
Y39140D01*
X139665D01*
Y31844D01*
X135589D01*
X135419Y32344D01*
X136009Y32797D01*
X136602Y33570D01*
X136975Y34471D01*
X137103Y35438D01*
X136975Y36404D01*
X136602Y37305D01*
X136009Y38078D01*
X135235Y38672D01*
X134642Y38917D01*
Y54994D01*
X135142Y55261D01*
X135349Y55123D01*
X136110Y54972D01*
X136871Y55123D01*
X137098Y55275D01*
X137598Y55008D01*
Y54274D01*
X142098D01*
Y59574D01*
X137598D01*
Y58912D01*
X137098Y58645D01*
X136871Y58797D01*
X136110Y58948D01*
X135349Y58797D01*
X134704Y58366D01*
X134146Y58431D01*
X130741Y61836D01*
X130932Y62298D01*
X131914D01*
Y66235D01*
Y70172D01*
Y75047D01*
X132355Y75283D01*
X132519Y75173D01*
X133280Y75022D01*
X134041Y75173D01*
X134686Y75604D01*
X134774Y75735D01*
X137708D01*
Y74414D01*
X142208D01*
Y77511D01*
X143048Y78351D01*
X143548Y78144D01*
Y76514D01*
X145948D01*
Y78514D01*
X143918D01*
X143710Y79014D01*
X152372Y87675D01*
X164498D01*
Y86204D01*
D02*
G37*
G36*
X190358Y79604D02*
X193456D01*
X194074Y78986D01*
X193882Y78524D01*
X193568D01*
Y76524D01*
X196175D01*
X196430Y76629D01*
X197406Y75654D01*
Y64288D01*
X196290Y63172D01*
X195828Y63364D01*
Y66644D01*
X190528D01*
Y63546D01*
X189790Y62808D01*
X189328Y62999D01*
Y66644D01*
X188942D01*
Y67974D01*
X189298D01*
Y72474D01*
X186870D01*
X186648Y72518D01*
X186426Y72474D01*
X184327D01*
X184120Y72974D01*
X184920Y73774D01*
X189218D01*
Y78274D01*
X183918D01*
Y76376D01*
X180974Y73432D01*
X179895D01*
Y73627D01*
X177320D01*
Y74626D01*
X179895D01*
Y75619D01*
X179645D01*
Y76617D01*
X183358Y80330D01*
X183858Y80123D01*
Y79604D01*
X189158D01*
Y83919D01*
X190358D01*
Y79604D01*
D02*
G37*
G36*
X183858Y83128D02*
X183079D01*
X182591Y83031D01*
X182178Y82755D01*
X176760Y77337D01*
X175211D01*
Y79283D01*
X175244Y79446D01*
Y83454D01*
X176548D01*
Y83919D01*
X183858D01*
Y83128D01*
D02*
G37*
G36*
X180203Y66239D02*
X180634Y65594D01*
X181279Y65163D01*
X182040Y65012D01*
X182801Y65163D01*
X183446Y65594D01*
X183528Y65717D01*
X184028Y65565D01*
Y62144D01*
X186456D01*
X186678Y62100D01*
X186900Y62144D01*
X188472D01*
X188664Y61682D01*
X188306Y61325D01*
X175211D01*
Y65010D01*
X179645D01*
Y66481D01*
X180145Y66531D01*
X180203Y66239D01*
D02*
G37*
G36*
X122540Y62298D02*
X126674D01*
X132094Y56879D01*
Y38917D01*
X131501Y38672D01*
X130727Y38078D01*
X130134Y37305D01*
X129761Y36404D01*
X129633Y35438D01*
X129761Y34471D01*
X130134Y33570D01*
X130727Y32797D01*
X131316Y32344D01*
X131147Y31844D01*
X126000D01*
X125830Y32344D01*
X126187Y32618D01*
X126821Y33444D01*
X127219Y34406D01*
X127289Y34938D01*
X123368D01*
X119447D01*
X119517Y34406D01*
X119915Y33444D01*
X120549Y32618D01*
X120906Y32344D01*
X120736Y31844D01*
X115589D01*
X115419Y32344D01*
X116009Y32797D01*
X116602Y33570D01*
X116975Y34471D01*
X117103Y35438D01*
X116975Y36404D01*
X116602Y37305D01*
X116009Y38078D01*
X115235Y38672D01*
X114722Y38885D01*
Y50987D01*
X115884D01*
Y50737D01*
X116884D01*
Y55674D01*
X117884D01*
Y50737D01*
X118884D01*
Y50987D01*
X120603D01*
Y54383D01*
X122448D01*
Y53008D01*
X126948D01*
Y58308D01*
X122448D01*
Y56932D01*
X120627D01*
Y60937D01*
X120530Y61425D01*
X120254Y61839D01*
X116382Y65711D01*
X116494Y66106D01*
X116570Y66211D01*
X122540D01*
Y62298D01*
D02*
G37*
%LPC*%
G36*
X65998Y155128D02*
X63598D01*
Y153128D01*
X65998D01*
Y155128D01*
D02*
G37*
G36*
X62598D02*
X60198D01*
Y153128D01*
X62598D01*
Y155128D01*
D02*
G37*
G36*
X65998Y152128D02*
X63598D01*
Y150128D01*
X65998D01*
Y152128D01*
D02*
G37*
G36*
X62598D02*
X60198D01*
Y150128D01*
X62598D01*
Y152128D01*
D02*
G37*
G36*
X69088Y148998D02*
X67088D01*
Y146598D01*
X69088D01*
Y148998D01*
D02*
G37*
G36*
X53678Y155638D02*
X49178D01*
Y153209D01*
X49134Y152988D01*
Y146008D01*
X49178Y145786D01*
Y145560D01*
X46739Y143121D01*
X46463Y142707D01*
X46365Y142220D01*
Y133261D01*
X46463Y132773D01*
X46739Y132359D01*
X47389Y131709D01*
X47143Y131248D01*
X46640Y131348D01*
X45879Y131197D01*
X45234Y130766D01*
X44803Y130121D01*
X44652Y129360D01*
X44803Y128599D01*
X45234Y127954D01*
X45879Y127523D01*
X46640Y127372D01*
X46795Y127403D01*
X47511Y126686D01*
X47320Y126225D01*
X46294D01*
X46206Y126356D01*
X45561Y126787D01*
X44800Y126938D01*
X44039Y126787D01*
X43394Y126356D01*
X42963Y125711D01*
X42812Y124950D01*
X42963Y124189D01*
X43394Y123544D01*
X44039Y123113D01*
X44800Y122962D01*
X45561Y123113D01*
X46206Y123544D01*
X46294Y123676D01*
X70492D01*
X70859Y123353D01*
Y119941D01*
X45067D01*
X44980Y120072D01*
X44335Y120503D01*
X43574Y120654D01*
X42813Y120503D01*
X42168Y120072D01*
X41737Y119427D01*
X41586Y118666D01*
X41737Y117905D01*
X42168Y117260D01*
X42813Y116829D01*
X43574Y116678D01*
X44335Y116829D01*
X44980Y117260D01*
X45067Y117392D01*
X70859D01*
Y113979D01*
X82420D01*
Y113729D01*
X83420D01*
Y118666D01*
Y123603D01*
X83226D01*
Y126009D01*
X83129Y126496D01*
X82852Y126910D01*
X75653Y134109D01*
X75240Y134385D01*
X74752Y134482D01*
X72258D01*
Y135458D01*
X71882D01*
Y139598D01*
X71838Y139819D01*
Y142248D01*
X67338D01*
Y139819D01*
X67294Y139598D01*
Y135458D01*
X66958D01*
Y131823D01*
X66458Y131660D01*
X65758Y132360D01*
Y135458D01*
X65402D01*
Y139668D01*
X65358Y139889D01*
Y142318D01*
X60858D01*
Y139889D01*
X60814Y139668D01*
Y135458D01*
X60458D01*
Y130958D01*
X62886D01*
X63108Y130913D01*
X63329Y130958D01*
X63556D01*
X64276Y130237D01*
X64085Y129775D01*
X52928D01*
X48915Y133789D01*
Y136113D01*
X48928Y136608D01*
X50928D01*
Y139508D01*
Y142408D01*
X50284D01*
X50092Y142869D01*
X50580Y143358D01*
X53678D01*
Y143713D01*
X55048D01*
Y143358D01*
X59548D01*
Y143713D01*
X60858D01*
Y143518D01*
X65358D01*
Y145946D01*
X65402Y146168D01*
X65358Y146389D01*
Y148818D01*
X60858D01*
Y148302D01*
X59548D01*
Y148658D01*
X55048D01*
Y148302D01*
X53722D01*
Y152988D01*
X53678Y153209D01*
Y155638D01*
D02*
G37*
G36*
X72088Y145598D02*
X70088D01*
Y143198D01*
X72088D01*
Y145598D01*
D02*
G37*
G36*
X69088D02*
X67088D01*
Y143198D01*
X69088D01*
Y145598D01*
D02*
G37*
G36*
X59798Y142408D02*
X57798D01*
Y140008D01*
X59798D01*
Y142408D01*
D02*
G37*
G36*
X53928D02*
X51928D01*
Y140008D01*
X53928D01*
Y142408D01*
D02*
G37*
G36*
X56798D02*
X54798D01*
Y140008D01*
X56798D01*
Y142408D01*
D02*
G37*
G36*
X59798Y139008D02*
X57798D01*
Y136608D01*
X59798D01*
Y139008D01*
D02*
G37*
G36*
X56798D02*
X54798D01*
Y136608D01*
X56798D01*
Y139008D01*
D02*
G37*
G36*
X53928D02*
X51928D01*
Y136608D01*
X53928D01*
Y139008D01*
D02*
G37*
G36*
X0Y152357D02*
X-1662Y152227D01*
X-3283Y151838D01*
X-4824Y151199D01*
X-6245Y150328D01*
X-7513Y149246D01*
X-8596Y147978D01*
X-9467Y146556D01*
X-10105Y145016D01*
X-10494Y143394D01*
X-10625Y141732D01*
X-10494Y140070D01*
X-10105Y138449D01*
X-9467Y136908D01*
X-8596Y135487D01*
X-7513Y134219D01*
X-6245Y133136D01*
X-4824Y132265D01*
X-3283Y131627D01*
X-1662Y131238D01*
X0Y131107D01*
X1662Y131238D01*
X3283Y131627D01*
X4824Y132265D01*
X6245Y133136D01*
X7513Y134219D01*
X8596Y135487D01*
X9467Y136908D01*
X10105Y138449D01*
X10494Y140070D01*
X10625Y141732D01*
X10494Y143394D01*
X10105Y145016D01*
X9467Y146556D01*
X8596Y147978D01*
X7513Y149246D01*
X6245Y150328D01*
X4824Y151199D01*
X3283Y151838D01*
X1662Y152227D01*
X0Y152357D01*
D02*
G37*
G36*
X40920Y129180D02*
X34920D01*
Y123680D01*
X36461D01*
Y121530D01*
X35740D01*
Y116230D01*
X40240D01*
Y121530D01*
X39519D01*
Y123680D01*
X40920D01*
Y129180D01*
D02*
G37*
G36*
X8480Y117939D02*
X6480D01*
Y115539D01*
X8480D01*
Y117939D01*
D02*
G37*
G36*
X5480D02*
X3480D01*
Y115539D01*
X5480D01*
Y117939D01*
D02*
G37*
G36*
X8480Y114539D02*
X6480D01*
Y112139D01*
X8480D01*
Y114539D01*
D02*
G37*
G36*
X5480D02*
X3480D01*
Y112139D01*
X5480D01*
Y114539D01*
D02*
G37*
G36*
X52018Y109378D02*
X49618D01*
Y107378D01*
X52018D01*
Y109378D01*
D02*
G37*
G36*
X48618D02*
X46218D01*
Y107378D01*
X48618D01*
Y109378D01*
D02*
G37*
G36*
X9510Y94805D02*
X3104D01*
Y88399D01*
X9510D01*
Y94805D01*
D02*
G37*
G36*
X50810Y87410D02*
X48410D01*
Y85410D01*
X50810D01*
Y87410D01*
D02*
G37*
G36*
X47410D02*
X45010D01*
Y85410D01*
X47410D01*
Y87410D01*
D02*
G37*
G36*
X16916Y87399D02*
X10510D01*
Y80994D01*
X16916D01*
Y87399D01*
D02*
G37*
G36*
X9510D02*
X3104D01*
Y80994D01*
X9510D01*
Y87399D01*
D02*
G37*
G36*
X14349Y79977D02*
Y76187D01*
Y72397D01*
X14546Y72436D01*
X14692Y72534D01*
X15133Y72298D01*
Y69762D01*
X15230Y69275D01*
X15506Y68861D01*
X19673Y64695D01*
X19642Y64540D01*
X19793Y63779D01*
X20224Y63134D01*
X20869Y62703D01*
X21630Y62552D01*
X22391Y62703D01*
X23036Y63134D01*
X23467Y63779D01*
X23618Y64540D01*
X23467Y65301D01*
X23036Y65946D01*
X22391Y66377D01*
X21630Y66528D01*
X21475Y66497D01*
X17682Y70290D01*
Y72528D01*
X18182Y72795D01*
X18367Y72672D01*
X18967Y72552D01*
X19567Y72672D01*
X20075Y73011D01*
X20415Y73520D01*
X20534Y74120D01*
Y74657D01*
X21540D01*
Y73700D01*
X26040D01*
Y79000D01*
X21540D01*
Y77716D01*
X20534D01*
Y78254D01*
X20415Y78853D01*
X20075Y79362D01*
X19567Y79702D01*
X18967Y79821D01*
X18367Y79702D01*
X18037Y79482D01*
X17687Y79401D01*
X17337Y79482D01*
X17007Y79702D01*
X16408Y79821D01*
X15808Y79702D01*
X15686Y79621D01*
X15137Y79542D01*
X14546Y79937D01*
X14349Y79977D01*
D02*
G37*
G36*
X26040Y72500D02*
X21540D01*
Y67200D01*
X26040D01*
Y68332D01*
X42080D01*
X42168Y68200D01*
X42813Y67769D01*
X43574Y67618D01*
X44335Y67769D01*
X44980Y68200D01*
X45411Y68845D01*
X45562Y69606D01*
X45411Y70367D01*
X44980Y71012D01*
X44335Y71443D01*
X43574Y71594D01*
X42813Y71443D01*
X42168Y71012D01*
X42080Y70881D01*
X26040D01*
Y72500D01*
D02*
G37*
G36*
X-14640Y70091D02*
Y66670D01*
X-11219D01*
X-11289Y67202D01*
X-11687Y68163D01*
X-12321Y68989D01*
X-13147Y69623D01*
X-14108Y70021D01*
X-14640Y70091D01*
D02*
G37*
G36*
X-11219Y65670D02*
X-14640D01*
Y62249D01*
X-14108Y62319D01*
X-13147Y62717D01*
X-12321Y63351D01*
X-11687Y64177D01*
X-11289Y65138D01*
X-11219Y65670D01*
D02*
G37*
G36*
X60658Y61028D02*
X58258D01*
Y59028D01*
X60658D01*
Y61028D01*
D02*
G37*
G36*
X57258D02*
X54858D01*
Y59028D01*
X57258D01*
Y61028D01*
D02*
G37*
G36*
X60658Y58028D02*
X58258D01*
Y56028D01*
X60658D01*
Y58028D01*
D02*
G37*
G36*
X57258D02*
X54858D01*
Y56028D01*
X57258D01*
Y58028D01*
D02*
G37*
G36*
X169688Y53798D02*
X167288D01*
Y51798D01*
X169688D01*
Y53798D01*
D02*
G37*
G36*
X166288D02*
X163888D01*
Y51798D01*
X166288D01*
Y53798D01*
D02*
G37*
G36*
X11274Y51709D02*
X9494D01*
Y50520D01*
X11274D01*
Y51709D01*
D02*
G37*
G36*
X8495D02*
X6715D01*
Y50520D01*
X8495D01*
Y51709D01*
D02*
G37*
G36*
X169618Y51018D02*
X167218D01*
Y49018D01*
X169618D01*
Y51018D01*
D02*
G37*
G36*
X166218D02*
X163818D01*
Y49018D01*
X166218D01*
Y51018D01*
D02*
G37*
G36*
X11274Y49520D02*
X9494D01*
Y48331D01*
X11274D01*
Y49520D01*
D02*
G37*
G36*
X8495D02*
X6715D01*
Y48331D01*
X8495D01*
Y49520D01*
D02*
G37*
G36*
X169618Y48018D02*
X167218D01*
Y46018D01*
X169618D01*
Y48018D01*
D02*
G37*
G36*
X166218D02*
X163818D01*
Y46018D01*
X166218D01*
Y48018D01*
D02*
G37*
G36*
X11440Y47510D02*
X9040D01*
Y45510D01*
X11440D01*
Y47510D01*
D02*
G37*
G36*
X8040D02*
X5640D01*
Y45510D01*
X8040D01*
Y47510D01*
D02*
G37*
G36*
X169548Y45278D02*
X167148D01*
Y43278D01*
X169548D01*
Y45278D01*
D02*
G37*
G36*
X166148D02*
X163748D01*
Y43278D01*
X166148D01*
Y45278D01*
D02*
G37*
G36*
X162088D02*
X160088D01*
Y42878D01*
X162088D01*
Y45278D01*
D02*
G37*
G36*
X159088D02*
X157088D01*
Y42878D01*
X159088D01*
Y45278D01*
D02*
G37*
G36*
X11440Y44510D02*
X9040D01*
Y42510D01*
X11440D01*
Y44510D01*
D02*
G37*
G36*
X8040D02*
X5640D01*
Y42510D01*
X8040D01*
Y44510D01*
D02*
G37*
G36*
X169548Y42278D02*
X167148D01*
Y40278D01*
X169548D01*
Y42278D01*
D02*
G37*
G36*
X166148D02*
X163748D01*
Y40278D01*
X166148D01*
Y42278D01*
D02*
G37*
G36*
X162088Y41877D02*
X160088D01*
Y39478D01*
X162088D01*
Y41877D01*
D02*
G37*
G36*
X159088D02*
X157088D01*
Y39478D01*
X159088D01*
Y41877D01*
D02*
G37*
G36*
X169078Y38838D02*
X163578D01*
Y38172D01*
X161838D01*
Y38528D01*
X157338D01*
Y36099D01*
X157294Y35878D01*
X157338Y35656D01*
Y33228D01*
X161838D01*
Y33584D01*
X163578D01*
Y32838D01*
X169078D01*
Y38838D01*
D02*
G37*
G36*
X-758Y42993D02*
X-1724Y42865D01*
X-2625Y42492D01*
X-3398Y41899D01*
X-3992Y41125D01*
X-4365Y40225D01*
X-4492Y39258D01*
X-4365Y38291D01*
X-3992Y37391D01*
X-3398Y36617D01*
X-2625Y36024D01*
X-1724Y35651D01*
X-758Y35523D01*
X209Y35651D01*
X1110Y36024D01*
X1883Y36617D01*
X2097Y36896D01*
X8580D01*
X8802Y36940D01*
X11230D01*
Y41440D01*
X8802D01*
X8580Y41484D01*
X2201D01*
X1883Y41899D01*
X1110Y42492D01*
X209Y42865D01*
X-758Y42993D01*
D02*
G37*
G36*
X31660Y34340D02*
X29260D01*
Y32340D01*
X31660D01*
Y34340D01*
D02*
G37*
G36*
X28260D02*
X25860D01*
Y32340D01*
X28260D01*
Y34340D01*
D02*
G37*
G36*
X31660Y31340D02*
X29260D01*
Y29340D01*
X31660D01*
Y31340D01*
D02*
G37*
G36*
X28260D02*
X25860D01*
Y29340D01*
X28260D01*
Y31340D01*
D02*
G37*
G36*
X-758Y32993D02*
X-1724Y32865D01*
X-2625Y32492D01*
X-3398Y31899D01*
X-3992Y31125D01*
X-4365Y30225D01*
X-4492Y29258D01*
X-4365Y28291D01*
X-3992Y27391D01*
X-3398Y26617D01*
X-2625Y26024D01*
X-1724Y25651D01*
X-758Y25523D01*
X209Y25651D01*
X1110Y26024D01*
X1883Y26617D01*
X2005Y26776D01*
X8530D01*
X8752Y26820D01*
X11180D01*
Y31320D01*
X8752D01*
X8530Y31364D01*
X2294D01*
X1883Y31899D01*
X1110Y32492D01*
X209Y32865D01*
X-758Y32993D01*
D02*
G37*
G36*
X60657Y27033D02*
X59468D01*
Y25253D01*
X60657D01*
Y27033D01*
D02*
G37*
G36*
X58468D02*
X57279D01*
Y25253D01*
X58468D01*
Y27033D01*
D02*
G37*
G36*
X140928Y24878D02*
X136428D01*
Y24522D01*
X135038D01*
Y24878D01*
X130538D01*
Y22449D01*
X130494Y22228D01*
X130538Y22006D01*
Y19578D01*
X135038D01*
Y19933D01*
X136428D01*
Y19578D01*
X140928D01*
Y22006D01*
X140972Y22228D01*
X140928Y22449D01*
Y24878D01*
D02*
G37*
G36*
X11310Y25790D02*
X8910D01*
Y23790D01*
X11310D01*
Y25790D01*
D02*
G37*
G36*
X7910D02*
X5510D01*
Y23790D01*
X7910D01*
Y25790D01*
D02*
G37*
G36*
X72278Y24888D02*
X70278D01*
Y22488D01*
X72278D01*
Y24888D01*
D02*
G37*
G36*
X69278D02*
X67278D01*
Y22488D01*
X69278D01*
Y24888D01*
D02*
G37*
G36*
X60657Y24253D02*
X59468D01*
Y22474D01*
X60657D01*
Y24253D01*
D02*
G37*
G36*
X58468D02*
X57279D01*
Y22474D01*
X58468D01*
Y24253D01*
D02*
G37*
G36*
X72028Y21538D02*
X67528D01*
Y21042D01*
X66138D01*
Y21448D01*
X61638D01*
Y21042D01*
X58968D01*
X58090Y20867D01*
X57955Y20777D01*
X57529D01*
Y20492D01*
X57346Y20370D01*
X57113Y20022D01*
X54222D01*
X54086Y20226D01*
X53441Y20657D01*
X52680Y20808D01*
X51919Y20657D01*
X51274Y20226D01*
X50843Y19581D01*
X50692Y18820D01*
X50843Y18059D01*
X51274Y17414D01*
X51919Y16983D01*
X52680Y16832D01*
X53441Y16983D01*
X54086Y17414D01*
X54125Y17473D01*
X57113D01*
X57346Y17125D01*
X57529Y17003D01*
Y16718D01*
X57955D01*
X58090Y16628D01*
X58968Y16454D01*
X61638D01*
Y16148D01*
X66138D01*
Y16454D01*
X67484D01*
Y12410D01*
X67659Y11532D01*
X68014Y11000D01*
Y10509D01*
X68435D01*
X68618Y10325D01*
X69362Y9828D01*
X70240Y9653D01*
X71118Y9828D01*
X71862Y10325D01*
X71985Y10509D01*
X72467D01*
Y11607D01*
X72534Y11948D01*
X72516Y12038D01*
X72678Y12277D01*
X73283Y12325D01*
X73424Y12184D01*
Y7662D01*
X70271D01*
X70220Y7672D01*
X69342Y7497D01*
X68598Y7000D01*
X68476Y6816D01*
X67994D01*
Y5718D01*
X67926Y5378D01*
X67994Y5037D01*
Y3939D01*
X68476D01*
X68598Y3755D01*
X68608Y3745D01*
X69352Y3248D01*
X70230Y3073D01*
X75848D01*
X76070Y3118D01*
X78498D01*
Y7618D01*
X78012D01*
Y12538D01*
X78968D01*
Y17638D01*
X72572D01*
X72468Y17638D01*
X72072Y17889D01*
Y18888D01*
X72028Y19109D01*
Y21538D01*
D02*
G37*
G36*
X11310Y22790D02*
X8910D01*
Y20790D01*
X11310D01*
Y22790D01*
D02*
G37*
G36*
X7910D02*
X5510D01*
Y20790D01*
X7910D01*
Y22790D01*
D02*
G37*
G36*
X3195Y23211D02*
X-258D01*
Y19758D01*
X3195D01*
Y23211D01*
D02*
G37*
G36*
X-1258D02*
X-4710D01*
Y19758D01*
X-1258D01*
Y23211D01*
D02*
G37*
G36*
X86518Y21588D02*
X84218D01*
Y19288D01*
X86518D01*
Y21588D01*
D02*
G37*
G36*
X83218D02*
X80918D01*
Y19288D01*
X83218D01*
Y21588D01*
D02*
G37*
G36*
X11154Y20179D02*
X9375D01*
Y18990D01*
X11154D01*
Y20179D01*
D02*
G37*
G36*
X8375D02*
X6595D01*
Y18990D01*
X8375D01*
Y20179D01*
D02*
G37*
G36*
X146678Y18408D02*
X142178D01*
Y18052D01*
X140928D01*
Y18378D01*
X136428D01*
Y15949D01*
X136384Y15728D01*
X136428Y15506D01*
Y13078D01*
X140928D01*
Y13464D01*
X142166D01*
Y10549D01*
X140462D01*
Y6686D01*
X143300D01*
X143582Y6498D01*
X144460Y6323D01*
X145338Y6498D01*
X145620Y6686D01*
X148458D01*
Y10549D01*
X146754D01*
Y15725D01*
X146678Y16108D01*
Y18408D01*
D02*
G37*
G36*
X11154Y17990D02*
X9375D01*
Y16801D01*
X11154D01*
Y17990D01*
D02*
G37*
G36*
X8375D02*
X6595D01*
Y16801D01*
X8375D01*
Y17990D01*
D02*
G37*
G36*
X135288Y18628D02*
X133288D01*
Y16228D01*
X135288D01*
Y18628D01*
D02*
G37*
G36*
X132288D02*
X130288D01*
Y16228D01*
X132288D01*
Y18628D01*
D02*
G37*
G36*
X86518Y18288D02*
X84218D01*
Y15988D01*
X86518D01*
Y18288D01*
D02*
G37*
G36*
X83218D02*
X80918D01*
Y15988D01*
X83218D01*
Y18288D01*
D02*
G37*
G36*
X3195Y18758D02*
X-258D01*
Y15305D01*
X3195D01*
Y18758D01*
D02*
G37*
G36*
X-1258D02*
X-4710D01*
Y15305D01*
X-1258D01*
Y18758D01*
D02*
G37*
G36*
X91928Y13958D02*
X87428D01*
Y13602D01*
X86268D01*
Y13838D01*
X81168D01*
Y8738D01*
X86268D01*
Y9014D01*
X87428D01*
Y8658D01*
X91928D01*
Y11086D01*
X91972Y11308D01*
X91928Y11529D01*
Y13958D01*
D02*
G37*
G36*
X135288Y15228D02*
X133288D01*
Y12828D01*
X135288D01*
Y15228D01*
D02*
G37*
G36*
X132288D02*
X130288D01*
Y12828D01*
X132288D01*
Y15228D01*
D02*
G37*
G36*
X28637Y18693D02*
X26168D01*
Y12287D01*
X28637D01*
Y18693D01*
D02*
G37*
G36*
X25168D02*
X22699D01*
Y12287D01*
X25168D01*
Y18693D01*
D02*
G37*
G36*
X51337Y8107D02*
X50148D01*
Y6328D01*
X51337D01*
Y8107D01*
D02*
G37*
G36*
X49148D02*
X47959D01*
Y6328D01*
X49148D01*
Y8107D01*
D02*
G37*
G36*
X28637Y11287D02*
X26168D01*
Y4882D01*
X28637D01*
Y11287D01*
D02*
G37*
G36*
X25168D02*
X22699D01*
Y4882D01*
X25168D01*
Y11287D01*
D02*
G37*
G36*
X122216Y10912D02*
X121864Y10842D01*
X111098D01*
X110876Y10798D01*
X108448D01*
Y6298D01*
X110876D01*
X111098Y6254D01*
X117859D01*
X117968Y5799D01*
X117968Y5754D01*
Y4118D01*
X122216D01*
X126464D01*
Y5799D01*
X122422D01*
X122373Y6299D01*
X123024Y6428D01*
X123410Y6686D01*
X126214D01*
Y10549D01*
X123376D01*
X123094Y10737D01*
X122216Y10912D01*
D02*
G37*
G36*
X51337Y5328D02*
X50148D01*
Y3548D01*
X51337D01*
Y5328D01*
D02*
G37*
G36*
X49148D02*
X47959D01*
Y3548D01*
X49148D01*
Y5328D01*
D02*
G37*
G36*
X46103Y18443D02*
X40666D01*
Y5132D01*
X46103D01*
Y9653D01*
X59462D01*
Y5378D01*
X59529Y5037D01*
Y3939D01*
X60011D01*
X60133Y3755D01*
X60878Y3258D01*
X61756Y3084D01*
X62634Y3258D01*
X63378Y3755D01*
X63500Y3939D01*
X63982D01*
Y5037D01*
X64050Y5378D01*
Y11847D01*
X64070Y11948D01*
X64002Y12288D01*
Y13386D01*
X63520D01*
X63398Y13570D01*
X62654Y14067D01*
X61776Y14242D01*
X46103D01*
Y18443D01*
D02*
G37*
G36*
X148458Y5549D02*
X140462D01*
Y1687D01*
X148458D01*
Y5549D01*
D02*
G37*
G36*
X139456Y8220D02*
X133838D01*
Y1617D01*
X139456D01*
Y8220D01*
D02*
G37*
G36*
X132838D02*
X127220D01*
Y1617D01*
X132838D01*
Y8220D01*
D02*
G37*
G36*
X126464Y3118D02*
X122716D01*
Y1436D01*
X126464D01*
Y3118D01*
D02*
G37*
G36*
X121716D02*
X117968D01*
Y1436D01*
X121716D01*
Y3118D01*
D02*
G37*
G36*
X186068Y5229D02*
X180824D01*
Y478D01*
X186068D01*
Y5229D01*
D02*
G37*
G36*
X217423Y1800D02*
X216431D01*
Y-1062D01*
X217423D01*
Y1800D01*
D02*
G37*
G36*
X148458Y549D02*
X140462D01*
Y-3314D01*
X148458D01*
Y549D01*
D02*
G37*
G36*
X192312Y-522D02*
X187068D01*
Y-5274D01*
X192312D01*
Y-522D01*
D02*
G37*
G36*
X186068D02*
X180824D01*
Y-5274D01*
X186068D01*
Y-522D01*
D02*
G37*
G36*
X89817Y-4198D02*
X88628D01*
Y-5978D01*
X89817D01*
Y-4198D01*
D02*
G37*
G36*
X87628D02*
X86439D01*
Y-5978D01*
X87628D01*
Y-4198D01*
D02*
G37*
G36*
X139456Y618D02*
X133838D01*
Y-5985D01*
X139456D01*
Y618D01*
D02*
G37*
G36*
X132838D02*
X127220D01*
Y-5985D01*
X132838D01*
Y618D01*
D02*
G37*
G36*
X153288Y-3998D02*
X153066Y-4042D01*
X150638D01*
Y-4088D01*
X144460D01*
X143582Y-4263D01*
X143300Y-4451D01*
X140462D01*
Y-8314D01*
X143300D01*
X143582Y-8502D01*
X144460Y-8676D01*
X153198D01*
X153872Y-8542D01*
X155938D01*
Y-4042D01*
X153509D01*
X153288Y-3998D01*
D02*
G37*
G36*
X87628Y-6978D02*
X86439D01*
Y-8758D01*
X87628D01*
Y-6978D01*
D02*
G37*
G36*
X0Y10625D02*
X-1662Y10494D01*
X-3283Y10105D01*
X-4824Y9467D01*
X-6245Y8596D01*
X-7513Y7513D01*
X-8596Y6245D01*
X-9467Y4824D01*
X-10105Y3283D01*
X-10494Y1662D01*
X-10625Y0D01*
X-10494Y-1662D01*
X-10105Y-3283D01*
X-9467Y-4824D01*
X-8596Y-6245D01*
X-7513Y-7513D01*
X-6245Y-8596D01*
X-4824Y-9467D01*
X-3283Y-10105D01*
X-1662Y-10494D01*
X0Y-10625D01*
X1662Y-10494D01*
X3283Y-10105D01*
X4824Y-9467D01*
X6245Y-8596D01*
X7513Y-7513D01*
X8596Y-6245D01*
X9467Y-4824D01*
X10105Y-3283D01*
X10494Y-1662D01*
X10625Y0D01*
X10494Y1662D01*
X10105Y3283D01*
X9467Y4824D01*
X8596Y6245D01*
X7513Y7513D01*
X6245Y8596D01*
X4824Y9467D01*
X3283Y10105D01*
X1662Y10494D01*
X0Y10625D01*
D02*
G37*
G36*
X108808Y-10995D02*
Y-14487D01*
X112458D01*
Y-10995D01*
X108808D01*
D02*
G37*
G36*
X56528Y-11060D02*
X53075D01*
Y-14512D01*
X56528D01*
Y-11060D01*
D02*
G37*
G36*
X99108Y-11075D02*
X95458D01*
Y-14567D01*
X99108D01*
Y-11075D01*
D02*
G37*
G36*
X213851Y-1487D02*
X204477D01*
Y-14798D01*
X213851D01*
Y-1487D01*
D02*
G37*
G36*
X179420Y-10887D02*
X175633D01*
Y-14930D01*
X179420D01*
Y-10887D01*
D02*
G37*
G36*
X174633D02*
X170845D01*
Y-14930D01*
X174633D01*
Y-10887D01*
D02*
G37*
G36*
X28820Y28054D02*
X28598Y28010D01*
X26170D01*
Y23510D01*
X26526D01*
Y23180D01*
X26700Y22302D01*
X27198Y21558D01*
X31351Y17405D01*
Y6635D01*
X31525Y5757D01*
X32023Y5013D01*
X40798Y-3762D01*
X41542Y-4259D01*
X42420Y-4434D01*
X53205D01*
X59369Y-10598D01*
X59178Y-11060D01*
X57528D01*
Y-14512D01*
X60981D01*
Y-12863D01*
X61443Y-12672D01*
X63350Y-14579D01*
X63293Y-15012D01*
X63420Y-15979D01*
X63794Y-16880D01*
X64387Y-17653D01*
X65161Y-18247D01*
X66061Y-18620D01*
X67028Y-18747D01*
X67995Y-18620D01*
X68895Y-18247D01*
X69669Y-17653D01*
X69935Y-17307D01*
X71758D01*
X72636Y-17132D01*
X73380Y-16635D01*
X76052Y-13962D01*
X77908D01*
Y-8862D01*
X78125Y-8452D01*
X78558D01*
Y-3952D01*
X77652D01*
Y-2692D01*
X78538D01*
Y1808D01*
X76110D01*
X75888Y1852D01*
X75666Y1808D01*
X73238D01*
Y-97D01*
X73064Y-972D01*
Y-8862D01*
X72808D01*
Y-10718D01*
X70808Y-12718D01*
X69935D01*
X69669Y-12372D01*
X68895Y-11778D01*
X67995Y-11405D01*
X67028Y-11278D01*
X66595Y-11335D01*
X55778Y-518D01*
X55033Y-21D01*
X54155Y154D01*
X43370D01*
X35939Y7585D01*
Y18355D01*
X35764Y19233D01*
X35267Y19977D01*
X31470Y23774D01*
Y28010D01*
X29042D01*
X28820Y28054D01*
D02*
G37*
G36*
X60981Y-15512D02*
X57528D01*
Y-18965D01*
X60981D01*
Y-15512D01*
D02*
G37*
G36*
X56528D02*
X53075D01*
Y-18965D01*
X56528D01*
Y-15512D01*
D02*
G37*
G36*
X112458Y-15487D02*
X108808D01*
Y-18979D01*
X112458D01*
Y-15487D01*
D02*
G37*
G36*
X99108Y-15567D02*
X95458D01*
Y-19059D01*
X99108D01*
Y-15567D01*
D02*
G37*
G36*
X104158Y-10995D02*
X103691Y-11075D01*
X100108D01*
Y-15067D01*
Y-19059D01*
X103691D01*
X103758Y-19059D01*
X104224Y-18979D01*
X107808D01*
Y-14987D01*
Y-10995D01*
X104224D01*
X104158Y-10995D01*
D02*
G37*
G36*
X179420Y-15930D02*
X175633D01*
Y-19973D01*
X179420D01*
Y-15930D01*
D02*
G37*
G36*
X174633D02*
X170845D01*
Y-19973D01*
X174633D01*
Y-15930D01*
D02*
G37*
G36*
X46103Y-8491D02*
X40666D01*
Y-21802D01*
X46103D01*
Y-8491D01*
D02*
G37*
G36*
X28387D02*
X22949D01*
Y-21802D01*
X28387D01*
Y-8491D01*
D02*
G37*
G36*
X82878Y144388D02*
X80478D01*
Y142388D01*
X82878D01*
Y144388D01*
D02*
G37*
G36*
X79478D02*
X77078D01*
Y142388D01*
X79478D01*
Y144388D01*
D02*
G37*
G36*
X116438Y144308D02*
X114038D01*
Y142307D01*
X116438D01*
Y144308D01*
D02*
G37*
G36*
X113038D02*
X110638D01*
Y142307D01*
X113038D01*
Y144308D01*
D02*
G37*
G36*
X271970Y162600D02*
X269970D01*
Y160200D01*
X271970D01*
Y162600D01*
D02*
G37*
G36*
X266030D02*
X264030D01*
Y160200D01*
X266030D01*
Y162600D01*
D02*
G37*
G36*
X268970D02*
X266970D01*
Y160200D01*
X268970D01*
Y162600D01*
D02*
G37*
G36*
X263030D02*
X261030D01*
Y160200D01*
X263030D01*
Y162600D01*
D02*
G37*
G36*
X239720Y162158D02*
X238959Y162007D01*
X238314Y161576D01*
X237883Y160931D01*
X237732Y160170D01*
X237883Y159409D01*
X238314Y158764D01*
X238959Y158333D01*
X239720Y158182D01*
X240481Y158333D01*
X241126Y158764D01*
X241557Y159409D01*
X241708Y160170D01*
X241557Y160931D01*
X241126Y161576D01*
X240481Y162007D01*
X239720Y162158D01*
D02*
G37*
G36*
X271970Y159200D02*
X269970D01*
Y156800D01*
X271970D01*
Y159200D01*
D02*
G37*
G36*
X268970D02*
X266970D01*
Y156800D01*
X268970D01*
Y159200D01*
D02*
G37*
G36*
X266030D02*
X264030D01*
Y156800D01*
X266030D01*
Y159200D01*
D02*
G37*
G36*
X263030D02*
X261030D01*
Y156800D01*
X263030D01*
Y159200D01*
D02*
G37*
G36*
X133908Y152838D02*
X131508D01*
Y150838D01*
X133908D01*
Y152838D01*
D02*
G37*
G36*
X130508D02*
X128108D01*
Y150838D01*
X130508D01*
Y152838D01*
D02*
G37*
G36*
X133908Y149838D02*
X131508D01*
Y147838D01*
X133908D01*
Y149838D01*
D02*
G37*
G36*
X130508D02*
X128108D01*
Y147838D01*
X130508D01*
Y149838D01*
D02*
G37*
G36*
X161146Y150822D02*
X158284D01*
Y145991D01*
X161146D01*
Y150822D01*
D02*
G37*
G36*
X223158D02*
X220296D01*
Y145991D01*
X223158D01*
Y150822D01*
D02*
G37*
G36*
X219296D02*
X216434D01*
Y145991D01*
X219296D01*
Y150822D01*
D02*
G37*
G36*
X157284D02*
X154422D01*
Y145991D01*
X157284D01*
Y150822D01*
D02*
G37*
G36*
X133908Y147108D02*
X131508D01*
Y145107D01*
X133908D01*
Y147108D01*
D02*
G37*
G36*
X130508D02*
X128108D01*
Y145107D01*
X130508D01*
Y147108D01*
D02*
G37*
G36*
X207985Y150309D02*
X207146Y150199D01*
X206364Y149875D01*
X205692Y149359D01*
X205176Y148688D01*
X204852Y147905D01*
X204742Y147066D01*
X204852Y146227D01*
X205176Y145445D01*
X205692Y144773D01*
X206364Y144257D01*
X207146Y143933D01*
X207985Y143823D01*
X208824Y143933D01*
X209607Y144257D01*
X210278Y144773D01*
X210794Y145445D01*
X211118Y146227D01*
X211228Y147066D01*
X211118Y147905D01*
X210794Y148688D01*
X210278Y149359D01*
X209607Y149875D01*
X208824Y150199D01*
X207985Y150309D01*
D02*
G37*
G36*
X176489D02*
X175650Y150199D01*
X174867Y149875D01*
X174196Y149359D01*
X173680Y148688D01*
X173356Y147905D01*
X173246Y147066D01*
X173356Y146227D01*
X173680Y145445D01*
X174196Y144773D01*
X174867Y144257D01*
X175650Y143933D01*
X176489Y143823D01*
X177328Y143933D01*
X178111Y144257D01*
X178782Y144773D01*
X179298Y145445D01*
X179622Y146227D01*
X179732Y147066D01*
X179622Y147905D01*
X179298Y148688D01*
X178782Y149359D01*
X178111Y149875D01*
X177328Y150199D01*
X176489Y150309D01*
D02*
G37*
G36*
X133908Y144107D02*
X131508D01*
Y142108D01*
X133908D01*
Y144107D01*
D02*
G37*
G36*
X130508D02*
X128108D01*
Y142108D01*
X130508D01*
Y144107D01*
D02*
G37*
G36*
X223158Y144991D02*
X220296D01*
Y140161D01*
X223158D01*
Y144991D01*
D02*
G37*
G36*
X219296D02*
X216434D01*
Y140161D01*
X219296D01*
Y144991D01*
D02*
G37*
G36*
X161146D02*
X158284D01*
Y140161D01*
X161146D01*
Y144991D01*
D02*
G37*
G36*
X157284D02*
X154422D01*
Y140161D01*
X157284D01*
Y144991D01*
D02*
G37*
G36*
X234380Y141840D02*
X232380D01*
Y139440D01*
X234380D01*
Y141840D01*
D02*
G37*
G36*
X231380D02*
X229380D01*
Y139440D01*
X231380D01*
Y141840D01*
D02*
G37*
G36*
X133908Y141268D02*
X131508D01*
Y139268D01*
X133908D01*
Y141268D01*
D02*
G37*
G36*
X130508D02*
X128108D01*
Y139268D01*
X130508D01*
Y141268D01*
D02*
G37*
G36*
X133908Y138268D02*
X131508D01*
Y136268D01*
X133908D01*
Y138268D01*
D02*
G37*
G36*
X130508D02*
X128108D01*
Y136268D01*
X130508D01*
Y138268D01*
D02*
G37*
G36*
X234380Y138440D02*
X232380D01*
Y136040D01*
X234380D01*
Y138440D01*
D02*
G37*
G36*
X231380D02*
X229380D01*
Y136040D01*
X231380D01*
Y138440D01*
D02*
G37*
G36*
X271720Y155850D02*
X267220D01*
Y150550D01*
X267941D01*
Y140770D01*
X268057Y140185D01*
X268389Y139689D01*
X271679Y136399D01*
X272175Y136067D01*
X272760Y135951D01*
X275262D01*
Y134009D01*
X273354D01*
X265059Y142304D01*
Y150550D01*
X265780D01*
Y155850D01*
X261280D01*
Y150550D01*
X262001D01*
Y141670D01*
X262117Y141085D01*
X262449Y140589D01*
X271639Y131399D01*
X271651Y131391D01*
X271714Y130747D01*
X266169Y125201D01*
X265837Y124705D01*
X265721Y124120D01*
Y108840D01*
X263720D01*
Y106340D01*
Y103840D01*
X263724D01*
X263915Y103378D01*
X263237Y102700D01*
X260500D01*
Y98200D01*
X263904D01*
X264095Y97738D01*
X263237Y96880D01*
X260500D01*
Y92380D01*
X265800D01*
Y95117D01*
X270581Y99899D01*
X270913Y100395D01*
X271029Y100980D01*
Y122555D01*
X274426Y125951D01*
X275012D01*
Y125480D01*
X278867D01*
X282721D01*
Y126866D01*
X282471D01*
Y130844D01*
Y133344D01*
Y135844D01*
Y138344D01*
Y140844D01*
Y144116D01*
X275262D01*
Y139009D01*
X273394D01*
X270999Y141403D01*
Y150550D01*
X271720D01*
Y155850D01*
D02*
G37*
G36*
X261014Y144116D02*
X253806D01*
Y140844D01*
Y138344D01*
Y134009D01*
X234130D01*
Y135090D01*
X229630D01*
Y134224D01*
X210830D01*
X210147Y134089D01*
X209568Y133702D01*
X209568Y133702D01*
X195700Y119833D01*
X195313Y119254D01*
X195177Y118571D01*
Y109177D01*
X194796Y108960D01*
X194415Y109177D01*
Y117542D01*
X194488Y117910D01*
X194337Y118671D01*
X193906Y119316D01*
X193261Y119747D01*
X192500Y119898D01*
X191739Y119747D01*
X191094Y119316D01*
X190663Y118671D01*
X190584Y118274D01*
X190084Y118324D01*
Y125556D01*
X190147Y125649D01*
X190298Y126410D01*
X190147Y127171D01*
X189716Y127816D01*
X189071Y128247D01*
X188310Y128398D01*
X187549Y128247D01*
X186904Y127816D01*
X186473Y127171D01*
X186322Y126410D01*
X186473Y125649D01*
X186516Y125585D01*
Y109036D01*
X186097Y108840D01*
X185672Y108840D01*
X182267D01*
X181841Y108840D01*
X181341Y108840D01*
X177511D01*
Y101040D01*
X181341D01*
X181767Y101040D01*
X182267Y101040D01*
X185672D01*
X186097Y101040D01*
X186597Y101040D01*
X190003D01*
X190428Y101040D01*
X190928Y101040D01*
X194333D01*
X194759Y101040D01*
X195259Y101040D01*
X198914D01*
Y100790D01*
X200792D01*
Y104940D01*
Y109090D01*
X198914D01*
X198746Y109520D01*
Y117832D01*
X211569Y130656D01*
X229630D01*
Y129790D01*
X234130D01*
Y130951D01*
X235464D01*
X235656Y130489D01*
X233522Y128355D01*
X232979Y128247D01*
X232334Y127816D01*
X231903Y127171D01*
X231752Y126410D01*
X231903Y125649D01*
X232334Y125004D01*
X232979Y124573D01*
X233740Y124422D01*
X234501Y124573D01*
X235146Y125004D01*
X235163Y125024D01*
X235163Y125024D01*
X235163D01*
X235660Y124874D01*
X235660Y124599D01*
Y123050D01*
X238060D01*
Y125050D01*
X236107D01*
X235778Y125050D01*
X235459Y125457D01*
Y125457D01*
X235459Y125457D01*
X235577Y125649D01*
X235626Y125894D01*
X235685Y126192D01*
X237944Y128451D01*
X248979D01*
X249028Y127951D01*
X248959Y127937D01*
X248314Y127506D01*
X247883Y126861D01*
X247732Y126100D01*
X247883Y125339D01*
X247857Y125137D01*
X247806Y124984D01*
X247648Y124807D01*
X247471Y124800D01*
X247252Y124800D01*
X242410D01*
Y120300D01*
X245147D01*
X246001Y119446D01*
X245747Y118993D01*
X245245Y118893D01*
X245195Y118860D01*
X242310D01*
Y114360D01*
X247610D01*
Y115951D01*
X253556D01*
Y115480D01*
X257410D01*
X261264D01*
Y116866D01*
X261014D01*
Y120844D01*
Y123344D01*
Y125844D01*
Y128344D01*
Y130844D01*
Y133344D01*
Y135844D01*
Y138344D01*
Y140844D01*
Y144116D01*
D02*
G37*
G36*
X133908Y135518D02*
X131508D01*
Y133518D01*
X133908D01*
Y135518D01*
D02*
G37*
G36*
X130508D02*
X128108D01*
Y133518D01*
X130508D01*
Y135518D01*
D02*
G37*
G36*
X338583Y152357D02*
X336920Y152227D01*
X335299Y151838D01*
X333759Y151199D01*
X332337Y150328D01*
X331069Y149246D01*
X329987Y147978D01*
X329116Y146556D01*
X328477Y145016D01*
X328088Y143394D01*
X327957Y141732D01*
X328088Y140070D01*
X328477Y138449D01*
X329116Y136908D01*
X329987Y135487D01*
X331069Y134219D01*
X332337Y133136D01*
X333759Y132265D01*
X335299Y131627D01*
X336920Y131238D01*
X338583Y131107D01*
X340245Y131238D01*
X341866Y131627D01*
X343406Y132265D01*
X344828Y133136D01*
X346096Y134219D01*
X347179Y135487D01*
X348050Y136908D01*
X348688Y138449D01*
X349077Y140070D01*
X349208Y141732D01*
X349077Y143394D01*
X348688Y145016D01*
X348050Y146556D01*
X347179Y147978D01*
X346096Y149246D01*
X344828Y150328D01*
X343406Y151199D01*
X341866Y151838D01*
X340245Y152227D01*
X338583Y152357D01*
D02*
G37*
G36*
X133908Y132518D02*
X131508D01*
Y130518D01*
X133908D01*
Y132518D01*
D02*
G37*
G36*
X130508D02*
X128108D01*
Y130518D01*
X130508D01*
Y132518D01*
D02*
G37*
G36*
X302830Y130570D02*
X300430D01*
Y128570D01*
X302830D01*
Y130570D01*
D02*
G37*
G36*
X299430D02*
X297030D01*
Y128570D01*
X299430D01*
Y130570D01*
D02*
G37*
G36*
X302830Y127570D02*
X300430D01*
Y125570D01*
X302830D01*
Y127570D01*
D02*
G37*
G36*
X299430D02*
X297030D01*
Y125570D01*
X299430D01*
Y127570D01*
D02*
G37*
G36*
X297603Y148545D02*
X289017D01*
Y140470D01*
X291136D01*
Y130320D01*
X290780D01*
Y125820D01*
X291136D01*
Y124570D01*
X290690D01*
Y124009D01*
X282721D01*
Y124480D01*
X278867D01*
X275012D01*
Y123094D01*
X275262D01*
Y122090D01*
X274820Y121809D01*
X274762Y121804D01*
X274040Y121948D01*
X273279Y121797D01*
X272634Y121366D01*
X272203Y120721D01*
X272052Y119960D01*
X272203Y119199D01*
X272634Y118554D01*
X273279Y118123D01*
X274040Y117972D01*
X274762Y118115D01*
X274820Y118111D01*
X275262Y117830D01*
Y113344D01*
X277337D01*
Y108403D01*
X277454Y107818D01*
X277785Y107322D01*
X281469Y103639D01*
X281965Y103307D01*
X282550Y103191D01*
X289124D01*
X289316Y102729D01*
X288401Y101814D01*
X288070Y101318D01*
X287953Y100732D01*
Y73350D01*
X287910D01*
Y68050D01*
X292410D01*
Y73350D01*
X291012D01*
Y94274D01*
X291512Y94538D01*
X292182Y94404D01*
X292943Y94556D01*
X293588Y94987D01*
X294019Y95632D01*
X294171Y96392D01*
X294019Y97153D01*
X293588Y97798D01*
X292943Y98229D01*
X292182Y98381D01*
X291512Y98247D01*
X291012Y98511D01*
Y100099D01*
X293383Y102470D01*
X296120D01*
Y106970D01*
X290820D01*
Y106249D01*
X283184D01*
X280396Y109037D01*
Y113344D01*
X282471D01*
Y115951D01*
X285916D01*
X288723Y113144D01*
X288477Y112683D01*
X288450Y112688D01*
X287689Y112537D01*
X287044Y112106D01*
X286613Y111461D01*
X286462Y110700D01*
X286613Y109939D01*
X287044Y109294D01*
X287689Y108863D01*
X288450Y108712D01*
X289211Y108863D01*
X289671Y109171D01*
X290680D01*
Y108450D01*
X295980D01*
Y112950D01*
X293243D01*
X292405Y113788D01*
X292596Y114250D01*
X295960D01*
Y118750D01*
X293223D01*
X292365Y119608D01*
X292556Y120070D01*
X293118D01*
X293340Y120026D01*
X293562Y120070D01*
X295990D01*
Y124570D01*
X295724D01*
Y125820D01*
X296080D01*
Y130320D01*
X295724D01*
Y140470D01*
X297603D01*
Y142213D01*
X300198D01*
X301076Y142388D01*
X301820Y142885D01*
X302317Y143630D01*
X302492Y144508D01*
X302317Y145386D01*
X301820Y146130D01*
X301076Y146627D01*
X300198Y146802D01*
X297603D01*
Y148545D01*
D02*
G37*
G36*
X239060Y125050D02*
Y123050D01*
X241460D01*
Y125050D01*
X239060D01*
D02*
G37*
G36*
X302740Y124820D02*
X300340D01*
Y122820D01*
X302740D01*
Y124820D01*
D02*
G37*
G36*
X299340D02*
X296940D01*
Y122820D01*
X299340D01*
Y124820D01*
D02*
G37*
G36*
X241460Y122050D02*
X239060D01*
Y120050D01*
X241460D01*
Y122050D01*
D02*
G37*
G36*
X238060D02*
X235660D01*
Y120050D01*
X238060D01*
Y122050D01*
D02*
G37*
G36*
X302740Y121820D02*
X300340D01*
Y119820D01*
X302740D01*
Y121820D01*
D02*
G37*
G36*
X299340D02*
X296940D01*
Y119820D01*
X299340D01*
Y121820D01*
D02*
G37*
G36*
X224010Y126270D02*
X218710D01*
Y121770D01*
X219831D01*
Y120160D01*
X218570D01*
Y119439D01*
X204891D01*
X204431Y119747D01*
X203670Y119898D01*
X202909Y119747D01*
X202264Y119316D01*
X201833Y118671D01*
X201682Y117910D01*
X201833Y117149D01*
X202264Y116504D01*
X202909Y116073D01*
X203670Y115922D01*
X204431Y116073D01*
X204891Y116381D01*
X218570D01*
Y115660D01*
X223870D01*
Y120160D01*
X222889D01*
Y121770D01*
X224010D01*
Y126270D01*
D02*
G37*
G36*
X227220Y120410D02*
X224820D01*
Y118410D01*
X227220D01*
Y120410D01*
D02*
G37*
G36*
X241360Y119110D02*
X238960D01*
Y117110D01*
X241360D01*
Y119110D01*
D02*
G37*
G36*
X237960D02*
X235560D01*
Y117110D01*
X237960D01*
Y119110D01*
D02*
G37*
G36*
X302710Y119000D02*
X300310D01*
Y117000D01*
X302710D01*
Y119000D01*
D02*
G37*
G36*
X299310D02*
X296910D01*
Y117000D01*
X299310D01*
Y119000D01*
D02*
G37*
G36*
X227220Y117410D02*
X224820D01*
Y115410D01*
X227220D01*
Y117410D01*
D02*
G37*
G36*
X241360Y116110D02*
X238960D01*
Y114110D01*
X241360D01*
Y116110D01*
D02*
G37*
G36*
X237960D02*
X235560D01*
Y114110D01*
X237960D01*
Y116110D01*
D02*
G37*
G36*
X302710Y116000D02*
X300310D01*
Y114000D01*
X302710D01*
Y116000D01*
D02*
G37*
G36*
X299310D02*
X296910D01*
Y114000D01*
X299310D01*
Y116000D01*
D02*
G37*
G36*
X261264Y114480D02*
X257910D01*
Y113094D01*
X261264D01*
Y114480D01*
D02*
G37*
G36*
X256910D02*
X253556D01*
Y113094D01*
X256910D01*
Y114480D01*
D02*
G37*
G36*
X145588Y113418D02*
X143188D01*
Y111417D01*
X145588D01*
Y113418D01*
D02*
G37*
G36*
X142188D02*
X139788D01*
Y111417D01*
X142188D01*
Y113418D01*
D02*
G37*
G36*
X223158Y114983D02*
X220296D01*
Y110940D01*
X223158D01*
Y114983D01*
D02*
G37*
G36*
X219296D02*
X216434D01*
Y110940D01*
X219296D01*
Y114983D01*
D02*
G37*
G36*
X165434Y113893D02*
X161784D01*
Y110440D01*
X165434D01*
Y113893D01*
D02*
G37*
G36*
X160784D02*
X157135D01*
Y110440D01*
X160784D01*
Y113893D01*
D02*
G37*
G36*
X205623Y114478D02*
X204862Y114327D01*
X204217Y113896D01*
X203786Y113251D01*
X203635Y112490D01*
X203786Y111729D01*
X204093Y111269D01*
Y109275D01*
X203670Y109090D01*
X203670Y109090D01*
Y109090D01*
X203670Y109090D01*
X201792D01*
Y104940D01*
Y100790D01*
X203670D01*
Y101040D01*
X207326D01*
X207751Y101040D01*
X208251Y101040D01*
X211656D01*
X212082Y101040D01*
X212582Y101040D01*
X216412D01*
Y105406D01*
X216434Y105897D01*
X216912Y105897D01*
X219296D01*
Y109940D01*
X216434D01*
Y109331D01*
X216412Y108840D01*
X215934Y108840D01*
X212582D01*
X212156Y108840D01*
X211656Y108840D01*
X208251D01*
X207826Y108840D01*
X207506D01*
X207152Y109193D01*
Y111269D01*
X207460Y111729D01*
X207611Y112490D01*
X207460Y113251D01*
X207029Y113896D01*
X206384Y114327D01*
X205623Y114478D01*
D02*
G37*
G36*
X145588Y110417D02*
X143188D01*
Y108418D01*
X145588D01*
Y110417D01*
D02*
G37*
G36*
X142188D02*
X139788D01*
Y108418D01*
X142188D01*
Y110417D01*
D02*
G37*
G36*
X230510Y126270D02*
X225210D01*
Y121770D01*
X227947D01*
X228845Y120872D01*
X228654Y120410D01*
X228220D01*
Y117910D01*
Y115410D01*
X230620D01*
Y115410D01*
X231111Y115387D01*
Y110211D01*
X230803Y109751D01*
X230652Y108990D01*
X230803Y108229D01*
X231234Y107584D01*
X231879Y107153D01*
X232640Y107002D01*
X233401Y107153D01*
X234046Y107584D01*
X234477Y108229D01*
X234628Y108990D01*
X234477Y109751D01*
X234169Y110211D01*
Y119240D01*
X234053Y119825D01*
X233721Y120321D01*
X230510Y123533D01*
Y126270D01*
D02*
G37*
G36*
X252569Y108700D02*
X251380D01*
Y106920D01*
X252569D01*
Y108700D01*
D02*
G37*
G36*
X250380D02*
X249191D01*
Y106920D01*
X250380D01*
Y108700D01*
D02*
G37*
G36*
X262720Y108840D02*
X260320D01*
Y106840D01*
X262720D01*
Y108840D01*
D02*
G37*
G36*
X322760Y108720D02*
X320760D01*
Y106320D01*
X322760D01*
Y108720D01*
D02*
G37*
G36*
X319760D02*
X317760D01*
Y106320D01*
X319760D01*
Y108720D01*
D02*
G37*
G36*
X165434Y109440D02*
X161784D01*
Y105987D01*
X165434D01*
Y109440D01*
D02*
G37*
G36*
X160784D02*
X157135D01*
Y105987D01*
X160784D01*
Y109440D01*
D02*
G37*
G36*
X223158Y109940D02*
X220296D01*
Y105897D01*
X223158D01*
Y109940D01*
D02*
G37*
G36*
X145560Y106570D02*
X143160D01*
Y104570D01*
X145560D01*
Y106570D01*
D02*
G37*
G36*
X142160D02*
X139760D01*
Y104570D01*
X142160D01*
Y106570D01*
D02*
G37*
G36*
X252569Y105920D02*
X251380D01*
Y104140D01*
X252569D01*
Y105920D01*
D02*
G37*
G36*
X250380D02*
X249191D01*
Y104140D01*
X250380D01*
Y105920D01*
D02*
G37*
G36*
X262720Y105840D02*
X260320D01*
Y103840D01*
X262720D01*
Y105840D01*
D02*
G37*
G36*
X322760Y105320D02*
X320760D01*
Y102920D01*
X322760D01*
Y105320D01*
D02*
G37*
G36*
X319760D02*
X317760D01*
Y102920D01*
X319760D01*
Y105320D01*
D02*
G37*
G36*
X356693Y110103D02*
X349287D01*
Y102697D01*
X356693D01*
Y110103D01*
D02*
G37*
G36*
X299830Y112994D02*
X299608Y112950D01*
X297180D01*
Y108450D01*
X297676D01*
Y106970D01*
X297320D01*
Y102470D01*
X299748D01*
X299970Y102426D01*
X300171Y102466D01*
X307080D01*
X307302Y102510D01*
X309730D01*
Y107010D01*
X307302D01*
X307080Y107054D01*
X302264D01*
Y108450D01*
X302480D01*
Y112950D01*
X300052D01*
X299830Y112994D01*
D02*
G37*
G36*
X259370Y108590D02*
X254070D01*
Y104090D01*
X254936D01*
Y102700D01*
X254000D01*
Y102234D01*
X252319D01*
Y102444D01*
X249441D01*
Y101411D01*
X249232Y101097D01*
X249096Y100415D01*
X249232Y99732D01*
X249441Y99418D01*
Y98385D01*
X249555D01*
Y95884D01*
X249424Y95796D01*
X248993Y95151D01*
X248842Y94390D01*
X248993Y93629D01*
X249424Y92984D01*
X250069Y92553D01*
X250830Y92402D01*
X251591Y92553D01*
X252236Y92984D01*
X252667Y93629D01*
X252818Y94390D01*
X252667Y95151D01*
X252236Y95796D01*
X252104Y95884D01*
Y98385D01*
X252319D01*
Y98666D01*
X254000D01*
Y98200D01*
X259300D01*
Y102700D01*
X258504D01*
Y104090D01*
X259370D01*
Y108590D01*
D02*
G37*
G36*
X145560Y103570D02*
X143160D01*
Y101570D01*
X145560D01*
Y103570D01*
D02*
G37*
G36*
X142160D02*
X139760D01*
Y101570D01*
X142160D01*
Y103570D01*
D02*
G37*
G36*
X352990Y100135D02*
X352023Y100007D01*
X351123Y99634D01*
X350349Y99041D01*
X349756Y98267D01*
X349383Y97367D01*
X349255Y96400D01*
X349383Y95433D01*
X349756Y94533D01*
X350349Y93759D01*
X351123Y93166D01*
X352023Y92793D01*
X352990Y92665D01*
X353957Y92793D01*
X354857Y93166D01*
X355631Y93759D01*
X356224Y94533D01*
X356597Y95433D01*
X356725Y96400D01*
X356597Y97367D01*
X356224Y98267D01*
X355631Y99041D01*
X354857Y99634D01*
X353957Y100007D01*
X352990Y100135D01*
D02*
G37*
G36*
X313580Y107054D02*
X313358Y107010D01*
X310930D01*
Y102510D01*
X311346D01*
Y100980D01*
X310990D01*
Y96480D01*
X313418D01*
X313640Y96436D01*
X313862Y96480D01*
X314445D01*
X314856Y95980D01*
X314776Y95578D01*
Y91024D01*
X314058D01*
Y91530D01*
X313907Y92291D01*
X313476Y92936D01*
X312831Y93367D01*
X312070Y93518D01*
X311309Y93367D01*
X310664Y92936D01*
X310233Y92291D01*
X310082Y91530D01*
Y89970D01*
X309934Y89812D01*
X309434Y90010D01*
Y96480D01*
X309790D01*
Y100980D01*
X307362D01*
X307140Y101024D01*
X306918Y100980D01*
X304490D01*
Y96480D01*
X304846D01*
Y89750D01*
X299186Y84090D01*
X298350D01*
Y82482D01*
X298306Y82260D01*
Y81440D01*
X298350Y81218D01*
Y78790D01*
X300609D01*
X300670Y78588D01*
X300706Y78290D01*
X300006Y77590D01*
X298350D01*
Y76160D01*
X297887Y75960D01*
X297850Y75966D01*
X297436Y76586D01*
X296791Y77017D01*
X296030Y77168D01*
X295269Y77017D01*
X294624Y76586D01*
X294193Y75941D01*
X294042Y75180D01*
X294193Y74419D01*
X294501Y73959D01*
Y73400D01*
X293660D01*
Y68100D01*
X298160D01*
Y71869D01*
X298177Y71907D01*
X298660Y72053D01*
X298978Y71578D01*
X305082Y65474D01*
Y63930D01*
X305233Y63169D01*
X305664Y62524D01*
X306309Y62093D01*
X307070Y61942D01*
X307831Y62093D01*
X308476Y62524D01*
X308907Y63169D01*
X309058Y63930D01*
Y65656D01*
X309189Y65852D01*
X309276Y66287D01*
X309776Y66237D01*
Y60994D01*
X300260D01*
X300198Y61006D01*
X299320Y60832D01*
X298575Y60335D01*
X298157Y59708D01*
X297657Y59841D01*
Y61600D01*
X298160D01*
Y66900D01*
X293660D01*
Y63046D01*
X293198Y62854D01*
X292410Y63642D01*
Y66850D01*
X287910D01*
Y61550D01*
X290898D01*
X293358Y59090D01*
Y56413D01*
X292858Y56151D01*
X292182Y56286D01*
X291422Y56134D01*
X290777Y55703D01*
X290346Y55058D01*
X290194Y54298D01*
X290346Y53537D01*
X290777Y52892D01*
X291014Y52733D01*
X290863Y52233D01*
X286421D01*
Y44827D01*
X293039D01*
Y46036D01*
X294536D01*
Y44780D01*
X294180D01*
Y40280D01*
X296608D01*
X296830Y40236D01*
X297052Y40280D01*
X297061D01*
X299214Y38128D01*
X299049Y37585D01*
X298934Y37562D01*
X298471Y37253D01*
X298162Y36790D01*
X298053Y36244D01*
Y34947D01*
X297020D01*
Y35770D01*
X291720D01*
Y31270D01*
X293473D01*
Y30544D01*
X293063Y29931D01*
X292912Y29170D01*
X293063Y28409D01*
X293494Y27764D01*
X294139Y27333D01*
X294900Y27182D01*
X295661Y27333D01*
X296306Y27764D01*
X296737Y28409D01*
X296888Y29170D01*
X296737Y29931D01*
X296327Y30544D01*
Y31270D01*
X297020D01*
Y32093D01*
X298053D01*
Y30456D01*
X298162Y29910D01*
X298471Y29447D01*
X298934Y29138D01*
X299480Y29029D01*
X300026Y29138D01*
X300407Y29392D01*
X300730Y29438D01*
X301054Y29392D01*
X301434Y29138D01*
X301980Y29029D01*
X302526Y29138D01*
X302989Y29447D01*
X303197D01*
X303508Y29324D01*
X303934Y29039D01*
X304480Y28931D01*
X305026Y29039D01*
X305452Y29324D01*
X305763Y29447D01*
X305971D01*
X306434Y29138D01*
X306980Y29029D01*
X307526Y29138D01*
X307907Y29392D01*
X308230Y29438D01*
X308554Y29392D01*
X308934Y29138D01*
X309480Y29029D01*
X310026Y29138D01*
X310406Y29392D01*
X310730Y29438D01*
X311053Y29392D01*
X311434Y29138D01*
X311980Y29029D01*
X312526Y29138D01*
X312907Y29392D01*
X313230Y29438D01*
X313554Y29392D01*
X313934Y29138D01*
X314480Y29029D01*
X315026Y29138D01*
X315406Y29392D01*
X315730Y29438D01*
X316054Y29392D01*
X316434Y29138D01*
X316980Y29029D01*
X317526Y29138D01*
X317906Y29392D01*
X318230Y29438D01*
X318553Y29392D01*
X318934Y29138D01*
X319480Y29029D01*
X320026Y29138D01*
X320407Y29392D01*
X320730Y29438D01*
X321054Y29392D01*
X321434Y29138D01*
X321980Y29029D01*
X322526Y29138D01*
X322906Y29392D01*
X323230Y29438D01*
X323553Y29392D01*
X323934Y29138D01*
X324480Y29029D01*
X325026Y29138D01*
X325407Y29392D01*
X325730Y29438D01*
X326054Y29392D01*
X326434Y29138D01*
X326980Y29029D01*
X327526Y29138D01*
X327989Y29447D01*
X328116Y29637D01*
X328616Y29485D01*
Y24520D01*
X322858Y18762D01*
X322361Y18018D01*
X322186Y17140D01*
X322361Y16262D01*
X322858Y15518D01*
X323205Y15285D01*
Y13601D01*
X322706Y13333D01*
X322624Y13388D01*
X322480Y13417D01*
Y8941D01*
Y4464D01*
X322624Y4493D01*
X323045Y4775D01*
X323471Y5038D01*
X323934Y4729D01*
X324480Y4620D01*
X325026Y4729D01*
X325407Y4983D01*
X325730Y5029D01*
X326054Y4983D01*
X326434Y4729D01*
X326980Y4620D01*
X327526Y4729D01*
X327989Y5038D01*
X328298Y5501D01*
X328407Y6047D01*
Y6921D01*
X329002Y7318D01*
X335811Y14128D01*
X344295D01*
Y10750D01*
X348945D01*
Y22093D01*
X344295D01*
Y18716D01*
X334861D01*
X333983Y18541D01*
X333239Y18044D01*
X328034Y12839D01*
X327989Y12843D01*
X327526Y13153D01*
X326980Y13261D01*
X326434Y13153D01*
X326255Y13033D01*
X325754Y13300D01*
Y15285D01*
X326102Y15518D01*
X332532Y21948D01*
X333029Y22692D01*
X333204Y23570D01*
Y29390D01*
X334331Y30517D01*
X334793Y30326D01*
Y29520D01*
X338246D01*
Y31201D01*
X335669D01*
X335477Y31663D01*
X343139Y39324D01*
X344295D01*
Y35947D01*
X348945D01*
Y47290D01*
X344295D01*
Y43913D01*
X342188D01*
X341311Y43738D01*
X340566Y43241D01*
X329288Y31962D01*
X328907Y31392D01*
X328407Y31544D01*
Y36244D01*
X328298Y36790D01*
X327989Y37253D01*
X327526Y37562D01*
X326980Y37671D01*
X326434Y37562D01*
X326054Y37308D01*
X325730Y37262D01*
X325407Y37308D01*
X325026Y37562D01*
X324480Y37671D01*
X323934Y37562D01*
X323553Y37308D01*
X323230Y37262D01*
X322906Y37308D01*
X322526Y37562D01*
X321980Y37671D01*
X321434Y37562D01*
X321407Y37544D01*
X320907Y37812D01*
Y38735D01*
X324215Y42042D01*
X324854Y41958D01*
X325564Y42052D01*
X326225Y42325D01*
X326793Y42761D01*
X327229Y43329D01*
X327503Y43990D01*
X327596Y44700D01*
X327503Y45410D01*
X327229Y46071D01*
X326793Y46639D01*
X326225Y47075D01*
X325564Y47348D01*
X324854Y47442D01*
X324144Y47348D01*
X323483Y47075D01*
X322915Y46639D01*
X322479Y46071D01*
X322205Y45410D01*
X322112Y44700D01*
X322196Y44061D01*
X318907Y40772D01*
X318407Y40979D01*
Y42369D01*
X318919Y42761D01*
X319355Y43329D01*
X319629Y43990D01*
X319722Y44700D01*
X319629Y45410D01*
X319355Y46071D01*
X318919Y46639D01*
X318351Y47075D01*
X317690Y47348D01*
X316980Y47442D01*
X316270Y47348D01*
X315609Y47075D01*
X315041Y46639D01*
X314605Y46071D01*
X314332Y45410D01*
X314238Y44700D01*
X314332Y43990D01*
X314605Y43329D01*
X315041Y42761D01*
X315553Y42369D01*
Y37812D01*
X315053Y37544D01*
X315026Y37562D01*
X314480Y37671D01*
X313934Y37562D01*
X313755Y37442D01*
X313254Y37710D01*
Y47480D01*
X313158Y47968D01*
X312881Y48381D01*
X311214Y50048D01*
X311406Y50510D01*
X311918D01*
X312140Y50466D01*
X312362Y50510D01*
X314790D01*
Y55010D01*
X314364D01*
Y56450D01*
X314790D01*
Y60950D01*
X314364D01*
Y63694D01*
X314864Y63743D01*
X314998Y63072D01*
X315484Y62344D01*
X316212Y61858D01*
X317004Y61700D01*
X316955Y61200D01*
X315740D01*
Y59200D01*
X318140D01*
Y61200D01*
X317185D01*
X317136Y61700D01*
X317467Y61766D01*
X317928Y61858D01*
X318656Y62344D01*
X319142Y63072D01*
X319313Y63930D01*
Y66494D01*
X319813Y66543D01*
X319833Y66440D01*
X319951Y65852D01*
X320082Y65656D01*
Y63930D01*
X320233Y63169D01*
X320664Y62524D01*
X321309Y62093D01*
X322070Y61942D01*
X322831Y62093D01*
X323476Y62524D01*
X323907Y63169D01*
X324058Y63930D01*
Y64436D01*
X328277D01*
Y63007D01*
X335683D01*
Y70413D01*
X328277D01*
Y69024D01*
X324058D01*
Y69530D01*
X323907Y70291D01*
X323476Y70936D01*
X322831Y71367D01*
X322070Y71518D01*
X321309Y71367D01*
X320664Y70936D01*
X320233Y70291D01*
X320082Y69530D01*
Y67804D01*
X319951Y67608D01*
X319833Y67020D01*
X319813Y66917D01*
X319313Y66966D01*
Y69530D01*
X319142Y70388D01*
X318656Y71116D01*
X317928Y71602D01*
X317570Y71674D01*
Y66730D01*
X316570D01*
Y71674D01*
X316212Y71602D01*
X315484Y71116D01*
X314998Y70388D01*
X314827Y69530D01*
Y66966D01*
X314327Y66917D01*
X314189Y67608D01*
X314058Y67804D01*
Y69530D01*
X313907Y70291D01*
X313476Y70936D01*
X312831Y71367D01*
X312070Y71518D01*
X311309Y71367D01*
X310664Y70936D01*
X310233Y70291D01*
X310082Y69530D01*
Y67804D01*
X309951Y67608D01*
X309825Y66976D01*
X309315D01*
X309189Y67608D01*
X309058Y67804D01*
Y69530D01*
X308907Y70291D01*
X308476Y70936D01*
X307831Y71367D01*
X307070Y71518D01*
X306309Y71367D01*
X305930Y71114D01*
X302993Y74052D01*
X303335Y74416D01*
X329073D01*
X329339Y74069D01*
X330113Y73476D01*
X331013Y73103D01*
X331980Y72975D01*
X332947Y73103D01*
X333847Y73476D01*
X334621Y74069D01*
X335214Y74843D01*
X335587Y75743D01*
X335715Y76710D01*
X335587Y77677D01*
X335214Y78577D01*
X334621Y79351D01*
X333847Y79944D01*
X332947Y80317D01*
X331980Y80445D01*
X331013Y80317D01*
X330113Y79944D01*
X329339Y79351D01*
X329073Y79004D01*
X302850D01*
Y81218D01*
X302862Y81277D01*
X305930Y84346D01*
X306309Y84093D01*
X307070Y83942D01*
X307831Y84093D01*
X308476Y84524D01*
X308907Y85169D01*
X309058Y85930D01*
Y87621D01*
X309260Y87922D01*
X309343Y88343D01*
X309853D01*
X309951Y87852D01*
X310082Y87656D01*
Y85930D01*
X310233Y85169D01*
X310664Y84524D01*
X311309Y84093D01*
X312070Y83942D01*
X312831Y84093D01*
X313476Y84524D01*
X313907Y85169D01*
X314058Y85930D01*
Y86436D01*
X315082D01*
Y85930D01*
X315233Y85169D01*
X315664Y84524D01*
X316309Y84093D01*
X317070Y83942D01*
X317831Y84093D01*
X318476Y84524D01*
X318907Y85169D01*
X319058Y85930D01*
Y87656D01*
X319190Y87852D01*
X319327Y88543D01*
X319827Y88494D01*
Y85930D01*
X319998Y85072D01*
X320484Y84344D01*
X321212Y83858D01*
X321570Y83786D01*
Y88730D01*
Y93674D01*
X321212Y93602D01*
X320484Y93116D01*
X319998Y92388D01*
X319864Y91717D01*
X319364Y91766D01*
Y94628D01*
X321406Y96670D01*
X322510D01*
Y98546D01*
X322554Y98768D01*
Y99320D01*
X322510Y99542D01*
Y101970D01*
X318010D01*
Y99762D01*
X316752Y98504D01*
X316290Y98696D01*
Y100980D01*
X315934D01*
Y102510D01*
X316230D01*
Y107010D01*
X313802D01*
X313580Y107054D01*
D02*
G37*
G36*
X266050Y91310D02*
X263650D01*
Y89310D01*
X266050D01*
Y91310D01*
D02*
G37*
G36*
X262650D02*
X260250D01*
Y89310D01*
X262650D01*
Y91310D01*
D02*
G37*
G36*
X322570Y93674D02*
Y89230D01*
X324313D01*
Y91530D01*
X324142Y92388D01*
X323656Y93116D01*
X322928Y93602D01*
X322570Y93674D01*
D02*
G37*
G36*
X266050Y88310D02*
X263650D01*
Y86310D01*
X266050D01*
Y88310D01*
D02*
G37*
G36*
X262650D02*
X260250D01*
Y86310D01*
X262650D01*
Y88310D01*
D02*
G37*
G36*
X324313Y88230D02*
X322570D01*
Y83786D01*
X322928Y83858D01*
X323656Y84344D01*
X324142Y85072D01*
X324313Y85930D01*
Y88230D01*
D02*
G37*
G36*
X252289Y85059D02*
X251100D01*
Y83280D01*
X252289D01*
Y85059D01*
D02*
G37*
G36*
X250100D02*
X248911D01*
Y83280D01*
X250100D01*
Y85059D01*
D02*
G37*
G36*
X352990Y90135D02*
X352023Y90007D01*
X351123Y89634D01*
X350349Y89041D01*
X349756Y88267D01*
X349383Y87367D01*
X349255Y86400D01*
X349383Y85433D01*
X349756Y84533D01*
X350349Y83759D01*
X351123Y83166D01*
X352023Y82793D01*
X352990Y82665D01*
X353957Y82793D01*
X354857Y83166D01*
X355631Y83759D01*
X356224Y84533D01*
X356597Y85433D01*
X356725Y86400D01*
X356597Y87367D01*
X356224Y88267D01*
X355631Y89041D01*
X354857Y89634D01*
X353957Y90007D01*
X352990Y90135D01*
D02*
G37*
G36*
X252289Y82280D02*
X251100D01*
Y80501D01*
X252289D01*
Y82280D01*
D02*
G37*
G36*
X250100D02*
X248911D01*
Y80501D01*
X250100D01*
Y82280D01*
D02*
G37*
G36*
X352990Y80135D02*
X352023Y80007D01*
X351123Y79634D01*
X350349Y79041D01*
X349756Y78267D01*
X349383Y77367D01*
X349255Y76400D01*
X349383Y75433D01*
X349756Y74533D01*
X350349Y73759D01*
X351123Y73166D01*
X352023Y72793D01*
X352990Y72665D01*
X353957Y72793D01*
X354857Y73166D01*
X355631Y73759D01*
X356224Y74533D01*
X356597Y75433D01*
X356725Y76400D01*
X356597Y77367D01*
X356224Y78267D01*
X355631Y79041D01*
X354857Y79634D01*
X353957Y80007D01*
X352990Y80135D01*
D02*
G37*
G36*
X266520Y74928D02*
X265759Y74777D01*
X265114Y74346D01*
X264683Y73701D01*
X264532Y72940D01*
X264683Y72179D01*
X265114Y71534D01*
X265759Y71103D01*
X266520Y70952D01*
X267281Y71103D01*
X267926Y71534D01*
X268357Y72179D01*
X268508Y72940D01*
X268357Y73701D01*
X267926Y74346D01*
X267281Y74777D01*
X266520Y74928D01*
D02*
G37*
G36*
X269600Y71438D02*
X268839Y71287D01*
X268194Y70856D01*
X267763Y70211D01*
X267612Y69450D01*
X267763Y68689D01*
X268194Y68044D01*
X268839Y67613D01*
X269600Y67462D01*
X270361Y67613D01*
X271006Y68044D01*
X271437Y68689D01*
X271588Y69450D01*
X271437Y70211D01*
X271006Y70856D01*
X270361Y71287D01*
X269600Y71438D01*
D02*
G37*
G36*
X353490Y70321D02*
Y66900D01*
X356911D01*
X356841Y67432D01*
X356443Y68393D01*
X355809Y69219D01*
X354983Y69853D01*
X354022Y70251D01*
X353490Y70321D01*
D02*
G37*
G36*
X352490D02*
X351958Y70251D01*
X350997Y69853D01*
X350171Y69219D01*
X349537Y68393D01*
X349139Y67432D01*
X349069Y66900D01*
X352490D01*
Y70321D01*
D02*
G37*
G36*
Y65900D02*
X349069D01*
X349139Y65368D01*
X349537Y64407D01*
X350171Y63581D01*
X350997Y62947D01*
X351958Y62549D01*
X352490Y62479D01*
Y65900D01*
D02*
G37*
G36*
X356911D02*
X353490D01*
Y62479D01*
X354022Y62549D01*
X354983Y62947D01*
X355809Y63581D01*
X356443Y64407D01*
X356841Y65368D01*
X356911Y65900D01*
D02*
G37*
G36*
X321540Y61200D02*
X319140D01*
Y59200D01*
X321540D01*
Y61200D01*
D02*
G37*
G36*
Y58200D02*
X319140D01*
Y56200D01*
X321540D01*
Y58200D01*
D02*
G37*
G36*
X318140D02*
X315740D01*
Y56200D01*
X318140D01*
Y58200D01*
D02*
G37*
G36*
X321540Y55260D02*
X319140D01*
Y53260D01*
X321540D01*
Y55260D01*
D02*
G37*
G36*
X318140D02*
X315740D01*
Y53260D01*
X318140D01*
Y55260D01*
D02*
G37*
G36*
X190310Y54790D02*
X187910D01*
Y52790D01*
X190310D01*
Y54790D01*
D02*
G37*
G36*
X186910D02*
X184510D01*
Y52790D01*
X186910D01*
Y54790D01*
D02*
G37*
G36*
X352990Y60135D02*
X352023Y60007D01*
X351123Y59634D01*
X350349Y59041D01*
X349756Y58267D01*
X349383Y57367D01*
X349255Y56400D01*
X349383Y55433D01*
X349756Y54533D01*
X350349Y53759D01*
X351123Y53166D01*
X352023Y52793D01*
X352990Y52665D01*
X353957Y52793D01*
X354857Y53166D01*
X355631Y53759D01*
X356224Y54533D01*
X356597Y55433D01*
X356725Y56400D01*
X356597Y57367D01*
X356224Y58267D01*
X355631Y59041D01*
X354857Y59634D01*
X353957Y60007D01*
X352990Y60135D01*
D02*
G37*
G36*
X253188Y52938D02*
X250788D01*
Y50937D01*
X253188D01*
Y52938D01*
D02*
G37*
G36*
X249788D02*
X247388D01*
Y50937D01*
X249788D01*
Y52938D01*
D02*
G37*
G36*
X321540Y52260D02*
X319140D01*
Y50260D01*
X321540D01*
Y52260D01*
D02*
G37*
G36*
X318140D02*
X315740D01*
Y50260D01*
X318140D01*
Y52260D01*
D02*
G37*
G36*
X213658Y52538D02*
X211658D01*
Y50138D01*
X213658D01*
Y52538D01*
D02*
G37*
G36*
X210658D02*
X208658D01*
Y50138D01*
X210658D01*
Y52538D01*
D02*
G37*
G36*
X207788Y52468D02*
X205788D01*
Y50068D01*
X207788D01*
Y52468D01*
D02*
G37*
G36*
X204788D02*
X202788D01*
Y50068D01*
X204788D01*
Y52468D01*
D02*
G37*
G36*
X285809Y52483D02*
X282750D01*
Y49030D01*
X285809D01*
Y52483D01*
D02*
G37*
G36*
X281750D02*
X278691D01*
Y49030D01*
X281750D01*
Y52483D01*
D02*
G37*
G36*
X253188Y49937D02*
X250788D01*
Y47938D01*
X253188D01*
Y49937D01*
D02*
G37*
G36*
X249788D02*
X247388D01*
Y47938D01*
X249788D01*
Y49937D01*
D02*
G37*
G36*
X213658Y49138D02*
X211658D01*
Y46738D01*
X213658D01*
Y49138D01*
D02*
G37*
G36*
X210658D02*
X208658D01*
Y46738D01*
X210658D01*
Y49138D01*
D02*
G37*
G36*
X207788Y49068D02*
X205788D01*
Y46668D01*
X207788D01*
Y49068D01*
D02*
G37*
G36*
X204788D02*
X202788D01*
Y46668D01*
X204788D01*
Y49068D01*
D02*
G37*
G36*
X253138Y47188D02*
X250738D01*
Y45188D01*
X253138D01*
Y47188D01*
D02*
G37*
G36*
X249738D02*
X247338D01*
Y45188D01*
X249738D01*
Y47188D01*
D02*
G37*
G36*
X285809Y48030D02*
X282750D01*
Y44577D01*
X285809D01*
Y48030D01*
D02*
G37*
G36*
X281750D02*
X278691D01*
Y44577D01*
X281750D01*
Y48030D01*
D02*
G37*
G36*
X209048Y45358D02*
X206648D01*
Y43358D01*
X209048D01*
Y45358D01*
D02*
G37*
G36*
X205648D02*
X203248D01*
Y43358D01*
X205648D01*
Y45358D01*
D02*
G37*
G36*
X253138Y44188D02*
X250738D01*
Y42188D01*
X253138D01*
Y44188D01*
D02*
G37*
G36*
X249738D02*
X247338D01*
Y42188D01*
X249738D01*
Y44188D01*
D02*
G37*
G36*
X209048Y42358D02*
X206648D01*
Y40358D01*
X209048D01*
Y42358D01*
D02*
G37*
G36*
X205648D02*
X203248D01*
Y40358D01*
X205648D01*
Y42358D01*
D02*
G37*
G36*
X221928Y42198D02*
X219928D01*
Y39797D01*
X221928D01*
Y42198D01*
D02*
G37*
G36*
X218928D02*
X216928D01*
Y39797D01*
X218928D01*
Y42198D01*
D02*
G37*
G36*
X227788Y42148D02*
X225788D01*
Y39748D01*
X227788D01*
Y42148D01*
D02*
G37*
G36*
X224788D02*
X222788D01*
Y39748D01*
X224788D01*
Y42148D01*
D02*
G37*
G36*
X253158Y41388D02*
X250758D01*
Y39388D01*
X253158D01*
Y41388D01*
D02*
G37*
G36*
X249758D02*
X247358D01*
Y39388D01*
X249758D01*
Y41388D01*
D02*
G37*
G36*
X208928Y39598D02*
X206528D01*
Y37598D01*
X208928D01*
Y39598D01*
D02*
G37*
G36*
X205528D02*
X203128D01*
Y37598D01*
X205528D01*
Y39598D01*
D02*
G37*
G36*
X221928Y38798D02*
X219928D01*
Y36398D01*
X221928D01*
Y38798D01*
D02*
G37*
G36*
X218928D02*
X216928D01*
Y36398D01*
X218928D01*
Y38798D01*
D02*
G37*
G36*
X253158Y38388D02*
X250758D01*
Y36388D01*
X253158D01*
Y38388D01*
D02*
G37*
G36*
X249758D02*
X247358D01*
Y36388D01*
X249758D01*
Y38388D01*
D02*
G37*
G36*
X227788Y38748D02*
X225788D01*
Y36348D01*
X227788D01*
Y38748D01*
D02*
G37*
G36*
X224788D02*
X222788D01*
Y36348D01*
X224788D01*
Y38748D01*
D02*
G37*
G36*
X208928Y36597D02*
X206528D01*
Y34598D01*
X208928D01*
Y36597D01*
D02*
G37*
G36*
X205528D02*
X203128D01*
Y34598D01*
X205528D01*
Y36597D01*
D02*
G37*
G36*
X290770Y36020D02*
X288370D01*
Y34020D01*
X290770D01*
Y36020D01*
D02*
G37*
G36*
X287370D02*
X284970D01*
Y34020D01*
X287370D01*
Y36020D01*
D02*
G37*
G36*
X280570Y34200D02*
X278570D01*
Y31800D01*
X280570D01*
Y34200D01*
D02*
G37*
G36*
X277570D02*
X275570D01*
Y31800D01*
X277570D01*
Y34200D01*
D02*
G37*
G36*
X274959Y33045D02*
X273770D01*
Y31266D01*
X274959D01*
Y33045D01*
D02*
G37*
G36*
X272770D02*
X271581D01*
Y31266D01*
X272770D01*
Y33045D01*
D02*
G37*
G36*
X290770Y33020D02*
X288370D01*
Y31020D01*
X290770D01*
Y33020D01*
D02*
G37*
G36*
X287370D02*
X284970D01*
Y31020D01*
X287370D01*
Y33020D01*
D02*
G37*
G36*
X358447Y31201D02*
X354994D01*
Y29520D01*
X358447D01*
Y31201D01*
D02*
G37*
G36*
X353994D02*
X350541D01*
Y29520D01*
X353994D01*
Y31201D01*
D02*
G37*
G36*
X342699D02*
X339246D01*
Y29520D01*
X342699D01*
Y31201D01*
D02*
G37*
G36*
X274959Y30266D02*
X273770D01*
Y28486D01*
X274959D01*
Y30266D01*
D02*
G37*
G36*
X272770D02*
X271581D01*
Y28486D01*
X272770D01*
Y30266D01*
D02*
G37*
G36*
X280570Y30800D02*
X278570D01*
Y28400D01*
X280570D01*
Y30800D01*
D02*
G37*
G36*
X277570D02*
X275570D01*
Y28400D01*
X277570D01*
Y30800D01*
D02*
G37*
G36*
X358447Y28520D02*
X354994D01*
Y26839D01*
X358447D01*
Y28520D01*
D02*
G37*
G36*
X353994D02*
X350541D01*
Y26839D01*
X353994D01*
Y28520D01*
D02*
G37*
G36*
X342699D02*
X339246D01*
Y26839D01*
X342699D01*
Y28520D01*
D02*
G37*
G36*
X338246D02*
X334793D01*
Y26839D01*
X338246D01*
Y28520D01*
D02*
G37*
G36*
X253428Y28338D02*
X251028D01*
Y26338D01*
X253428D01*
Y28338D01*
D02*
G37*
G36*
X250028D02*
X247628D01*
Y26699D01*
X247451Y26272D01*
X247128Y26272D01*
X245203D01*
X244626Y26657D01*
X243748Y26832D01*
X242870Y26657D01*
X242294Y26272D01*
X240046D01*
Y22803D01*
X241454D01*
Y19758D01*
X240978D01*
Y15258D01*
X243406D01*
X243628Y15213D01*
X243849Y15258D01*
X246278D01*
Y19758D01*
X246042D01*
Y22803D01*
X247451D01*
Y22911D01*
X247628Y23337D01*
X247951Y23338D01*
X250028D01*
Y25838D01*
Y28338D01*
D02*
G37*
G36*
X221858Y28228D02*
X219858D01*
Y25828D01*
X221858D01*
Y28228D01*
D02*
G37*
G36*
X218858D02*
X216858D01*
Y25828D01*
X218858D01*
Y28228D01*
D02*
G37*
G36*
X259778Y35038D02*
X254278D01*
Y29038D01*
X254734D01*
Y28088D01*
X254378D01*
Y23588D01*
X256806D01*
X257028Y23543D01*
X257249Y23588D01*
X259678D01*
Y28088D01*
X259322D01*
Y29038D01*
X259778D01*
Y35038D01*
D02*
G37*
G36*
X253428Y25338D02*
X251028D01*
Y23338D01*
X253428D01*
Y25338D01*
D02*
G37*
G36*
X216098Y24868D02*
X214098D01*
Y22468D01*
X216098D01*
Y24868D01*
D02*
G37*
G36*
X213098D02*
X211098D01*
Y22468D01*
X213098D01*
Y24868D01*
D02*
G37*
G36*
X221858Y24827D02*
X219858D01*
Y22428D01*
X221858D01*
Y24827D01*
D02*
G37*
G36*
X218858D02*
X216858D01*
Y22428D01*
X218858D01*
Y24827D01*
D02*
G37*
G36*
X280320Y27450D02*
X275820D01*
Y27094D01*
X269590D01*
X268712Y26919D01*
X267968Y26422D01*
X267471Y25678D01*
X267296Y24800D01*
X267471Y23922D01*
X267968Y23178D01*
X268712Y22681D01*
X269590Y22506D01*
X275820D01*
Y22150D01*
X277663D01*
X277842Y22030D01*
X278720Y21856D01*
X285350D01*
X285572Y21900D01*
X288000D01*
Y26400D01*
X285572D01*
X285350Y26444D01*
X280320D01*
Y27450D01*
D02*
G37*
G36*
X209918Y21688D02*
X207918D01*
Y19288D01*
X209918D01*
Y21688D01*
D02*
G37*
G36*
X206918D02*
X204918D01*
Y19288D01*
X206918D01*
Y21688D01*
D02*
G37*
G36*
X240028Y20008D02*
X237628D01*
Y18008D01*
X240028D01*
Y20008D01*
D02*
G37*
G36*
X236628D02*
X234228D01*
Y18008D01*
X236628D01*
Y20008D01*
D02*
G37*
G36*
X209918Y18288D02*
X207918D01*
Y15888D01*
X209918D01*
Y18288D01*
D02*
G37*
G36*
X206918D02*
X204918D01*
Y15888D01*
X206918D01*
Y18288D01*
D02*
G37*
G36*
X285440Y20674D02*
X278490D01*
X277612Y20499D01*
X277538Y20450D01*
X275660D01*
Y20094D01*
X269680D01*
X268802Y19919D01*
X268058Y19422D01*
X267561Y18678D01*
X267386Y17800D01*
X267561Y16922D01*
X268058Y16178D01*
X268802Y15680D01*
X269680Y15506D01*
X275660D01*
Y15150D01*
X280160D01*
Y16086D01*
X285440D01*
X285662Y16130D01*
X288090D01*
Y20630D01*
X285662D01*
X285440Y20674D01*
D02*
G37*
G36*
X240028Y17008D02*
X237628D01*
Y15008D01*
X240028D01*
Y17008D01*
D02*
G37*
G36*
X236628D02*
X234228D01*
Y15008D01*
X236628D01*
Y17008D01*
D02*
G37*
G36*
X204277Y15855D02*
X200628D01*
Y12363D01*
X204277D01*
Y15855D01*
D02*
G37*
G36*
X199628D02*
X195978D01*
Y12363D01*
X199628D01*
Y15855D01*
D02*
G37*
G36*
X274629Y14124D02*
X273440D01*
Y12344D01*
X274629D01*
Y14124D01*
D02*
G37*
G36*
X272440D02*
X271251D01*
Y12344D01*
X272440D01*
Y14124D01*
D02*
G37*
G36*
X280410Y14200D02*
X278410D01*
Y11800D01*
X280410D01*
Y14200D01*
D02*
G37*
G36*
X277410D02*
X275410D01*
Y11800D01*
X277410D01*
Y14200D01*
D02*
G37*
G36*
X288140Y12530D02*
X285390D01*
Y10030D01*
X288140D01*
Y12530D01*
D02*
G37*
G36*
X284390D02*
X281640D01*
Y10030D01*
X284390D01*
Y12530D01*
D02*
G37*
G36*
X274629Y11344D02*
X273440D01*
Y9565D01*
X274629D01*
Y11344D01*
D02*
G37*
G36*
X272440D02*
X271251D01*
Y9565D01*
X272440D01*
Y11344D01*
D02*
G37*
G36*
X280410Y10800D02*
X278410D01*
Y8400D01*
X280410D01*
Y10800D01*
D02*
G37*
G36*
X277410D02*
X275410D01*
Y8400D01*
X277410D01*
Y10800D01*
D02*
G37*
G36*
X288140Y9030D02*
X285390D01*
Y6530D01*
X288140D01*
Y9030D01*
D02*
G37*
G36*
X284390D02*
X281640D01*
Y6530D01*
X284390D01*
Y9030D01*
D02*
G37*
G36*
X287890Y5280D02*
X281890D01*
Y-220D01*
X287890D01*
Y1083D01*
X288920D01*
Y-140D01*
X293420D01*
Y5160D01*
X288920D01*
Y3937D01*
X287890D01*
Y5280D01*
D02*
G37*
G36*
X310580Y-5070D02*
X308580D01*
Y-7470D01*
X310580D01*
Y-5070D01*
D02*
G37*
G36*
X307700Y-5110D02*
X305700D01*
Y-7510D01*
X307700D01*
Y-5110D01*
D02*
G37*
G36*
X304700D02*
X302700D01*
Y-7510D01*
X304700D01*
Y-5110D01*
D02*
G37*
G36*
X338583Y10625D02*
X336920Y10494D01*
X335299Y10105D01*
X333759Y9467D01*
X332337Y8596D01*
X331069Y7513D01*
X329987Y6245D01*
X329116Y4824D01*
X328477Y3283D01*
X328088Y1662D01*
X327957Y0D01*
X328088Y-1662D01*
X328477Y-3283D01*
X329116Y-4824D01*
X329987Y-6245D01*
X331069Y-7513D01*
X332337Y-8596D01*
X333759Y-9467D01*
X335299Y-10105D01*
X336920Y-10494D01*
X338583Y-10625D01*
X340245Y-10494D01*
X341866Y-10105D01*
X343406Y-9467D01*
X344828Y-8596D01*
X346096Y-7513D01*
X347179Y-6245D01*
X348050Y-4824D01*
X348688Y-3283D01*
X349077Y-1662D01*
X349208Y0D01*
X349077Y1662D01*
X348688Y3283D01*
X348050Y4824D01*
X347179Y6245D01*
X346096Y7513D01*
X344828Y8596D01*
X343406Y9467D01*
X341866Y10105D01*
X340245Y10494D01*
X338583Y10625D01*
D02*
G37*
G36*
X276744Y-1487D02*
X267370D01*
Y-14798D01*
X276744D01*
Y-1487D01*
D02*
G37*
G36*
X28460Y112059D02*
X26460D01*
Y109659D01*
X28460D01*
Y112059D01*
D02*
G37*
G36*
X25460D02*
X23460D01*
Y109659D01*
X25460D01*
Y112059D01*
D02*
G37*
G36*
X22640Y111979D02*
X20640D01*
Y109579D01*
X22640D01*
Y111979D01*
D02*
G37*
G36*
X19640D02*
X17640D01*
Y109579D01*
X19640D01*
Y111979D01*
D02*
G37*
G36*
X28460Y108659D02*
X26460D01*
Y106259D01*
X28460D01*
Y108659D01*
D02*
G37*
G36*
X25460D02*
X23460D01*
Y106259D01*
X25460D01*
Y108659D01*
D02*
G37*
G36*
X22640Y108579D02*
X20640D01*
Y106179D01*
X22640D01*
Y108579D01*
D02*
G37*
G36*
X19640D02*
X17640D01*
Y106179D01*
X19640D01*
Y108579D01*
D02*
G37*
G36*
X170298Y85204D02*
X167898D01*
Y83204D01*
X170298D01*
Y85204D01*
D02*
G37*
G36*
X166898D02*
X164498D01*
Y83204D01*
X166898D01*
Y85204D01*
D02*
G37*
G36*
X163627Y82021D02*
X162635D01*
Y79946D01*
X163627D01*
Y82021D01*
D02*
G37*
G36*
X149348Y78514D02*
X146948D01*
Y76514D01*
X149348D01*
Y78514D01*
D02*
G37*
G36*
Y75514D02*
X146948D01*
Y73514D01*
X149348D01*
Y75514D01*
D02*
G37*
G36*
X145948D02*
X143548D01*
Y73514D01*
X145948D01*
Y75514D01*
D02*
G37*
G36*
X142208Y73214D02*
X137708D01*
Y72858D01*
X136384D01*
X135506Y72683D01*
X134762Y72186D01*
X134264Y71442D01*
X134090Y70564D01*
X134264Y69686D01*
X134762Y68941D01*
X135506Y68444D01*
X136384Y68270D01*
X137708D01*
Y67914D01*
X140136D01*
X140358Y67870D01*
X146598D01*
X146820Y67914D01*
X149248D01*
Y72414D01*
X146820D01*
X146598Y72458D01*
X142208D01*
Y73214D01*
D02*
G37*
G36*
X146528Y66558D02*
X140688D01*
X139810Y66383D01*
X139347Y66074D01*
X137598D01*
Y65718D01*
X136546D01*
X135668Y65543D01*
X134924Y65046D01*
X134427Y64302D01*
X134252Y63424D01*
X134427Y62546D01*
X134924Y61801D01*
X135668Y61304D01*
X136546Y61130D01*
X137598D01*
Y60774D01*
X142098D01*
Y61970D01*
X146528D01*
X146749Y62014D01*
X149178D01*
Y66514D01*
X146749D01*
X146528Y66558D01*
D02*
G37*
G36*
X192568Y78524D02*
X190168D01*
Y76524D01*
X192568D01*
Y78524D01*
D02*
G37*
G36*
X195968Y75524D02*
X193568D01*
Y73524D01*
X195968D01*
Y75524D01*
D02*
G37*
G36*
X192568D02*
X190168D01*
Y73524D01*
X192568D01*
Y75524D01*
D02*
G37*
G36*
X196048Y72724D02*
X193648D01*
Y70724D01*
X196048D01*
Y72724D01*
D02*
G37*
G36*
X192648D02*
X190248D01*
Y70724D01*
X192648D01*
Y72724D01*
D02*
G37*
G36*
X196048Y69724D02*
X193648D01*
Y67724D01*
X196048D01*
Y69724D01*
D02*
G37*
G36*
X192648D02*
X190248D01*
Y67724D01*
X192648D01*
Y69724D01*
D02*
G37*
G36*
X127198Y52058D02*
X125198D01*
Y49658D01*
X127198D01*
Y52058D01*
D02*
G37*
G36*
X124198D02*
X122198D01*
Y49658D01*
X124198D01*
Y52058D01*
D02*
G37*
G36*
X127198Y48658D02*
X125198D01*
Y46258D01*
X127198D01*
Y48658D01*
D02*
G37*
G36*
X124198D02*
X122198D01*
Y46258D01*
X124198D01*
Y48658D01*
D02*
G37*
G36*
X123868Y39359D02*
Y35938D01*
X127289D01*
X127219Y36469D01*
X126821Y37431D01*
X126187Y38257D01*
X125361Y38890D01*
X124400Y39289D01*
X123868Y39359D01*
D02*
G37*
G36*
X122868Y39359D02*
X122336Y39289D01*
X121374Y38890D01*
X120549Y38257D01*
X119915Y37431D01*
X119517Y36469D01*
X119447Y35938D01*
X122868D01*
Y39359D01*
D02*
G37*
%LPD*%
D14*
X55640Y106855D02*
X64235D01*
X55618Y106878D02*
X55640Y106855D01*
X69598Y152628D02*
X74710Y147515D01*
Y141410D02*
Y147515D01*
X93762Y118666D02*
Y125638D01*
X74710Y141410D02*
X77690Y138430D01*
X80970D01*
X93762Y125638D01*
X95731Y118666D02*
Y139505D01*
X97699Y118666D02*
Y139579D01*
X93428Y141808D02*
X95731Y139505D01*
X97699Y139579D02*
X99928Y141808D01*
X99668Y118666D02*
Y130748D01*
X107688Y138768D01*
X124508D01*
X109510Y118666D02*
Y126890D01*
X115638Y133018D01*
X124508D01*
X113447Y35517D02*
Y55674D01*
X113368Y35438D02*
X113447Y35517D01*
X133368Y35438D02*
Y57407D01*
X35033Y97013D02*
X64235D01*
X3612Y99612D02*
Y104848D01*
X37990Y107670D02*
Y112380D01*
X4690Y122920D02*
X27335D01*
X3965Y124670D02*
X28060D01*
X510Y107950D02*
X3612Y104848D01*
X510Y107950D02*
Y118740D01*
X4690Y122920D01*
X-1240Y119465D02*
X3965Y124670D01*
X-1240Y101905D02*
X1053Y99612D01*
X-1240Y101905D02*
Y119465D01*
X18967Y99612D02*
X25503Y93076D01*
X16408Y96362D02*
X21663Y91107D01*
X16408Y96362D02*
Y99612D01*
X43574Y118666D02*
X72109D01*
X24034Y69606D02*
X43574D01*
X23790Y69850D02*
X24034Y69606D01*
X11289Y76187D02*
X11480Y75996D01*
Y65740D02*
Y75996D01*
X16408Y69762D02*
Y76187D01*
X63108Y133208D02*
X66045Y130270D01*
X49250Y126751D02*
X73754D01*
X76046Y124459D01*
Y118666D02*
Y124459D01*
X44800Y124950D02*
X73030D01*
X74077Y123903D01*
Y118666D02*
Y123903D01*
X74510Y128500D02*
X78014Y124996D01*
Y118666D02*
Y124996D01*
X66045Y130270D02*
X75215D01*
X79983Y125502D01*
Y118666D02*
Y125502D01*
X69608Y133208D02*
X74752D01*
X81951Y126009D01*
Y118666D02*
Y126009D01*
X47640Y133261D02*
X52400Y128500D01*
X47640Y133261D02*
Y142220D01*
X51428Y146008D01*
X52400Y128500D02*
X74510D01*
X46640Y129360D02*
X49250Y126751D01*
X37990Y107670D02*
X42742Y102918D01*
X37846Y98981D02*
X64235D01*
X38352Y100950D02*
X64235D01*
X42742Y102918D02*
X64235D01*
X25503Y93076D02*
X64235D01*
X21663Y91107D02*
X64235D01*
X55639Y89139D02*
X64235D01*
X54410Y87910D02*
X55639Y89139D01*
X64235Y58551D02*
Y63548D01*
Y58551D02*
X64258Y58528D01*
X119369Y55658D02*
X124698D01*
X119353Y55674D02*
X119369Y55658D01*
X117384Y50316D02*
Y55674D01*
Y50316D02*
X118542Y49158D01*
X124698D01*
X57758Y58528D02*
Y63998D01*
X59277Y65517D01*
X64235D01*
X127227Y98981D02*
X134071D01*
X127227Y110792D02*
X136063D01*
X136188Y110918D01*
X127227Y108824D02*
X132766D01*
X133910Y107680D01*
X64235Y110792D02*
X70722D01*
X59216Y108824D02*
X64235D01*
X57310Y110730D02*
X59216Y108824D01*
X52970Y110730D02*
X57310D01*
X49118Y106878D02*
X52970Y110730D01*
X64235Y104887D02*
X68883D01*
X64235Y106855D02*
X71495D01*
X68883Y104887D02*
X70930Y102840D01*
X52680Y18820D02*
X52752Y18748D01*
X58968D01*
X71495Y106855D02*
X76540Y101810D01*
X64235Y69454D02*
X68474D01*
X72060Y73040D01*
X64235Y67485D02*
X70605D01*
X73660Y29500D02*
X83380D01*
X89678Y23202D01*
Y17808D02*
Y23202D01*
X33551Y105751D02*
Y119179D01*
X31801Y105026D02*
Y118454D01*
X27335Y122920D02*
X31801Y118454D01*
X28060Y124670D02*
X33551Y119179D01*
Y105751D02*
X38352Y100950D01*
X31801Y105026D02*
X37846Y98981D01*
X15080Y39190D02*
X22520D01*
X99668Y105370D02*
Y118666D01*
X93762Y112018D02*
Y118666D01*
X154835Y74126D02*
X160775D01*
X152948Y76014D02*
X154835Y74126D01*
X155041Y68221D02*
X160775D01*
X153098Y70164D02*
X155041Y68221D01*
X155017Y66252D02*
X160775D01*
X153028Y64264D02*
X155017Y66252D01*
X177320Y76095D02*
X183079Y81854D01*
X127227Y63548D02*
X133368Y57407D01*
X173969Y79446D02*
Y85632D01*
X173898Y85704D02*
X173969Y85632D01*
X193008Y81854D02*
X198680Y76182D01*
X193160Y58240D02*
X198680Y63760D01*
Y76182D01*
X188834Y60050D02*
X193178Y64394D01*
X107542Y46712D02*
Y55674D01*
X105573Y47218D02*
Y55674D01*
X99668D02*
Y63162D01*
X101636Y55674D02*
Y60286D01*
X133280Y77010D02*
X139904D01*
X139958Y77064D01*
X177320Y72158D02*
X181502D01*
X177320Y68221D02*
X180819D01*
X183079Y81854D02*
X186508D01*
X181502Y72158D02*
X185368Y76024D01*
X186568D01*
X186614Y70189D02*
X186648Y70224D01*
X177320Y70189D02*
X186614D01*
X180819Y68221D02*
X182040Y67000D01*
X127227Y97013D02*
X136093D01*
X16408Y69762D02*
X21630Y64540D01*
X11480Y65740D02*
X15170Y62050D01*
X101636Y60286D02*
X104550Y63200D01*
X99620Y63210D02*
X99668Y63162D01*
X136146Y56924D02*
X139848D01*
X70605Y67485D02*
X72470Y69350D01*
X133910Y107680D02*
X139450D01*
X142688Y110918D01*
X119660Y110370D02*
X120082Y110792D01*
X127227D01*
X134071Y98981D02*
X136160Y101070D01*
Y104070D01*
X136093Y97013D02*
X137940Y98860D01*
X127227Y95044D02*
X138584D01*
X170652Y88950D02*
X173898Y85704D01*
X139958Y77064D02*
X151844Y88950D01*
X170652D01*
X241815Y97570D02*
X250600Y88785D01*
X250830Y94390D02*
Y100364D01*
X250880Y100415D01*
X221860Y2300D02*
X221860Y2300D01*
X213730Y32320D02*
X214020D01*
X146620Y30570D02*
X149090Y33040D01*
X98340Y37510D02*
X107542Y46712D01*
X97615Y39260D02*
X105573Y47218D01*
X15030Y29070D02*
X27400Y41440D01*
X22520Y39190D02*
X26670Y43340D01*
X27400Y41440D02*
X37390D01*
X41320Y37510D01*
X26670Y43340D02*
X38900D01*
X42980Y39260D01*
X324480Y8941D02*
Y17140D01*
X64235Y63548D02*
X70133D01*
X76635Y70050D01*
X77760D01*
X78250D01*
X74077Y55674D02*
Y62883D01*
X78014Y55674D02*
Y62636D01*
X81951Y55674D02*
Y62699D01*
X85888Y55674D02*
Y62562D01*
X145370Y97570D02*
X241815D01*
X127227Y85202D02*
X133002D01*
X145370Y97570D01*
X144974Y94390D02*
X236530D01*
X127227Y83233D02*
X133817D01*
X144974Y94390D01*
X127227Y81265D02*
X136005D01*
X122254Y79296D02*
X127227D01*
X107640Y70010D02*
X110165Y67485D01*
X127227D01*
X108750Y72970D02*
X112266Y69454D01*
X108750Y72970D02*
Y73160D01*
X112266Y69454D02*
X127227D01*
X119707Y77328D02*
X127227D01*
X109050Y76650D02*
X114278Y71422D01*
X112660Y76920D02*
X116189Y73391D01*
X114278Y71422D02*
X127227D01*
X116189Y73391D02*
X127227D01*
X116190Y77380D02*
X118211Y75359D01*
X127227D01*
X119353Y55674D02*
Y60937D01*
X115380Y64910D02*
X119353Y60937D01*
X107900Y64910D02*
X115380D01*
X100210Y72600D02*
X107900Y64910D01*
X100000Y72600D02*
X100210D01*
X117384Y118666D02*
Y125896D01*
X119353Y118666D02*
X124196D01*
X97699Y44169D02*
Y55674D01*
X95731Y48101D02*
Y55674D01*
X94580Y46950D02*
X95731Y48101D01*
X147470Y28220D02*
X150840Y31590D01*
X94580Y28220D02*
X147470D01*
X72109Y44081D02*
Y55674D01*
X115416Y112454D02*
Y118666D01*
X113447Y118666D02*
Y125833D01*
X111479Y112491D02*
Y118666D01*
X115730Y81305D02*
X119707Y77328D01*
X119800Y81750D02*
X122254Y79296D01*
X41320Y37510D02*
X98340D01*
X42980Y39260D02*
X97615D01*
X97699Y30570D02*
Y30799D01*
X94580Y42430D02*
Y46950D01*
X83920Y44110D02*
Y55674D01*
X76046Y44014D02*
Y55674D01*
X79983Y44077D02*
Y55674D01*
X219892Y2300D02*
Y5678D01*
X218850Y6720D02*
X219892Y5678D01*
X194500Y6720D02*
X218850D01*
X194310Y6910D02*
X194500Y6720D01*
X214480Y2300D02*
X217923D01*
X223829D02*
Y8401D01*
X227766Y2300D02*
Y8436D01*
X227770Y8440D01*
X231703Y2300D02*
Y8527D01*
X235640Y2300D02*
Y8510D01*
X221860Y-17110D02*
Y2300D01*
X225798Y-2822D02*
Y2300D01*
X233671Y-2369D02*
Y2300D01*
X229734Y-2754D02*
Y2300D01*
X237609Y-2409D02*
Y2300D01*
X241546Y-2664D02*
Y2300D01*
X245482Y-2617D02*
Y2300D01*
X249419Y-2740D02*
Y2300D01*
X253357Y-2926D02*
Y2300D01*
X257294Y-3036D02*
Y2300D01*
X261230Y-3049D02*
Y2300D01*
X239577D02*
Y9793D01*
X243514Y2300D02*
Y10626D01*
X247451Y2300D02*
Y11220D01*
X251388Y2300D02*
Y11052D01*
X255325Y2300D02*
Y10945D01*
X259262Y2300D02*
Y10768D01*
X263199Y2300D02*
Y10761D01*
X150840Y31590D02*
Y48630D01*
X160450Y58240D01*
X193160D01*
X149090Y33040D02*
Y49355D01*
X159785Y60050D01*
X188834D01*
X177320Y74126D02*
X179806D01*
X182040Y76360D01*
X305788Y51080D02*
X309480Y47388D01*
Y33350D02*
Y47388D01*
X306629Y52831D02*
X311980Y47480D01*
Y33350D02*
Y47480D01*
X298040Y51080D02*
X305788D01*
X294632Y54488D02*
X298040Y51080D01*
X299909Y52831D02*
X306629D01*
X296382Y56358D02*
X299909Y52831D01*
X296382Y56358D02*
Y63778D01*
X295910Y64250D02*
X296382Y63778D01*
X294632Y54488D02*
Y59618D01*
X290080Y64170D02*
X294632Y59618D01*
X97699Y30570D02*
X146620D01*
D16*
X192121Y48590D02*
X199518Y55988D01*
Y56168D01*
X211128D02*
X211158Y56138D01*
X24050Y133430D02*
X37920D01*
X199518Y56168D02*
X211128D01*
X131008Y156128D02*
X134982D01*
X138050Y153060D01*
X63048Y158498D02*
X67580Y163030D01*
X124106D01*
X131008Y156128D01*
Y127238D02*
X138050D01*
Y153060D01*
X256720Y100520D02*
Y106340D01*
X256650Y100450D02*
X256720Y100520D01*
X256650Y88810D02*
Y94630D01*
X250624Y88810D02*
X256650D01*
X250600Y88785D02*
X250624Y88810D01*
X250916Y100450D02*
X256650D01*
X250880Y100415D02*
X250916Y100450D01*
X173898Y85704D02*
X222166D01*
X188300Y104940D02*
Y126400D01*
X196961Y104940D02*
Y118571D01*
X210830Y132440D01*
X231880D01*
X188300Y126400D02*
X188310Y126410D01*
X222166Y85704D02*
X240810Y67060D01*
X192631Y104940D02*
Y117910D01*
D23*
X209164Y-8143D02*
D03*
X272057D02*
D03*
D24*
X253357Y2300D02*
D03*
X251388D02*
D03*
X249419D02*
D03*
X247451D02*
D03*
X245482D02*
D03*
X243514D02*
D03*
X241546D02*
D03*
X239577D02*
D03*
X237609D02*
D03*
X235640D02*
D03*
X233671D02*
D03*
X231703D02*
D03*
X229734D02*
D03*
X227766D02*
D03*
X225798D02*
D03*
X223829D02*
D03*
X221860D02*
D03*
X219892D02*
D03*
X217923D02*
D03*
X255325D02*
D03*
X261230D02*
D03*
X263199D02*
D03*
X259262D02*
D03*
X257294D02*
D03*
D25*
X289730Y48530D02*
D03*
X282250D02*
D03*
D26*
X293310Y159980D02*
D03*
Y144508D02*
D03*
D27*
X256650Y100450D02*
D03*
X263150D02*
D03*
X238460Y116610D02*
D03*
X244960D02*
D03*
X238560Y122550D02*
D03*
X245060D02*
D03*
X263220Y106340D02*
D03*
X256720D02*
D03*
X299810Y116500D02*
D03*
X293310D02*
D03*
X299840Y122320D02*
D03*
X293340D02*
D03*
X299930Y128070D02*
D03*
X293430D02*
D03*
X256650Y94630D02*
D03*
X263150D02*
D03*
Y88810D02*
D03*
X256650D02*
D03*
X227860Y124020D02*
D03*
X221360D02*
D03*
X307080Y104760D02*
D03*
X313580D02*
D03*
X307140Y98730D02*
D03*
X313640D02*
D03*
X293470Y104720D02*
D03*
X299970D02*
D03*
X318640Y58700D02*
D03*
X312140D02*
D03*
X318640Y52760D02*
D03*
X312140D02*
D03*
X293330Y110700D02*
D03*
X299830D02*
D03*
X227720Y117910D02*
D03*
X221220D02*
D03*
X285440Y18380D02*
D03*
X291940D02*
D03*
X296870Y48330D02*
D03*
X303370D02*
D03*
X296830Y42530D02*
D03*
X303330D02*
D03*
X285350Y24150D02*
D03*
X291850D02*
D03*
X287870Y33520D02*
D03*
X294370D02*
D03*
X63108Y133208D02*
D03*
X69608D02*
D03*
X124508Y144608D02*
D03*
X131008D02*
D03*
X124508Y150338D02*
D03*
X131008D02*
D03*
X131008Y156128D02*
D03*
X124508D02*
D03*
X131008Y127238D02*
D03*
X124508D02*
D03*
X124508Y133018D02*
D03*
X131008D02*
D03*
X86478Y141888D02*
D03*
X79978D02*
D03*
X93428Y141808D02*
D03*
X99928D02*
D03*
X107038D02*
D03*
X113538D02*
D03*
X54410Y87910D02*
D03*
X47910D02*
D03*
X64258Y58528D02*
D03*
X57758D02*
D03*
X55618Y106878D02*
D03*
X49118D02*
D03*
X124508Y138768D02*
D03*
X131008D02*
D03*
X136188Y110918D02*
D03*
X142688D02*
D03*
X136160Y104070D02*
D03*
X142660D02*
D03*
X63048Y158498D02*
D03*
X69548D02*
D03*
X63098Y152628D02*
D03*
X69598D02*
D03*
X14910Y23290D02*
D03*
X8410D02*
D03*
X8530Y29070D02*
D03*
X15030D02*
D03*
X15040Y45010D02*
D03*
X8540D02*
D03*
X8580Y39190D02*
D03*
X15080D02*
D03*
X152948Y76014D02*
D03*
X146448D02*
D03*
X186568Y76024D02*
D03*
X193068D02*
D03*
X173898Y85704D02*
D03*
X167398D02*
D03*
X193178Y64394D02*
D03*
X186678D02*
D03*
X28760Y31840D02*
D03*
X35260D02*
D03*
X193148Y70224D02*
D03*
X186648D02*
D03*
X193008Y81854D02*
D03*
X186508D02*
D03*
X146528Y64264D02*
D03*
X153028D02*
D03*
X146598Y70164D02*
D03*
X153098D02*
D03*
X35320Y25760D02*
D03*
X28820D02*
D03*
X243628Y17508D02*
D03*
X237128D02*
D03*
X250528Y25838D02*
D03*
X257028D02*
D03*
X243758Y38888D02*
D03*
X250258D02*
D03*
X243738Y44688D02*
D03*
X250238D02*
D03*
X243788Y50438D02*
D03*
X250288D02*
D03*
X75908Y-6202D02*
D03*
X82408D02*
D03*
X82348Y5368D02*
D03*
X75848D02*
D03*
X82388Y-442D02*
D03*
X75888D02*
D03*
X180910Y55290D02*
D03*
X187410D02*
D03*
X173148Y42778D02*
D03*
X166648D02*
D03*
X173218Y48518D02*
D03*
X166718D02*
D03*
X173288Y54298D02*
D03*
X166788D02*
D03*
X199648Y42858D02*
D03*
X206148D02*
D03*
X199528Y37098D02*
D03*
X206028D02*
D03*
X104598Y8548D02*
D03*
X111098D02*
D03*
X159788Y-6292D02*
D03*
X153288D02*
D03*
D28*
X278867Y114980D02*
D03*
Y117480D02*
D03*
Y119980D02*
D03*
Y122480D02*
D03*
Y124980D02*
D03*
Y127480D02*
D03*
Y129980D02*
D03*
Y132480D02*
D03*
Y134980D02*
D03*
Y137480D02*
D03*
Y139980D02*
D03*
Y142480D02*
D03*
X257410Y114980D02*
D03*
Y117480D02*
D03*
Y119980D02*
D03*
Y122480D02*
D03*
Y124980D02*
D03*
Y127480D02*
D03*
Y129980D02*
D03*
Y132480D02*
D03*
Y134980D02*
D03*
Y137480D02*
D03*
Y139980D02*
D03*
Y142480D02*
D03*
D29*
X250880Y106420D02*
D03*
Y100415D02*
D03*
X250600Y82780D02*
D03*
Y88785D02*
D03*
X272940Y11845D02*
D03*
Y17850D02*
D03*
X273270Y30766D02*
D03*
Y24760D02*
D03*
X49648Y11833D02*
D03*
Y5828D02*
D03*
X58968Y18748D02*
D03*
Y24753D02*
D03*
X88128Y-472D02*
D03*
Y-6478D02*
D03*
D30*
X269470Y153200D02*
D03*
Y159700D02*
D03*
X263530Y153200D02*
D03*
Y159700D02*
D03*
X231880Y132440D02*
D03*
Y138940D02*
D03*
X320260Y105820D02*
D03*
Y99320D02*
D03*
X300600Y74940D02*
D03*
Y81440D02*
D03*
X316980Y-8020D02*
D03*
Y-1520D02*
D03*
X277910Y11300D02*
D03*
Y17800D02*
D03*
X311080Y-1470D02*
D03*
Y-7970D02*
D03*
X305200Y-1510D02*
D03*
Y-8010D02*
D03*
X299210Y-1510D02*
D03*
Y-8010D02*
D03*
X291170Y2510D02*
D03*
Y9010D02*
D03*
X278070Y31300D02*
D03*
Y24800D02*
D03*
X69588Y146098D02*
D03*
Y139598D02*
D03*
X57298Y146008D02*
D03*
Y139508D02*
D03*
X51428Y146008D02*
D03*
Y139508D02*
D03*
Y159488D02*
D03*
Y152988D02*
D03*
X63108Y146168D02*
D03*
Y139668D02*
D03*
X124698Y55658D02*
D03*
Y49158D02*
D03*
X23790Y76350D02*
D03*
Y69850D02*
D03*
X20140Y115579D02*
D03*
Y109079D02*
D03*
X25960Y115659D02*
D03*
Y109159D02*
D03*
X14280Y115600D02*
D03*
Y109100D02*
D03*
X5980Y115039D02*
D03*
Y108539D02*
D03*
X37990Y112380D02*
D03*
Y118880D02*
D03*
X-5720Y89700D02*
D03*
Y96200D02*
D03*
X139848Y56924D02*
D03*
Y63424D02*
D03*
X139958Y77064D02*
D03*
Y70564D02*
D03*
X213598Y18868D02*
D03*
Y25368D02*
D03*
X219358Y25328D02*
D03*
Y18828D02*
D03*
X225238D02*
D03*
Y25328D02*
D03*
X219428Y32798D02*
D03*
Y39298D02*
D03*
X225288Y32748D02*
D03*
Y39248D02*
D03*
X89678Y17808D02*
D03*
Y11308D02*
D03*
X69778Y18888D02*
D03*
Y25388D02*
D03*
X63888Y18798D02*
D03*
Y25298D02*
D03*
X211158Y56138D02*
D03*
Y49638D02*
D03*
X205288Y49568D02*
D03*
Y56068D02*
D03*
X159588Y42378D02*
D03*
Y35878D02*
D03*
X199518Y56168D02*
D03*
Y49668D02*
D03*
X132788Y15728D02*
D03*
Y22228D02*
D03*
X138678D02*
D03*
Y15728D02*
D03*
X144428Y15758D02*
D03*
Y22258D02*
D03*
X207418Y25288D02*
D03*
Y18788D02*
D03*
X290160Y64200D02*
D03*
Y70700D02*
D03*
X295910Y64250D02*
D03*
Y70750D02*
D03*
D31*
X307070Y88730D02*
D03*
X322070Y66730D02*
D03*
X317070Y66730D02*
D03*
X312070Y66730D02*
D03*
X307070Y66730D02*
D03*
X312070Y88730D02*
D03*
X317070D02*
D03*
X322070Y88730D02*
D03*
D32*
X161284Y109940D02*
D03*
D33*
X157784Y145491D02*
D03*
X219796D02*
D03*
D34*
X179639Y104940D02*
D03*
X183969D02*
D03*
X188300D02*
D03*
X192631D02*
D03*
X196961D02*
D03*
X201292D02*
D03*
X205623D02*
D03*
X209954D02*
D03*
X214284D02*
D03*
D35*
X219796Y110440D02*
D03*
D36*
X346620Y41618D02*
D03*
Y16422D02*
D03*
D37*
X354494Y29020D02*
D03*
X338746D02*
D03*
D38*
X295360Y-16280D02*
D03*
X317014D02*
D03*
D39*
X299480Y33350D02*
D03*
X319480Y8941D02*
D03*
X314480D02*
D03*
Y33350D02*
D03*
X311980D02*
D03*
X309480D02*
D03*
X319480D02*
D03*
X309480Y8941D02*
D03*
X316980D02*
D03*
X321980D02*
D03*
X306980D02*
D03*
X321980Y33350D02*
D03*
X326980D02*
D03*
X316980D02*
D03*
X324480D02*
D03*
X306980D02*
D03*
X324480Y8941D02*
D03*
X326980D02*
D03*
X299480D02*
D03*
X301980D02*
D03*
X304480D02*
D03*
X301980Y33350D02*
D03*
X311980Y8941D02*
D03*
D40*
X304480Y33350D02*
D03*
D41*
X324854Y44700D02*
D03*
X316980D02*
D03*
D42*
X284890Y9530D02*
D03*
X284890Y2530D02*
D03*
X37920Y133430D02*
D03*
X37920Y126430D02*
D03*
D43*
X104629Y151258D02*
D03*
X89668D02*
D03*
D44*
X119353Y118666D02*
D03*
D45*
X117384D02*
D03*
X115416D02*
D03*
X113447Y118666D02*
D03*
X111479D02*
D03*
X109510D02*
D03*
X107542Y118666D02*
D03*
X105573D02*
D03*
X103605D02*
D03*
X101636D02*
D03*
X99668D02*
D03*
X97699D02*
D03*
X95731D02*
D03*
X93762D02*
D03*
X91794D02*
D03*
X89825D02*
D03*
X87857D02*
D03*
X85888D02*
D03*
X83920D02*
D03*
X81951D02*
D03*
X79983D02*
D03*
X78014D02*
D03*
X76046D02*
D03*
X74077D02*
D03*
X72109D02*
D03*
Y55674D02*
D03*
X74077D02*
D03*
X76046D02*
D03*
X78014Y55674D02*
D03*
X79983D02*
D03*
X81951D02*
D03*
X83920D02*
D03*
X85888D02*
D03*
X87857D02*
D03*
X89825D02*
D03*
X91794D02*
D03*
X93762D02*
D03*
X95731Y55674D02*
D03*
X97699Y55674D02*
D03*
X99668Y55674D02*
D03*
X101636D02*
D03*
X103605D02*
D03*
X105573D02*
D03*
X107542D02*
D03*
X109510D02*
D03*
X111479D02*
D03*
X113447D02*
D03*
X115416D02*
D03*
X117384D02*
D03*
X119353D02*
D03*
D46*
X64235Y110792D02*
D03*
Y108824D02*
D03*
Y106855D02*
D03*
Y104887D02*
D03*
Y102918D02*
D03*
Y100950D02*
D03*
Y98981D02*
D03*
Y97013D02*
D03*
X64235Y95044D02*
D03*
Y93076D02*
D03*
Y91107D02*
D03*
Y89139D02*
D03*
Y87170D02*
D03*
X64235Y85202D02*
D03*
Y83233D02*
D03*
Y81265D02*
D03*
Y79296D02*
D03*
Y77328D02*
D03*
Y75359D02*
D03*
Y73391D02*
D03*
Y71422D02*
D03*
X64235Y69454D02*
D03*
X64235Y67485D02*
D03*
Y65517D02*
D03*
Y63548D02*
D03*
X127227Y65517D02*
D03*
Y67485D02*
D03*
Y69454D02*
D03*
Y71422D02*
D03*
Y73391D02*
D03*
Y75359D02*
D03*
Y77328D02*
D03*
Y79296D02*
D03*
Y81265D02*
D03*
Y83233D02*
D03*
Y85202D02*
D03*
Y87170D02*
D03*
Y89139D02*
D03*
Y91107D02*
D03*
Y93076D02*
D03*
Y95044D02*
D03*
Y97013D02*
D03*
Y98981D02*
D03*
X127227Y100950D02*
D03*
Y102918D02*
D03*
Y104887D02*
D03*
X127227Y106855D02*
D03*
Y108824D02*
D03*
Y110792D02*
D03*
Y63548D02*
D03*
D47*
X14880Y18490D02*
D03*
X8874D02*
D03*
X15000Y50020D02*
D03*
X8995D02*
D03*
D48*
X1053Y76187D02*
D03*
X3612Y76187D02*
D03*
X6171D02*
D03*
X8731D02*
D03*
X11289D02*
D03*
X13849Y76187D02*
D03*
X16408Y76187D02*
D03*
X18967Y76187D02*
D03*
X1053Y99612D02*
D03*
X3612Y99612D02*
D03*
X6171D02*
D03*
X8731Y99612D02*
D03*
X11289Y99612D02*
D03*
X13849Y99612D02*
D03*
X16408Y99612D02*
D03*
X18967Y99612D02*
D03*
D49*
X10010Y87899D02*
D03*
D50*
X169048Y71174D02*
D03*
D51*
X160775Y66252D02*
D03*
Y68221D02*
D03*
Y70189D02*
D03*
Y72158D02*
D03*
Y74126D02*
D03*
Y76095D02*
D03*
X177320D02*
D03*
Y74126D02*
D03*
Y72158D02*
D03*
Y70189D02*
D03*
Y68221D02*
D03*
Y66252D02*
D03*
D52*
X164127Y79446D02*
D03*
X166095D02*
D03*
X168064D02*
D03*
X170032D02*
D03*
X172001D02*
D03*
X173969D02*
D03*
Y62901D02*
D03*
X172001D02*
D03*
X170032D02*
D03*
X168064D02*
D03*
X166095D02*
D03*
X164127D02*
D03*
D53*
X250028Y32038D02*
D03*
X257028Y32038D02*
D03*
X173328Y35838D02*
D03*
X166328Y35838D02*
D03*
D54*
X232449Y32018D02*
D03*
X232449Y28278D02*
D03*
X232528Y24538D02*
D03*
X243748D02*
D03*
Y32018D02*
D03*
X192199Y41110D02*
D03*
X192199Y44850D02*
D03*
X192121Y48590D02*
D03*
X180900D02*
D03*
Y41110D02*
D03*
D55*
X43385Y11788D02*
D03*
Y-15147D02*
D03*
X25668D02*
D03*
Y11788D02*
D03*
D56*
X83718Y18788D02*
D03*
Y11288D02*
D03*
D57*
X75718Y15088D02*
D03*
D58*
X61756Y5378D02*
D03*
X70220Y5378D02*
D03*
X61776Y11948D02*
D03*
X70240Y11948D02*
D03*
D59*
X75358Y-11412D02*
D03*
X82858D02*
D03*
D60*
X79058Y-19412D02*
D03*
D61*
X186568Y26001D02*
D03*
Y-22D02*
D03*
D62*
X159660Y-15430D02*
D03*
X175132D02*
D03*
D63*
X99608Y-1602D02*
D03*
Y-15067D02*
D03*
X108308Y-14987D02*
D03*
Y-1522D02*
D03*
X200128Y11863D02*
D03*
Y25328D02*
D03*
D64*
X163398Y1998D02*
D03*
Y25817D02*
D03*
D65*
X144460Y-6382D02*
D03*
Y-1382D02*
D03*
Y3618D02*
D03*
Y8618D02*
D03*
X122216Y-6382D02*
D03*
Y-1382D02*
D03*
Y3618D02*
D03*
Y8618D02*
D03*
D66*
X133338Y1118D02*
D03*
D115*
X67028Y-15012D02*
X71758D01*
X75358Y-11412D01*
Y-972D02*
X75888Y-442D01*
X82348Y5368D02*
X82858Y4858D01*
X88098Y-442D02*
X88128Y-472D01*
X82388Y-442D02*
X82858D01*
X88098D01*
X82858Y-11412D02*
Y-442D01*
Y4858D01*
X81798Y-19412D02*
X99608Y-1602D01*
X79058Y-19412D02*
X81798D01*
X83738Y11308D02*
X89678D01*
X83718Y11288D02*
X83738Y11308D01*
X75718Y5498D02*
Y15088D01*
Y5498D02*
X75848Y5368D01*
X70230D02*
X75848D01*
X70220Y5378D02*
X70230Y5368D01*
X61756Y5378D02*
Y11928D01*
X61776Y11948D01*
X43385Y11788D02*
X43545Y11948D01*
X61776D01*
X69638Y18748D02*
X69778Y18888D01*
X14880Y18490D02*
X15030Y18640D01*
X15000Y50020D02*
X15080Y49940D01*
X-690Y39190D02*
X8580D01*
X-758Y39258D02*
X-690Y39190D01*
X-570Y29070D02*
X8530D01*
X-758Y29258D02*
X-570Y29070D01*
X69778Y12410D02*
Y18888D01*
Y12410D02*
X70240Y11948D01*
X99608Y-1602D02*
X108228D01*
X108308Y-1522D01*
X99608Y3558D02*
X104598Y8548D01*
X99608Y-1602D02*
Y3558D01*
X111098Y8548D02*
X122146D01*
X122216Y8618D01*
X122076Y-1522D02*
X122216Y-1382D01*
Y-6382D02*
X131263Y-15430D01*
X144460Y-6382D02*
X153198D01*
X153288Y-6292D01*
X131263Y-15430D02*
X159660D01*
Y-6420D01*
X159788Y-6292D01*
Y-1612D01*
X163398Y1998D01*
X144460Y8618D02*
Y15725D01*
X144428Y15758D02*
X144460Y15725D01*
X138708Y15758D02*
X144428D01*
X138678Y15728D02*
X138708Y15758D01*
X132788Y22228D02*
X138678D01*
X163398Y25817D02*
X186383D01*
X186568Y26001D01*
X199454D01*
X200168Y25288D02*
X207418D01*
X199454Y26001D02*
X200128Y25328D01*
X200168Y25288D01*
X219428Y32798D02*
X225238D01*
X225288Y25378D02*
Y32748D01*
X225238Y25328D02*
X225288Y25378D01*
X225198Y18868D02*
X225238Y18828D01*
X226818D01*
X232528Y24538D01*
X213598Y18868D02*
X225198D01*
X226018Y32018D02*
X232449D01*
X225238Y32798D02*
X225288Y32748D01*
X226018Y32018D01*
X243748Y32018D02*
X250008D01*
X250028Y32038D01*
X243748Y17628D02*
Y24538D01*
X243628Y17508D02*
X243748Y17628D01*
Y50398D02*
X243788Y50438D01*
X257028Y25838D02*
Y32038D01*
X278490Y18380D02*
X285440D01*
X277910Y17800D02*
X278490Y18380D01*
X278720Y24150D02*
X285350D01*
X278070Y24800D02*
X278720Y24150D01*
X-5940Y50720D02*
X8731Y65390D01*
X-16240Y56170D02*
X-15140D01*
X-6950D01*
X3612Y66732D01*
X-18510Y50720D02*
X-5940D01*
X-20890Y53100D02*
X-18510Y50720D01*
X-20890Y53100D02*
Y100420D01*
X-15140Y106170D01*
Y96170D02*
X-5750D01*
X-5720Y96200D01*
X25901Y115600D02*
X25960Y115659D01*
X62948Y146008D02*
X63108Y146168D01*
X51428Y146008D02*
X57298D01*
X62948D01*
X63108Y133208D02*
Y139668D01*
X69588Y133228D02*
Y139598D01*
Y133228D02*
X69608Y133208D01*
X51428Y146008D02*
Y152988D01*
Y159488D02*
X62058D01*
X63048Y158498D01*
X69548Y152678D02*
Y158498D01*
Y152678D02*
X69598Y152628D01*
X37920Y153530D02*
X43878Y159488D01*
X51428D01*
X93048Y141888D02*
X93128Y141808D01*
X99928D02*
X106738D01*
X86178Y141888D02*
X86478D01*
X93048D01*
X93428Y141808D02*
Y147498D01*
X89668Y151258D02*
X93428Y147498D01*
X99928Y141808D02*
Y146557D01*
X104629Y151258D01*
X124508Y127238D02*
Y133018D01*
Y127238D02*
X124508Y127238D01*
X159588Y35878D02*
X166288D01*
X166328Y35838D01*
X173328Y35838D02*
Y42598D01*
X174816Y41110D02*
X180900D01*
X173148Y42778D02*
X173328Y42598D01*
X174816Y41110D01*
X173148Y42778D02*
Y48448D01*
X173218Y48518D01*
Y54228D01*
X173288Y54298D01*
X180910Y48600D02*
Y55290D01*
X180900Y48590D02*
X180910Y48600D01*
X199518Y42988D02*
Y49668D01*
Y42988D02*
X199648Y42858D01*
X192199Y41110D02*
X197900D01*
X199648Y42858D01*
Y37218D02*
Y42858D01*
X199528Y37098D02*
X199648Y37218D01*
X54155Y-2140D02*
X67028Y-15012D01*
X37920Y133430D02*
Y153530D01*
X35033Y26047D02*
X35320Y25760D01*
X28820Y23180D02*
Y25760D01*
Y23180D02*
X33645Y18355D01*
X25960Y115659D02*
X29051D01*
X76540Y101810D02*
X80100Y105370D01*
X99668D01*
X140358Y70164D02*
X146598D01*
X140688Y64264D02*
X146528D01*
X139848Y63424D02*
X140688Y64264D01*
X76540Y71270D02*
Y101810D01*
X139958Y70564D02*
X140358Y70164D01*
X124508Y138768D02*
X124508Y138768D01*
X131008Y133018D02*
Y138768D01*
Y144608D01*
Y150338D01*
X173288Y54298D02*
X176328D01*
X131008Y127238D02*
X131293Y126952D01*
X186648Y64424D02*
Y70224D01*
Y64424D02*
X186678Y64394D01*
X243788Y50438D02*
Y64082D01*
X136384Y70564D02*
X139958D01*
X136546Y63424D02*
X139848D01*
X316980Y-16247D02*
Y-8020D01*
Y-16247D02*
X317014Y-16280D01*
X296830Y42530D02*
Y48290D01*
X296870Y48330D01*
X289930D02*
X296870D01*
X289730Y48530D02*
X289930Y48330D01*
X312070Y52830D02*
X312140Y52760D01*
X322070Y66730D02*
X331960D01*
X331980Y66710D01*
X300600Y73200D02*
X307070Y66730D01*
X300600Y73200D02*
Y74940D01*
X302370Y76710D02*
X331980D01*
X300600Y74940D02*
X302370Y76710D01*
X300600Y81440D02*
Y82260D01*
X307070Y88730D01*
X312070Y88730D02*
X317070D01*
X307140Y88800D02*
Y98730D01*
X307070Y88730D02*
X307140Y88800D01*
X313640Y98730D02*
Y104700D01*
X313580Y104760D02*
X313640Y104700D01*
X320260Y98768D02*
Y99320D01*
X300010Y104760D02*
X307080D01*
X299970Y104720D02*
X300010Y104760D01*
X299970Y104720D02*
Y110560D01*
X299830Y110700D02*
X299970Y110560D01*
X293430Y122410D02*
Y128070D01*
X293340Y122320D02*
X293430Y122410D01*
Y128070D02*
Y144388D01*
X293310Y144508D02*
X293430Y144388D01*
X312070Y58700D02*
X312140D01*
X293310Y144508D02*
X300198D01*
X300210Y58700D02*
X300320Y58590D01*
X300210Y58700D02*
X312070D01*
X232449Y32018D02*
Y60931D01*
X284880Y160170D02*
X293120D01*
X293310Y159980D01*
X317070Y88730D02*
Y95578D01*
X320260Y98768D01*
X207418Y25288D02*
Y26008D01*
X214208Y32798D02*
X219428D01*
X207418Y26008D02*
X213730Y32320D01*
X214208Y32798D01*
X15030Y18640D02*
Y29070D01*
X15080Y39190D02*
Y49940D01*
X334861Y16422D02*
X346620D01*
X327380Y8941D02*
X334861Y16422D01*
X342188Y41618D02*
X346620D01*
X324480Y17140D02*
X330910Y23570D01*
Y30340D01*
X342188Y41618D01*
X76540Y71270D02*
X77760Y70050D01*
X119660Y92260D02*
Y110370D01*
X78250Y70050D02*
X97450D01*
X100000Y72600D01*
X119660Y92260D01*
X124508Y138768D02*
Y156128D01*
X144428Y22258D02*
X159839D01*
X163398Y25817D01*
X199528Y26075D02*
Y37098D01*
X173328Y31322D02*
Y35838D01*
X186568Y14652D02*
Y26001D01*
Y14652D02*
X194310Y6910D01*
X219030Y-19940D02*
X221860Y-17110D01*
X184600Y-19940D02*
X219030D01*
X33645Y6635D02*
Y18355D01*
Y6635D02*
X42420Y-2140D01*
X54155D01*
X300198Y58712D02*
X300210Y58700D01*
X108308Y-1522D02*
X122076D01*
X199454Y26001D02*
X199528Y26075D01*
X35033Y26047D02*
Y38543D01*
X269590Y24800D02*
X278070D01*
X58968Y18748D02*
X69638D01*
X312070Y52830D02*
Y58700D01*
Y66730D01*
X243748Y32018D02*
Y50398D01*
X240810Y67060D02*
X243788Y64082D01*
X269680Y17800D02*
X277910D01*
X14280Y115600D02*
X25901D01*
X75358Y-11412D02*
Y-972D01*
D116*
X3612Y66732D02*
Y76187D01*
X8731Y65390D02*
Y76187D01*
X-5720Y82960D02*
X1053Y76187D01*
X-5720Y82960D02*
Y89700D01*
X6171Y99612D02*
Y108348D01*
X5980Y108539D02*
X6171Y108348D01*
X11280Y99621D02*
X11289Y99612D01*
X11280Y99621D02*
Y111631D01*
X14280Y114631D01*
Y115600D01*
X14120Y109100D02*
X14280D01*
X13849Y99612D02*
Y108669D01*
X14280Y109100D01*
X37990Y118880D02*
Y126360D01*
X37920Y126430D02*
X37990Y126360D01*
X18967Y76187D02*
X23627D01*
X23790Y76350D01*
X278867Y117480D02*
X286550D01*
X293330Y110700D01*
X278867Y119980D02*
X289830D01*
X293310Y116500D01*
X278867Y122480D02*
X293180D01*
X293340Y122320D01*
X221360Y118050D02*
Y124020D01*
X221220Y117910D02*
X221360Y118050D01*
X245830Y117480D02*
X257410D01*
X244960Y116610D02*
X245830Y117480D01*
X247630Y119980D02*
X257410D01*
X245060Y122550D02*
X247630Y119980D01*
X273110Y129980D02*
X278867D01*
X267250Y124120D02*
X273110Y129980D01*
X273792Y127480D02*
X278867D01*
X269500Y123188D02*
X273792Y127480D01*
X263150Y100450D02*
X267250Y104550D01*
Y124120D01*
X269500Y100980D02*
Y123188D01*
X263150Y94630D02*
X269500Y100980D01*
X203670Y117910D02*
X221220D01*
X231880Y132440D02*
X231920Y132480D01*
X257410D01*
X237310Y129980D02*
X257410D01*
X233740Y126410D02*
X237310Y129980D01*
X251100Y127480D02*
X257410D01*
X249720Y126100D02*
X251100Y127480D01*
X205623Y104940D02*
Y112490D01*
X227860Y124020D02*
X232640Y119240D01*
Y108990D02*
Y119240D01*
X274060Y119980D02*
X278867D01*
X274040Y119960D02*
X274060Y119980D01*
X263530Y141670D02*
Y153200D01*
Y141670D02*
X272720Y132480D01*
X278867D01*
X269470Y140770D02*
Y153200D01*
Y140770D02*
X272760Y137480D01*
X278867D01*
X63888Y25298D02*
X74028Y35438D01*
X103368D01*
X63888Y25298D02*
Y31962D01*
X289482Y100732D02*
X293470Y104720D01*
X289482Y71378D02*
Y100732D01*
Y71378D02*
X290160Y70700D01*
X278867Y108403D02*
Y114980D01*
Y108403D02*
X282550Y104720D01*
X293470D01*
X288450Y110700D02*
X293330D01*
X296030Y70870D02*
Y75180D01*
X295910Y70750D02*
X296030Y70870D01*
D117*
X309480Y8941D02*
Y18650D01*
X303980Y24150D02*
X309480Y18650D01*
X291850Y24150D02*
X303980D01*
X306980Y8941D02*
Y15620D01*
X304220Y18380D02*
X306980Y15620D01*
X291940Y18380D02*
X304220D01*
X314480Y1930D02*
Y8941D01*
X311080Y-1470D02*
X314480Y1930D01*
X316980Y-1520D02*
Y8941D01*
X311980Y5270D02*
Y8941D01*
X305200Y-1510D02*
X311980Y5270D01*
X301980Y1260D02*
Y8941D01*
X299210Y-1510D02*
X301980Y1260D01*
X291239Y8941D02*
X299480D01*
X291170Y9010D02*
X291239Y8941D01*
X284910Y2510D02*
X291170D01*
X284890Y2530D02*
X284910Y2510D01*
X294900Y-8010D02*
X299210D01*
X294900Y29170D02*
Y32990D01*
X294370Y33520D02*
X294900Y32990D01*
X294370Y33520D02*
X299310D01*
X299480Y33350D01*
X301980D02*
Y37380D01*
X296830Y42530D02*
X301980Y37380D01*
X304480Y33350D02*
Y41380D01*
X303330Y42530D02*
X304480Y41380D01*
X316980Y33350D02*
Y44700D01*
X319480Y33350D02*
Y39326D01*
X311980Y8941D02*
Y23580D01*
X306980Y33350D02*
Y44720D01*
X303370Y48330D02*
X306980Y44720D01*
X319480Y39326D02*
X324854Y44700D01*
D118*
X331980Y66710D02*
D03*
X-758Y19258D02*
D03*
X352990Y106400D02*
D03*
X-15140Y106170D02*
D03*
D119*
X331980Y76710D02*
D03*
X133368Y35438D02*
D03*
X123368D02*
D03*
X113368D02*
D03*
X103368D02*
D03*
X-758Y39258D02*
D03*
Y29258D02*
D03*
X352990Y56400D02*
D03*
Y66400D02*
D03*
Y76400D02*
D03*
Y86400D02*
D03*
Y96400D02*
D03*
X-15140Y56170D02*
D03*
Y66170D02*
D03*
Y76170D02*
D03*
Y86170D02*
D03*
Y96170D02*
D03*
X67028Y-15012D02*
D03*
D120*
X338583Y0D02*
D03*
Y141732D02*
D03*
X0D02*
D03*
Y0D02*
D03*
D121*
X143368Y35438D02*
D03*
X57028Y-15012D02*
D03*
D122*
X5679Y83569D02*
D03*
Y87899D02*
D03*
X5679Y92230D02*
D03*
X10010Y83569D02*
D03*
Y87899D02*
D03*
Y92230D02*
D03*
X14341Y83569D02*
D03*
X14341Y87899D02*
D03*
Y92230D02*
D03*
X135503Y-3213D02*
D03*
X131173D02*
D03*
X135503Y5448D02*
D03*
X131173D02*
D03*
X135503Y1118D02*
D03*
X131173D02*
D03*
D123*
X35033Y97013D02*
D03*
Y38543D02*
D03*
X43574Y118666D02*
D03*
Y69606D02*
D03*
X46640Y129360D02*
D03*
X44800Y124950D02*
D03*
X70722Y110792D02*
D03*
X70930Y102840D02*
D03*
X52680Y18820D02*
D03*
X72060Y73040D02*
D03*
X73660Y29500D02*
D03*
X29051Y115659D02*
D03*
X24050Y133430D02*
D03*
X93762Y112018D02*
D03*
X133280Y77010D02*
D03*
X176328Y54298D02*
D03*
X182040Y67000D02*
D03*
X240750D02*
D03*
X21630Y64540D02*
D03*
X15170Y62050D02*
D03*
X104550Y63200D02*
D03*
X99620Y63210D02*
D03*
X136384Y70564D02*
D03*
X136546Y63424D02*
D03*
X72470Y69350D02*
D03*
X269590Y24800D02*
D03*
X269680Y17800D02*
D03*
X294900Y-8010D02*
D03*
Y29170D02*
D03*
X300198Y144508D02*
D03*
X137940Y98860D02*
D03*
X138584Y95044D02*
D03*
X236530Y94390D02*
D03*
X250830D02*
D03*
X203670Y117910D02*
D03*
X192500D02*
D03*
X233740Y126410D02*
D03*
X188310D02*
D03*
X249720Y126100D02*
D03*
X205623Y112490D02*
D03*
X232640Y108990D02*
D03*
X274040Y119960D02*
D03*
X232449Y60931D02*
D03*
X239720Y160170D02*
D03*
X284880D02*
D03*
X311980Y23580D02*
D03*
X292182Y54298D02*
D03*
Y96392D02*
D03*
X114980Y-1490D02*
D03*
X214208Y32798D02*
D03*
X266520Y72940D02*
D03*
X269600Y69450D02*
D03*
X74077Y62883D02*
D03*
X78014Y62636D02*
D03*
X81951Y62699D02*
D03*
X85888Y62562D02*
D03*
X136005Y81265D02*
D03*
X107640Y70010D02*
D03*
X108750Y73160D02*
D03*
X109050Y76650D02*
D03*
X112660Y76920D02*
D03*
X116190Y77380D02*
D03*
X117384Y125896D02*
D03*
X124196Y118666D02*
D03*
X97699Y44169D02*
D03*
X94580Y28220D02*
D03*
X72109Y44081D02*
D03*
X115416Y112454D02*
D03*
X113447Y125833D02*
D03*
X111479Y112491D02*
D03*
X115730Y81305D02*
D03*
X119800Y81750D02*
D03*
X173328Y31322D02*
D03*
X97699Y30799D02*
D03*
X94580Y42430D02*
D03*
X83920Y44110D02*
D03*
X76046Y44014D02*
D03*
X79983Y44077D02*
D03*
X63888Y31962D02*
D03*
X214480Y2300D02*
D03*
X223829Y8401D02*
D03*
X227770Y8440D02*
D03*
X231703Y8527D02*
D03*
X235640Y8510D02*
D03*
X171160Y68800D02*
D03*
X171210Y73580D02*
D03*
X166490Y73540D02*
D03*
X166530Y68800D02*
D03*
X184600Y-19940D02*
D03*
X225798Y-2822D02*
D03*
X233671Y-2369D02*
D03*
X229734Y-2754D02*
D03*
X237609Y-2409D02*
D03*
X241546Y-2664D02*
D03*
X245482Y-2617D02*
D03*
X249419Y-2740D02*
D03*
X253357Y-2926D02*
D03*
X257294Y-3036D02*
D03*
X261230Y-3049D02*
D03*
X239577Y9793D02*
D03*
X243514Y10626D02*
D03*
X247451Y11220D02*
D03*
X251388Y11052D02*
D03*
X255325Y10945D02*
D03*
X259262Y10768D02*
D03*
X263199Y10761D02*
D03*
X12950Y158900D02*
D03*
X22820Y158980D02*
D03*
X33940Y159120D02*
D03*
X14780Y151220D02*
D03*
Y137260D02*
D03*
X23550Y147130D02*
D03*
X26850Y138350D02*
D03*
X32330Y150860D02*
D03*
X44830Y152540D02*
D03*
X44250Y140840D02*
D03*
X-15790Y132800D02*
D03*
X-18710Y123360D02*
D03*
X-9940Y114370D02*
D03*
X-2190Y122780D02*
D03*
X23480Y101790D02*
D03*
X49080Y114370D02*
D03*
X63190Y115540D02*
D03*
X54050Y121970D02*
D03*
X64800Y121900D02*
D03*
X-6320Y76160D02*
D03*
X-5510Y69800D02*
D03*
X-7230Y63530D02*
D03*
X9740Y58280D02*
D03*
X3480Y52830D02*
D03*
X21960Y43530D02*
D03*
X42370Y62720D02*
D03*
X42670Y54740D02*
D03*
X48430Y59900D02*
D03*
X49540Y76660D02*
D03*
X55800Y82120D02*
D03*
X66210Y43130D02*
D03*
X61010Y53860D02*
D03*
X46100Y43290D02*
D03*
X43680Y27230D02*
D03*
X40900Y21310D02*
D03*
X48180Y20230D02*
D03*
X56260Y27450D02*
D03*
X13080Y34170D02*
D03*
X-10870Y36160D02*
D03*
X-17330Y40350D02*
D03*
X-9980Y43080D02*
D03*
X-16800Y30170D02*
D03*
X-17120Y20720D02*
D03*
X-16590Y10020D02*
D03*
X-9660Y26080D02*
D03*
X-11550Y12960D02*
D03*
X7870Y12750D02*
D03*
X14170Y6870D02*
D03*
X16690Y-2160D02*
D03*
X12490Y-10660D02*
D03*
X14590Y-18120D02*
D03*
X33170Y-20220D02*
D03*
X33270Y-12660D02*
D03*
X26450Y-1950D02*
D03*
X30230Y2670D02*
D03*
X33690Y-3840D02*
D03*
X38100Y-6360D02*
D03*
X38000Y-15700D02*
D03*
X47760Y-7510D02*
D03*
X53220Y-7830D02*
D03*
X48910Y-18120D02*
D03*
X56130Y6100D02*
D03*
X60400Y-1520D02*
D03*
X66110Y-7230D02*
D03*
X68240Y-530D02*
D03*
X98520Y22870D02*
D03*
X102930Y18350D02*
D03*
X105910Y23470D02*
D03*
X112930Y19180D02*
D03*
X118170Y21560D02*
D03*
X125200Y21920D02*
D03*
X91400Y-19040D02*
D03*
X115750Y-9160D02*
D03*
X116930Y-18220D02*
D03*
X114340Y3660D02*
D03*
X141810Y43360D02*
D03*
X152730Y2640D02*
D03*
X155290Y18200D02*
D03*
X164120Y18300D02*
D03*
X169810Y-6280D02*
D03*
X176070D02*
D03*
X182240Y-14250D02*
D03*
X199800Y18870D02*
D03*
X183950Y34240D02*
D03*
X191640Y33380D02*
D03*
X76720Y110180D02*
D03*
X84380Y110260D02*
D03*
X105420Y110340D02*
D03*
X111930Y106160D02*
D03*
X114260Y99560D02*
D03*
X107000Y102600D02*
D03*
X109720Y94240D02*
D03*
X104000Y90960D02*
D03*
X101270Y98030D02*
D03*
X89080Y100710D02*
D03*
X81970Y98540D02*
D03*
X81810Y88710D02*
D03*
X89040Y93560D02*
D03*
X85480Y75090D02*
D03*
X89430Y79910D02*
D03*
X101750Y82670D02*
D03*
X98230Y77890D02*
D03*
X48630Y69250D02*
D03*
X80130Y157640D02*
D03*
X80430Y149010D02*
D03*
X115670Y156300D02*
D03*
X114930Y149010D02*
D03*
X90100Y134890D02*
D03*
X100360Y136520D02*
D03*
X106750Y132660D02*
D03*
X112550Y135030D02*
D03*
X104520Y127150D02*
D03*
X82510Y131910D02*
D03*
X86970Y126860D02*
D03*
X135750Y160910D02*
D03*
X145110Y159720D02*
D03*
X155080Y160310D02*
D03*
X149130Y154660D02*
D03*
X142290Y153920D02*
D03*
X142590Y146340D02*
D03*
X143180Y136970D02*
D03*
X151800Y133100D02*
D03*
X150020Y144250D02*
D03*
X154630Y153030D02*
D03*
X125630Y122540D02*
D03*
X135510Y122310D02*
D03*
X146810Y122180D02*
D03*
X156270Y122690D02*
D03*
X165740Y122430D02*
D03*
X128880Y115740D02*
D03*
X138730Y115620D02*
D03*
X149020Y115680D02*
D03*
X163030Y115870D02*
D03*
X170280Y115560D02*
D03*
X153750Y104510D02*
D03*
X165740Y103750D02*
D03*
X173190Y103940D02*
D03*
X165490Y133290D02*
D03*
X165210Y140800D02*
D03*
X164970Y157240D02*
D03*
X166180Y148780D02*
D03*
X171500Y157490D02*
D03*
X182140Y158700D02*
D03*
X194230Y159420D02*
D03*
X206210Y159900D02*
D03*
X212980Y158450D02*
D03*
X185040Y150830D02*
D03*
X182870Y141400D02*
D03*
X173800Y138740D02*
D03*
X176460Y129430D02*
D03*
X182740Y122050D02*
D03*
X185040Y132450D02*
D03*
X193020Y138500D02*
D03*
Y148660D02*
D03*
X201370Y154580D02*
D03*
X200040Y143820D02*
D03*
X200400Y133540D02*
D03*
X192780Y131480D02*
D03*
X207900Y137410D02*
D03*
X213700Y150710D02*
D03*
X213820Y139710D02*
D03*
X222170Y137170D02*
D03*
X222580Y157650D02*
D03*
X230630Y159920D02*
D03*
X228090Y152080D02*
D03*
X227330Y143760D02*
D03*
X233060Y149270D02*
D03*
X246300Y154460D02*
D03*
X253920Y154030D02*
D03*
X246840Y148090D02*
D03*
X247220Y141930D02*
D03*
X247430Y137330D02*
D03*
X254510Y147600D02*
D03*
X207690Y122460D02*
D03*
X200580Y113190D02*
D03*
X220400Y103440D02*
D03*
X226330Y107750D02*
D03*
X228100Y102150D02*
D03*
X214010Y90750D02*
D03*
X245700Y104990D02*
D03*
X240540Y101700D02*
D03*
X246240Y98940D02*
D03*
X240900Y90930D02*
D03*
X237600Y60570D02*
D03*
X156230Y81670D02*
D03*
X178490Y81940D02*
D03*
X179470Y63060D02*
D03*
X123720Y-17670D02*
D03*
X252620Y-18530D02*
D03*
X259790Y-12980D02*
D03*
X264630Y-6820D02*
D03*
X262180Y-18530D02*
D03*
X276700Y-18890D02*
D03*
X282430Y-14470D02*
D03*
X281470Y-7720D02*
D03*
X278670Y-130D02*
D03*
X275620Y3930D02*
D03*
X269050Y4110D02*
D03*
X267910Y11750D02*
D03*
X262540Y17190D02*
D03*
X258060Y41740D02*
D03*
X262480Y37020D02*
D03*
X274550Y43770D02*
D03*
X273650Y37560D02*
D03*
X281360Y39290D02*
D03*
X289900Y39710D02*
D03*
X289240Y-15100D02*
D03*
X331330Y-16170D02*
D03*
X325990Y-2160D02*
D03*
X354090Y5510D02*
D03*
X317240Y23770D02*
D03*
X317820Y16350D02*
D03*
X322320Y23600D02*
D03*
X335750Y21930D02*
D03*
X343830Y24350D02*
D03*
X348750Y30100D02*
D03*
X342750Y33770D02*
D03*
X352340Y35850D02*
D03*
X353340Y23600D02*
D03*
X352920Y15930D02*
D03*
X357590Y13510D02*
D03*
X358670Y22850D02*
D03*
X358170Y36600D02*
D03*
X307850Y26270D02*
D03*
X326410Y40940D02*
D03*
X331830Y38210D02*
D03*
X337400Y43600D02*
D03*
X357300Y44120D02*
D03*
X327420Y57350D02*
D03*
X333810Y54080D02*
D03*
X338220Y57960D02*
D03*
X343160Y55300D02*
D03*
X343010Y62900D02*
D03*
X342320Y69900D02*
D03*
X342470Y77960D02*
D03*
X347800Y91490D02*
D03*
X341330Y91570D02*
D03*
X333650D02*
D03*
X327720Y91490D02*
D03*
X329620Y101530D02*
D03*
X340340Y101450D02*
D03*
X346960Y101760D02*
D03*
X343160Y110960D02*
D03*
X348480Y116960D02*
D03*
X357980Y115220D02*
D03*
X335550Y105330D02*
D03*
X329470Y111870D02*
D03*
X318070Y113010D02*
D03*
X308640Y112250D02*
D03*
X308870Y119090D02*
D03*
X308330Y126620D02*
D03*
X308030Y132630D02*
D03*
X307650Y138480D02*
D03*
X307800Y145400D02*
D03*
X305520Y151940D02*
D03*
X306360Y159090D02*
D03*
X317530Y159240D02*
D03*
X312900Y153690D02*
D03*
X314720Y145930D02*
D03*
X314800Y139010D02*
D03*
X315180Y133460D02*
D03*
X317990Y127000D02*
D03*
X317610Y120920D02*
D03*
X325970Y118640D02*
D03*
X325290Y127300D02*
D03*
X322550Y137260D02*
D03*
X321490Y146620D02*
D03*
X325900Y156270D02*
D03*
X332510Y157950D02*
D03*
X336700Y116130D02*
D03*
X333880Y125560D02*
D03*
X344910Y125100D02*
D03*
X356010Y126620D02*
D03*
X352970Y135670D02*
D03*
X340040Y155510D02*
D03*
X285980Y137800D02*
D03*
X285830Y130040D02*
D03*
X276320Y150720D02*
D03*
X281880Y155060D02*
D03*
X283780Y149130D02*
D03*
X293050Y152240D02*
D03*
X301720Y155740D02*
D03*
X264010Y135360D02*
D03*
X264080Y129510D02*
D03*
X267810Y131030D02*
D03*
X263400Y122440D02*
D03*
Y115750D02*
D03*
X250930Y112100D02*
D03*
X275500Y107770D02*
D03*
X274480Y102100D02*
D03*
X273360Y96060D02*
D03*
X272900Y90670D02*
D03*
X282100Y90950D02*
D03*
X279590Y98480D02*
D03*
X271970Y76730D02*
D03*
X282380Y76260D02*
D03*
X275690Y71900D02*
D03*
X278660Y64370D02*
D03*
X282470Y70220D02*
D03*
X275500Y59720D02*
D03*
X285170Y58980D02*
D03*
X242420Y77660D02*
D03*
X252820Y77570D02*
D03*
X263510Y77840D02*
D03*
X182040Y76360D02*
D03*
X300198Y58712D02*
D03*
X288450Y110700D02*
D03*
X296030Y75180D02*
D03*
X136110Y56960D02*
D03*
M02*
