G04*
G04 #@! TF.GenerationSoftware,Altium Limited,Altium Designer,21.0.8 (223)*
G04*
G04 Layer_Color=255*
%FSLAX25Y25*%
%MOIN*%
G70*
G04*
G04 #@! TF.SameCoordinates,A399C05B-B16C-483E-863C-B068B867FB55*
G04*
G04*
G04 #@! TF.FilePolarity,Positive*
G04*
G01*
G75*
%ADD23R,0.07874X0.11811*%
%ADD24R,0.00984X0.04724*%
%ADD25R,0.05118X0.05906*%
%ADD26R,0.07087X0.06575*%
%ADD27R,0.03800X0.03000*%
%ADD28R,0.05709X0.01772*%
%ADD29R,0.01378X0.02559*%
%ADD30R,0.03000X0.03800*%
%ADD31O,0.02400X0.08000*%
%ADD32R,0.06299X0.05906*%
%ADD33R,0.04724X0.08661*%
%ADD34R,0.02756X0.06299*%
%ADD35R,0.04724X0.07087*%
%ADD36R,0.03150X0.09843*%
%ADD37R,0.05906X0.02362*%
%ADD38R,0.04724X0.07874*%
%ADD39O,0.01299X0.07087*%
%ADD40O,0.01299X0.07284*%
%ADD41C,0.03937*%
%ADD42R,0.04500X0.04000*%
%ADD43R,0.07087X0.09449*%
%ADD44O,0.01000X0.07874*%
%ADD45R,0.01000X0.07874*%
%ADD46R,0.07874X0.01000*%
%ADD47R,0.02559X0.01378*%
%ADD48O,0.01575X0.05709*%
%ADD49R,0.11811X0.11811*%
%ADD50R,0.09843X0.09843*%
%ADD51R,0.03150X0.00984*%
%ADD52R,0.00984X0.03150*%
%ADD53R,0.04000X0.04500*%
%ADD54R,0.05906X0.01968*%
%ADD55R,0.03937X0.11811*%
%ADD56R,0.03600X0.03600*%
%ADD57R,0.05000X0.03600*%
%ADD58R,0.02953X0.01378*%
%ADD59R,0.03600X0.03600*%
%ADD60R,0.03600X0.05000*%
%ADD61R,0.09488X0.08504*%
%ADD62R,0.06575X0.07087*%
%ADD63R,0.06299X0.05984*%
%ADD64R,0.13780X0.09252*%
%ADD65R,0.06496X0.02362*%
%ADD66R,0.10236X0.12205*%
%ADD118R,0.05906X0.05906*%
%ADD119C,0.05906*%
%ADD120C,0.19685*%
%ADD121R,0.05906X0.05906*%
D23*
X209164Y-8143D02*
D03*
X272057D02*
D03*
D24*
X253357Y2300D02*
D03*
X251388D02*
D03*
X249419D02*
D03*
X247451D02*
D03*
X245482D02*
D03*
X243514D02*
D03*
X241546D02*
D03*
X239577D02*
D03*
X237609D02*
D03*
X235640D02*
D03*
X233671D02*
D03*
X231703D02*
D03*
X229734D02*
D03*
X227766D02*
D03*
X225798D02*
D03*
X223829D02*
D03*
X221860D02*
D03*
X219892D02*
D03*
X217923D02*
D03*
X255325D02*
D03*
X261230D02*
D03*
X263199D02*
D03*
X259262D02*
D03*
X257294D02*
D03*
D25*
X289730Y48530D02*
D03*
X282250D02*
D03*
D26*
X293310Y159980D02*
D03*
Y144508D02*
D03*
D27*
X256650Y100450D02*
D03*
X263150D02*
D03*
X238460Y116610D02*
D03*
X244960D02*
D03*
X238560Y122550D02*
D03*
X245060D02*
D03*
X263220Y106340D02*
D03*
X256720D02*
D03*
X299810Y116500D02*
D03*
X293310D02*
D03*
X299840Y122320D02*
D03*
X293340D02*
D03*
X299930Y128070D02*
D03*
X293430D02*
D03*
X256650Y94630D02*
D03*
X263150D02*
D03*
Y88810D02*
D03*
X256650D02*
D03*
X227860Y124020D02*
D03*
X221360D02*
D03*
X307080Y104760D02*
D03*
X313580D02*
D03*
X307140Y98730D02*
D03*
X313640D02*
D03*
X293470Y104720D02*
D03*
X299970D02*
D03*
X318640Y58700D02*
D03*
X312140D02*
D03*
X318640Y52760D02*
D03*
X312140D02*
D03*
X293330Y110700D02*
D03*
X299830D02*
D03*
X227720Y117910D02*
D03*
X221220D02*
D03*
X285440Y18380D02*
D03*
X291940D02*
D03*
X296870Y48330D02*
D03*
X303370D02*
D03*
X296830Y42530D02*
D03*
X303330D02*
D03*
X285350Y24150D02*
D03*
X291850D02*
D03*
X287870Y33520D02*
D03*
X294370D02*
D03*
X63108Y133208D02*
D03*
X69608D02*
D03*
X124508Y144608D02*
D03*
X131008D02*
D03*
X124508Y150338D02*
D03*
X131008D02*
D03*
X131008Y156128D02*
D03*
X124508D02*
D03*
X131008Y127238D02*
D03*
X124508D02*
D03*
X124508Y133018D02*
D03*
X131008D02*
D03*
X86478Y141888D02*
D03*
X79978D02*
D03*
X93428Y141808D02*
D03*
X99928D02*
D03*
X107038D02*
D03*
X113538D02*
D03*
X54410Y87910D02*
D03*
X47910D02*
D03*
X64258Y58528D02*
D03*
X57758D02*
D03*
X55618Y106878D02*
D03*
X49118D02*
D03*
X124508Y138768D02*
D03*
X131008D02*
D03*
X136188Y110918D02*
D03*
X142688D02*
D03*
X136160Y104070D02*
D03*
X142660D02*
D03*
X63048Y158498D02*
D03*
X69548D02*
D03*
X63098Y152628D02*
D03*
X69598D02*
D03*
X14910Y23290D02*
D03*
X8410D02*
D03*
X8530Y29070D02*
D03*
X15030D02*
D03*
X15040Y45010D02*
D03*
X8540D02*
D03*
X8580Y39190D02*
D03*
X15080D02*
D03*
X152948Y76014D02*
D03*
X146448D02*
D03*
X186568Y76024D02*
D03*
X193068D02*
D03*
X173898Y85704D02*
D03*
X167398D02*
D03*
X193178Y64394D02*
D03*
X186678D02*
D03*
X28760Y31840D02*
D03*
X35260D02*
D03*
X193148Y70224D02*
D03*
X186648D02*
D03*
X193008Y81854D02*
D03*
X186508D02*
D03*
X146528Y64264D02*
D03*
X153028D02*
D03*
X146598Y70164D02*
D03*
X153098D02*
D03*
X35320Y25760D02*
D03*
X28820D02*
D03*
X243628Y17508D02*
D03*
X237128D02*
D03*
X250528Y25838D02*
D03*
X257028D02*
D03*
X243758Y38888D02*
D03*
X250258D02*
D03*
X243738Y44688D02*
D03*
X250238D02*
D03*
X243788Y50438D02*
D03*
X250288D02*
D03*
X75908Y-6202D02*
D03*
X82408D02*
D03*
X82348Y5368D02*
D03*
X75848D02*
D03*
X82388Y-442D02*
D03*
X75888D02*
D03*
X180910Y55290D02*
D03*
X187410D02*
D03*
X173148Y42778D02*
D03*
X166648D02*
D03*
X173218Y48518D02*
D03*
X166718D02*
D03*
X173288Y54298D02*
D03*
X166788D02*
D03*
X199648Y42858D02*
D03*
X206148D02*
D03*
X199528Y37098D02*
D03*
X206028D02*
D03*
X104598Y8548D02*
D03*
X111098D02*
D03*
X159788Y-6292D02*
D03*
X153288D02*
D03*
D28*
X278867Y114980D02*
D03*
Y117480D02*
D03*
Y119980D02*
D03*
Y122480D02*
D03*
Y124980D02*
D03*
Y127480D02*
D03*
Y129980D02*
D03*
Y132480D02*
D03*
Y134980D02*
D03*
Y137480D02*
D03*
Y139980D02*
D03*
Y142480D02*
D03*
X257410Y114980D02*
D03*
Y117480D02*
D03*
Y119980D02*
D03*
Y122480D02*
D03*
Y124980D02*
D03*
Y127480D02*
D03*
Y129980D02*
D03*
Y132480D02*
D03*
Y134980D02*
D03*
Y137480D02*
D03*
Y139980D02*
D03*
Y142480D02*
D03*
D29*
X250880Y106420D02*
D03*
Y100415D02*
D03*
X250600Y82780D02*
D03*
Y88785D02*
D03*
X272940Y11845D02*
D03*
Y17850D02*
D03*
X273270Y30766D02*
D03*
Y24760D02*
D03*
X49648Y11833D02*
D03*
Y5828D02*
D03*
X58968Y18748D02*
D03*
Y24753D02*
D03*
X88128Y-472D02*
D03*
Y-6478D02*
D03*
D30*
X269470Y153200D02*
D03*
Y159700D02*
D03*
X263530Y153200D02*
D03*
Y159700D02*
D03*
X231880Y132440D02*
D03*
Y138940D02*
D03*
X320260Y105820D02*
D03*
Y99320D02*
D03*
X300600Y74940D02*
D03*
Y81440D02*
D03*
X316980Y-8020D02*
D03*
Y-1520D02*
D03*
X277910Y11300D02*
D03*
Y17800D02*
D03*
X311080Y-1470D02*
D03*
Y-7970D02*
D03*
X305200Y-1510D02*
D03*
Y-8010D02*
D03*
X299210Y-1510D02*
D03*
Y-8010D02*
D03*
X291170Y2510D02*
D03*
Y9010D02*
D03*
X278070Y31300D02*
D03*
Y24800D02*
D03*
X69588Y146098D02*
D03*
Y139598D02*
D03*
X57298Y146008D02*
D03*
Y139508D02*
D03*
X51428Y146008D02*
D03*
Y139508D02*
D03*
Y159488D02*
D03*
Y152988D02*
D03*
X63108Y146168D02*
D03*
Y139668D02*
D03*
X124698Y55658D02*
D03*
Y49158D02*
D03*
X23790Y76350D02*
D03*
Y69850D02*
D03*
X20140Y115579D02*
D03*
Y109079D02*
D03*
X25960Y115659D02*
D03*
Y109159D02*
D03*
X14280Y115600D02*
D03*
Y109100D02*
D03*
X5980Y115039D02*
D03*
Y108539D02*
D03*
X37990Y112380D02*
D03*
Y118880D02*
D03*
X-5720Y89700D02*
D03*
Y96200D02*
D03*
X139848Y56924D02*
D03*
Y63424D02*
D03*
X139958Y77064D02*
D03*
Y70564D02*
D03*
X213598Y18868D02*
D03*
Y25368D02*
D03*
X219358Y25328D02*
D03*
Y18828D02*
D03*
X225238D02*
D03*
Y25328D02*
D03*
X219428Y32798D02*
D03*
Y39298D02*
D03*
X225288Y32748D02*
D03*
Y39248D02*
D03*
X89678Y17808D02*
D03*
Y11308D02*
D03*
X69778Y18888D02*
D03*
Y25388D02*
D03*
X63888Y18798D02*
D03*
Y25298D02*
D03*
X211158Y56138D02*
D03*
Y49638D02*
D03*
X205288Y49568D02*
D03*
Y56068D02*
D03*
X159588Y42378D02*
D03*
Y35878D02*
D03*
X199518Y56168D02*
D03*
Y49668D02*
D03*
X132788Y15728D02*
D03*
Y22228D02*
D03*
X138678D02*
D03*
Y15728D02*
D03*
X144428Y15758D02*
D03*
Y22258D02*
D03*
X207418Y25288D02*
D03*
Y18788D02*
D03*
X290160Y64200D02*
D03*
Y70700D02*
D03*
X295910Y64250D02*
D03*
Y70750D02*
D03*
D31*
X307070Y88730D02*
D03*
X322070Y66730D02*
D03*
X317070Y66730D02*
D03*
X312070Y66730D02*
D03*
X307070Y66730D02*
D03*
X312070Y88730D02*
D03*
X317070D02*
D03*
X322070Y88730D02*
D03*
D32*
X161284Y109940D02*
D03*
D33*
X157784Y145491D02*
D03*
X219796D02*
D03*
D34*
X179639Y104940D02*
D03*
X183969D02*
D03*
X188300D02*
D03*
X192631D02*
D03*
X196961D02*
D03*
X201292D02*
D03*
X205623D02*
D03*
X209954D02*
D03*
X214284D02*
D03*
D35*
X219796Y110440D02*
D03*
D36*
X346620Y41618D02*
D03*
Y16422D02*
D03*
D37*
X354494Y29020D02*
D03*
X338746D02*
D03*
D38*
X295360Y-16280D02*
D03*
X317014D02*
D03*
D39*
X299480Y33350D02*
D03*
X319480Y8941D02*
D03*
X314480D02*
D03*
Y33350D02*
D03*
X311980D02*
D03*
X309480D02*
D03*
X319480D02*
D03*
X309480Y8941D02*
D03*
X316980D02*
D03*
X321980D02*
D03*
X306980D02*
D03*
X321980Y33350D02*
D03*
X326980D02*
D03*
X316980D02*
D03*
X324480D02*
D03*
X306980D02*
D03*
X324480Y8941D02*
D03*
X326980D02*
D03*
X299480D02*
D03*
X301980D02*
D03*
X304480D02*
D03*
X301980Y33350D02*
D03*
X311980Y8941D02*
D03*
D40*
X304480Y33350D02*
D03*
D41*
X324854Y44700D02*
D03*
X316980D02*
D03*
D42*
X284890Y9530D02*
D03*
X284890Y2530D02*
D03*
X37920Y133430D02*
D03*
X37920Y126430D02*
D03*
D43*
X104629Y151258D02*
D03*
X89668D02*
D03*
D44*
X119353Y118666D02*
D03*
D45*
X117384D02*
D03*
X115416D02*
D03*
X113447Y118666D02*
D03*
X111479D02*
D03*
X109510D02*
D03*
X107542Y118666D02*
D03*
X105573D02*
D03*
X103605D02*
D03*
X101636D02*
D03*
X99668D02*
D03*
X97699D02*
D03*
X95731D02*
D03*
X93762D02*
D03*
X91794D02*
D03*
X89825D02*
D03*
X87857D02*
D03*
X85888D02*
D03*
X83920D02*
D03*
X81951D02*
D03*
X79983D02*
D03*
X78014D02*
D03*
X76046D02*
D03*
X74077D02*
D03*
X72109D02*
D03*
Y55674D02*
D03*
X74077D02*
D03*
X76046D02*
D03*
X78014Y55674D02*
D03*
X79983D02*
D03*
X81951D02*
D03*
X83920D02*
D03*
X85888D02*
D03*
X87857D02*
D03*
X89825D02*
D03*
X91794D02*
D03*
X93762D02*
D03*
X95731Y55674D02*
D03*
X97699Y55674D02*
D03*
X99668Y55674D02*
D03*
X101636D02*
D03*
X103605D02*
D03*
X105573D02*
D03*
X107542D02*
D03*
X109510D02*
D03*
X111479D02*
D03*
X113447D02*
D03*
X115416D02*
D03*
X117384D02*
D03*
X119353D02*
D03*
D46*
X64235Y110792D02*
D03*
Y108824D02*
D03*
Y106855D02*
D03*
Y104887D02*
D03*
Y102918D02*
D03*
Y100950D02*
D03*
Y98981D02*
D03*
Y97013D02*
D03*
X64235Y95044D02*
D03*
Y93076D02*
D03*
Y91107D02*
D03*
Y89139D02*
D03*
Y87170D02*
D03*
X64235Y85202D02*
D03*
Y83233D02*
D03*
Y81265D02*
D03*
Y79296D02*
D03*
Y77328D02*
D03*
Y75359D02*
D03*
Y73391D02*
D03*
Y71422D02*
D03*
X64235Y69454D02*
D03*
X64235Y67485D02*
D03*
Y65517D02*
D03*
Y63548D02*
D03*
X127227Y65517D02*
D03*
Y67485D02*
D03*
Y69454D02*
D03*
Y71422D02*
D03*
Y73391D02*
D03*
Y75359D02*
D03*
Y77328D02*
D03*
Y79296D02*
D03*
Y81265D02*
D03*
Y83233D02*
D03*
Y85202D02*
D03*
Y87170D02*
D03*
Y89139D02*
D03*
Y91107D02*
D03*
Y93076D02*
D03*
Y95044D02*
D03*
Y97013D02*
D03*
Y98981D02*
D03*
X127227Y100950D02*
D03*
Y102918D02*
D03*
Y104887D02*
D03*
X127227Y106855D02*
D03*
Y108824D02*
D03*
Y110792D02*
D03*
Y63548D02*
D03*
D47*
X14880Y18490D02*
D03*
X8874D02*
D03*
X15000Y50020D02*
D03*
X8995D02*
D03*
D48*
X1053Y76187D02*
D03*
X3612Y76187D02*
D03*
X6171D02*
D03*
X8731D02*
D03*
X11289D02*
D03*
X13849Y76187D02*
D03*
X16408Y76187D02*
D03*
X18967Y76187D02*
D03*
X1053Y99612D02*
D03*
X3612Y99612D02*
D03*
X6171D02*
D03*
X8731Y99612D02*
D03*
X11289Y99612D02*
D03*
X13849Y99612D02*
D03*
X16408Y99612D02*
D03*
X18967Y99612D02*
D03*
D49*
X10010Y87899D02*
D03*
D50*
X169048Y71174D02*
D03*
D51*
X160775Y66252D02*
D03*
Y68221D02*
D03*
Y70189D02*
D03*
Y72158D02*
D03*
Y74126D02*
D03*
Y76095D02*
D03*
X177320D02*
D03*
Y74126D02*
D03*
Y72158D02*
D03*
Y70189D02*
D03*
Y68221D02*
D03*
Y66252D02*
D03*
D52*
X164127Y79446D02*
D03*
X166095D02*
D03*
X168064D02*
D03*
X170032D02*
D03*
X172001D02*
D03*
X173969D02*
D03*
Y62901D02*
D03*
X172001D02*
D03*
X170032D02*
D03*
X168064D02*
D03*
X166095D02*
D03*
X164127D02*
D03*
D53*
X250028Y32038D02*
D03*
X257028Y32038D02*
D03*
X173328Y35838D02*
D03*
X166328Y35838D02*
D03*
D54*
X232449Y32018D02*
D03*
X232449Y28278D02*
D03*
X232528Y24538D02*
D03*
X243748D02*
D03*
Y32018D02*
D03*
X192199Y41110D02*
D03*
X192199Y44850D02*
D03*
X192121Y48590D02*
D03*
X180900D02*
D03*
Y41110D02*
D03*
D55*
X43385Y11788D02*
D03*
Y-15147D02*
D03*
X25668D02*
D03*
Y11788D02*
D03*
D56*
X83718Y18788D02*
D03*
Y11288D02*
D03*
D57*
X75718Y15088D02*
D03*
D58*
X61756Y5378D02*
D03*
X70220Y5378D02*
D03*
X61776Y11948D02*
D03*
X70240Y11948D02*
D03*
D59*
X75358Y-11412D02*
D03*
X82858D02*
D03*
D60*
X79058Y-19412D02*
D03*
D61*
X186568Y26001D02*
D03*
Y-22D02*
D03*
D62*
X159660Y-15430D02*
D03*
X175132D02*
D03*
D63*
X99608Y-1602D02*
D03*
Y-15067D02*
D03*
X108308Y-14987D02*
D03*
Y-1522D02*
D03*
X200128Y11863D02*
D03*
Y25328D02*
D03*
D64*
X163398Y1998D02*
D03*
Y25817D02*
D03*
D65*
X144460Y-6382D02*
D03*
Y-1382D02*
D03*
Y3618D02*
D03*
Y8618D02*
D03*
X122216Y-6382D02*
D03*
Y-1382D02*
D03*
Y3618D02*
D03*
Y8618D02*
D03*
D66*
X133338Y1118D02*
D03*
D118*
X331980Y66710D02*
D03*
X-758Y19258D02*
D03*
X352990Y106400D02*
D03*
X-15140Y106170D02*
D03*
D119*
X331980Y76710D02*
D03*
X133368Y35438D02*
D03*
X123368D02*
D03*
X113368D02*
D03*
X103368D02*
D03*
X-758Y39258D02*
D03*
Y29258D02*
D03*
X352990Y56400D02*
D03*
Y66400D02*
D03*
Y76400D02*
D03*
Y86400D02*
D03*
Y96400D02*
D03*
X-15140Y56170D02*
D03*
Y66170D02*
D03*
Y76170D02*
D03*
Y86170D02*
D03*
Y96170D02*
D03*
X67028Y-15012D02*
D03*
D120*
X338583Y0D02*
D03*
Y141732D02*
D03*
X0D02*
D03*
Y0D02*
D03*
D121*
X143368Y35438D02*
D03*
X57028Y-15012D02*
D03*
M02*
