G04*
G04 #@! TF.GenerationSoftware,Altium Limited,Altium Designer,21.0.8 (223)*
G04*
G04 Layer_Color=128*
%FSLAX25Y25*%
%MOIN*%
G70*
G04*
G04 #@! TF.SameCoordinates,A399C05B-B16C-483E-863C-B068B867FB55*
G04*
G04*
G04 #@! TF.FilePolarity,Positive*
G04*
G01*
G75*
%ADD134C,0.00200*%
D134*
X330208Y66710D02*
X333752D01*
X331980Y64938D02*
Y68482D01*
X330208Y76710D02*
X333752D01*
X331980Y74938D02*
Y78482D01*
X332677Y0D02*
X344488D01*
X338583Y-5906D02*
Y5906D01*
X332677Y141732D02*
X344488D01*
X338583Y135827D02*
Y147638D01*
X-5906Y141732D02*
X5906D01*
X0Y135827D02*
Y147638D01*
X-5906Y0D02*
X5906D01*
X0Y-5906D02*
Y5906D01*
X141596Y35438D02*
X145140D01*
X143368Y33666D02*
Y37209D01*
X131596Y35438D02*
X135140D01*
X133368Y33666D02*
Y37209D01*
X121596Y35438D02*
X125140D01*
X123368Y33666D02*
Y37209D01*
X111596Y35438D02*
X115140D01*
X113368Y33666D02*
Y37209D01*
X101596Y35438D02*
X105140D01*
X103368Y33666D02*
Y37209D01*
X-2529Y39258D02*
X1014D01*
X-758Y37486D02*
Y41030D01*
X-2529Y29258D02*
X1014D01*
X-758Y27486D02*
Y31030D01*
X-2529Y19258D02*
X1014D01*
X-758Y17486D02*
Y21030D01*
X351218Y56400D02*
X354762D01*
X352990Y54628D02*
Y58172D01*
X351218Y66400D02*
X354762D01*
X352990Y64628D02*
Y68172D01*
X351218Y76400D02*
X354762D01*
X352990Y74628D02*
Y78172D01*
X351218Y86400D02*
X354762D01*
X352990Y84628D02*
Y88172D01*
X351218Y96400D02*
X354762D01*
X352990Y94628D02*
Y98172D01*
X351218Y106400D02*
X354762D01*
X352990Y104628D02*
Y108172D01*
X-16912Y56170D02*
X-13368D01*
X-15140Y54398D02*
Y57942D01*
X-16912Y66170D02*
X-13368D01*
X-15140Y64398D02*
Y67942D01*
X-16912Y76170D02*
X-13368D01*
X-15140Y74398D02*
Y77942D01*
X-16912Y86170D02*
X-13368D01*
X-15140Y84398D02*
Y87942D01*
X-16912Y96170D02*
X-13368D01*
X-15140Y94398D02*
Y97942D01*
X-16912Y106170D02*
X-13368D01*
X-15140Y104398D02*
Y107942D01*
X65256Y-15012D02*
X68800D01*
X67028Y-16784D02*
Y-13241D01*
X55256Y-15012D02*
X58800D01*
X57028Y-16784D02*
Y-13241D01*
X5286Y83569D02*
X6073D01*
X5679Y83175D02*
Y83962D01*
X5286Y87899D02*
X6073D01*
X5679Y87506D02*
Y88293D01*
X5286Y92230D02*
X6073D01*
X5679Y91836D02*
Y92624D01*
X9616Y83569D02*
X10404D01*
X10010Y83175D02*
Y83962D01*
X9616Y87899D02*
X10404D01*
X10010Y87506D02*
Y88293D01*
X9616Y92230D02*
X10404D01*
X10010Y91836D02*
Y92624D01*
X13947Y83569D02*
X14734D01*
X14341Y83175D02*
Y83962D01*
X13947Y87899D02*
X14734D01*
X14341Y87506D02*
Y88293D01*
X13947Y92230D02*
X14734D01*
X14341Y91836D02*
Y92624D01*
X135110Y-3213D02*
X135897D01*
X135503Y-3607D02*
Y-2819D01*
X130779Y-3213D02*
X131566D01*
X131173Y-3607D02*
Y-2819D01*
X34433Y97013D02*
X35633D01*
X35033Y96413D02*
Y97613D01*
X34433Y38543D02*
X35633D01*
X35033Y37943D02*
Y39143D01*
X42974Y118666D02*
X44174D01*
X43574Y118066D02*
Y119266D01*
X42974Y69606D02*
X44174D01*
X43574Y69006D02*
Y70206D01*
X46040Y129360D02*
X47240D01*
X46640Y128760D02*
Y129960D01*
X44200Y124950D02*
X45400D01*
X44800Y124350D02*
Y125550D01*
X70122Y110792D02*
X71322D01*
X70722Y110192D02*
Y111392D01*
X70330Y102840D02*
X71530D01*
X70930Y102240D02*
Y103440D01*
X52080Y18820D02*
X53280D01*
X52680Y18220D02*
Y19420D01*
X71460Y73040D02*
X72660D01*
X72060Y72440D02*
Y73640D01*
X73060Y29500D02*
X74260D01*
X73660Y28900D02*
Y30100D01*
X28451Y115659D02*
X29651D01*
X29051Y115059D02*
Y116259D01*
X23450Y133430D02*
X24650D01*
X24050Y132830D02*
Y134030D01*
X93162Y112018D02*
X94362D01*
X93762Y111418D02*
Y112618D01*
X132680Y77010D02*
X133880D01*
X133280Y76410D02*
Y77610D01*
X175728Y54298D02*
X176928D01*
X176328Y53698D02*
Y54898D01*
X181440Y67000D02*
X182640D01*
X182040Y66400D02*
Y67600D01*
X240150Y67000D02*
X241350D01*
X240750Y66400D02*
Y67600D01*
X21030Y64540D02*
X22230D01*
X21630Y63940D02*
Y65140D01*
X14570Y62050D02*
X15770D01*
X15170Y61450D02*
Y62650D01*
X103950Y63200D02*
X105150D01*
X104550Y62600D02*
Y63800D01*
X99020Y63210D02*
X100220D01*
X99620Y62610D02*
Y63810D01*
X135784Y70564D02*
X136984D01*
X136384Y69964D02*
Y71164D01*
X135946Y63424D02*
X137146D01*
X136546Y62824D02*
Y64024D01*
X71870Y69350D02*
X73070D01*
X72470Y68750D02*
Y69950D01*
X268990Y24800D02*
X270190D01*
X269590Y24200D02*
Y25400D01*
X269080Y17800D02*
X270280D01*
X269680Y17200D02*
Y18400D01*
X294300Y-8010D02*
X295500D01*
X294900Y-8610D02*
Y-7410D01*
X294300Y29170D02*
X295500D01*
X294900Y28570D02*
Y29770D01*
X299598Y144508D02*
X300798D01*
X300198Y143908D02*
Y145108D01*
X137340Y98860D02*
X138540D01*
X137940Y98260D02*
Y99460D01*
X137984Y95044D02*
X139184D01*
X138584Y94444D02*
Y95644D01*
X235930Y94390D02*
X237130D01*
X236530Y93790D02*
Y94990D01*
X250230Y94390D02*
X251430D01*
X250830Y93790D02*
Y94990D01*
X203070Y117910D02*
X204270D01*
X203670Y117310D02*
Y118510D01*
X191900Y117910D02*
X193100D01*
X192500Y117310D02*
Y118510D01*
X233140Y126410D02*
X234340D01*
X233740Y125810D02*
Y127010D01*
X187710Y126410D02*
X188910D01*
X188310Y125810D02*
Y127010D01*
X249120Y126100D02*
X250320D01*
X249720Y125500D02*
Y126700D01*
X205023Y112490D02*
X206223D01*
X205623Y111890D02*
Y113090D01*
X232040Y108990D02*
X233240D01*
X232640Y108390D02*
Y109590D01*
X273440Y119960D02*
X274640D01*
X274040Y119360D02*
Y120560D01*
X231849Y60931D02*
X233049D01*
X232449Y60331D02*
Y61531D01*
X239120Y160170D02*
X240320D01*
X239720Y159570D02*
Y160770D01*
X284280Y160170D02*
X285480D01*
X284880Y159570D02*
Y160770D01*
X311380Y23580D02*
X312580D01*
X311980Y22980D02*
Y24180D01*
X291582Y54298D02*
X292782D01*
X292182Y53698D02*
Y54898D01*
X291582Y96392D02*
X292782D01*
X292182Y95792D02*
Y96992D01*
X114380Y-1490D02*
X115580D01*
X114980Y-2090D02*
Y-890D01*
X213608Y32798D02*
X214808D01*
X214208Y32198D02*
Y33398D01*
X265920Y72940D02*
X267120D01*
X266520Y72340D02*
Y73540D01*
X269000Y69450D02*
X270200D01*
X269600Y68850D02*
Y70050D01*
X73477Y62883D02*
X74677D01*
X74077Y62283D02*
Y63483D01*
X77414Y62636D02*
X78614D01*
X78014Y62036D02*
Y63236D01*
X81351Y62699D02*
X82551D01*
X81951Y62099D02*
Y63299D01*
X85288Y62562D02*
X86488D01*
X85888Y61962D02*
Y63162D01*
X135405Y81265D02*
X136605D01*
X136005Y80665D02*
Y81865D01*
X107040Y70010D02*
X108240D01*
X107640Y69410D02*
Y70610D01*
X108150Y73160D02*
X109350D01*
X108750Y72560D02*
Y73760D01*
X108450Y76650D02*
X109650D01*
X109050Y76050D02*
Y77250D01*
X112060Y76920D02*
X113260D01*
X112660Y76320D02*
Y77520D01*
X115590Y77380D02*
X116790D01*
X116190Y76780D02*
Y77980D01*
X116784Y125896D02*
X117984D01*
X117384Y125296D02*
Y126496D01*
X123596Y118666D02*
X124796D01*
X124196Y118066D02*
Y119266D01*
X97099Y44169D02*
X98299D01*
X97699Y43569D02*
Y44769D01*
X93980Y28220D02*
X95180D01*
X94580Y27620D02*
Y28820D01*
X135110Y5448D02*
X135897D01*
X135503Y5055D02*
Y5842D01*
X130779Y5448D02*
X131566D01*
X131173Y5055D02*
Y5842D01*
X135110Y1118D02*
X135897D01*
X135503Y724D02*
Y1511D01*
X130779Y1118D02*
X131566D01*
X131173Y724D02*
Y1511D01*
X71509Y44081D02*
X72709D01*
X72109Y43481D02*
Y44681D01*
X114816Y112454D02*
X116016D01*
X115416Y111854D02*
Y113054D01*
X112847Y125833D02*
X114047D01*
X113447Y125233D02*
Y126433D01*
X110879Y112491D02*
X112079D01*
X111479Y111891D02*
Y113091D01*
X115130Y81305D02*
X116330D01*
X115730Y80705D02*
Y81905D01*
X119200Y81750D02*
X120400D01*
X119800Y81150D02*
Y82350D01*
X172728Y31322D02*
X173928D01*
X173328Y30722D02*
Y31922D01*
X97099Y30799D02*
X98299D01*
X97699Y30199D02*
Y31399D01*
X93980Y42430D02*
X95180D01*
X94580Y41830D02*
Y43030D01*
X83320Y44110D02*
X84520D01*
X83920Y43510D02*
Y44710D01*
X75446Y44014D02*
X76646D01*
X76046Y43414D02*
Y44614D01*
X79383Y44077D02*
X80583D01*
X79983Y43477D02*
Y44677D01*
X63288Y31962D02*
X64488D01*
X63888Y31362D02*
Y32562D01*
X213880Y2300D02*
X215080D01*
X214480Y1700D02*
Y2900D01*
X223229Y8401D02*
X224429D01*
X223829Y7801D02*
Y9001D01*
X227170Y8440D02*
X228370D01*
X227770Y7840D02*
Y9040D01*
X231103Y8527D02*
X232303D01*
X231703Y7927D02*
Y9127D01*
X235040Y8510D02*
X236240D01*
X235640Y7910D02*
Y9110D01*
X170560Y68800D02*
X171760D01*
X171160Y68200D02*
Y69400D01*
X170610Y73580D02*
X171810D01*
X171210Y72980D02*
Y74180D01*
X165890Y73540D02*
X167090D01*
X166490Y72940D02*
Y74140D01*
X165930Y68800D02*
X167130D01*
X166530Y68200D02*
Y69400D01*
X184000Y-19940D02*
X185200D01*
X184600Y-20540D02*
Y-19340D01*
X225198Y-2822D02*
X226397D01*
X225798Y-3422D02*
Y-2222D01*
X233071Y-2369D02*
X234272D01*
X233671Y-2968D02*
Y-1768D01*
X229134Y-2754D02*
X230334D01*
X229734Y-3354D02*
Y-2155D01*
X237009Y-2409D02*
X238209D01*
X237609Y-3008D02*
Y-1808D01*
X240946Y-2664D02*
X242145D01*
X241546Y-3264D02*
Y-2065D01*
X244882Y-2617D02*
X246082D01*
X245482Y-3218D02*
Y-2018D01*
X248819Y-2740D02*
X250020D01*
X249419Y-3340D02*
Y-2141D01*
X252757Y-2926D02*
X253957D01*
X253357Y-3526D02*
Y-2327D01*
X256694Y-3036D02*
X257893D01*
X257294Y-3636D02*
Y-2437D01*
X260630Y-3049D02*
X261830D01*
X261230Y-3650D02*
Y-2450D01*
X238977Y9793D02*
X240177D01*
X239577Y9193D02*
Y10393D01*
X242914Y10626D02*
X244114D01*
X243514Y10026D02*
Y11226D01*
X246851Y11220D02*
X248051D01*
X247451Y10620D02*
Y11820D01*
X250788Y11052D02*
X251988D01*
X251388Y10452D02*
Y11652D01*
X254725Y10945D02*
X255925D01*
X255325Y10345D02*
Y11545D01*
X258662Y10768D02*
X259862D01*
X259262Y10168D02*
Y11368D01*
X262599Y10761D02*
X263799D01*
X263199Y10161D02*
Y11361D01*
X12350Y158900D02*
X13550D01*
X12950Y158300D02*
Y159500D01*
X22220Y158980D02*
X23420D01*
X22820Y158380D02*
Y159580D01*
X33340Y159120D02*
X34540D01*
X33940Y158520D02*
Y159720D01*
X14180Y151220D02*
X15380D01*
X14780Y150620D02*
Y151820D01*
X14180Y137260D02*
X15380D01*
X14780Y136660D02*
Y137860D01*
X22950Y147130D02*
X24150D01*
X23550Y146530D02*
Y147730D01*
X26250Y138350D02*
X27450D01*
X26850Y137750D02*
Y138950D01*
X31730Y150860D02*
X32930D01*
X32330Y150260D02*
Y151460D01*
X44230Y152540D02*
X45430D01*
X44830Y151940D02*
Y153140D01*
X43650Y140840D02*
X44850D01*
X44250Y140240D02*
Y141440D01*
X-16390Y132800D02*
X-15190D01*
X-15790Y132200D02*
Y133400D01*
X-19310Y123360D02*
X-18110D01*
X-18710Y122760D02*
Y123960D01*
X-10540Y114370D02*
X-9340D01*
X-9940Y113770D02*
Y114970D01*
X-2790Y122780D02*
X-1590D01*
X-2190Y122180D02*
Y123380D01*
X22880Y101790D02*
X24080D01*
X23480Y101190D02*
Y102390D01*
X48480Y114370D02*
X49680D01*
X49080Y113770D02*
Y114970D01*
X62590Y115540D02*
X63790D01*
X63190Y114940D02*
Y116140D01*
X53450Y121970D02*
X54650D01*
X54050Y121370D02*
Y122570D01*
X64200Y121900D02*
X65400D01*
X64800Y121300D02*
Y122500D01*
X-6920Y76160D02*
X-5720D01*
X-6320Y75560D02*
Y76760D01*
X-6110Y69800D02*
X-4910D01*
X-5510Y69200D02*
Y70400D01*
X-7830Y63530D02*
X-6630D01*
X-7230Y62930D02*
Y64130D01*
X9140Y58280D02*
X10340D01*
X9740Y57680D02*
Y58880D01*
X2880Y52830D02*
X4080D01*
X3480Y52230D02*
Y53430D01*
X21360Y43530D02*
X22560D01*
X21960Y42930D02*
Y44130D01*
X41770Y62720D02*
X42970D01*
X42370Y62120D02*
Y63320D01*
X42070Y54740D02*
X43270D01*
X42670Y54140D02*
Y55340D01*
X47830Y59900D02*
X49030D01*
X48430Y59300D02*
Y60500D01*
X48940Y76660D02*
X50140D01*
X49540Y76060D02*
Y77260D01*
X55200Y82120D02*
X56400D01*
X55800Y81520D02*
Y82720D01*
X65610Y43130D02*
X66810D01*
X66210Y42530D02*
Y43730D01*
X60410Y53860D02*
X61610D01*
X61010Y53260D02*
Y54460D01*
X45500Y43290D02*
X46700D01*
X46100Y42690D02*
Y43890D01*
X43080Y27230D02*
X44280D01*
X43680Y26630D02*
Y27830D01*
X40300Y21310D02*
X41500D01*
X40900Y20710D02*
Y21910D01*
X47580Y20230D02*
X48780D01*
X48180Y19630D02*
Y20830D01*
X55660Y27450D02*
X56860D01*
X56260Y26850D02*
Y28050D01*
X12480Y34170D02*
X13680D01*
X13080Y33570D02*
Y34770D01*
X-11470Y36160D02*
X-10270D01*
X-10870Y35560D02*
Y36760D01*
X-17930Y40350D02*
X-16730D01*
X-17330Y39750D02*
Y40950D01*
X-10580Y43080D02*
X-9380D01*
X-9980Y42480D02*
Y43680D01*
X-17400Y30170D02*
X-16200D01*
X-16800Y29570D02*
Y30770D01*
X-17720Y20720D02*
X-16520D01*
X-17120Y20120D02*
Y21320D01*
X-17190Y10020D02*
X-15990D01*
X-16590Y9420D02*
Y10620D01*
X-10260Y26080D02*
X-9060D01*
X-9660Y25480D02*
Y26680D01*
X-12150Y12960D02*
X-10950D01*
X-11550Y12360D02*
Y13560D01*
X7270Y12750D02*
X8470D01*
X7870Y12150D02*
Y13350D01*
X13570Y6870D02*
X14770D01*
X14170Y6270D02*
Y7470D01*
X16090Y-2160D02*
X17290D01*
X16690Y-2760D02*
Y-1560D01*
X11890Y-10660D02*
X13090D01*
X12490Y-11260D02*
Y-10060D01*
X13990Y-18120D02*
X15190D01*
X14590Y-18720D02*
Y-17520D01*
X32570Y-20220D02*
X33770D01*
X33170Y-20820D02*
Y-19620D01*
X32670Y-12660D02*
X33870D01*
X33270Y-13260D02*
Y-12060D01*
X25850Y-1950D02*
X27050D01*
X26450Y-2550D02*
Y-1350D01*
X29630Y2670D02*
X30830D01*
X30230Y2070D02*
Y3270D01*
X33090Y-3840D02*
X34290D01*
X33690Y-4440D02*
Y-3240D01*
X37500Y-6360D02*
X38700D01*
X38100Y-6960D02*
Y-5760D01*
X37400Y-15700D02*
X38600D01*
X38000Y-16300D02*
Y-15100D01*
X47160Y-7510D02*
X48360D01*
X47760Y-8110D02*
Y-6910D01*
X52620Y-7830D02*
X53820D01*
X53220Y-8430D02*
Y-7230D01*
X48310Y-18120D02*
X49510D01*
X48910Y-18720D02*
Y-17520D01*
X55530Y6100D02*
X56730D01*
X56130Y5500D02*
Y6700D01*
X59800Y-1520D02*
X61000D01*
X60400Y-2120D02*
Y-920D01*
X65510Y-7230D02*
X66710D01*
X66110Y-7830D02*
Y-6630D01*
X67640Y-530D02*
X68840D01*
X68240Y-1130D02*
Y70D01*
X97920Y22870D02*
X99120D01*
X98520Y22270D02*
Y23470D01*
X102330Y18350D02*
X103530D01*
X102930Y17750D02*
Y18950D01*
X105310Y23470D02*
X106510D01*
X105910Y22870D02*
Y24070D01*
X112330Y19180D02*
X113530D01*
X112930Y18580D02*
Y19780D01*
X117570Y21560D02*
X118770D01*
X118170Y20960D02*
Y22160D01*
X124600Y21920D02*
X125800D01*
X125200Y21320D02*
Y22520D01*
X90800Y-19040D02*
X92000D01*
X91400Y-19640D02*
Y-18440D01*
X115150Y-9160D02*
X116350D01*
X115750Y-9760D02*
Y-8560D01*
X116330Y-18220D02*
X117530D01*
X116930Y-18820D02*
Y-17620D01*
X113740Y3660D02*
X114940D01*
X114340Y3060D02*
Y4260D01*
X141210Y43360D02*
X142410D01*
X141810Y42760D02*
Y43960D01*
X152130Y2640D02*
X153330D01*
X152730Y2040D02*
Y3240D01*
X154690Y18200D02*
X155890D01*
X155290Y17600D02*
Y18800D01*
X163520Y18300D02*
X164720D01*
X164120Y17700D02*
Y18900D01*
X169210Y-6280D02*
X170410D01*
X169810Y-6880D02*
Y-5680D01*
X175470Y-6280D02*
X176670D01*
X176070Y-6880D02*
Y-5680D01*
X181640Y-14250D02*
X182840D01*
X182240Y-14850D02*
Y-13650D01*
X199200Y18870D02*
X200400D01*
X199800Y18270D02*
Y19470D01*
X183350Y34240D02*
X184550D01*
X183950Y33640D02*
Y34840D01*
X191040Y33380D02*
X192240D01*
X191640Y32780D02*
Y33980D01*
X76120Y110180D02*
X77320D01*
X76720Y109580D02*
Y110780D01*
X83780Y110260D02*
X84980D01*
X84380Y109660D02*
Y110860D01*
X104820Y110340D02*
X106020D01*
X105420Y109740D02*
Y110940D01*
X111330Y106160D02*
X112530D01*
X111930Y105560D02*
Y106760D01*
X113660Y99560D02*
X114860D01*
X114260Y98960D02*
Y100160D01*
X106400Y102600D02*
X107600D01*
X107000Y102000D02*
Y103200D01*
X109120Y94240D02*
X110320D01*
X109720Y93640D02*
Y94840D01*
X103400Y90960D02*
X104600D01*
X104000Y90360D02*
Y91560D01*
X100670Y98030D02*
X101870D01*
X101270Y97430D02*
Y98630D01*
X88480Y100710D02*
X89680D01*
X89080Y100110D02*
Y101310D01*
X81370Y98540D02*
X82570D01*
X81970Y97940D02*
Y99140D01*
X81210Y88710D02*
X82410D01*
X81810Y88110D02*
Y89310D01*
X88440Y93560D02*
X89640D01*
X89040Y92960D02*
Y94160D01*
X84880Y75090D02*
X86080D01*
X85480Y74490D02*
Y75690D01*
X88830Y79910D02*
X90030D01*
X89430Y79310D02*
Y80510D01*
X101150Y82670D02*
X102350D01*
X101750Y82070D02*
Y83270D01*
X97630Y77890D02*
X98830D01*
X98230Y77290D02*
Y78490D01*
X48030Y69250D02*
X49230D01*
X48630Y68650D02*
Y69850D01*
X79530Y157640D02*
X80730D01*
X80130Y157040D02*
Y158240D01*
X79830Y149010D02*
X81030D01*
X80430Y148410D02*
Y149610D01*
X115070Y156300D02*
X116270D01*
X115670Y155700D02*
Y156900D01*
X114330Y149010D02*
X115530D01*
X114930Y148410D02*
Y149610D01*
X89500Y134890D02*
X90700D01*
X90100Y134290D02*
Y135490D01*
X99760Y136520D02*
X100960D01*
X100360Y135920D02*
Y137120D01*
X106150Y132660D02*
X107350D01*
X106750Y132060D02*
Y133260D01*
X111950Y135030D02*
X113150D01*
X112550Y134430D02*
Y135630D01*
X103920Y127150D02*
X105120D01*
X104520Y126550D02*
Y127750D01*
X81910Y131910D02*
X83110D01*
X82510Y131310D02*
Y132510D01*
X86370Y126860D02*
X87570D01*
X86970Y126260D02*
Y127460D01*
X135150Y160910D02*
X136350D01*
X135750Y160310D02*
Y161510D01*
X144510Y159720D02*
X145710D01*
X145110Y159120D02*
Y160320D01*
X154480Y160310D02*
X155680D01*
X155080Y159710D02*
Y160910D01*
X148530Y154660D02*
X149730D01*
X149130Y154060D02*
Y155260D01*
X141690Y153920D02*
X142890D01*
X142290Y153320D02*
Y154520D01*
X141990Y146340D02*
X143190D01*
X142590Y145740D02*
Y146940D01*
X142580Y136970D02*
X143780D01*
X143180Y136370D02*
Y137570D01*
X151200Y133100D02*
X152400D01*
X151800Y132500D02*
Y133700D01*
X149420Y144250D02*
X150620D01*
X150020Y143650D02*
Y144850D01*
X154030Y153030D02*
X155230D01*
X154630Y152430D02*
Y153630D01*
X125030Y122540D02*
X126230D01*
X125630Y121940D02*
Y123140D01*
X134910Y122310D02*
X136110D01*
X135510Y121710D02*
Y122910D01*
X146210Y122180D02*
X147410D01*
X146810Y121580D02*
Y122780D01*
X155670Y122690D02*
X156870D01*
X156270Y122090D02*
Y123290D01*
X165140Y122430D02*
X166340D01*
X165740Y121830D02*
Y123030D01*
X128280Y115740D02*
X129480D01*
X128880Y115140D02*
Y116340D01*
X138130Y115620D02*
X139330D01*
X138730Y115020D02*
Y116220D01*
X148420Y115680D02*
X149620D01*
X149020Y115080D02*
Y116280D01*
X162430Y115870D02*
X163630D01*
X163030Y115270D02*
Y116470D01*
X169680Y115560D02*
X170880D01*
X170280Y114960D02*
Y116160D01*
X153150Y104510D02*
X154350D01*
X153750Y103910D02*
Y105110D01*
X165140Y103750D02*
X166340D01*
X165740Y103150D02*
Y104350D01*
X172590Y103940D02*
X173790D01*
X173190Y103340D02*
Y104540D01*
X164890Y133290D02*
X166090D01*
X165490Y132690D02*
Y133890D01*
X164610Y140800D02*
X165810D01*
X165210Y140200D02*
Y141400D01*
X164370Y157240D02*
X165570D01*
X164970Y156640D02*
Y157840D01*
X165580Y148780D02*
X166780D01*
X166180Y148180D02*
Y149380D01*
X170900Y157490D02*
X172100D01*
X171500Y156890D02*
Y158090D01*
X181540Y158700D02*
X182740D01*
X182140Y158100D02*
Y159300D01*
X193630Y159420D02*
X194830D01*
X194230Y158820D02*
Y160020D01*
X205610Y159900D02*
X206810D01*
X206210Y159300D02*
Y160500D01*
X212380Y158450D02*
X213580D01*
X212980Y157850D02*
Y159050D01*
X184440Y150830D02*
X185640D01*
X185040Y150230D02*
Y151430D01*
X182270Y141400D02*
X183470D01*
X182870Y140800D02*
Y142000D01*
X173200Y138740D02*
X174400D01*
X173800Y138140D02*
Y139340D01*
X175860Y129430D02*
X177060D01*
X176460Y128830D02*
Y130030D01*
X182140Y122050D02*
X183340D01*
X182740Y121450D02*
Y122650D01*
X184440Y132450D02*
X185640D01*
X185040Y131850D02*
Y133050D01*
X192420Y138500D02*
X193620D01*
X193020Y137900D02*
Y139100D01*
X192420Y148660D02*
X193620D01*
X193020Y148060D02*
Y149260D01*
X200770Y154580D02*
X201970D01*
X201370Y153980D02*
Y155180D01*
X199440Y143820D02*
X200640D01*
X200040Y143220D02*
Y144420D01*
X199800Y133540D02*
X201000D01*
X200400Y132940D02*
Y134140D01*
X192180Y131480D02*
X193380D01*
X192780Y130880D02*
Y132080D01*
X207300Y137410D02*
X208500D01*
X207900Y136810D02*
Y138010D01*
X213100Y150710D02*
X214300D01*
X213700Y150110D02*
Y151310D01*
X213220Y139710D02*
X214420D01*
X213820Y139110D02*
Y140310D01*
X221570Y137170D02*
X222770D01*
X222170Y136570D02*
Y137770D01*
X221980Y157650D02*
X223180D01*
X222580Y157050D02*
Y158250D01*
X230030Y159920D02*
X231230D01*
X230630Y159320D02*
Y160520D01*
X227490Y152080D02*
X228690D01*
X228090Y151480D02*
Y152680D01*
X226730Y143760D02*
X227930D01*
X227330Y143160D02*
Y144360D01*
X232460Y149270D02*
X233660D01*
X233060Y148670D02*
Y149870D01*
X245700Y154460D02*
X246900D01*
X246300Y153860D02*
Y155060D01*
X253320Y154030D02*
X254520D01*
X253920Y153430D02*
Y154630D01*
X246240Y148090D02*
X247440D01*
X246840Y147490D02*
Y148690D01*
X246620Y141930D02*
X247820D01*
X247220Y141330D02*
Y142530D01*
X246830Y137330D02*
X248030D01*
X247430Y136730D02*
Y137930D01*
X253910Y147600D02*
X255110D01*
X254510Y147000D02*
Y148200D01*
X207090Y122460D02*
X208290D01*
X207690Y121860D02*
Y123060D01*
X199980Y113190D02*
X201180D01*
X200580Y112590D02*
Y113790D01*
X219800Y103440D02*
X221000D01*
X220400Y102840D02*
Y104040D01*
X225730Y107750D02*
X226930D01*
X226330Y107150D02*
Y108350D01*
X227500Y102150D02*
X228700D01*
X228100Y101550D02*
Y102750D01*
X213410Y90750D02*
X214610D01*
X214010Y90150D02*
Y91350D01*
X245100Y104990D02*
X246300D01*
X245700Y104390D02*
Y105590D01*
X239940Y101700D02*
X241140D01*
X240540Y101100D02*
Y102300D01*
X245640Y98940D02*
X246840D01*
X246240Y98340D02*
Y99540D01*
X240300Y90930D02*
X241500D01*
X240900Y90330D02*
Y91530D01*
X237000Y60570D02*
X238200D01*
X237600Y59970D02*
Y61170D01*
X155630Y81670D02*
X156830D01*
X156230Y81070D02*
Y82270D01*
X177890Y81940D02*
X179090D01*
X178490Y81340D02*
Y82540D01*
X178870Y63060D02*
X180070D01*
X179470Y62460D02*
Y63660D01*
X123120Y-17670D02*
X124320D01*
X123720Y-18270D02*
Y-17070D01*
X252020Y-18530D02*
X253220D01*
X252620Y-19130D02*
Y-17930D01*
X259190Y-12980D02*
X260390D01*
X259790Y-13580D02*
Y-12380D01*
X264030Y-6820D02*
X265230D01*
X264630Y-7420D02*
Y-6220D01*
X261580Y-18530D02*
X262780D01*
X262180Y-19130D02*
Y-17930D01*
X276100Y-18890D02*
X277300D01*
X276700Y-19490D02*
Y-18290D01*
X281830Y-14470D02*
X283030D01*
X282430Y-15070D02*
Y-13870D01*
X280870Y-7720D02*
X282070D01*
X281470Y-8320D02*
Y-7120D01*
X278070Y-130D02*
X279270D01*
X278670Y-730D02*
Y470D01*
X275020Y3930D02*
X276220D01*
X275620Y3330D02*
Y4530D01*
X268450Y4110D02*
X269650D01*
X269050Y3510D02*
Y4710D01*
X267310Y11750D02*
X268510D01*
X267910Y11150D02*
Y12350D01*
X261940Y17190D02*
X263140D01*
X262540Y16590D02*
Y17790D01*
X257460Y41740D02*
X258660D01*
X258060Y41140D02*
Y42340D01*
X261880Y37020D02*
X263080D01*
X262480Y36420D02*
Y37620D01*
X273950Y43770D02*
X275150D01*
X274550Y43170D02*
Y44370D01*
X273050Y37560D02*
X274250D01*
X273650Y36960D02*
Y38160D01*
X280760Y39290D02*
X281960D01*
X281360Y38690D02*
Y39890D01*
X289300Y39710D02*
X290500D01*
X289900Y39110D02*
Y40310D01*
X288640Y-15100D02*
X289840D01*
X289240Y-15700D02*
Y-14500D01*
X330730Y-16170D02*
X331930D01*
X331330Y-16770D02*
Y-15570D01*
X325390Y-2160D02*
X326590D01*
X325990Y-2760D02*
Y-1560D01*
X353490Y5510D02*
X354690D01*
X354090Y4910D02*
Y6110D01*
X316640Y23770D02*
X317840D01*
X317240Y23170D02*
Y24370D01*
X317220Y16350D02*
X318420D01*
X317820Y15750D02*
Y16950D01*
X321720Y23600D02*
X322920D01*
X322320Y23000D02*
Y24200D01*
X335150Y21930D02*
X336350D01*
X335750Y21330D02*
Y22530D01*
X343230Y24350D02*
X344430D01*
X343830Y23750D02*
Y24950D01*
X348150Y30100D02*
X349350D01*
X348750Y29500D02*
Y30700D01*
X342150Y33770D02*
X343350D01*
X342750Y33170D02*
Y34370D01*
X351740Y35850D02*
X352940D01*
X352340Y35250D02*
Y36450D01*
X352740Y23600D02*
X353940D01*
X353340Y23000D02*
Y24200D01*
X352320Y15930D02*
X353520D01*
X352920Y15330D02*
Y16530D01*
X356990Y13510D02*
X358190D01*
X357590Y12910D02*
Y14110D01*
X358070Y22850D02*
X359270D01*
X358670Y22250D02*
Y23450D01*
X357570Y36600D02*
X358770D01*
X358170Y36000D02*
Y37200D01*
X307250Y26270D02*
X308450D01*
X307850Y25670D02*
Y26870D01*
X325810Y40940D02*
X327010D01*
X326410Y40340D02*
Y41540D01*
X331230Y38210D02*
X332430D01*
X331830Y37610D02*
Y38810D01*
X336800Y43600D02*
X338000D01*
X337400Y43000D02*
Y44200D01*
X356700Y44120D02*
X357900D01*
X357300Y43520D02*
Y44720D01*
X326820Y57350D02*
X328020D01*
X327420Y56750D02*
Y57950D01*
X333210Y54080D02*
X334410D01*
X333810Y53480D02*
Y54680D01*
X337620Y57960D02*
X338820D01*
X338220Y57360D02*
Y58560D01*
X342560Y55300D02*
X343760D01*
X343160Y54700D02*
Y55900D01*
X342410Y62900D02*
X343610D01*
X343010Y62300D02*
Y63500D01*
X341720Y69900D02*
X342920D01*
X342320Y69300D02*
Y70500D01*
X341870Y77960D02*
X343070D01*
X342470Y77360D02*
Y78560D01*
X347200Y91490D02*
X348400D01*
X347800Y90890D02*
Y92090D01*
X340730Y91570D02*
X341930D01*
X341330Y90970D02*
Y92170D01*
X333050Y91570D02*
X334250D01*
X333650Y90970D02*
Y92170D01*
X327120Y91490D02*
X328320D01*
X327720Y90890D02*
Y92090D01*
X329020Y101530D02*
X330220D01*
X329620Y100930D02*
Y102130D01*
X339740Y101450D02*
X340940D01*
X340340Y100850D02*
Y102050D01*
X346360Y101760D02*
X347560D01*
X346960Y101160D02*
Y102360D01*
X342560Y110960D02*
X343760D01*
X343160Y110360D02*
Y111560D01*
X347880Y116960D02*
X349080D01*
X348480Y116360D02*
Y117560D01*
X357380Y115220D02*
X358580D01*
X357980Y114620D02*
Y115820D01*
X334950Y105330D02*
X336150D01*
X335550Y104730D02*
Y105930D01*
X328870Y111870D02*
X330070D01*
X329470Y111270D02*
Y112470D01*
X317470Y113010D02*
X318670D01*
X318070Y112410D02*
Y113610D01*
X308040Y112250D02*
X309240D01*
X308640Y111650D02*
Y112850D01*
X308270Y119090D02*
X309470D01*
X308870Y118490D02*
Y119690D01*
X307730Y126620D02*
X308930D01*
X308330Y126020D02*
Y127220D01*
X307430Y132630D02*
X308630D01*
X308030Y132030D02*
Y133230D01*
X307050Y138480D02*
X308250D01*
X307650Y137880D02*
Y139080D01*
X307200Y145400D02*
X308400D01*
X307800Y144800D02*
Y146000D01*
X304920Y151940D02*
X306120D01*
X305520Y151340D02*
Y152540D01*
X305760Y159090D02*
X306960D01*
X306360Y158490D02*
Y159690D01*
X316930Y159240D02*
X318130D01*
X317530Y158640D02*
Y159840D01*
X312300Y153690D02*
X313500D01*
X312900Y153090D02*
Y154290D01*
X314120Y145930D02*
X315320D01*
X314720Y145330D02*
Y146530D01*
X314200Y139010D02*
X315400D01*
X314800Y138410D02*
Y139610D01*
X314580Y133460D02*
X315780D01*
X315180Y132860D02*
Y134060D01*
X317390Y127000D02*
X318590D01*
X317990Y126400D02*
Y127600D01*
X317010Y120920D02*
X318210D01*
X317610Y120320D02*
Y121520D01*
X325370Y118640D02*
X326570D01*
X325970Y118040D02*
Y119240D01*
X324690Y127300D02*
X325890D01*
X325290Y126700D02*
Y127900D01*
X321950Y137260D02*
X323150D01*
X322550Y136660D02*
Y137860D01*
X320890Y146620D02*
X322090D01*
X321490Y146020D02*
Y147220D01*
X325300Y156270D02*
X326500D01*
X325900Y155670D02*
Y156870D01*
X331910Y157950D02*
X333110D01*
X332510Y157350D02*
Y158550D01*
X336100Y116130D02*
X337300D01*
X336700Y115530D02*
Y116730D01*
X333280Y125560D02*
X334480D01*
X333880Y124960D02*
Y126160D01*
X344310Y125100D02*
X345510D01*
X344910Y124500D02*
Y125700D01*
X355410Y126620D02*
X356610D01*
X356010Y126020D02*
Y127220D01*
X352370Y135670D02*
X353570D01*
X352970Y135070D02*
Y136270D01*
X339440Y155510D02*
X340640D01*
X340040Y154910D02*
Y156110D01*
X285380Y137800D02*
X286580D01*
X285980Y137200D02*
Y138400D01*
X285230Y130040D02*
X286430D01*
X285830Y129440D02*
Y130640D01*
X275720Y150720D02*
X276920D01*
X276320Y150120D02*
Y151320D01*
X281280Y155060D02*
X282480D01*
X281880Y154460D02*
Y155660D01*
X283180Y149130D02*
X284380D01*
X283780Y148530D02*
Y149730D01*
X292450Y152240D02*
X293650D01*
X293050Y151640D02*
Y152840D01*
X301120Y155740D02*
X302320D01*
X301720Y155140D02*
Y156340D01*
X263410Y135360D02*
X264610D01*
X264010Y134760D02*
Y135960D01*
X263480Y129510D02*
X264680D01*
X264080Y128910D02*
Y130110D01*
X267210Y131030D02*
X268410D01*
X267810Y130430D02*
Y131630D01*
X262800Y122440D02*
X264000D01*
X263400Y121840D02*
Y123040D01*
X262800Y115750D02*
X264000D01*
X263400Y115150D02*
Y116350D01*
X250330Y112100D02*
X251530D01*
X250930Y111500D02*
Y112700D01*
X274900Y107770D02*
X276100D01*
X275500Y107170D02*
Y108370D01*
X273880Y102100D02*
X275080D01*
X274480Y101500D02*
Y102700D01*
X272760Y96060D02*
X273960D01*
X273360Y95460D02*
Y96660D01*
X272300Y90670D02*
X273500D01*
X272900Y90070D02*
Y91270D01*
X281500Y90950D02*
X282700D01*
X282100Y90350D02*
Y91550D01*
X278990Y98480D02*
X280190D01*
X279590Y97880D02*
Y99080D01*
X271370Y76730D02*
X272570D01*
X271970Y76130D02*
Y77330D01*
X281780Y76260D02*
X282980D01*
X282380Y75660D02*
Y76860D01*
X275090Y71900D02*
X276290D01*
X275690Y71300D02*
Y72500D01*
X278060Y64370D02*
X279260D01*
X278660Y63770D02*
Y64970D01*
X281870Y70220D02*
X283070D01*
X282470Y69620D02*
Y70820D01*
X274900Y59720D02*
X276100D01*
X275500Y59120D02*
Y60320D01*
X284570Y58980D02*
X285770D01*
X285170Y58380D02*
Y59580D01*
X241820Y77660D02*
X243020D01*
X242420Y77060D02*
Y78260D01*
X252220Y77570D02*
X253420D01*
X252820Y76970D02*
Y78170D01*
X262910Y77840D02*
X264110D01*
X263510Y77240D02*
Y78440D01*
X181440Y76360D02*
X182640D01*
X182040Y75760D02*
Y76960D01*
X299598Y58712D02*
X300798D01*
X300198Y58112D02*
Y59312D01*
X287850Y110700D02*
X289050D01*
X288450Y110100D02*
Y111300D01*
X295430Y75180D02*
X296630D01*
X296030Y74580D02*
Y75780D01*
X135510Y56960D02*
X136710D01*
X136110Y56360D02*
Y57560D01*
M02*
