M48
;Layer_Color=9474304
;FILE_FORMAT=2:5
INCH,LZ
;TYPE=PLATED
T1F00S00C0.00787
T2F00S00C0.01200
T3F00S00C0.03543
T4F00S00C0.11811
%
T01
X0131173Y-0003213
X0135503
Y0001118
Y0005448
X0131173
Y0001118
X0014341Y0083569
X0014341Y0087899
Y009223
X001001Y009223
Y0087899
Y0083569
X0005679
Y0087899
X0005679Y009223
T02
X-001659Y001002
X-001155Y001296
X-001712Y002072
X-00168Y003017
X-000966Y002608
X-001087Y003616
X001308Y003417
X0035033Y0038543
X004368Y002723
X00409Y002131
X004818Y002023
X005268Y001882
X005626Y002745
X0063888Y0031962
X005613Y00061
X00604Y-000152
X006824Y-000053
X006611Y-000723
X005322Y-000783
X004776Y-000751
X00381Y-000636
X003369Y-000384
X002645Y-000195
X003023Y000267
X001669Y-000216
X001417Y000687
X000787Y001275
X001249Y-001066
X001459Y-001812
X003317Y-002022
X003327Y-001266
X0038Y-00157
X004891Y-001812
X00914Y-001904
X011693Y-001822
X012372Y-001767
X011575Y-000916
X011498Y-000149
X011434Y000366
X011293Y001918
X011817Y002156
X01252Y002192
X010591Y002347
X009852Y002287
X0097699Y0030799
X009458Y002822
X010293Y001835
X007366Y00295
X015529Y00182
X016412Y00183
X0173328Y0031322
X018395Y003424
X019164Y003338
X01998Y001887
X0214208Y0032798
X021448Y00023
X0223829Y0008401
X022777Y000844
X0225798Y-0002822
X017607Y-000628
X016981
X018224Y-001425
X01846Y-001994
X015273Y000264
X0229734Y-0002754
X0233671Y-0002369
X0237609Y-0002409
X0241546Y-0002664
X0245482Y-0002617
X0249419Y-000274
X0253357Y-0002926
X0257294Y-0003036
X026123Y-0003049
X026463Y-000682
X025979Y-001298
X026218Y-001853
X025262
X02767Y-001889
X028243Y-001447
X028924Y-00151
X02949Y-000801
X028147Y-000772
X027867Y-000013
X027562Y000393
X026905Y000411
X026791Y001175
X0263199Y0010761
X0259262Y0010768
X0255325Y0010945
X0251388Y0011052
X0247451Y001122
X0243514Y0010626
X0239577Y0009793
X023564Y000851
X0231703Y0008527
X026254Y001719
X026968Y00178
X026959Y00248
X027365Y003756
X028136Y003929
X026248Y003702
X02949Y002917
X030785Y002627
X031198Y002358
X031724Y002377
X032232Y00236
X031782Y001635
X033575Y002193
X034383Y002435
X035334Y00236
X035867Y002285
X035759Y001351
X035292Y001593
X035409Y000551
X034875Y00301
X035234Y003585
X035817Y00366
X034275Y003377
X033183Y003821
X032599Y-000216
X033133Y-001617
X032641Y004094
X03374Y00436
X033381Y005408
X033822Y005796
X034316Y00553
X034301Y00629
X034232Y00699
X034247Y007796
X034133Y009157
X03478Y009149
X034696Y010176
X034034Y010145
X033555Y010533
X032962Y010153
X032947Y011187
X032597Y011864
X032529Y01273
X031799Y0127
X031761Y012092
X031807Y011301
X030864Y011225
X030887Y011909
X030833Y012662
X030803Y013263
X030765Y013848
X03078Y01454
X031472Y014593
X03148Y013901
X031518Y013346
X032255Y013726
X032149Y014662
X03259Y015627
X033251Y015795
X034004Y015551
X031753Y015924
X03129Y015369
X030552Y015194
X030172Y015574
X030636Y015909
X029305Y015224
X028378Y014913
X028188Y015506
X028488Y016017
X027632Y015072
X028598Y01378
X028583Y013004
X026781Y013103
X026408Y012951
X026401Y013536
X02634Y012244
Y011575
X027404Y011996
X02755Y010777
X027448Y01021
X027336Y009606
X02729Y009067
X02821Y009095
X027959Y009848
X0292182Y0096392
X028845Y01107
X025093Y01121
X02457Y010499
X024624Y009894
X024054Y01017
X02409Y009093
X023653Y009439
X025083
X025282Y007757
X024242Y007766
X024075Y0067
X02376Y006057
X0232449Y0060931
X02755Y005972
X027866Y006437
X028247Y007022
X028238Y007626
X027197Y007673
X027569Y00719
X02696Y006945
X026652Y007294
X026351Y007784
X029603Y007518
X0300198Y0058712
X0292182Y0054298
X028517Y005898
X02899Y003971
X027455Y004377
X025806Y004174
X032742Y005735
X032772Y009149
X033365Y009157
X03367Y011613
X034316Y011096
X034848Y011696
X035798Y011522
X035601Y012662
X035297Y013567
X034491Y01251
X033388Y012556
X0300198Y0144508
X025451Y01476
X025392Y015403
X02463Y015446
X024684Y014809
X024722Y014193
X024743Y013733
X024972Y01261
X023374Y012641
X023264Y010899
X023306Y014927
X023063Y015992
X023972Y016017
X03573Y004412
X02281Y010215
X022633Y010775
X02204Y010344
X021401Y009075
X0205623Y011249
X020058Y011319
X020367Y011791
X020769Y012246
X02079Y013741
X021382Y013971
X022217Y013717
X022733Y014376
X022809Y015208
X022258Y015765
X021298Y015845
X020621Y01599
X020137Y015458
X019423Y015942
X019302Y014866
X018504Y015083
X018214Y01587
X01715Y015749
X016497Y015724
X016618Y014878
X016521Y01408
X016549Y013329
X016574Y012243
X016303Y011587
X017028Y011556
X017319Y010394
X016574Y010375
X015375Y010451
X014902Y011568
X014681Y012218
X015627Y012269
X01518Y01331
X014318Y013697
X014259Y014634
X014229Y015392
X014913Y015466
X015463Y015303
X015508Y016031
X014511Y015972
X013575Y016091
X011567Y01563
X011493Y014901
X011255Y013503
X010675Y013266
X010452Y012715
X0113447Y0125833
X0117384Y0125896
X012563Y012254
X0124196Y0118666
X012888Y011574
X013873Y011562
X013551Y012231
X013794Y009886
X0138584Y0095044
X0136005Y0081265
X013328Y007701
X0136384Y0070564
X0136546Y0063424
X013611Y005696
X014181Y004336
X0097699Y0044169
X009458Y004243
X008392Y004411
X0079983Y0044077
X0076046Y0044014
X0078014Y0062636
X0081951Y0062699
X0085888Y0062562
X0074077Y0062883
X008548Y007509
X008943Y007991
X009823Y007789
X010175Y008267
X0104Y009096
X010972Y009424
X011426Y009956
X011193Y010616
X0111479Y0112491
X0115416Y0112454
X010542Y011034
X0107Y01026
X010127Y009803
X008908Y010071
X008904Y009356
X008197Y009854
X008181Y008871
X008438Y011026
X007672Y011018
X0093762Y0112018
X008697Y012686
X008251Y013191
X00901Y013489
X010036Y013652
X008043Y014901
X008013Y015764
X015002Y014425
X01738Y013874
X018287Y01414
X018504Y013245
X019278Y013148
X019302Y01385
X020004Y014382
X02004Y013354
X018831Y012641
X018274Y012205
X017646Y012943
X01925Y011791
X017849Y008194
X018204Y007636
Y0067
X017947Y006306
X0176328Y0054298
X017116Y00688
X016653
X016649Y007354
X017121Y007358
X015623Y008167
X01198Y008175
X011573Y0081305
X011619Y007738
X011266Y007692
X010905Y007665
X010875Y007316
X010764Y007001
X010455Y00632
X009962Y006321
X02137Y015071
X004483Y015254
X004425Y014084
X004664Y012936
X00448Y012495
X0043574Y0118666
X004908Y011437
X005405Y012197
X00648Y01219
X006319Y011554
X0070722Y0110792
X007093Y010284
X007206Y007304
X007247Y006935
X004863Y006925
X0043574Y0069606
X004237Y006272
X004267Y005474
X004843Y00599
X004954Y007666
X00558Y008212
X006101Y005386
X006621Y004313
X0072109Y0044081
X00461Y004329
X002196Y004353
X002163Y006454
X001517Y006205
X000974Y005828
X000348Y005283
X-000723Y006353
X-000551Y00698
X-000632Y007616
X-000998Y004308
X-001733Y004035
X-000994Y011437
X-000219Y012278
X-001871Y012336
X-001579Y01328
X001478Y013726
X002405Y013343
X002685Y013835
X002355Y014713
X003233Y015086
X003394Y015912
X002282Y015898
X001295Y01589
X001478Y015122
X0029051Y0115659
X002348Y010179
X0035033Y0097013
T03
X-0000758Y0019258
Y0029258
Y0039258
X0057028Y-0015012
X0067028
X0103368Y0035438
X0113368
X0123368
X0133368
X0143368
X033198Y006671
Y007671
X035299Y00764
Y00664
Y00564
Y00864
Y00964
Y01064
X-001514Y010617
Y009617
Y008617
Y007617
Y006617
Y005617
T04
X0Y0
X0338583
Y0141732
X0
M30
