G04*
G04 #@! TF.GenerationSoftware,Altium Limited,Altium Designer,21.0.8 (223)*
G04*
G04 Layer_Physical_Order=4*
G04 Layer_Color=16711680*
%FSLAX25Y25*%
%MOIN*%
G70*
G04*
G04 #@! TF.SameCoordinates,A399C05B-B16C-483E-863C-B068B867FB55*
G04*
G04*
G04 #@! TF.FilePolarity,Positive*
G04*
G01*
G75*
%ADD14C,0.01000*%
%ADD16C,0.02000*%
%ADD115C,0.03000*%
%ADD116C,0.01500*%
%ADD117C,0.01300*%
%ADD118R,0.05906X0.05906*%
%ADD119C,0.05906*%
%ADD120C,0.19685*%
%ADD121R,0.05906X0.05906*%
%ADD122C,0.01968*%
%ADD123C,0.02400*%
G36*
X323282Y164149D02*
X326874Y163676D01*
X330410Y162892D01*
X333865Y161803D01*
X337212Y160417D01*
X340425Y158744D01*
X343480Y156798D01*
X346354Y154592D01*
X349025Y152145D01*
X351473Y149474D01*
X353678Y146600D01*
X355624Y143545D01*
X357297Y140332D01*
X358683Y136985D01*
X359773Y133530D01*
X360557Y129993D01*
X361030Y126402D01*
X361167Y123263D01*
X361178Y122768D01*
X361178Y122768D01*
X361178Y122768D01*
X361178Y122768D01*
X361178Y122288D01*
Y20311D01*
X361153Y20164D01*
X361092Y19820D01*
X361092Y19819D01*
X361092D01*
X361114Y19355D01*
X361166Y18308D01*
X360969Y14301D01*
X360380Y10333D01*
X359406Y6441D01*
X358054Y2664D01*
X356339Y-962D01*
X354277Y-4403D01*
X351887Y-7625D01*
X349193Y-10598D01*
X346221Y-13292D01*
X342999Y-15681D01*
X339558Y-17744D01*
X335931Y-19459D01*
X332154Y-20810D01*
X328263Y-21785D01*
X324295Y-22374D01*
X323952Y-22390D01*
X323590Y-22046D01*
Y1460D01*
X321500Y3550D01*
X318500Y6550D01*
Y12370D01*
X317260Y13610D01*
X315710D01*
X313220Y11120D01*
Y9810D01*
Y-9980D01*
X312490Y-10710D01*
X293030D01*
X291560Y-12180D01*
Y-13580D01*
Y-22523D01*
X21342D01*
X21340Y-22494D01*
X20670Y-22523D01*
X18186D01*
X15757Y-22417D01*
X12115Y-21937D01*
X8528Y-21142D01*
X5024Y-20037D01*
X1630Y-18631D01*
X-1629Y-16935D01*
X-4728Y-14961D01*
X-7643Y-12724D01*
X-10352Y-10242D01*
X-12834Y-7533D01*
X-15070Y-4618D01*
X-17044Y-1520D01*
X-18741Y1739D01*
X-20147Y5133D01*
X-21252Y8637D01*
X-22047Y12224D01*
X-22526Y15867D01*
X-22603Y17625D01*
X-22603D01*
X-22633Y17653D01*
Y100711D01*
X-22132Y100798D01*
X-21812Y100318D01*
X-18713Y97220D01*
X-18747Y97137D01*
X-18875Y96170D01*
X-18747Y95203D01*
X-18374Y94303D01*
X-17781Y93529D01*
X-17007Y92936D01*
X-16107Y92563D01*
X-15140Y92435D01*
X-14173Y92563D01*
X-13273Y92936D01*
X-12499Y93529D01*
X-11906Y94303D01*
X-11533Y95203D01*
X-11405Y96170D01*
X-11533Y97137D01*
X-11906Y98037D01*
X-12499Y98811D01*
X-13273Y99404D01*
X-14173Y99777D01*
X-15140Y99905D01*
X-16107Y99777D01*
X-16190Y99743D01*
X-18414Y101967D01*
X-18207Y102467D01*
X-11437D01*
Y109873D01*
X-18766D01*
Y112541D01*
X-3481Y127826D01*
X20230D01*
X20913Y127962D01*
X21492Y128348D01*
X24718Y131575D01*
X24811Y131593D01*
X25456Y132024D01*
X25887Y132669D01*
X26038Y133430D01*
X25887Y134191D01*
X25456Y134836D01*
X24811Y135267D01*
X24050Y135418D01*
X23289Y135267D01*
X22644Y134836D01*
X22213Y134191D01*
X22195Y134098D01*
X19491Y131394D01*
X4028D01*
X3929Y131894D01*
X4824Y132265D01*
X6245Y133136D01*
X7513Y134219D01*
X8596Y135487D01*
X9467Y136908D01*
X10105Y138449D01*
X10494Y140070D01*
X10625Y141732D01*
X10494Y143394D01*
X10105Y145016D01*
X9467Y146556D01*
X8596Y147978D01*
X7513Y149246D01*
X6245Y150328D01*
X4824Y151199D01*
X3283Y151838D01*
X1662Y152227D01*
X0Y152357D01*
X-1662Y152227D01*
X-3283Y151838D01*
X-4824Y151199D01*
X-6245Y150328D01*
X-7513Y149246D01*
X-8596Y147978D01*
X-9467Y146556D01*
X-10105Y145016D01*
X-10494Y143394D01*
X-10625Y141732D01*
X-10494Y140070D01*
X-10105Y138449D01*
X-9467Y136908D01*
X-8596Y135487D01*
X-7513Y134219D01*
X-6245Y133136D01*
X-4824Y132265D01*
X-4349Y132068D01*
X-4177Y131456D01*
X-4220Y131394D01*
X-4903Y131258D01*
X-5482Y130872D01*
X-5482Y130872D01*
X-21812Y114542D01*
X-22132Y114062D01*
X-22633Y114149D01*
Y123428D01*
X-22619Y123925D01*
D01*
X-22633Y124422D01*
Y124553D01*
X-22647Y124624D01*
X-22458Y128451D01*
X-21886Y132311D01*
X-20938Y136096D01*
X-19623Y139770D01*
X-17955Y143297D01*
X-15949Y146644D01*
X-13624Y149778D01*
X-11004Y152669D01*
X-8113Y155290D01*
X-4978Y157614D01*
X-1632Y159620D01*
X1896Y161289D01*
X5570Y162603D01*
X9355Y163551D01*
X13215Y164124D01*
X16483Y164285D01*
X16483Y164285D01*
Y164285D01*
X16492Y164293D01*
X319678Y164298D01*
X319713Y164305D01*
X323282Y164149D01*
D02*
G37*
%LPC*%
G36*
X284880Y162158D02*
X284119Y162007D01*
X283474Y161576D01*
X283043Y160931D01*
X282892Y160170D01*
X283043Y159409D01*
X283474Y158764D01*
X284119Y158333D01*
X284880Y158182D01*
X285641Y158333D01*
X286286Y158764D01*
X286717Y159409D01*
X286868Y160170D01*
X286717Y160931D01*
X286286Y161576D01*
X285641Y162007D01*
X284880Y162158D01*
D02*
G37*
G36*
X207985Y150309D02*
X207146Y150199D01*
X206364Y149875D01*
X205692Y149359D01*
X205176Y148688D01*
X204852Y147905D01*
X204742Y147066D01*
X204852Y146227D01*
X205176Y145445D01*
X205692Y144773D01*
X206364Y144257D01*
X207146Y143933D01*
X207985Y143823D01*
X208824Y143933D01*
X209607Y144257D01*
X210278Y144773D01*
X210794Y145445D01*
X211118Y146227D01*
X211228Y147066D01*
X211118Y147905D01*
X210794Y148688D01*
X210278Y149359D01*
X209607Y149875D01*
X208824Y150199D01*
X207985Y150309D01*
D02*
G37*
G36*
X176489D02*
X175650Y150199D01*
X174867Y149875D01*
X174196Y149359D01*
X173680Y148688D01*
X173356Y147905D01*
X173246Y147066D01*
X173356Y146227D01*
X173680Y145445D01*
X174196Y144773D01*
X174867Y144257D01*
X175650Y143933D01*
X176489Y143823D01*
X177328Y143933D01*
X178111Y144257D01*
X178782Y144773D01*
X179298Y145445D01*
X179622Y146227D01*
X179732Y147066D01*
X179622Y147905D01*
X179298Y148688D01*
X178782Y149359D01*
X178111Y149875D01*
X177328Y150199D01*
X176489Y150309D01*
D02*
G37*
G36*
X338583Y152357D02*
X336920Y152227D01*
X335299Y151838D01*
X333759Y151199D01*
X332337Y150328D01*
X331069Y149246D01*
X329987Y147978D01*
X329116Y146556D01*
X328477Y145016D01*
X328088Y143394D01*
X327957Y141732D01*
X328088Y140070D01*
X328477Y138449D01*
X329116Y136908D01*
X329987Y135487D01*
X331069Y134219D01*
X332337Y133136D01*
X333759Y132265D01*
X335299Y131627D01*
X336920Y131238D01*
X338583Y131107D01*
X340245Y131238D01*
X341866Y131627D01*
X343406Y132265D01*
X344828Y133136D01*
X346096Y134219D01*
X347179Y135487D01*
X348050Y136908D01*
X348688Y138449D01*
X349077Y140070D01*
X349208Y141732D01*
X349077Y143394D01*
X348688Y145016D01*
X348050Y146556D01*
X347179Y147978D01*
X346096Y149246D01*
X344828Y150328D01*
X343406Y151199D01*
X341866Y151838D01*
X340245Y152227D01*
X338583Y152357D01*
D02*
G37*
G36*
X46640Y131348D02*
X45879Y131197D01*
X45234Y130766D01*
X44803Y130121D01*
X44652Y129360D01*
X44803Y128599D01*
X45234Y127954D01*
X45879Y127523D01*
X46640Y127372D01*
X47401Y127523D01*
X48046Y127954D01*
X48477Y128599D01*
X48628Y129360D01*
X48477Y130121D01*
X48046Y130766D01*
X47401Y131197D01*
X46640Y131348D01*
D02*
G37*
G36*
X233740Y128398D02*
X232979Y128247D01*
X232334Y127816D01*
X231903Y127171D01*
X231752Y126410D01*
X231903Y125649D01*
X232334Y125004D01*
X232979Y124573D01*
X233740Y124422D01*
X234501Y124573D01*
X235146Y125004D01*
X235577Y125649D01*
X235728Y126410D01*
X235577Y127171D01*
X235146Y127816D01*
X234501Y128247D01*
X233740Y128398D01*
D02*
G37*
G36*
X188310D02*
X187549Y128247D01*
X186904Y127816D01*
X186473Y127171D01*
X186322Y126410D01*
X186473Y125649D01*
X186904Y125004D01*
X187549Y124573D01*
X188310Y124422D01*
X189071Y124573D01*
X189716Y125004D01*
X190147Y125649D01*
X190298Y126410D01*
X190147Y127171D01*
X189716Y127816D01*
X189071Y128247D01*
X188310Y128398D01*
D02*
G37*
G36*
X249720Y128088D02*
X248959Y127937D01*
X248314Y127506D01*
X247883Y126861D01*
X247732Y126100D01*
X247883Y125339D01*
X248314Y124694D01*
X248959Y124263D01*
X249720Y124112D01*
X250481Y124263D01*
X251126Y124694D01*
X251557Y125339D01*
X251708Y126100D01*
X251557Y126861D01*
X251126Y127506D01*
X250481Y127937D01*
X249720Y128088D01*
D02*
G37*
G36*
X274040Y121948D02*
X273279Y121797D01*
X272634Y121366D01*
X272203Y120721D01*
X272052Y119960D01*
X272203Y119199D01*
X272634Y118554D01*
X273279Y118123D01*
X274040Y117972D01*
X274801Y118123D01*
X275446Y118554D01*
X275877Y119199D01*
X276028Y119960D01*
X275877Y120721D01*
X275446Y121366D01*
X274801Y121797D01*
X274040Y121948D01*
D02*
G37*
G36*
X203670Y119898D02*
X202909Y119747D01*
X202264Y119316D01*
X201833Y118671D01*
X201682Y117910D01*
X201833Y117149D01*
X202264Y116504D01*
X202909Y116073D01*
X203670Y115922D01*
X204431Y116073D01*
X205076Y116504D01*
X205507Y117149D01*
X205658Y117910D01*
X205507Y118671D01*
X205076Y119316D01*
X204431Y119747D01*
X203670Y119898D01*
D02*
G37*
G36*
X192500D02*
X191739Y119747D01*
X191094Y119316D01*
X190663Y118671D01*
X190512Y117910D01*
X190663Y117149D01*
X191094Y116504D01*
X191739Y116073D01*
X192500Y115922D01*
X193261Y116073D01*
X193906Y116504D01*
X194337Y117149D01*
X194488Y117910D01*
X194337Y118671D01*
X193906Y119316D01*
X193261Y119747D01*
X192500Y119898D01*
D02*
G37*
G36*
X205623Y114478D02*
X204862Y114327D01*
X204217Y113896D01*
X203786Y113251D01*
X203635Y112490D01*
X203786Y111729D01*
X204217Y111084D01*
X204862Y110653D01*
X205623Y110502D01*
X206384Y110653D01*
X207029Y111084D01*
X207460Y111729D01*
X207611Y112490D01*
X207460Y113251D01*
X207029Y113896D01*
X206384Y114327D01*
X205623Y114478D01*
D02*
G37*
G36*
X232640Y110978D02*
X231879Y110827D01*
X231234Y110396D01*
X230803Y109751D01*
X230652Y108990D01*
X230803Y108229D01*
X231234Y107584D01*
X231879Y107153D01*
X232640Y107002D01*
X233401Y107153D01*
X234046Y107584D01*
X234477Y108229D01*
X234628Y108990D01*
X234477Y109751D01*
X234046Y110396D01*
X233401Y110827D01*
X232640Y110978D01*
D02*
G37*
G36*
X70722Y112780D02*
X69961Y112629D01*
X69316Y112198D01*
X68885Y111553D01*
X68734Y110792D01*
X68885Y110031D01*
X69316Y109386D01*
X69961Y108955D01*
X70722Y108804D01*
X70877Y108835D01*
X72615Y107097D01*
Y104659D01*
X72115Y104393D01*
X71691Y104677D01*
X70930Y104828D01*
X70169Y104677D01*
X69524Y104246D01*
X69093Y103601D01*
X68942Y102840D01*
X69093Y102079D01*
X69524Y101434D01*
X69656Y101346D01*
Y89458D01*
X51779Y71581D01*
X51503Y71168D01*
X51406Y70680D01*
Y20314D01*
X51274Y20226D01*
X50843Y19581D01*
X50692Y18820D01*
X50843Y18059D01*
X51274Y17414D01*
X51919Y16983D01*
X52680Y16832D01*
X53441Y16983D01*
X54086Y17414D01*
X54517Y18059D01*
X54668Y18820D01*
X54517Y19581D01*
X54086Y20226D01*
X53954Y20314D01*
Y70152D01*
X54786Y70983D01*
X55286Y70776D01*
Y46600D01*
X55383Y46112D01*
X55659Y45699D01*
X71703Y29655D01*
X71672Y29500D01*
X71823Y28739D01*
X72254Y28094D01*
X72899Y27663D01*
X73660Y27512D01*
X74421Y27663D01*
X75066Y28094D01*
X75497Y28739D01*
X75648Y29500D01*
X75497Y30261D01*
X75066Y30906D01*
X74421Y31337D01*
X73660Y31488D01*
X73505Y31457D01*
X57835Y47128D01*
Y70862D01*
X74791Y87819D01*
X75068Y88232D01*
X75165Y88720D01*
Y107624D01*
X75068Y108112D01*
X74791Y108526D01*
X72680Y110637D01*
X72710Y110792D01*
X72559Y111553D01*
X72128Y112198D01*
X71483Y112629D01*
X70722Y112780D01*
D02*
G37*
G36*
X356693Y110103D02*
X349287D01*
Y102697D01*
X356693D01*
Y110103D01*
D02*
G37*
G36*
X300198Y146802D02*
X299320Y146627D01*
X298575Y146130D01*
X298078Y145386D01*
X297903Y144508D01*
Y97775D01*
X297805Y97694D01*
X297137Y97794D01*
X297111Y97831D01*
X289979Y104964D01*
Y109479D01*
X290287Y109939D01*
X290438Y110700D01*
X290287Y111461D01*
X289856Y112106D01*
X289211Y112537D01*
X288450Y112688D01*
X287689Y112537D01*
X287044Y112106D01*
X286613Y111461D01*
X286462Y110700D01*
X286613Y109939D01*
X286921Y109479D01*
Y104330D01*
X287037Y103745D01*
X287369Y103249D01*
X291802Y98815D01*
X291638Y98272D01*
X291422Y98229D01*
X290777Y97798D01*
X290346Y97153D01*
X290194Y96392D01*
X290346Y95632D01*
X290398Y95553D01*
Y55137D01*
X290346Y55058D01*
X290194Y54298D01*
X290346Y53537D01*
X290777Y52892D01*
X291422Y52461D01*
X292182Y52309D01*
X292199Y52313D01*
X310553Y33959D01*
Y24954D01*
X310143Y24341D01*
X309992Y23580D01*
X310143Y22819D01*
X310574Y22174D01*
X311219Y21743D01*
X311980Y21592D01*
X312741Y21743D01*
X313386Y22174D01*
X313817Y22819D01*
X313968Y23580D01*
X313817Y24341D01*
X313407Y24954D01*
Y34550D01*
X313407Y34550D01*
X313299Y35096D01*
X312989Y35559D01*
X312989Y35559D01*
X294151Y54398D01*
X294019Y55058D01*
X293967Y55137D01*
Y73858D01*
X294467Y74010D01*
X294624Y73774D01*
X295269Y73343D01*
X296030Y73192D01*
X296791Y73343D01*
X297404Y73752D01*
X297574Y73715D01*
X297903Y73574D01*
Y58712D01*
X298078Y57835D01*
X298575Y57090D01*
X299320Y56593D01*
X300198Y56418D01*
X301076Y56593D01*
X301820Y57090D01*
X302317Y57835D01*
X302492Y58712D01*
Y144508D01*
X302317Y145386D01*
X301820Y146130D01*
X301076Y146627D01*
X300198Y146802D01*
D02*
G37*
G36*
X352990Y100135D02*
X352023Y100007D01*
X351123Y99634D01*
X350349Y99041D01*
X349756Y98267D01*
X349383Y97367D01*
X349255Y96400D01*
X349383Y95433D01*
X349756Y94533D01*
X350349Y93759D01*
X351123Y93166D01*
X352023Y92793D01*
X352990Y92665D01*
X353957Y92793D01*
X354857Y93166D01*
X355631Y93759D01*
X356224Y94533D01*
X356597Y95433D01*
X356725Y96400D01*
X356597Y97367D01*
X356224Y98267D01*
X355631Y99041D01*
X354857Y99634D01*
X353957Y100007D01*
X352990Y100135D01*
D02*
G37*
G36*
X250830Y96378D02*
X250069Y96227D01*
X249424Y95796D01*
X248993Y95151D01*
X248842Y94390D01*
X248993Y93629D01*
X249424Y92984D01*
X250069Y92553D01*
X250830Y92402D01*
X251591Y92553D01*
X252236Y92984D01*
X252667Y93629D01*
X252818Y94390D01*
X252667Y95151D01*
X252236Y95796D01*
X251591Y96227D01*
X250830Y96378D01*
D02*
G37*
G36*
X44800Y127244D02*
X23640D01*
X22762Y127069D01*
X22018Y126572D01*
X-14707Y89848D01*
X-15140Y89905D01*
X-16107Y89777D01*
X-17007Y89404D01*
X-17781Y88811D01*
X-18374Y88037D01*
X-18747Y87137D01*
X-18875Y86170D01*
X-18747Y85203D01*
X-18374Y84303D01*
X-17781Y83529D01*
X-17007Y82936D01*
X-16107Y82563D01*
X-15140Y82435D01*
X-14173Y82563D01*
X-13273Y82936D01*
X-12499Y83529D01*
X-11906Y84303D01*
X-11533Y85203D01*
X-11405Y86170D01*
X-11462Y86603D01*
X24590Y122656D01*
X44800D01*
X45678Y122830D01*
X46422Y123328D01*
X46920Y124072D01*
X47094Y124950D01*
X46920Y125828D01*
X46422Y126572D01*
X45678Y127069D01*
X44800Y127244D01*
D02*
G37*
G36*
X352990Y90135D02*
X352023Y90007D01*
X351123Y89634D01*
X350349Y89041D01*
X349756Y88267D01*
X349383Y87367D01*
X349255Y86400D01*
X349383Y85433D01*
X349756Y84533D01*
X350349Y83759D01*
X351123Y83166D01*
X352023Y82793D01*
X352990Y82665D01*
X353957Y82793D01*
X354857Y83166D01*
X355631Y83759D01*
X356224Y84533D01*
X356597Y85433D01*
X356725Y86400D01*
X356597Y87367D01*
X356224Y88267D01*
X355631Y89041D01*
X354857Y89634D01*
X353957Y90007D01*
X352990Y90135D01*
D02*
G37*
G36*
X331980Y80445D02*
X331013Y80317D01*
X330113Y79944D01*
X329339Y79351D01*
X328746Y78577D01*
X328373Y77677D01*
X328245Y76710D01*
X328373Y75743D01*
X328746Y74843D01*
X329339Y74069D01*
X330113Y73476D01*
X331013Y73103D01*
X331980Y72975D01*
X332947Y73103D01*
X333847Y73476D01*
X334621Y74069D01*
X335214Y74843D01*
X335587Y75743D01*
X335715Y76710D01*
X335587Y77677D01*
X335214Y78577D01*
X334621Y79351D01*
X333847Y79944D01*
X332947Y80317D01*
X331980Y80445D01*
D02*
G37*
G36*
X352990Y80135D02*
X352023Y80007D01*
X351123Y79634D01*
X350349Y79041D01*
X349756Y78267D01*
X349383Y77367D01*
X349255Y76400D01*
X349383Y75433D01*
X349756Y74533D01*
X350349Y73759D01*
X351123Y73166D01*
X352023Y72793D01*
X352990Y72665D01*
X353957Y72793D01*
X354857Y73166D01*
X355631Y73759D01*
X356224Y74533D01*
X356597Y75433D01*
X356725Y76400D01*
X356597Y77367D01*
X356224Y78267D01*
X355631Y79041D01*
X354857Y79634D01*
X353957Y80007D01*
X352990Y80135D01*
D02*
G37*
G36*
X-15140Y79905D02*
X-16107Y79777D01*
X-17007Y79404D01*
X-17781Y78811D01*
X-18374Y78037D01*
X-18747Y77137D01*
X-18875Y76170D01*
X-18747Y75203D01*
X-18374Y74303D01*
X-17781Y73529D01*
X-17007Y72936D01*
X-16107Y72563D01*
X-15140Y72435D01*
X-14173Y72563D01*
X-13273Y72936D01*
X-12499Y73529D01*
X-11906Y74303D01*
X-11533Y75203D01*
X-11405Y76170D01*
X-11533Y77137D01*
X-11906Y78037D01*
X-12499Y78811D01*
X-13273Y79404D01*
X-14173Y79777D01*
X-15140Y79905D01*
D02*
G37*
G36*
X239720Y162464D02*
X238842Y162290D01*
X238098Y161792D01*
X237601Y161048D01*
X237426Y160170D01*
Y109030D01*
X230827Y102431D01*
X230330Y101687D01*
X230155Y100809D01*
Y69991D01*
X229693Y69799D01*
X170061Y129431D01*
X169648Y129708D01*
X169160Y129805D01*
X116144D01*
X115656Y129708D01*
X115243Y129431D01*
X113602Y127790D01*
X113447Y127821D01*
X112686Y127670D01*
X112041Y127239D01*
X111610Y126594D01*
X111459Y125833D01*
X111610Y125072D01*
X112041Y124427D01*
X112686Y123996D01*
X113447Y123845D01*
X114208Y123996D01*
X114853Y124427D01*
X115136Y124851D01*
X115717Y124881D01*
X115978Y124490D01*
X116623Y124059D01*
X117384Y123908D01*
X118145Y124059D01*
X118790Y124490D01*
X118878Y124621D01*
X168056D01*
X172275Y120403D01*
X172083Y119941D01*
X125690D01*
X125602Y120072D01*
X124957Y120503D01*
X124196Y120654D01*
X123435Y120503D01*
X122790Y120072D01*
X122359Y119427D01*
X122208Y118666D01*
X122359Y117905D01*
X122790Y117260D01*
X123435Y116829D01*
X124196Y116678D01*
X124957Y116829D01*
X125602Y117260D01*
X125690Y117392D01*
X172811D01*
X176012Y114191D01*
X175820Y113729D01*
X116909D01*
X116822Y113860D01*
X116176Y114291D01*
X115416Y114443D01*
X114655Y114291D01*
X114010Y113860D01*
X113744Y113463D01*
X113161Y113483D01*
X112884Y113897D01*
X112240Y114328D01*
X111479Y114480D01*
X110718Y114328D01*
X110073Y113897D01*
X109642Y113252D01*
X109490Y112491D01*
X109642Y111731D01*
X110073Y111085D01*
X110718Y110654D01*
X111479Y110503D01*
X111634Y110534D01*
X114259Y107909D01*
X114672Y107633D01*
X115160Y107536D01*
X176022D01*
X189373Y94184D01*
X189166Y93685D01*
X140551D01*
X140316Y94125D01*
X140421Y94283D01*
X140572Y95044D01*
X140421Y95805D01*
X139990Y96450D01*
X139345Y96881D01*
X139273Y97405D01*
X139346Y97454D01*
X139777Y98099D01*
X139928Y98860D01*
X139777Y99621D01*
X139346Y100266D01*
X138701Y100697D01*
X137940Y100848D01*
X137179Y100697D01*
X136534Y100266D01*
X136103Y99621D01*
X135952Y98860D01*
X136103Y98099D01*
X136534Y97454D01*
X137179Y97023D01*
X137251Y96499D01*
X137178Y96450D01*
X136747Y95805D01*
X136596Y95044D01*
X136747Y94283D01*
X136853Y94125D01*
X136617Y93685D01*
X116630D01*
X116142Y93587D01*
X115729Y93311D01*
X108149Y85731D01*
X107872Y85318D01*
X107775Y84830D01*
Y78144D01*
X107644Y78056D01*
X107213Y77411D01*
X107062Y76650D01*
X107213Y75889D01*
X107608Y75298D01*
X107644Y75244D01*
X107552Y74704D01*
X107344Y74566D01*
X107256Y74435D01*
X104900D01*
X104412Y74338D01*
X103999Y74061D01*
X95829Y65891D01*
X95552Y65478D01*
X95537Y65398D01*
X95037Y65447D01*
Y110524D01*
X95168Y110612D01*
X95599Y111257D01*
X95750Y112018D01*
X95599Y112779D01*
X95168Y113424D01*
X94523Y113855D01*
X93762Y114006D01*
X93001Y113855D01*
X92356Y113424D01*
X91925Y112779D01*
X91774Y112018D01*
X91925Y111257D01*
X92356Y110612D01*
X92488Y110524D01*
Y54028D01*
X92585Y53540D01*
X92861Y53127D01*
X104339Y41649D01*
X104752Y41372D01*
X105240Y41276D01*
X135728D01*
X139665Y37338D01*
Y31735D01*
X147071D01*
Y39140D01*
X141468D01*
X137157Y43451D01*
X136743Y43727D01*
X136256Y43824D01*
X105768D01*
X95037Y54556D01*
Y55303D01*
X95537Y55352D01*
X95552Y55272D01*
X95829Y54859D01*
X103709Y46979D01*
X104122Y46703D01*
X104610Y46606D01*
X142502D01*
X202661Y-13554D01*
X202470Y-14016D01*
X198588D01*
X169291Y15281D01*
X168878Y15558D01*
X168390Y15654D01*
X96503D01*
X92942Y19215D01*
Y26368D01*
X93442Y26635D01*
X93819Y26383D01*
X94580Y26232D01*
X95341Y26383D01*
X95986Y26814D01*
X96417Y27459D01*
X96568Y28220D01*
X96479Y28668D01*
X96929Y28968D01*
X96938Y28962D01*
X97699Y28811D01*
X98460Y28962D01*
X99105Y29393D01*
X99536Y30038D01*
X99687Y30799D01*
X99536Y31560D01*
X99105Y32205D01*
X98974Y32293D01*
Y42675D01*
X99105Y42763D01*
X99536Y43408D01*
X99687Y44169D01*
X99536Y44930D01*
X99105Y45575D01*
X98460Y46006D01*
X97699Y46157D01*
X96938Y46006D01*
X96293Y45575D01*
X95862Y44930D01*
X95790Y44568D01*
X95341Y44267D01*
X94580Y44418D01*
X93819Y44267D01*
X93442Y44015D01*
X92942Y44282D01*
Y47519D01*
X92845Y48007D01*
X92569Y48420D01*
X87163Y53826D01*
Y61068D01*
X87294Y61156D01*
X87725Y61801D01*
X87876Y62562D01*
X87725Y63323D01*
X87294Y63968D01*
X86649Y64399D01*
X85888Y64550D01*
X85127Y64399D01*
X84482Y63968D01*
X84243Y63610D01*
X84202Y63596D01*
X83665Y63644D01*
X83357Y64105D01*
X82712Y64536D01*
X81951Y64687D01*
X81190Y64536D01*
X80545Y64105D01*
X80262Y63681D01*
X79681Y63651D01*
X79420Y64042D01*
X78775Y64473D01*
X78014Y64624D01*
X77253Y64473D01*
X76608Y64042D01*
X76405Y63738D01*
X76260Y63710D01*
X75827Y63773D01*
X75483Y64289D01*
X74838Y64720D01*
X74077Y64871D01*
X73316Y64720D01*
X72671Y64289D01*
X72240Y63644D01*
X72089Y62883D01*
X72240Y62122D01*
X72671Y61477D01*
X72803Y61389D01*
Y57643D01*
X72900Y57155D01*
X73176Y56742D01*
X83461Y46457D01*
X83315Y45978D01*
X83159Y45947D01*
X82514Y45516D01*
X82238Y45103D01*
X81654Y45085D01*
X81388Y45483D01*
X80743Y45914D01*
X79983Y46066D01*
X79222Y45914D01*
X78577Y45483D01*
X78294Y45060D01*
X77713Y45029D01*
X77451Y45420D01*
X76806Y45851D01*
X76046Y46003D01*
X75285Y45851D01*
X74640Y45420D01*
X74379Y45030D01*
X73799Y45062D01*
X73514Y45487D01*
X72869Y45918D01*
X72109Y46070D01*
X71348Y45918D01*
X70703Y45487D01*
X70272Y44842D01*
X70120Y44081D01*
X70272Y43321D01*
X70703Y42676D01*
X71348Y42244D01*
X72109Y42093D01*
X72869Y42244D01*
X73514Y42676D01*
X73775Y43066D01*
X74355Y43034D01*
X74640Y42608D01*
X75285Y42178D01*
X76046Y42026D01*
X76806Y42178D01*
X77451Y42608D01*
X77735Y43032D01*
X78316Y43062D01*
X78577Y42671D01*
X79222Y42241D01*
X79983Y42089D01*
X80743Y42241D01*
X81388Y42671D01*
X81664Y43085D01*
X82248Y43102D01*
X82514Y42704D01*
X83159Y42274D01*
X83920Y42122D01*
X84626Y42263D01*
X84778Y42226D01*
X85125Y42041D01*
Y16530D01*
X85223Y16042D01*
X85499Y15629D01*
X92899Y8229D01*
X93312Y7953D01*
X93800Y7856D01*
X165688D01*
X194984Y-21441D01*
X195398Y-21718D01*
X195885Y-21814D01*
X243740D01*
X244228Y-21718D01*
X244641Y-21441D01*
X261075Y-5007D01*
X261230Y-5038D01*
X261991Y-4886D01*
X262636Y-4455D01*
X263067Y-3810D01*
X263219Y-3049D01*
X263067Y-2289D01*
X262636Y-1644D01*
X261991Y-1213D01*
X261230Y-1061D01*
X260470Y-1213D01*
X259825Y-1644D01*
X259556Y-2046D01*
X258972Y-2039D01*
X258699Y-1631D01*
X258054Y-1200D01*
X257294Y-1048D01*
X256533Y-1200D01*
X255888Y-1631D01*
X255640Y-2002D01*
X255618Y-2010D01*
X255061Y-1968D01*
X254762Y-1521D01*
X254117Y-1090D01*
X253357Y-938D01*
X252596Y-1090D01*
X251951Y-1521D01*
X251728Y-1854D01*
X251644Y-1876D01*
X251150Y-1820D01*
X250825Y-1335D01*
X250180Y-904D01*
X249419Y-752D01*
X248659Y-904D01*
X248014Y-1335D01*
X247770Y-1699D01*
X247739Y-1710D01*
X247191Y-1665D01*
X246888Y-1212D01*
X246243Y-781D01*
X245482Y-629D01*
X244722Y-781D01*
X244077Y-1212D01*
X243798Y-1628D01*
X243215Y-1653D01*
X242951Y-1259D01*
X242306Y-828D01*
X241546Y-676D01*
X240785Y-828D01*
X240140Y-1259D01*
X239938Y-1561D01*
X239788Y-1587D01*
X239362Y-1523D01*
X239014Y-1003D01*
X238369Y-572D01*
X237609Y-420D01*
X236848Y-572D01*
X236203Y-1003D01*
X235938Y-1399D01*
X235354Y-1377D01*
X235077Y-963D01*
X234432Y-532D01*
X233671Y-380D01*
X232911Y-532D01*
X232266Y-963D01*
X231875Y-1548D01*
X231580Y-1614D01*
X231322Y-1621D01*
X231140Y-1349D01*
X230495Y-918D01*
X229734Y-766D01*
X228974Y-918D01*
X228329Y-1349D01*
X228044Y-1775D01*
X227464Y-1806D01*
X227203Y-1417D01*
X226558Y-986D01*
X225798Y-834D01*
X225037Y-986D01*
X224392Y-1417D01*
X224304Y-1548D01*
X215770D01*
X150975Y63248D01*
Y80100D01*
X150877Y80588D01*
X150601Y81001D01*
X142949Y88654D01*
X143140Y89116D01*
X188135D01*
X216375Y60875D01*
Y33963D01*
X215876Y33811D01*
X215613Y34203D01*
X214968Y34634D01*
X214208Y34786D01*
X213447Y34634D01*
X212802Y34203D01*
X212371Y33558D01*
X212219Y32798D01*
X212371Y32037D01*
X212802Y31392D01*
X213447Y30961D01*
X214208Y30809D01*
X214968Y30961D01*
X215613Y31392D01*
X215876Y31784D01*
X216205Y31742D01*
X216389Y31652D01*
X216473Y31232D01*
X216749Y30819D01*
X237059Y10508D01*
X236741Y10120D01*
X236401Y10347D01*
X235640Y10498D01*
X234879Y10347D01*
X234234Y9916D01*
X233966Y9514D01*
X233382Y9523D01*
X233109Y9933D01*
X232464Y10364D01*
X231703Y10515D01*
X230942Y10364D01*
X230297Y9933D01*
X230008Y9500D01*
X229432Y9465D01*
X229430Y9466D01*
X229176Y9846D01*
X228531Y10277D01*
X227770Y10428D01*
X227009Y10277D01*
X226364Y9846D01*
X226084Y9427D01*
X225503Y9406D01*
X225235Y9807D01*
X224590Y10238D01*
X223829Y10389D01*
X223068Y10238D01*
X222423Y9807D01*
X221992Y9162D01*
X221841Y8401D01*
X221992Y7640D01*
X222423Y6995D01*
X223068Y6564D01*
X223829Y6413D01*
X224590Y6564D01*
X225235Y6995D01*
X225515Y7414D01*
X226096Y7435D01*
X226364Y7034D01*
X227009Y6603D01*
X227770Y6452D01*
X228531Y6603D01*
X229176Y7034D01*
X229465Y7467D01*
X230041Y7502D01*
X230043Y7501D01*
X230297Y7121D01*
X230942Y6690D01*
X231703Y6539D01*
X232464Y6690D01*
X233109Y7121D01*
X233377Y7523D01*
X233961Y7514D01*
X234234Y7104D01*
X234879Y6673D01*
X235640Y6522D01*
X236401Y6673D01*
X237046Y7104D01*
X237477Y7749D01*
X237596Y8348D01*
X238104Y8488D01*
X238171Y8387D01*
X238816Y7956D01*
X239577Y7805D01*
X240338Y7956D01*
X240983Y8387D01*
X241414Y9032D01*
X241464Y9284D01*
X241995Y9390D01*
X242108Y9220D01*
X242753Y8789D01*
X243514Y8638D01*
X244275Y8789D01*
X244920Y9220D01*
X245351Y9865D01*
X245364Y9933D01*
X245895Y10039D01*
X246045Y9814D01*
X246690Y9383D01*
X247451Y9232D01*
X248212Y9383D01*
X248857Y9814D01*
X249086Y10156D01*
X249152Y10176D01*
X249664Y10122D01*
X249982Y9646D01*
X250627Y9215D01*
X251388Y9064D01*
X252149Y9215D01*
X252794Y9646D01*
X253043Y10019D01*
X253062Y10026D01*
X253621Y9985D01*
X253919Y9539D01*
X254564Y9108D01*
X255325Y8957D01*
X256086Y9108D01*
X256731Y9539D01*
X256957Y9877D01*
X257032Y9898D01*
X257535Y9843D01*
X257856Y9362D01*
X258501Y8931D01*
X259262Y8780D01*
X260023Y8931D01*
X260668Y9362D01*
X260938Y9766D01*
X261521Y9762D01*
X261793Y9355D01*
X262438Y8924D01*
X263199Y8773D01*
X263960Y8924D01*
X264605Y9355D01*
X265036Y10000D01*
X265187Y10761D01*
X265036Y11522D01*
X264605Y12167D01*
X263960Y12598D01*
X263199Y12749D01*
X263044Y12718D01*
X230574Y45188D01*
Y58876D01*
X231075Y59143D01*
X231571Y58811D01*
X232449Y58637D01*
X233327Y58811D01*
X234071Y59309D01*
X234569Y60053D01*
X234743Y60931D01*
Y92723D01*
X235243Y92905D01*
X235769Y92553D01*
X236530Y92402D01*
X237291Y92553D01*
X237936Y92984D01*
X238367Y93629D01*
X238518Y94390D01*
X238367Y95151D01*
X237936Y95796D01*
X237291Y96227D01*
X236530Y96378D01*
X235769Y96227D01*
X235243Y95876D01*
X234743Y96057D01*
Y99859D01*
X241342Y106458D01*
X241839Y107202D01*
X242014Y108080D01*
Y160170D01*
X241839Y161048D01*
X241342Y161792D01*
X240598Y162290D01*
X239720Y162464D01*
D02*
G37*
G36*
X43574Y120654D02*
X42813Y120503D01*
X42168Y120072D01*
X41737Y119427D01*
X41586Y118666D01*
X41737Y117905D01*
X42168Y117260D01*
X42299Y117173D01*
Y71100D01*
X42168Y71012D01*
X41737Y70367D01*
X41586Y69606D01*
X41737Y68845D01*
X42168Y68200D01*
X42813Y67769D01*
X43574Y67618D01*
X44335Y67769D01*
X44980Y68200D01*
X45411Y68845D01*
X45562Y69606D01*
X45411Y70367D01*
X44980Y71012D01*
X44848Y71100D01*
Y117173D01*
X44980Y117260D01*
X45411Y117905D01*
X45562Y118666D01*
X45411Y119427D01*
X44980Y120072D01*
X44335Y120503D01*
X43574Y120654D01*
D02*
G37*
G36*
X72060Y75028D02*
X71299Y74877D01*
X70654Y74446D01*
X70223Y73801D01*
X70072Y73040D01*
X70223Y72279D01*
X70654Y71634D01*
X71066Y71359D01*
X71091Y70774D01*
X71064Y70756D01*
X70633Y70111D01*
X70482Y69350D01*
X70633Y68589D01*
X71064Y67944D01*
X71709Y67513D01*
X72470Y67362D01*
X73231Y67513D01*
X73876Y67944D01*
X74307Y68589D01*
X74458Y69350D01*
X74307Y70111D01*
X73876Y70756D01*
X73464Y71031D01*
X73439Y71616D01*
X73466Y71634D01*
X73897Y72279D01*
X74048Y73040D01*
X73897Y73801D01*
X73466Y74446D01*
X72821Y74877D01*
X72060Y75028D01*
D02*
G37*
G36*
X353490Y70321D02*
Y66900D01*
X356911D01*
X356841Y67432D01*
X356443Y68393D01*
X355809Y69219D01*
X354983Y69853D01*
X354022Y70251D01*
X353490Y70321D01*
D02*
G37*
G36*
X352490D02*
X351958Y70251D01*
X350997Y69853D01*
X350171Y69219D01*
X349537Y68393D01*
X349139Y67432D01*
X349069Y66900D01*
X352490D01*
Y70321D01*
D02*
G37*
G36*
X-14640Y70091D02*
Y66670D01*
X-11219D01*
X-11289Y67202D01*
X-11687Y68163D01*
X-12321Y68989D01*
X-13147Y69623D01*
X-14108Y70021D01*
X-14640Y70091D01*
D02*
G37*
G36*
X-15640D02*
X-16172Y70021D01*
X-17133Y69623D01*
X-17959Y68989D01*
X-18593Y68163D01*
X-18991Y67202D01*
X-19061Y66670D01*
X-15640D01*
Y70091D01*
D02*
G37*
G36*
X240750Y68988D02*
X239989Y68837D01*
X239344Y68406D01*
X238913Y67761D01*
X238762Y67000D01*
X238913Y66239D01*
X239344Y65594D01*
X239989Y65163D01*
X240750Y65012D01*
X241511Y65163D01*
X242156Y65594D01*
X242587Y66239D01*
X242738Y67000D01*
X242587Y67761D01*
X242156Y68406D01*
X241511Y68837D01*
X240750Y68988D01*
D02*
G37*
G36*
X182040D02*
X181279Y68837D01*
X180634Y68406D01*
X180203Y67761D01*
X180052Y67000D01*
X180203Y66239D01*
X180634Y65594D01*
X181279Y65163D01*
X182040Y65012D01*
X182801Y65163D01*
X183446Y65594D01*
X183877Y66239D01*
X184028Y67000D01*
X183877Y67761D01*
X183446Y68406D01*
X182801Y68837D01*
X182040Y68988D01*
D02*
G37*
G36*
X335683Y70413D02*
X328277D01*
Y63007D01*
X335683D01*
Y70413D01*
D02*
G37*
G36*
X21630Y66528D02*
X20869Y66377D01*
X20224Y65946D01*
X19793Y65301D01*
X19642Y64540D01*
X19793Y63779D01*
X20224Y63134D01*
X20869Y62703D01*
X21630Y62552D01*
X22391Y62703D01*
X23036Y63134D01*
X23467Y63779D01*
X23618Y64540D01*
X23467Y65301D01*
X23036Y65946D01*
X22391Y66377D01*
X21630Y66528D01*
D02*
G37*
G36*
X352490Y65900D02*
X349069D01*
X349139Y65368D01*
X349537Y64407D01*
X350171Y63581D01*
X350997Y62947D01*
X351958Y62549D01*
X352490Y62479D01*
Y65900D01*
D02*
G37*
G36*
X356911D02*
X353490D01*
Y62479D01*
X354022Y62549D01*
X354983Y62947D01*
X355809Y63581D01*
X356443Y64407D01*
X356841Y65368D01*
X356911Y65900D01*
D02*
G37*
G36*
X-11219Y65670D02*
X-14640D01*
Y62249D01*
X-14108Y62319D01*
X-13147Y62717D01*
X-12321Y63351D01*
X-11687Y64177D01*
X-11289Y65138D01*
X-11219Y65670D01*
D02*
G37*
G36*
X-15640D02*
X-19061D01*
X-18991Y65138D01*
X-18593Y64177D01*
X-17959Y63351D01*
X-17133Y62717D01*
X-16172Y62319D01*
X-15640Y62249D01*
Y65670D01*
D02*
G37*
G36*
X15170Y64038D02*
X14409Y63887D01*
X13764Y63456D01*
X13333Y62811D01*
X13182Y62050D01*
X13333Y61289D01*
X13764Y60644D01*
X14409Y60213D01*
X15170Y60062D01*
X15931Y60213D01*
X16576Y60644D01*
X17007Y61289D01*
X17158Y62050D01*
X17007Y62811D01*
X16576Y63456D01*
X15931Y63887D01*
X15170Y64038D01*
D02*
G37*
G36*
X352990Y60135D02*
X352023Y60007D01*
X351123Y59634D01*
X350349Y59041D01*
X349756Y58267D01*
X349383Y57367D01*
X349255Y56400D01*
X349383Y55433D01*
X349756Y54533D01*
X350349Y53759D01*
X351123Y53166D01*
X352023Y52793D01*
X352990Y52665D01*
X353957Y52793D01*
X354857Y53166D01*
X355631Y53759D01*
X356224Y54533D01*
X356597Y55433D01*
X356725Y56400D01*
X356597Y57367D01*
X356224Y58267D01*
X355631Y59041D01*
X354857Y59634D01*
X353957Y60007D01*
X352990Y60135D01*
D02*
G37*
G36*
X-15140Y59905D02*
X-16107Y59777D01*
X-17007Y59404D01*
X-17781Y58811D01*
X-18374Y58037D01*
X-18747Y57137D01*
X-18875Y56170D01*
X-18747Y55203D01*
X-18374Y54303D01*
X-17781Y53529D01*
X-17007Y52936D01*
X-16107Y52563D01*
X-15140Y52435D01*
X-14173Y52563D01*
X-13273Y52936D01*
X-12499Y53529D01*
X-11906Y54303D01*
X-11533Y55203D01*
X-11405Y56170D01*
X-11533Y57137D01*
X-11906Y58037D01*
X-12499Y58811D01*
X-13273Y59404D01*
X-14173Y59777D01*
X-15140Y59905D01*
D02*
G37*
G36*
X176328Y56286D02*
X175567Y56134D01*
X174922Y55703D01*
X174491Y55058D01*
X174339Y54298D01*
X174491Y53537D01*
X174922Y52892D01*
X175567Y52461D01*
X176328Y52309D01*
X177088Y52461D01*
X177733Y52892D01*
X178164Y53537D01*
X178316Y54298D01*
X178164Y55058D01*
X177733Y55703D01*
X177088Y56134D01*
X176328Y56286D01*
D02*
G37*
G36*
X35033Y99307D02*
X34155Y99132D01*
X33411Y98635D01*
X32913Y97891D01*
X32739Y97013D01*
Y38543D01*
X32913Y37665D01*
X33411Y36920D01*
X34155Y36423D01*
X35033Y36249D01*
X35911Y36423D01*
X36655Y36920D01*
X37152Y37665D01*
X37327Y38543D01*
Y97013D01*
X37152Y97891D01*
X36655Y98635D01*
X35911Y99132D01*
X35033Y99307D01*
D02*
G37*
G36*
X123868Y39359D02*
Y35938D01*
X127289D01*
X127219Y36469D01*
X126821Y37431D01*
X126187Y38257D01*
X125361Y38890D01*
X124400Y39289D01*
X123868Y39359D01*
D02*
G37*
G36*
X122868Y39359D02*
X122336Y39289D01*
X121374Y38890D01*
X120549Y38257D01*
X119915Y37431D01*
X119517Y36469D01*
X119447Y35938D01*
X122868D01*
Y39359D01*
D02*
G37*
G36*
X-758Y42993D02*
X-1724Y42865D01*
X-2625Y42492D01*
X-3398Y41899D01*
X-3992Y41125D01*
X-4365Y40225D01*
X-4492Y39258D01*
X-4365Y38291D01*
X-3992Y37391D01*
X-3398Y36617D01*
X-2625Y36024D01*
X-1724Y35651D01*
X-758Y35523D01*
X209Y35651D01*
X1110Y36024D01*
X1883Y36617D01*
X2477Y37391D01*
X2850Y38291D01*
X2977Y39258D01*
X2850Y40225D01*
X2477Y41125D01*
X1883Y41899D01*
X1110Y42492D01*
X209Y42865D01*
X-758Y42993D01*
D02*
G37*
G36*
X133368Y39172D02*
X132401Y39045D01*
X131501Y38672D01*
X130727Y38078D01*
X130134Y37305D01*
X129761Y36404D01*
X129633Y35438D01*
X129761Y34471D01*
X130134Y33570D01*
X130727Y32797D01*
X131501Y32203D01*
X132401Y31830D01*
X133368Y31703D01*
X134335Y31830D01*
X135235Y32203D01*
X136009Y32797D01*
X136602Y33570D01*
X136975Y34471D01*
X137103Y35438D01*
X136975Y36404D01*
X136602Y37305D01*
X136009Y38078D01*
X135235Y38672D01*
X134335Y39045D01*
X133368Y39172D01*
D02*
G37*
G36*
X113368D02*
X112401Y39045D01*
X111501Y38672D01*
X110727Y38078D01*
X110134Y37305D01*
X109760Y36404D01*
X109633Y35438D01*
X109760Y34471D01*
X110134Y33570D01*
X110727Y32797D01*
X111501Y32203D01*
X112401Y31830D01*
X113368Y31703D01*
X114335Y31830D01*
X115235Y32203D01*
X116009Y32797D01*
X116602Y33570D01*
X116975Y34471D01*
X117103Y35438D01*
X116975Y36404D01*
X116602Y37305D01*
X116009Y38078D01*
X115235Y38672D01*
X114335Y39045D01*
X113368Y39172D01*
D02*
G37*
G36*
X103368D02*
X102401Y39045D01*
X101501Y38672D01*
X100727Y38078D01*
X100134Y37305D01*
X99761Y36404D01*
X99633Y35438D01*
X99761Y34471D01*
X100134Y33570D01*
X100727Y32797D01*
X101501Y32203D01*
X102401Y31830D01*
X103368Y31703D01*
X104335Y31830D01*
X105235Y32203D01*
X106009Y32797D01*
X106602Y33570D01*
X106975Y34471D01*
X107103Y35438D01*
X106975Y36404D01*
X106602Y37305D01*
X106009Y38078D01*
X105235Y38672D01*
X104335Y39045D01*
X103368Y39172D01*
D02*
G37*
G36*
X122868Y34938D02*
X119447D01*
X119517Y34406D01*
X119915Y33444D01*
X120549Y32618D01*
X121374Y31985D01*
X122336Y31587D01*
X122868Y31517D01*
Y34938D01*
D02*
G37*
G36*
X127289D02*
X123868D01*
Y31517D01*
X124400Y31587D01*
X125361Y31985D01*
X126187Y32618D01*
X126821Y33444D01*
X127219Y34406D01*
X127289Y34938D01*
D02*
G37*
G36*
X63888Y33950D02*
X63127Y33799D01*
X62482Y33368D01*
X62051Y32723D01*
X61900Y31962D01*
X62051Y31201D01*
X62482Y30556D01*
X63127Y30125D01*
X63888Y29974D01*
X64649Y30125D01*
X65294Y30556D01*
X65725Y31201D01*
X65876Y31962D01*
X65725Y32723D01*
X65294Y33368D01*
X64649Y33799D01*
X63888Y33950D01*
D02*
G37*
G36*
X294900Y31158D02*
X294139Y31007D01*
X293494Y30576D01*
X293063Y29931D01*
X292912Y29170D01*
X293063Y28409D01*
X293494Y27764D01*
X294139Y27333D01*
X294900Y27182D01*
X295661Y27333D01*
X296306Y27764D01*
X296737Y28409D01*
X296888Y29170D01*
X296737Y29931D01*
X296306Y30576D01*
X295661Y31007D01*
X294900Y31158D01*
D02*
G37*
G36*
X-758Y32993D02*
X-1724Y32865D01*
X-2625Y32492D01*
X-3398Y31899D01*
X-3992Y31125D01*
X-4365Y30225D01*
X-4492Y29258D01*
X-4365Y28291D01*
X-3992Y27391D01*
X-3398Y26617D01*
X-2625Y26024D01*
X-1724Y25651D01*
X-758Y25523D01*
X209Y25651D01*
X1110Y26024D01*
X1883Y26617D01*
X2477Y27391D01*
X2850Y28291D01*
X2977Y29258D01*
X2850Y30225D01*
X2477Y31125D01*
X1883Y31899D01*
X1110Y32492D01*
X209Y32865D01*
X-758Y32993D01*
D02*
G37*
G36*
X266520Y74928D02*
X265759Y74777D01*
X265114Y74346D01*
X264683Y73701D01*
X264532Y72940D01*
X264683Y72179D01*
X265114Y71534D01*
X265195Y71480D01*
Y21010D01*
X265293Y20522D01*
X265569Y20109D01*
X267723Y17955D01*
X267692Y17800D01*
X267843Y17039D01*
X268274Y16394D01*
X268919Y15963D01*
X269680Y15812D01*
X270441Y15963D01*
X271086Y16394D01*
X271517Y17039D01*
X271668Y17800D01*
X271517Y18561D01*
X271086Y19206D01*
X270441Y19637D01*
X269680Y19788D01*
X269525Y19757D01*
X267744Y21538D01*
Y23152D01*
X267986Y23285D01*
X268245Y23354D01*
X268829Y22963D01*
X269590Y22812D01*
X270351Y22963D01*
X270996Y23394D01*
X271427Y24039D01*
X271578Y24800D01*
X271427Y25561D01*
X270996Y26206D01*
X270865Y26294D01*
Y67950D01*
X271006Y68044D01*
X271437Y68689D01*
X271588Y69450D01*
X271437Y70211D01*
X271006Y70856D01*
X270361Y71287D01*
X269600Y71438D01*
X268839Y71287D01*
X268444Y71023D01*
X267934Y71257D01*
X267924Y71533D01*
X267926Y71534D01*
X268357Y72179D01*
X268508Y72940D01*
X268357Y73701D01*
X267926Y74346D01*
X267281Y74777D01*
X266520Y74928D01*
D02*
G37*
G36*
X3195Y23211D02*
X-258D01*
Y19758D01*
X3195D01*
Y23211D01*
D02*
G37*
G36*
X-1258D02*
X-4710D01*
Y19758D01*
X-1258D01*
Y23211D01*
D02*
G37*
G36*
X3195Y18758D02*
X-258D01*
Y15305D01*
X3195D01*
Y18758D01*
D02*
G37*
G36*
X-1258D02*
X-4710D01*
Y15305D01*
X-1258D01*
Y18758D01*
D02*
G37*
G36*
X114980Y498D02*
X114219Y347D01*
X113574Y-84D01*
X113143Y-729D01*
X112992Y-1490D01*
X113143Y-2251D01*
X113574Y-2896D01*
X114219Y-3327D01*
X114980Y-3478D01*
X115741Y-3327D01*
X116386Y-2896D01*
X116817Y-2251D01*
X116968Y-1490D01*
X116817Y-729D01*
X116386Y-84D01*
X115741Y347D01*
X114980Y498D01*
D02*
G37*
G36*
X294900Y-6022D02*
X294139Y-6173D01*
X293494Y-6604D01*
X293063Y-7249D01*
X292912Y-8010D01*
X293063Y-8771D01*
X293494Y-9416D01*
X294139Y-9847D01*
X294900Y-9998D01*
X295661Y-9847D01*
X296306Y-9416D01*
X296737Y-8771D01*
X296888Y-8010D01*
X296737Y-7249D01*
X296306Y-6604D01*
X295661Y-6173D01*
X294900Y-6022D01*
D02*
G37*
G36*
X338583Y10625D02*
X336920Y10494D01*
X335299Y10105D01*
X333759Y9467D01*
X332337Y8596D01*
X331069Y7513D01*
X329987Y6245D01*
X329116Y4824D01*
X328477Y3283D01*
X328088Y1662D01*
X327957Y0D01*
X328088Y-1662D01*
X328477Y-3283D01*
X329116Y-4824D01*
X329987Y-6245D01*
X331069Y-7513D01*
X332337Y-8596D01*
X333759Y-9467D01*
X335299Y-10105D01*
X336920Y-10494D01*
X338583Y-10625D01*
X340245Y-10494D01*
X341866Y-10105D01*
X343406Y-9467D01*
X344828Y-8596D01*
X346096Y-7513D01*
X347179Y-6245D01*
X348050Y-4824D01*
X348688Y-3283D01*
X349077Y-1662D01*
X349208Y0D01*
X349077Y1662D01*
X348688Y3283D01*
X348050Y4824D01*
X347179Y6245D01*
X346096Y7513D01*
X344828Y8596D01*
X343406Y9467D01*
X341866Y10105D01*
X340245Y10494D01*
X338583Y10625D01*
D02*
G37*
G36*
X0D02*
X-1662Y10494D01*
X-3283Y10105D01*
X-4824Y9467D01*
X-6245Y8596D01*
X-7513Y7513D01*
X-8596Y6245D01*
X-9467Y4824D01*
X-10105Y3283D01*
X-10494Y1662D01*
X-10625Y0D01*
X-10494Y-1662D01*
X-10105Y-3283D01*
X-9467Y-4824D01*
X-8596Y-6245D01*
X-7513Y-7513D01*
X-6245Y-8596D01*
X-4824Y-9467D01*
X-3283Y-10105D01*
X-1662Y-10494D01*
X0Y-10625D01*
X1662Y-10494D01*
X3283Y-10105D01*
X4824Y-9467D01*
X6245Y-8596D01*
X7513Y-7513D01*
X8596Y-6245D01*
X9467Y-4824D01*
X10105Y-3283D01*
X10494Y-1662D01*
X10625Y0D01*
X10494Y1662D01*
X10105Y3283D01*
X9467Y4824D01*
X8596Y6245D01*
X7513Y7513D01*
X6245Y8596D01*
X4824Y9467D01*
X3283Y10105D01*
X1662Y10494D01*
X0Y10625D01*
D02*
G37*
G36*
X56528Y-11060D02*
X53075D01*
Y-14512D01*
X56528D01*
Y-11060D01*
D02*
G37*
G36*
X29051Y117953D02*
X28173Y117779D01*
X27428Y117281D01*
X26931Y116537D01*
X26757Y115659D01*
Y22965D01*
X26931Y22087D01*
X27428Y21343D01*
X59369Y-10598D01*
X59178Y-11060D01*
X57528D01*
Y-14512D01*
X60981D01*
Y-12863D01*
X61443Y-12672D01*
X63350Y-14579D01*
X63293Y-15012D01*
X63420Y-15979D01*
X63794Y-16880D01*
X64387Y-17653D01*
X65161Y-18247D01*
X66061Y-18620D01*
X67028Y-18747D01*
X67995Y-18620D01*
X68895Y-18247D01*
X69669Y-17653D01*
X70262Y-16880D01*
X70635Y-15979D01*
X70763Y-15012D01*
X70635Y-14046D01*
X70262Y-13145D01*
X69669Y-12372D01*
X68895Y-11778D01*
X67995Y-11405D01*
X67028Y-11278D01*
X66595Y-11335D01*
X31345Y23915D01*
Y115659D01*
X31170Y116537D01*
X30673Y117281D01*
X29929Y117779D01*
X29051Y117953D01*
D02*
G37*
G36*
X60981Y-15512D02*
X57528D01*
Y-18965D01*
X60981D01*
Y-15512D01*
D02*
G37*
G36*
X56528D02*
X53075D01*
Y-18965D01*
X56528D01*
Y-15512D01*
D02*
G37*
G36*
X184600Y-17952D02*
X183839Y-18103D01*
X183194Y-18534D01*
X182763Y-19179D01*
X182612Y-19940D01*
X182763Y-20701D01*
X183194Y-21346D01*
X183839Y-21777D01*
X184600Y-21928D01*
X185361Y-21777D01*
X186006Y-21346D01*
X186437Y-20701D01*
X186588Y-19940D01*
X186437Y-19179D01*
X186006Y-18534D01*
X185361Y-18103D01*
X184600Y-17952D01*
D02*
G37*
%LPD*%
D14*
X43574Y69606D02*
Y118666D01*
X70930Y88930D02*
Y102840D01*
X52680Y70680D02*
X70930Y88930D01*
X52680Y18820D02*
Y70680D01*
X70722Y110792D02*
X73890Y107624D01*
Y88720D02*
Y107624D01*
X56560Y71390D02*
X73890Y88720D01*
X56560Y46600D02*
Y71390D01*
Y46600D02*
X73660Y29500D01*
X133280Y59790D02*
X136110Y56960D01*
X266470Y21010D02*
X269680Y17800D01*
X85888Y53298D02*
Y62562D01*
X81951Y54760D02*
Y62699D01*
X78014Y56199D02*
Y62636D01*
X74077Y57643D02*
Y62883D01*
X86400Y16530D02*
X93800Y9130D01*
X166215D01*
X88151Y17254D02*
X94525Y10880D01*
X166940D01*
X89917Y17962D02*
X95250Y12630D01*
X167665D01*
X91667Y18687D02*
X95975Y14380D01*
X168390D01*
X93762Y54028D02*
Y112018D01*
Y54028D02*
X105240Y42550D01*
X113447Y125833D02*
X116144Y128530D01*
X169160D02*
X229300Y68390D01*
X168584Y125896D02*
X227030Y67450D01*
Y43000D02*
Y67450D01*
X115730Y81305D02*
X121245Y86820D01*
X119800Y81750D02*
X123120Y85070D01*
X113280Y80290D02*
X116190Y77380D01*
X113280Y80290D02*
Y82320D01*
X114715Y83755D01*
X114865D01*
X119680Y88570D01*
X111170Y78410D02*
X112660Y76920D01*
X111170Y78410D02*
Y83140D01*
X118420Y90390D01*
X188663D01*
X109050Y76650D02*
Y84830D01*
X116630Y92410D01*
X189500D01*
X104900Y73160D02*
X108750D01*
X96730Y64990D02*
X104900Y73160D01*
X107640Y64240D02*
X121630Y50250D01*
X107640Y64240D02*
Y70010D01*
X96730Y55760D02*
Y64990D01*
Y55760D02*
X104610Y47880D01*
X97699Y30799D02*
Y44169D01*
X94580Y28220D02*
Y42430D01*
X91667Y18687D02*
Y47519D01*
X85888Y53298D02*
X91667Y47519D01*
X89917Y17962D02*
Y46794D01*
X81951Y54760D02*
X89917Y46794D01*
X88151Y17254D02*
Y46062D01*
X78014Y56199D02*
X88151Y46062D01*
X86400Y16530D02*
Y45320D01*
X74077Y57643D02*
X86400Y45320D01*
X136256Y42550D02*
X143368Y35438D01*
X105240Y42550D02*
X136256D01*
X104610Y47880D02*
X143030D01*
X121630Y50250D02*
X143580D01*
X133280Y59790D02*
Y77010D01*
X136005Y81265D02*
X143120Y74150D01*
Y54170D02*
Y74150D01*
X166940Y10880D02*
X192434Y-14614D01*
Y-14614D02*
Y-14614D01*
X167665Y12630D02*
X197335Y-17040D01*
X166215Y9130D02*
X195885Y-20540D01*
X192434Y-14614D02*
X196610Y-18790D01*
X168390Y14380D02*
X198060Y-15290D01*
X215243Y-2822D02*
X225798D01*
X227750Y-8290D02*
X233671Y-2369D01*
X227217Y-5272D02*
X229734Y-2754D01*
X229977Y-10040D02*
X237609Y-2409D01*
X232420Y-11790D02*
X241546Y-2664D01*
X234560Y-13540D02*
X245482Y-2617D01*
X236870Y-15290D02*
X249419Y-2740D01*
X239243Y-17040D02*
X253357Y-2926D01*
X215013Y-5272D02*
X227217D01*
X144870Y54895D02*
X208055Y-8290D01*
X227750D01*
X143120Y54170D02*
X207330Y-10040D01*
X229977D01*
X143580Y50250D02*
X205620Y-11790D01*
X232420D01*
X143030Y47880D02*
X204450Y-13540D01*
X234560D01*
X198060Y-15290D02*
X236870D01*
X197335Y-17040D02*
X239243D01*
X241540Y-18790D02*
X257294Y-3036D01*
X196610Y-18790D02*
X241540D01*
X243740Y-20540D02*
X261230Y-3049D01*
X195885Y-20540D02*
X243740D01*
X217650Y31720D02*
X239577Y9793D01*
X217650Y31720D02*
Y61403D01*
X188663Y90390D02*
X217650Y61403D01*
X189500Y92410D02*
X219400Y62510D01*
Y34720D02*
Y62510D01*
X241000Y13140D02*
X243514Y10626D01*
X219400Y34720D02*
X242090Y12030D01*
X221780Y36891D02*
X247451Y11220D01*
X223530Y38910D02*
X251388Y11052D01*
X225280Y40990D02*
X255325Y10945D01*
X221780Y36891D02*
Y63580D01*
X223530Y38910D02*
Y66000D01*
X225280Y40990D02*
Y66725D01*
X227030Y43000D02*
X259262Y10768D01*
X229300Y44660D02*
X263199Y10761D01*
X229300Y44660D02*
Y68390D01*
X116144Y128530D02*
X169160D01*
X117384Y125896D02*
X168584D01*
X124196Y118666D02*
X173339D01*
X225280Y66725D01*
X115416Y112454D02*
X177076D01*
X223530Y66000D01*
X111479Y112491D02*
X115160Y108810D01*
X176550D01*
X221780Y63580D01*
X119680Y88570D02*
X141230D01*
X149700Y80100D01*
X121245Y86820D02*
X139650D01*
X147370Y79100D01*
X123120Y85070D02*
X138370D01*
X144870Y78570D01*
Y54895D02*
Y78570D01*
X149700Y62720D02*
Y80100D01*
Y62720D02*
X215243Y-2822D01*
X147370Y62370D02*
Y79100D01*
Y62370D02*
X215013Y-5272D01*
X269590Y24800D02*
Y69450D01*
X266470Y21010D02*
Y72940D01*
D16*
X-20550Y101580D02*
X-15140Y96170D01*
X-20550Y101580D02*
Y113280D01*
X-4220Y129610D01*
X20230D01*
X24050Y133430D01*
X292182Y54298D02*
Y96392D01*
D115*
X35033Y38543D02*
Y97013D01*
X232449Y60931D02*
Y100809D01*
X239720Y108080D01*
Y160170D01*
X29051Y22965D02*
Y115659D01*
Y22965D02*
X67028Y-15012D01*
X-15140Y86170D02*
X23640Y124950D01*
X44800D01*
X300198Y58712D02*
Y144508D01*
D116*
X288450Y104330D02*
Y110700D01*
Y104330D02*
X296030Y96750D01*
Y75180D02*
Y96750D01*
D117*
X311980Y23580D02*
Y34550D01*
X292225Y54305D02*
X311980Y34550D01*
D118*
X331980Y66710D02*
D03*
X-758Y19258D02*
D03*
X352990Y106400D02*
D03*
X-15140Y106170D02*
D03*
D119*
X331980Y76710D02*
D03*
X133368Y35438D02*
D03*
X123368D02*
D03*
X113368D02*
D03*
X103368D02*
D03*
X-758Y39258D02*
D03*
Y29258D02*
D03*
X352990Y56400D02*
D03*
Y66400D02*
D03*
Y76400D02*
D03*
Y86400D02*
D03*
Y96400D02*
D03*
X-15140Y56170D02*
D03*
Y66170D02*
D03*
Y76170D02*
D03*
Y86170D02*
D03*
Y96170D02*
D03*
X67028Y-15012D02*
D03*
D120*
X338583Y0D02*
D03*
Y141732D02*
D03*
X0D02*
D03*
Y0D02*
D03*
D121*
X143368Y35438D02*
D03*
X57028Y-15012D02*
D03*
D122*
X5679Y83569D02*
D03*
Y87899D02*
D03*
X5679Y92230D02*
D03*
X10010Y83569D02*
D03*
Y87899D02*
D03*
Y92230D02*
D03*
X14341Y83569D02*
D03*
X14341Y87899D02*
D03*
Y92230D02*
D03*
X135503Y-3213D02*
D03*
X131173D02*
D03*
X135503Y5448D02*
D03*
X131173D02*
D03*
X135503Y1118D02*
D03*
X131173D02*
D03*
D123*
X35033Y97013D02*
D03*
Y38543D02*
D03*
X43574Y118666D02*
D03*
Y69606D02*
D03*
X46640Y129360D02*
D03*
X44800Y124950D02*
D03*
X70722Y110792D02*
D03*
X70930Y102840D02*
D03*
X52680Y18820D02*
D03*
X72060Y73040D02*
D03*
X73660Y29500D02*
D03*
X29051Y115659D02*
D03*
X24050Y133430D02*
D03*
X93762Y112018D02*
D03*
X133280Y77010D02*
D03*
X176328Y54298D02*
D03*
X182040Y67000D02*
D03*
X240750D02*
D03*
X21630Y64540D02*
D03*
X15170Y62050D02*
D03*
X104550Y63200D02*
D03*
X99620Y63210D02*
D03*
X136384Y70564D02*
D03*
X136546Y63424D02*
D03*
X72470Y69350D02*
D03*
X269590Y24800D02*
D03*
X269680Y17800D02*
D03*
X294900Y-8010D02*
D03*
Y29170D02*
D03*
X300198Y144508D02*
D03*
X137940Y98860D02*
D03*
X138584Y95044D02*
D03*
X236530Y94390D02*
D03*
X250830D02*
D03*
X203670Y117910D02*
D03*
X192500D02*
D03*
X233740Y126410D02*
D03*
X188310D02*
D03*
X249720Y126100D02*
D03*
X205623Y112490D02*
D03*
X232640Y108990D02*
D03*
X274040Y119960D02*
D03*
X232449Y60931D02*
D03*
X239720Y160170D02*
D03*
X284880D02*
D03*
X311980Y23580D02*
D03*
X292182Y54298D02*
D03*
Y96392D02*
D03*
X114980Y-1490D02*
D03*
X214208Y32798D02*
D03*
X266520Y72940D02*
D03*
X269600Y69450D02*
D03*
X74077Y62883D02*
D03*
X78014Y62636D02*
D03*
X81951Y62699D02*
D03*
X85888Y62562D02*
D03*
X136005Y81265D02*
D03*
X107640Y70010D02*
D03*
X108750Y73160D02*
D03*
X109050Y76650D02*
D03*
X112660Y76920D02*
D03*
X116190Y77380D02*
D03*
X117384Y125896D02*
D03*
X124196Y118666D02*
D03*
X97699Y44169D02*
D03*
X94580Y28220D02*
D03*
X72109Y44081D02*
D03*
X115416Y112454D02*
D03*
X113447Y125833D02*
D03*
X111479Y112491D02*
D03*
X115730Y81305D02*
D03*
X119800Y81750D02*
D03*
X173328Y31322D02*
D03*
X97699Y30799D02*
D03*
X94580Y42430D02*
D03*
X83920Y44110D02*
D03*
X76046Y44014D02*
D03*
X79983Y44077D02*
D03*
X63888Y31962D02*
D03*
X214480Y2300D02*
D03*
X223829Y8401D02*
D03*
X227770Y8440D02*
D03*
X231703Y8527D02*
D03*
X235640Y8510D02*
D03*
X171160Y68800D02*
D03*
X171210Y73580D02*
D03*
X166490Y73540D02*
D03*
X166530Y68800D02*
D03*
X184600Y-19940D02*
D03*
X225798Y-2822D02*
D03*
X233671Y-2369D02*
D03*
X229734Y-2754D02*
D03*
X237609Y-2409D02*
D03*
X241546Y-2664D02*
D03*
X245482Y-2617D02*
D03*
X249419Y-2740D02*
D03*
X253357Y-2926D02*
D03*
X257294Y-3036D02*
D03*
X261230Y-3049D02*
D03*
X239577Y9793D02*
D03*
X243514Y10626D02*
D03*
X247451Y11220D02*
D03*
X251388Y11052D02*
D03*
X255325Y10945D02*
D03*
X259262Y10768D02*
D03*
X263199Y10761D02*
D03*
X12950Y158900D02*
D03*
X22820Y158980D02*
D03*
X33940Y159120D02*
D03*
X14780Y151220D02*
D03*
Y137260D02*
D03*
X23550Y147130D02*
D03*
X26850Y138350D02*
D03*
X32330Y150860D02*
D03*
X44830Y152540D02*
D03*
X44250Y140840D02*
D03*
X-15790Y132800D02*
D03*
X-18710Y123360D02*
D03*
X-9940Y114370D02*
D03*
X-2190Y122780D02*
D03*
X23480Y101790D02*
D03*
X49080Y114370D02*
D03*
X63190Y115540D02*
D03*
X54050Y121970D02*
D03*
X64800Y121900D02*
D03*
X-6320Y76160D02*
D03*
X-5510Y69800D02*
D03*
X-7230Y63530D02*
D03*
X9740Y58280D02*
D03*
X3480Y52830D02*
D03*
X21960Y43530D02*
D03*
X42370Y62720D02*
D03*
X42670Y54740D02*
D03*
X48430Y59900D02*
D03*
X49540Y76660D02*
D03*
X55800Y82120D02*
D03*
X66210Y43130D02*
D03*
X61010Y53860D02*
D03*
X46100Y43290D02*
D03*
X43680Y27230D02*
D03*
X40900Y21310D02*
D03*
X48180Y20230D02*
D03*
X56260Y27450D02*
D03*
X13080Y34170D02*
D03*
X-10870Y36160D02*
D03*
X-17330Y40350D02*
D03*
X-9980Y43080D02*
D03*
X-16800Y30170D02*
D03*
X-17120Y20720D02*
D03*
X-16590Y10020D02*
D03*
X-9660Y26080D02*
D03*
X-11550Y12960D02*
D03*
X7870Y12750D02*
D03*
X14170Y6870D02*
D03*
X16690Y-2160D02*
D03*
X12490Y-10660D02*
D03*
X14590Y-18120D02*
D03*
X33170Y-20220D02*
D03*
X33270Y-12660D02*
D03*
X26450Y-1950D02*
D03*
X30230Y2670D02*
D03*
X33690Y-3840D02*
D03*
X38100Y-6360D02*
D03*
X38000Y-15700D02*
D03*
X47760Y-7510D02*
D03*
X53220Y-7830D02*
D03*
X48910Y-18120D02*
D03*
X56130Y6100D02*
D03*
X60400Y-1520D02*
D03*
X66110Y-7230D02*
D03*
X68240Y-530D02*
D03*
X98520Y22870D02*
D03*
X102930Y18350D02*
D03*
X105910Y23470D02*
D03*
X112930Y19180D02*
D03*
X118170Y21560D02*
D03*
X125200Y21920D02*
D03*
X91400Y-19040D02*
D03*
X115750Y-9160D02*
D03*
X116930Y-18220D02*
D03*
X114340Y3660D02*
D03*
X141810Y43360D02*
D03*
X152730Y2640D02*
D03*
X155290Y18200D02*
D03*
X164120Y18300D02*
D03*
X169810Y-6280D02*
D03*
X176070D02*
D03*
X182240Y-14250D02*
D03*
X199800Y18870D02*
D03*
X183950Y34240D02*
D03*
X191640Y33380D02*
D03*
X76720Y110180D02*
D03*
X84380Y110260D02*
D03*
X105420Y110340D02*
D03*
X111930Y106160D02*
D03*
X114260Y99560D02*
D03*
X107000Y102600D02*
D03*
X109720Y94240D02*
D03*
X104000Y90960D02*
D03*
X101270Y98030D02*
D03*
X89080Y100710D02*
D03*
X81970Y98540D02*
D03*
X81810Y88710D02*
D03*
X89040Y93560D02*
D03*
X85480Y75090D02*
D03*
X89430Y79910D02*
D03*
X101750Y82670D02*
D03*
X98230Y77890D02*
D03*
X48630Y69250D02*
D03*
X80130Y157640D02*
D03*
X80430Y149010D02*
D03*
X115670Y156300D02*
D03*
X114930Y149010D02*
D03*
X90100Y134890D02*
D03*
X100360Y136520D02*
D03*
X106750Y132660D02*
D03*
X112550Y135030D02*
D03*
X104520Y127150D02*
D03*
X82510Y131910D02*
D03*
X86970Y126860D02*
D03*
X135750Y160910D02*
D03*
X145110Y159720D02*
D03*
X155080Y160310D02*
D03*
X149130Y154660D02*
D03*
X142290Y153920D02*
D03*
X142590Y146340D02*
D03*
X143180Y136970D02*
D03*
X151800Y133100D02*
D03*
X150020Y144250D02*
D03*
X154630Y153030D02*
D03*
X125630Y122540D02*
D03*
X135510Y122310D02*
D03*
X146810Y122180D02*
D03*
X156270Y122690D02*
D03*
X165740Y122430D02*
D03*
X128880Y115740D02*
D03*
X138730Y115620D02*
D03*
X149020Y115680D02*
D03*
X163030Y115870D02*
D03*
X170280Y115560D02*
D03*
X153750Y104510D02*
D03*
X165740Y103750D02*
D03*
X173190Y103940D02*
D03*
X165490Y133290D02*
D03*
X165210Y140800D02*
D03*
X164970Y157240D02*
D03*
X166180Y148780D02*
D03*
X171500Y157490D02*
D03*
X182140Y158700D02*
D03*
X194230Y159420D02*
D03*
X206210Y159900D02*
D03*
X212980Y158450D02*
D03*
X185040Y150830D02*
D03*
X182870Y141400D02*
D03*
X173800Y138740D02*
D03*
X176460Y129430D02*
D03*
X182740Y122050D02*
D03*
X185040Y132450D02*
D03*
X193020Y138500D02*
D03*
Y148660D02*
D03*
X201370Y154580D02*
D03*
X200040Y143820D02*
D03*
X200400Y133540D02*
D03*
X192780Y131480D02*
D03*
X207900Y137410D02*
D03*
X213700Y150710D02*
D03*
X213820Y139710D02*
D03*
X222170Y137170D02*
D03*
X222580Y157650D02*
D03*
X230630Y159920D02*
D03*
X228090Y152080D02*
D03*
X227330Y143760D02*
D03*
X233060Y149270D02*
D03*
X246300Y154460D02*
D03*
X253920Y154030D02*
D03*
X246840Y148090D02*
D03*
X247220Y141930D02*
D03*
X247430Y137330D02*
D03*
X254510Y147600D02*
D03*
X207690Y122460D02*
D03*
X200580Y113190D02*
D03*
X220400Y103440D02*
D03*
X226330Y107750D02*
D03*
X228100Y102150D02*
D03*
X214010Y90750D02*
D03*
X245700Y104990D02*
D03*
X240540Y101700D02*
D03*
X246240Y98940D02*
D03*
X240900Y90930D02*
D03*
X237600Y60570D02*
D03*
X156230Y81670D02*
D03*
X178490Y81940D02*
D03*
X179470Y63060D02*
D03*
X123720Y-17670D02*
D03*
X252620Y-18530D02*
D03*
X259790Y-12980D02*
D03*
X264630Y-6820D02*
D03*
X262180Y-18530D02*
D03*
X276700Y-18890D02*
D03*
X282430Y-14470D02*
D03*
X281470Y-7720D02*
D03*
X278670Y-130D02*
D03*
X275620Y3930D02*
D03*
X269050Y4110D02*
D03*
X267910Y11750D02*
D03*
X262540Y17190D02*
D03*
X258060Y41740D02*
D03*
X262480Y37020D02*
D03*
X274550Y43770D02*
D03*
X273650Y37560D02*
D03*
X281360Y39290D02*
D03*
X289900Y39710D02*
D03*
X289240Y-15100D02*
D03*
X331330Y-16170D02*
D03*
X325990Y-2160D02*
D03*
X354090Y5510D02*
D03*
X317240Y23770D02*
D03*
X317820Y16350D02*
D03*
X322320Y23600D02*
D03*
X335750Y21930D02*
D03*
X343830Y24350D02*
D03*
X348750Y30100D02*
D03*
X342750Y33770D02*
D03*
X352340Y35850D02*
D03*
X353340Y23600D02*
D03*
X352920Y15930D02*
D03*
X357590Y13510D02*
D03*
X358670Y22850D02*
D03*
X358170Y36600D02*
D03*
X307850Y26270D02*
D03*
X326410Y40940D02*
D03*
X331830Y38210D02*
D03*
X337400Y43600D02*
D03*
X357300Y44120D02*
D03*
X327420Y57350D02*
D03*
X333810Y54080D02*
D03*
X338220Y57960D02*
D03*
X343160Y55300D02*
D03*
X343010Y62900D02*
D03*
X342320Y69900D02*
D03*
X342470Y77960D02*
D03*
X347800Y91490D02*
D03*
X341330Y91570D02*
D03*
X333650D02*
D03*
X327720Y91490D02*
D03*
X329620Y101530D02*
D03*
X340340Y101450D02*
D03*
X346960Y101760D02*
D03*
X343160Y110960D02*
D03*
X348480Y116960D02*
D03*
X357980Y115220D02*
D03*
X335550Y105330D02*
D03*
X329470Y111870D02*
D03*
X318070Y113010D02*
D03*
X308640Y112250D02*
D03*
X308870Y119090D02*
D03*
X308330Y126620D02*
D03*
X308030Y132630D02*
D03*
X307650Y138480D02*
D03*
X307800Y145400D02*
D03*
X305520Y151940D02*
D03*
X306360Y159090D02*
D03*
X317530Y159240D02*
D03*
X312900Y153690D02*
D03*
X314720Y145930D02*
D03*
X314800Y139010D02*
D03*
X315180Y133460D02*
D03*
X317990Y127000D02*
D03*
X317610Y120920D02*
D03*
X325970Y118640D02*
D03*
X325290Y127300D02*
D03*
X322550Y137260D02*
D03*
X321490Y146620D02*
D03*
X325900Y156270D02*
D03*
X332510Y157950D02*
D03*
X336700Y116130D02*
D03*
X333880Y125560D02*
D03*
X344910Y125100D02*
D03*
X356010Y126620D02*
D03*
X352970Y135670D02*
D03*
X340040Y155510D02*
D03*
X285980Y137800D02*
D03*
X285830Y130040D02*
D03*
X276320Y150720D02*
D03*
X281880Y155060D02*
D03*
X283780Y149130D02*
D03*
X293050Y152240D02*
D03*
X301720Y155740D02*
D03*
X264010Y135360D02*
D03*
X264080Y129510D02*
D03*
X267810Y131030D02*
D03*
X263400Y122440D02*
D03*
Y115750D02*
D03*
X250930Y112100D02*
D03*
X275500Y107770D02*
D03*
X274480Y102100D02*
D03*
X273360Y96060D02*
D03*
X272900Y90670D02*
D03*
X282100Y90950D02*
D03*
X279590Y98480D02*
D03*
X271970Y76730D02*
D03*
X282380Y76260D02*
D03*
X275690Y71900D02*
D03*
X278660Y64370D02*
D03*
X282470Y70220D02*
D03*
X275500Y59720D02*
D03*
X285170Y58980D02*
D03*
X242420Y77660D02*
D03*
X252820Y77570D02*
D03*
X263510Y77840D02*
D03*
X182040Y76360D02*
D03*
X300198Y58712D02*
D03*
X288450Y110700D02*
D03*
X296030Y75180D02*
D03*
X136110Y56960D02*
D03*
M02*
